#VRML V2.0 utf8
# Dimension-derived visual approximation. Not a vendor mechanical model.
Transform { translation 0.000000 0.000000 0.110236 children [ Shape { appearance Appearance { material Material { diffuseColor .92 .9 .75 } } geometry Box { size 0.629921 0.314961 0.173228 } } ] }
Transform { translation -0.236220 -0.137795 0.019685 children [ Shape { appearance Appearance { material Material { diffuseColor .72 .72 .74 } } geometry Box { size 0.177165 0.118110 0.039370 } } ] }
Transform { translation -0.236220 0.137795 0.019685 children [ Shape { appearance Appearance { material Material { diffuseColor .72 .72 .74 } } geometry Box { size 0.177165 0.118110 0.039370 } } ] }
Transform { translation 0.236220 -0.137795 0.019685 children [ Shape { appearance Appearance { material Material { diffuseColor .72 .72 .74 } } geometry Box { size 0.177165 0.118110 0.039370 } } ] }
Transform { translation 0.236220 0.137795 0.019685 children [ Shape { appearance Appearance { material Material { diffuseColor .72 .72 .74 } } geometry Box { size 0.177165 0.118110 0.039370 } } ] }
Transform { translation -0.137795 0.000000 0.198819 children [ Shape { appearance Appearance { material Material { diffuseColor .14 .65 .16 } } geometry Box { size 0.188976 0.188976 0.007874 } } ] }
Transform { translation 0.137795 0.000000 0.198819 children [ Shape { appearance Appearance { material Material { diffuseColor .75 .10 .08 } } geometry Box { size 0.188976 0.188976 0.007874 } } ] }
