#VRML V2.0 utf8
# Dimension-derived visual approximation. Not a vendor mechanical model.
Transform { translation 0.000000 0.000000 0.031496 children [ Shape { appearance Appearance { material Material { diffuseColor .2 .2 .2 } } geometry Box { size 3.149606 3.149606 0.062992 } } ] }
Transform { translation 0.000000 0.000000 0.850394 children [ Shape { appearance Appearance { material Material { diffuseColor .92 .89 .75 } } geometry Box { size 3.937008 3.937008 1.574803 } } ] }
Transform { translation 0.000000 0.000000 1.643701 children [ Shape { appearance Appearance { material Material { diffuseColor .78 .66 .25 } } geometry Box { size 3.464567 3.464567 0.011811 } } ] }
Transform { translation 0.000000 0.000000 0.066929 children [ Shape { appearance Appearance { material Material { diffuseColor .72 .72 .74 } } geometry Box { size 3.858268 3.858268 0.007874 } } ] }
Transform { translation 0 -0.196850 0.259843 rotation 1 0 0 1.570796 children [ Shape { appearance Appearance { material Material { diffuseColor .72 .67 .4 } } geometry Cylinder { radius 0.159449 height 2.755906 } } ] }
