#VRML V2.0 utf8
# Visual approximation; pin marker corrected to footprint A1; see review/3d-model-sources.md.
Transform { translation 0.00000000 0.00000000 0.18503937 children [ Shape { appearance Appearance { material Material { diffuseColor 0.14 0.17 0.17 specularColor 0.2 0.2 0.2 shininess 0.25 } } geometry Box { size 1.77165354 1.77165354 0.37007874 } } ] }
Transform { translation -0.69291339 0.69291339 0.37401575 children [ Shape { appearance Appearance { material Material { diffuseColor 0.85 0.82 0.65 specularColor 0.2 0.2 0.2 shininess 0.25 } } geometry Box { size 0.12598425 0.12598425 0.00787402 } } ] }
