#VRML V2.0 utf8
# Dimension-derived visual approximation, not a vendor mechanical model. Original retained separately.
Transform { translation 0.00000000 0.00000000 0.27559055 children [ Shape { appearance Appearance { material Material { diffuseColor 0.72 0.74 0.73 specularColor 0.2 0.2 0.2 shininess 0.25 } } geometry Box { size 2.63779528 1.10236220 0.55118110 } } ] }
Transform { translation 0.31496063 -0.84645669 0.35433071 children [ Shape { appearance Appearance { material Material { diffuseColor 0.15 0.15 0.15 } } geometry Box { size 0.51181102 0.59055118 0.25590551 } } ] }
