#VRML V2.0 utf8
# Visual approximation only; see review/3d-model-sources.md.
Transform { translation 0.00000000 0.00000000 0.27559055 children [ Shape { appearance Appearance { material Material { diffuseColor 0.72 0.74 0.73 specularColor 0.2 0.2 0.2 shininess 0.25 } } geometry Box { size 2.63779528 1.10236220 0.55118110 } } ] }
Transform { translation -0.29527559 0.74803150 0.35433071 children [ Shape { appearance Appearance { material Material { diffuseColor 0.15 0.15 0.15 specularColor 0.2 0.2 0.2 shininess 0.25 } } geometry Box { size 0.64960630 0.39370079 0.25590551 } } ] }
