#VRML V2.0 utf8
# Dimension-derived visual approximation. Not a vendor mechanical model.
Transform { translation 0.000000 0.000000 0.049213 children [ Shape { appearance Appearance { material Material { diffuseColor .09 .09 .10 } } geometry Box { size 0.236220 0.118110 0.098425 } } ] }
Transform { translation -0.098425 0.000000 0.049213 children [ Shape { appearance Appearance { material Material { diffuseColor .72 .72 .74 } } geometry Box { size 0.047244 0.122047 0.098425 } } ] }
Transform { translation 0.098425 0.000000 0.049213 children [ Shape { appearance Appearance { material Material { diffuseColor .72 .72 .74 } } geometry Box { size 0.047244 0.122047 0.098425 } } ] }
