#VRML V2.0 utf8
# Dimension-derived visual approximation. Not a vendor mechanical model.
Transform { translation 0.000000 0.000000 0.216535 children [ Shape { appearance Appearance { material Material { diffuseColor .09 .09 .10 } } geometry Box { size 0.492126 0.787402 0.354331 } } ] }
Transform { translation -0.314961 -0.255906 0.047244 children [ Shape { appearance Appearance { material Material { diffuseColor .72 .72 .74 } } geometry Box { size 0.275591 0.118110 0.078740 } } ] }
Transform { translation -0.314961 0.000000 0.047244 children [ Shape { appearance Appearance { material Material { diffuseColor .72 .72 .74 } } geometry Box { size 0.275591 0.118110 0.078740 } } ] }
Transform { translation -0.314961 0.255906 0.047244 children [ Shape { appearance Appearance { material Material { diffuseColor .72 .72 .74 } } geometry Box { size 0.275591 0.118110 0.078740 } } ] }
Transform { translation 0.314961 -0.255906 0.047244 children [ Shape { appearance Appearance { material Material { diffuseColor .72 .72 .74 } } geometry Box { size 0.275591 0.118110 0.078740 } } ] }
Transform { translation 0.314961 0.000000 0.047244 children [ Shape { appearance Appearance { material Material { diffuseColor .72 .72 .74 } } geometry Box { size 0.275591 0.118110 0.078740 } } ] }
Transform { translation 0.314961 0.255906 0.047244 children [ Shape { appearance Appearance { material Material { diffuseColor .72 .72 .74 } } geometry Box { size 0.275591 0.118110 0.078740 } } ] }
