#VRML V2.0 utf8
# Dimension-derived visual approximation. Not a vendor mechanical model.
Transform { translation 0.000000 0.000000 0.240157 children [ Shape { appearance Appearance { material Material { diffuseColor .09 .09 .10 } } geometry Box { size 0.511811 1.141732 0.393701 } } ] }
Transform { translation -0.374016 0.374016 0.047244 children [ Shape { appearance Appearance { material Material { diffuseColor .72 .72 .74 } } geometry Box { size 0.255906 0.157480 0.086614 } } ] }
Transform { translation -0.374016 -0.374016 0.047244 children [ Shape { appearance Appearance { material Material { diffuseColor .72 .72 .74 } } geometry Box { size 0.255906 0.157480 0.086614 } } ] }
Transform { translation 0.374016 0.000000 0.047244 children [ Shape { appearance Appearance { material Material { diffuseColor .72 .72 .74 } } geometry Box { size 0.255906 0.157480 0.086614 } } ] }
