%TF.GenerationSoftware,KiCad,Pcbnew,9.0.2+dfsg-1*%
%TF.CreationDate,2026-10-04T02:34:44+08:00*%
%TF.ProjectId,controller,636f6e74-726f-46c6-9c65-722e6b696361,R3-S6-P6*%
%TF.SameCoordinates,Original*%
%TF.FileFunction,Soldermask,Top*%
%TF.FilePolarity,Negative*%
%FSLAX46Y46*%
G04 Gerber Fmt 4.6, Leading zero omitted, Abs format (unit mm)*
G04 Created by KiCad (PCBNEW 9.0.2+dfsg-1) date 2026-10-04 02:34:44*
%MOMM*%
%LPD*%
G01*
G04 APERTURE LIST*
G04 APERTURE END LIST*
G36*
X10740118Y2536451D02*
G01*
X10797865Y2497865D01*
X10836451Y2440118D01*
X10850000Y2372000D01*
X10850000Y628000D01*
X10836451Y559882D01*
X10797865Y502135D01*
X10740118Y463549D01*
X10672000Y450000D01*
X9328000Y450000D01*
X9259882Y463549D01*
X9202135Y502135D01*
X9163549Y559882D01*
X9150000Y628000D01*
X9150000Y2372000D01*
X9163549Y2440118D01*
X9202135Y2497865D01*
X9259882Y2536451D01*
X9328000Y2550000D01*
X10672000Y2550000D01*
X10740118Y2536451D01*
G37*
G36*
X12740118Y2536451D02*
G01*
X12797865Y2497865D01*
X12836451Y2440118D01*
X12850000Y2372000D01*
X12850000Y628000D01*
X12836451Y559882D01*
X12797865Y502135D01*
X12740118Y463549D01*
X12672000Y450000D01*
X11328000Y450000D01*
X11259882Y463549D01*
X11202135Y502135D01*
X11163549Y559882D01*
X11150000Y628000D01*
X11150000Y2372000D01*
X11163549Y2440118D01*
X11202135Y2497865D01*
X11259882Y2536451D01*
X11328000Y2550000D01*
X12672000Y2550000D01*
X12740118Y2536451D01*
G37*
G36*
X14740118Y2536451D02*
G01*
X14797865Y2497865D01*
X14836451Y2440118D01*
X14850000Y2372000D01*
X14850000Y628000D01*
X14836451Y559882D01*
X14797865Y502135D01*
X14740118Y463549D01*
X14672000Y450000D01*
X13328000Y450000D01*
X13259882Y463549D01*
X13202135Y502135D01*
X13163549Y559882D01*
X13150000Y628000D01*
X13150000Y2372000D01*
X13163549Y2440118D01*
X13202135Y2497865D01*
X13259882Y2536451D01*
X13328000Y2550000D01*
X14672000Y2550000D01*
X14740118Y2536451D01*
G37*
G36*
X16740118Y2536451D02*
G01*
X16797865Y2497865D01*
X16836451Y2440118D01*
X16850000Y2372000D01*
X16850000Y628000D01*
X16836451Y559882D01*
X16797865Y502135D01*
X16740118Y463549D01*
X16672000Y450000D01*
X15328000Y450000D01*
X15259882Y463549D01*
X15202135Y502135D01*
X15163549Y559882D01*
X15150000Y628000D01*
X15150000Y2372000D01*
X15163549Y2440118D01*
X15202135Y2497865D01*
X15259882Y2536451D01*
X15328000Y2550000D01*
X16672000Y2550000D01*
X16740118Y2536451D01*
G37*
G36*
X18740118Y2536451D02*
G01*
X18797865Y2497865D01*
X18836451Y2440118D01*
X18850000Y2372000D01*
X18850000Y628000D01*
X18836451Y559882D01*
X18797865Y502135D01*
X18740118Y463549D01*
X18672000Y450000D01*
X17328000Y450000D01*
X17259882Y463549D01*
X17202135Y502135D01*
X17163549Y559882D01*
X17150000Y628000D01*
X17150000Y2372000D01*
X17163549Y2440118D01*
X17202135Y2497865D01*
X17259882Y2536451D01*
X17328000Y2550000D01*
X18672000Y2550000D01*
X18740118Y2536451D01*
G37*
G36*
X20740118Y2536451D02*
G01*
X20797865Y2497865D01*
X20836451Y2440118D01*
X20850000Y2372000D01*
X20850000Y628000D01*
X20836451Y559882D01*
X20797865Y502135D01*
X20740118Y463549D01*
X20672000Y450000D01*
X19328000Y450000D01*
X19259882Y463549D01*
X19202135Y502135D01*
X19163549Y559882D01*
X19150000Y628000D01*
X19150000Y2372000D01*
X19163549Y2440118D01*
X19202135Y2497865D01*
X19259882Y2536451D01*
X19328000Y2550000D01*
X20672000Y2550000D01*
X20740118Y2536451D01*
G37*
G36*
X22740118Y2536451D02*
G01*
X22797865Y2497865D01*
X22836451Y2440118D01*
X22850000Y2372000D01*
X22850000Y628000D01*
X22836451Y559882D01*
X22797865Y502135D01*
X22740118Y463549D01*
X22672000Y450000D01*
X21328000Y450000D01*
X21259882Y463549D01*
X21202135Y502135D01*
X21163549Y559882D01*
X21150000Y628000D01*
X21150000Y2372000D01*
X21163549Y2440118D01*
X21202135Y2497865D01*
X21259882Y2536451D01*
X21328000Y2550000D01*
X22672000Y2550000D01*
X22740118Y2536451D01*
G37*
G36*
X24740118Y2536451D02*
G01*
X24797865Y2497865D01*
X24836451Y2440118D01*
X24850000Y2372000D01*
X24850000Y628000D01*
X24836451Y559882D01*
X24797865Y502135D01*
X24740118Y463549D01*
X24672000Y450000D01*
X23328000Y450000D01*
X23259882Y463549D01*
X23202135Y502135D01*
X23163549Y559882D01*
X23150000Y628000D01*
X23150000Y2372000D01*
X23163549Y2440118D01*
X23202135Y2497865D01*
X23259882Y2536451D01*
X23328000Y2550000D01*
X24672000Y2550000D01*
X24740118Y2536451D01*
G37*
G36*
X26740118Y2536451D02*
G01*
X26797865Y2497865D01*
X26836451Y2440118D01*
X26850000Y2372000D01*
X26850000Y628000D01*
X26836451Y559882D01*
X26797865Y502135D01*
X26740118Y463549D01*
X26672000Y450000D01*
X25328000Y450000D01*
X25259882Y463549D01*
X25202135Y502135D01*
X25163549Y559882D01*
X25150000Y628000D01*
X25150000Y2372000D01*
X25163549Y2440118D01*
X25202135Y2497865D01*
X25259882Y2536451D01*
X25328000Y2550000D01*
X26672000Y2550000D01*
X26740118Y2536451D01*
G37*
G36*
X28740118Y2536451D02*
G01*
X28797865Y2497865D01*
X28836451Y2440118D01*
X28850000Y2372000D01*
X28850000Y628000D01*
X28836451Y559882D01*
X28797865Y502135D01*
X28740118Y463549D01*
X28672000Y450000D01*
X27328000Y450000D01*
X27259882Y463549D01*
X27202135Y502135D01*
X27163549Y559882D01*
X27150000Y628000D01*
X27150000Y2372000D01*
X27163549Y2440118D01*
X27202135Y2497865D01*
X27259882Y2536451D01*
X27328000Y2550000D01*
X28672000Y2550000D01*
X28740118Y2536451D01*
G37*
G36*
X4006790Y4819607D02*
G01*
X4170952Y4766267D01*
X4324748Y4687904D01*
X4464393Y4586447D01*
X4586447Y4464393D01*
X4687904Y4324748D01*
X4766267Y4170952D01*
X4819607Y4006790D01*
X4846609Y3836305D01*
X4846609Y3663695D01*
X4819607Y3493210D01*
X4766267Y3329048D01*
X4687904Y3175252D01*
X4586447Y3035607D01*
X4464393Y2913553D01*
X4324748Y2812096D01*
X4170952Y2733733D01*
X4006790Y2680393D01*
X3836305Y2653391D01*
X3663695Y2653391D01*
X3493210Y2680393D01*
X3329048Y2733733D01*
X3175252Y2812096D01*
X3035607Y2913553D01*
X2913553Y3035607D01*
X2812096Y3175252D01*
X2733733Y3329048D01*
X2680393Y3493210D01*
X2653391Y3663695D01*
X2653391Y3836305D01*
X2680393Y4006790D01*
X2733733Y4170952D01*
X2812096Y4324748D01*
X2913553Y4464393D01*
X3035607Y4586447D01*
X3175252Y4687904D01*
X3329048Y4766267D01*
X3493210Y4819607D01*
X3663695Y4846609D01*
X3836305Y4846609D01*
X4006790Y4819607D01*
G37*
G36*
X34506790Y4819607D02*
G01*
X34670952Y4766267D01*
X34824748Y4687904D01*
X34964393Y4586447D01*
X35086447Y4464393D01*
X35187904Y4324748D01*
X35266267Y4170952D01*
X35319607Y4006790D01*
X35346609Y3836305D01*
X35346609Y3663695D01*
X35319607Y3493210D01*
X35266267Y3329048D01*
X35187904Y3175252D01*
X35086447Y3035607D01*
X34964393Y2913553D01*
X34824748Y2812096D01*
X34670952Y2733733D01*
X34506790Y2680393D01*
X34336305Y2653391D01*
X34163695Y2653391D01*
X33993210Y2680393D01*
X33829048Y2733733D01*
X33675252Y2812096D01*
X33535607Y2913553D01*
X33413553Y3035607D01*
X33312096Y3175252D01*
X33233733Y3329048D01*
X33180393Y3493210D01*
X33153391Y3663695D01*
X33153391Y3836305D01*
X33180393Y4006790D01*
X33233733Y4170952D01*
X33312096Y4324748D01*
X33413553Y4464393D01*
X33535607Y4586447D01*
X33675252Y4687904D01*
X33829048Y4766267D01*
X33993210Y4819607D01*
X34163695Y4846609D01*
X34336305Y4846609D01*
X34506790Y4819607D01*
G37*
G36*
X10740118Y6186451D02*
G01*
X10797865Y6147865D01*
X10836451Y6090118D01*
X10850000Y6022000D01*
X10850000Y4278000D01*
X10836451Y4209882D01*
X10797865Y4152135D01*
X10740118Y4113549D01*
X10672000Y4100000D01*
X9328000Y4100000D01*
X9259882Y4113549D01*
X9202135Y4152135D01*
X9163549Y4209882D01*
X9150000Y4278000D01*
X9150000Y6022000D01*
X9163549Y6090118D01*
X9202135Y6147865D01*
X9259882Y6186451D01*
X9328000Y6200000D01*
X10672000Y6200000D01*
X10740118Y6186451D01*
G37*
G36*
X12740118Y6186451D02*
G01*
X12797865Y6147865D01*
X12836451Y6090118D01*
X12850000Y6022000D01*
X12850000Y4278000D01*
X12836451Y4209882D01*
X12797865Y4152135D01*
X12740118Y4113549D01*
X12672000Y4100000D01*
X11328000Y4100000D01*
X11259882Y4113549D01*
X11202135Y4152135D01*
X11163549Y4209882D01*
X11150000Y4278000D01*
X11150000Y6022000D01*
X11163549Y6090118D01*
X11202135Y6147865D01*
X11259882Y6186451D01*
X11328000Y6200000D01*
X12672000Y6200000D01*
X12740118Y6186451D01*
G37*
G36*
X14740118Y6186451D02*
G01*
X14797865Y6147865D01*
X14836451Y6090118D01*
X14850000Y6022000D01*
X14850000Y4278000D01*
X14836451Y4209882D01*
X14797865Y4152135D01*
X14740118Y4113549D01*
X14672000Y4100000D01*
X13328000Y4100000D01*
X13259882Y4113549D01*
X13202135Y4152135D01*
X13163549Y4209882D01*
X13150000Y4278000D01*
X13150000Y6022000D01*
X13163549Y6090118D01*
X13202135Y6147865D01*
X13259882Y6186451D01*
X13328000Y6200000D01*
X14672000Y6200000D01*
X14740118Y6186451D01*
G37*
G36*
X16740118Y6186451D02*
G01*
X16797865Y6147865D01*
X16836451Y6090118D01*
X16850000Y6022000D01*
X16850000Y4278000D01*
X16836451Y4209882D01*
X16797865Y4152135D01*
X16740118Y4113549D01*
X16672000Y4100000D01*
X15328000Y4100000D01*
X15259882Y4113549D01*
X15202135Y4152135D01*
X15163549Y4209882D01*
X15150000Y4278000D01*
X15150000Y6022000D01*
X15163549Y6090118D01*
X15202135Y6147865D01*
X15259882Y6186451D01*
X15328000Y6200000D01*
X16672000Y6200000D01*
X16740118Y6186451D01*
G37*
G36*
X18740118Y6186451D02*
G01*
X18797865Y6147865D01*
X18836451Y6090118D01*
X18850000Y6022000D01*
X18850000Y4278000D01*
X18836451Y4209882D01*
X18797865Y4152135D01*
X18740118Y4113549D01*
X18672000Y4100000D01*
X17328000Y4100000D01*
X17259882Y4113549D01*
X17202135Y4152135D01*
X17163549Y4209882D01*
X17150000Y4278000D01*
X17150000Y6022000D01*
X17163549Y6090118D01*
X17202135Y6147865D01*
X17259882Y6186451D01*
X17328000Y6200000D01*
X18672000Y6200000D01*
X18740118Y6186451D01*
G37*
G36*
X20740118Y6186451D02*
G01*
X20797865Y6147865D01*
X20836451Y6090118D01*
X20850000Y6022000D01*
X20850000Y4278000D01*
X20836451Y4209882D01*
X20797865Y4152135D01*
X20740118Y4113549D01*
X20672000Y4100000D01*
X19328000Y4100000D01*
X19259882Y4113549D01*
X19202135Y4152135D01*
X19163549Y4209882D01*
X19150000Y4278000D01*
X19150000Y6022000D01*
X19163549Y6090118D01*
X19202135Y6147865D01*
X19259882Y6186451D01*
X19328000Y6200000D01*
X20672000Y6200000D01*
X20740118Y6186451D01*
G37*
G36*
X22790118Y6186451D02*
G01*
X22847865Y6147865D01*
X22886451Y6090118D01*
X22900000Y6022000D01*
X22900000Y4278000D01*
X22886451Y4209882D01*
X22847865Y4152135D01*
X22790118Y4113549D01*
X22722000Y4100000D01*
X21378000Y4100000D01*
X21309882Y4113549D01*
X21252135Y4152135D01*
X21213549Y4209882D01*
X21200000Y4278000D01*
X21200000Y6022000D01*
X21213549Y6090118D01*
X21252135Y6147865D01*
X21309882Y6186451D01*
X21378000Y6200000D01*
X22722000Y6200000D01*
X22790118Y6186451D01*
G37*
G36*
X24740118Y6186451D02*
G01*
X24797865Y6147865D01*
X24836451Y6090118D01*
X24850000Y6022000D01*
X24850000Y4278000D01*
X24836451Y4209882D01*
X24797865Y4152135D01*
X24740118Y4113549D01*
X24672000Y4100000D01*
X23328000Y4100000D01*
X23259882Y4113549D01*
X23202135Y4152135D01*
X23163549Y4209882D01*
X23150000Y4278000D01*
X23150000Y6022000D01*
X23163549Y6090118D01*
X23202135Y6147865D01*
X23259882Y6186451D01*
X23328000Y6200000D01*
X24672000Y6200000D01*
X24740118Y6186451D01*
G37*
G36*
X26740118Y6186451D02*
G01*
X26797865Y6147865D01*
X26836451Y6090118D01*
X26850000Y6022000D01*
X26850000Y4278000D01*
X26836451Y4209882D01*
X26797865Y4152135D01*
X26740118Y4113549D01*
X26672000Y4100000D01*
X25328000Y4100000D01*
X25259882Y4113549D01*
X25202135Y4152135D01*
X25163549Y4209882D01*
X25150000Y4278000D01*
X25150000Y6022000D01*
X25163549Y6090118D01*
X25202135Y6147865D01*
X25259882Y6186451D01*
X25328000Y6200000D01*
X26672000Y6200000D01*
X26740118Y6186451D01*
G37*
G36*
X28740118Y6186451D02*
G01*
X28797865Y6147865D01*
X28836451Y6090118D01*
X28850000Y6022000D01*
X28850000Y4278000D01*
X28836451Y4209882D01*
X28797865Y4152135D01*
X28740118Y4113549D01*
X28672000Y4100000D01*
X27328000Y4100000D01*
X27259882Y4113549D01*
X27202135Y4152135D01*
X27163549Y4209882D01*
X27150000Y4278000D01*
X27150000Y6022000D01*
X27163549Y6090118D01*
X27202135Y6147865D01*
X27259882Y6186451D01*
X27328000Y6200000D01*
X28672000Y6200000D01*
X28740118Y6186451D01*
G37*
G36*
X6936104Y6457873D02*
G01*
X7009099Y6409099D01*
X7057873Y6336104D01*
X7075000Y6250000D01*
X7075000Y5750000D01*
X7057873Y5663896D01*
X7009099Y5590901D01*
X6936104Y5542127D01*
X6850000Y5525000D01*
X6400000Y5525000D01*
X6313896Y5542127D01*
X6240901Y5590901D01*
X6192127Y5663896D01*
X6175000Y5750000D01*
X6175000Y6250000D01*
X6192127Y6336104D01*
X6240901Y6409099D01*
X6313896Y6457873D01*
X6400000Y6475000D01*
X6850000Y6475000D01*
X6936104Y6457873D01*
G37*
G36*
X8486104Y6457873D02*
G01*
X8559099Y6409099D01*
X8607873Y6336104D01*
X8625000Y6250000D01*
X8625000Y5750000D01*
X8607873Y5663896D01*
X8559099Y5590901D01*
X8486104Y5542127D01*
X8400000Y5525000D01*
X7950000Y5525000D01*
X7863896Y5542127D01*
X7790901Y5590901D01*
X7742127Y5663896D01*
X7725000Y5750000D01*
X7725000Y6250000D01*
X7742127Y6336104D01*
X7790901Y6409099D01*
X7863896Y6457873D01*
X7950000Y6475000D01*
X8400000Y6475000D01*
X8486104Y6457873D01*
G37*
G36*
X30036104Y7057873D02*
G01*
X30109099Y7009099D01*
X30157873Y6936104D01*
X30175000Y6850000D01*
X30175000Y6350000D01*
X30157873Y6263896D01*
X30109099Y6190901D01*
X30036104Y6142127D01*
X29950000Y6125000D01*
X29500000Y6125000D01*
X29413896Y6142127D01*
X29340901Y6190901D01*
X29292127Y6263896D01*
X29275000Y6350000D01*
X29275000Y6850000D01*
X29292127Y6936104D01*
X29340901Y7009099D01*
X29413896Y7057873D01*
X29500000Y7075000D01*
X29950000Y7075000D01*
X30036104Y7057873D01*
G37*
G36*
X31586104Y7057873D02*
G01*
X31659099Y7009099D01*
X31707873Y6936104D01*
X31725000Y6850000D01*
X31725000Y6350000D01*
X31707873Y6263896D01*
X31659099Y6190901D01*
X31586104Y6142127D01*
X31500000Y6125000D01*
X31050000Y6125000D01*
X30963896Y6142127D01*
X30890901Y6190901D01*
X30842127Y6263896D01*
X30825000Y6350000D01*
X30825000Y6850000D01*
X30842127Y6936104D01*
X30890901Y7009099D01*
X30963896Y7057873D01*
X31050000Y7075000D01*
X31500000Y7075000D01*
X31586104Y7057873D01*
G37*
G36*
X9786104Y8007873D02*
G01*
X9859099Y7959099D01*
X9907873Y7886104D01*
X9925000Y7800000D01*
X9925000Y7300000D01*
X9907873Y7213896D01*
X9859099Y7140901D01*
X9786104Y7092127D01*
X9700000Y7075000D01*
X9250000Y7075000D01*
X9163896Y7092127D01*
X9090901Y7140901D01*
X9042127Y7213896D01*
X9025000Y7300000D01*
X9025000Y7800000D01*
X9042127Y7886104D01*
X9090901Y7959099D01*
X9163896Y8007873D01*
X9250000Y8025000D01*
X9700000Y8025000D01*
X9786104Y8007873D01*
G37*
G36*
X11336104Y8007873D02*
G01*
X11409099Y7959099D01*
X11457873Y7886104D01*
X11475000Y7800000D01*
X11475000Y7300000D01*
X11457873Y7213896D01*
X11409099Y7140901D01*
X11336104Y7092127D01*
X11250000Y7075000D01*
X10800000Y7075000D01*
X10713896Y7092127D01*
X10640901Y7140901D01*
X10592127Y7213896D01*
X10575000Y7300000D01*
X10575000Y7800000D01*
X10592127Y7886104D01*
X10640901Y7959099D01*
X10713896Y8007873D01*
X10800000Y8025000D01*
X11250000Y8025000D01*
X11336104Y8007873D01*
G37*
G36*
X6520985Y7793339D02*
G01*
X6549372Y7774372D01*
X6568339Y7745985D01*
X6575000Y7712500D01*
X6575000Y7262500D01*
X6568339Y7229015D01*
X6549372Y7200628D01*
X6520985Y7181661D01*
X6487500Y7175000D01*
X6312500Y7175000D01*
X6279015Y7181661D01*
X6250628Y7200628D01*
X6231661Y7229015D01*
X6225000Y7262500D01*
X6225000Y7712500D01*
X6231661Y7745985D01*
X6250628Y7774372D01*
X6279015Y7793339D01*
X6312500Y7800000D01*
X6487500Y7800000D01*
X6520985Y7793339D01*
G37*
G36*
X7020985Y7793339D02*
G01*
X7049372Y7774372D01*
X7068339Y7745985D01*
X7075000Y7712500D01*
X7075000Y7262500D01*
X7068339Y7229015D01*
X7049372Y7200628D01*
X7020985Y7181661D01*
X6987500Y7175000D01*
X6812500Y7175000D01*
X6779015Y7181661D01*
X6750628Y7200628D01*
X6731661Y7229015D01*
X6725000Y7262500D01*
X6725000Y7712500D01*
X6731661Y7745985D01*
X6750628Y7774372D01*
X6779015Y7793339D01*
X6812500Y7800000D01*
X6987500Y7800000D01*
X7020985Y7793339D01*
G37*
G36*
X7520985Y7793339D02*
G01*
X7549372Y7774372D01*
X7568339Y7745985D01*
X7575000Y7712500D01*
X7575000Y7262500D01*
X7568339Y7229015D01*
X7549372Y7200628D01*
X7520985Y7181661D01*
X7487500Y7175000D01*
X7312500Y7175000D01*
X7279015Y7181661D01*
X7250628Y7200628D01*
X7231661Y7229015D01*
X7225000Y7262500D01*
X7225000Y7712500D01*
X7231661Y7745985D01*
X7250628Y7774372D01*
X7279015Y7793339D01*
X7312500Y7800000D01*
X7487500Y7800000D01*
X7520985Y7793339D01*
G37*
G36*
X22536104Y8157873D02*
G01*
X22609099Y8109099D01*
X22657873Y8036104D01*
X22675000Y7950000D01*
X22675000Y7450000D01*
X22657873Y7363896D01*
X22609099Y7290901D01*
X22536104Y7242127D01*
X22450000Y7225000D01*
X22000000Y7225000D01*
X21913896Y7242127D01*
X21840901Y7290901D01*
X21792127Y7363896D01*
X21775000Y7450000D01*
X21775000Y7950000D01*
X21792127Y8036104D01*
X21840901Y8109099D01*
X21913896Y8157873D01*
X22000000Y8175000D01*
X22450000Y8175000D01*
X22536104Y8157873D01*
G37*
G36*
X24086104Y8157873D02*
G01*
X24159099Y8109099D01*
X24207873Y8036104D01*
X24225000Y7950000D01*
X24225000Y7450000D01*
X24207873Y7363896D01*
X24159099Y7290901D01*
X24086104Y7242127D01*
X24000000Y7225000D01*
X23550000Y7225000D01*
X23463896Y7242127D01*
X23390901Y7290901D01*
X23342127Y7363896D01*
X23325000Y7450000D01*
X23325000Y7950000D01*
X23342127Y8036104D01*
X23390901Y8109099D01*
X23463896Y8157873D01*
X23550000Y8175000D01*
X24000000Y8175000D01*
X24086104Y8157873D01*
G37*
G36*
X2936104Y8157873D02*
G01*
X3009099Y8109099D01*
X3057873Y8036104D01*
X3075000Y7950000D01*
X3075000Y7500000D01*
X3057873Y7413896D01*
X3009099Y7340901D01*
X2936104Y7292127D01*
X2850000Y7275000D01*
X2350000Y7275000D01*
X2263896Y7292127D01*
X2190901Y7340901D01*
X2142127Y7413896D01*
X2125000Y7500000D01*
X2125000Y7950000D01*
X2142127Y8036104D01*
X2190901Y8109099D01*
X2263896Y8157873D01*
X2350000Y8175000D01*
X2850000Y8175000D01*
X2936104Y8157873D01*
G37*
G36*
X5995985Y7818339D02*
G01*
X6024372Y7799372D01*
X6043339Y7770985D01*
X6050000Y7737500D01*
X6050000Y7562500D01*
X6043339Y7529015D01*
X6024372Y7500628D01*
X5995985Y7481661D01*
X5962500Y7475000D01*
X5512500Y7475000D01*
X5479015Y7481661D01*
X5450628Y7500628D01*
X5431661Y7529015D01*
X5425000Y7562500D01*
X5425000Y7737500D01*
X5431661Y7770985D01*
X5450628Y7799372D01*
X5479015Y7818339D01*
X5512500Y7825000D01*
X5962500Y7825000D01*
X5995985Y7818339D01*
G37*
G36*
X8320985Y7818339D02*
G01*
X8349372Y7799372D01*
X8368339Y7770985D01*
X8375000Y7737500D01*
X8375000Y7562500D01*
X8368339Y7529015D01*
X8349372Y7500628D01*
X8320985Y7481661D01*
X8287500Y7475000D01*
X7837500Y7475000D01*
X7804015Y7481661D01*
X7775628Y7500628D01*
X7756661Y7529015D01*
X7750000Y7562500D01*
X7750000Y7737500D01*
X7756661Y7770985D01*
X7775628Y7799372D01*
X7804015Y7818339D01*
X7837500Y7825000D01*
X8287500Y7825000D01*
X8320985Y7818339D01*
G37*
G36*
X5995985Y8318339D02*
G01*
X6024372Y8299372D01*
X6043339Y8270985D01*
X6050000Y8237500D01*
X6050000Y8062500D01*
X6043339Y8029015D01*
X6024372Y8000628D01*
X5995985Y7981661D01*
X5962500Y7975000D01*
X5512500Y7975000D01*
X5479015Y7981661D01*
X5450628Y8000628D01*
X5431661Y8029015D01*
X5425000Y8062500D01*
X5425000Y8237500D01*
X5431661Y8270985D01*
X5450628Y8299372D01*
X5479015Y8318339D01*
X5512500Y8325000D01*
X5962500Y8325000D01*
X5995985Y8318339D01*
G37*
G36*
X8320985Y8318339D02*
G01*
X8349372Y8299372D01*
X8368339Y8270985D01*
X8375000Y8237500D01*
X8375000Y8062500D01*
X8368339Y8029015D01*
X8349372Y8000628D01*
X8320985Y7981661D01*
X8287500Y7975000D01*
X7837500Y7975000D01*
X7804015Y7981661D01*
X7775628Y8000628D01*
X7756661Y8029015D01*
X7750000Y8062500D01*
X7750000Y8237500D01*
X7756661Y8270985D01*
X7775628Y8299372D01*
X7804015Y8318339D01*
X7837500Y8325000D01*
X8287500Y8325000D01*
X8320985Y8318339D01*
G37*
G36*
X27869134Y8791194D02*
G01*
X27885355Y8780355D01*
X27896194Y8764134D01*
X27900000Y8745000D01*
X27900000Y8175000D01*
X27896194Y8155866D01*
X27885355Y8139645D01*
X27869134Y8128806D01*
X27850000Y8125000D01*
X27650000Y8125000D01*
X27630866Y8128806D01*
X27614645Y8139645D01*
X27603806Y8155866D01*
X27600000Y8175000D01*
X27600000Y8745000D01*
X27603806Y8764134D01*
X27614645Y8780355D01*
X27630866Y8791194D01*
X27650000Y8795000D01*
X27850000Y8795000D01*
X27869134Y8791194D01*
G37*
G36*
X28369134Y8791194D02*
G01*
X28385355Y8780355D01*
X28396194Y8764134D01*
X28400000Y8745000D01*
X28400000Y8175000D01*
X28396194Y8155866D01*
X28385355Y8139645D01*
X28369134Y8128806D01*
X28350000Y8125000D01*
X28150000Y8125000D01*
X28130866Y8128806D01*
X28114645Y8139645D01*
X28103806Y8155866D01*
X28100000Y8175000D01*
X28100000Y8745000D01*
X28103806Y8764134D01*
X28114645Y8780355D01*
X28130866Y8791194D01*
X28150000Y8795000D01*
X28350000Y8795000D01*
X28369134Y8791194D01*
G37*
G36*
X28869134Y8791194D02*
G01*
X28885355Y8780355D01*
X28896194Y8764134D01*
X28900000Y8745000D01*
X28900000Y8175000D01*
X28896194Y8155866D01*
X28885355Y8139645D01*
X28869134Y8128806D01*
X28850000Y8125000D01*
X28650000Y8125000D01*
X28630866Y8128806D01*
X28614645Y8139645D01*
X28603806Y8155866D01*
X28600000Y8175000D01*
X28600000Y8745000D01*
X28603806Y8764134D01*
X28614645Y8780355D01*
X28630866Y8791194D01*
X28650000Y8795000D01*
X28850000Y8795000D01*
X28869134Y8791194D01*
G37*
G36*
X29369134Y8791194D02*
G01*
X29385355Y8780355D01*
X29396194Y8764134D01*
X29400000Y8745000D01*
X29400000Y8175000D01*
X29396194Y8155866D01*
X29385355Y8139645D01*
X29369134Y8128806D01*
X29350000Y8125000D01*
X29150000Y8125000D01*
X29130866Y8128806D01*
X29114645Y8139645D01*
X29103806Y8155866D01*
X29100000Y8175000D01*
X29100000Y8745000D01*
X29103806Y8764134D01*
X29114645Y8780355D01*
X29130866Y8791194D01*
X29150000Y8795000D01*
X29350000Y8795000D01*
X29369134Y8791194D01*
G37*
G36*
X31532403Y8838582D02*
G01*
X31581066Y8806066D01*
X31613582Y8757403D01*
X31625000Y8700000D01*
X31625000Y8400000D01*
X31613582Y8342597D01*
X31581066Y8293934D01*
X31532403Y8261418D01*
X31475000Y8250000D01*
X30450000Y8250000D01*
X30392597Y8261418D01*
X30343934Y8293934D01*
X30311418Y8342597D01*
X30300000Y8400000D01*
X30300000Y8700000D01*
X30311418Y8757403D01*
X30343934Y8806066D01*
X30392597Y8838582D01*
X30450000Y8850000D01*
X31475000Y8850000D01*
X31532403Y8838582D01*
G37*
G36*
X33807403Y8838582D02*
G01*
X33856066Y8806066D01*
X33888582Y8757403D01*
X33900000Y8700000D01*
X33900000Y8400000D01*
X33888582Y8342597D01*
X33856066Y8293934D01*
X33807403Y8261418D01*
X33750000Y8250000D01*
X32725000Y8250000D01*
X32667597Y8261418D01*
X32618934Y8293934D01*
X32586418Y8342597D01*
X32575000Y8400000D01*
X32575000Y8700000D01*
X32586418Y8757403D01*
X32618934Y8806066D01*
X32667597Y8838582D01*
X32725000Y8850000D01*
X33750000Y8850000D01*
X33807403Y8838582D01*
G37*
G36*
X5995985Y8818339D02*
G01*
X6024372Y8799372D01*
X6043339Y8770985D01*
X6050000Y8737500D01*
X6050000Y8562500D01*
X6043339Y8529015D01*
X6024372Y8500628D01*
X5995985Y8481661D01*
X5962500Y8475000D01*
X5512500Y8475000D01*
X5479015Y8481661D01*
X5450628Y8500628D01*
X5431661Y8529015D01*
X5425000Y8562500D01*
X5425000Y8737500D01*
X5431661Y8770985D01*
X5450628Y8799372D01*
X5479015Y8818339D01*
X5512500Y8825000D01*
X5962500Y8825000D01*
X5995985Y8818339D01*
G37*
G36*
X8320985Y8818339D02*
G01*
X8349372Y8799372D01*
X8368339Y8770985D01*
X8375000Y8737500D01*
X8375000Y8562500D01*
X8368339Y8529015D01*
X8349372Y8500628D01*
X8320985Y8481661D01*
X8287500Y8475000D01*
X7837500Y8475000D01*
X7804015Y8481661D01*
X7775628Y8500628D01*
X7756661Y8529015D01*
X7750000Y8562500D01*
X7750000Y8737500D01*
X7756661Y8770985D01*
X7775628Y8799372D01*
X7804015Y8818339D01*
X7837500Y8825000D01*
X8287500Y8825000D01*
X8320985Y8818339D01*
G37*
G36*
X2936104Y9707873D02*
G01*
X3009099Y9659099D01*
X3057873Y9586104D01*
X3075000Y9500000D01*
X3075000Y9050000D01*
X3057873Y8963896D01*
X3009099Y8890901D01*
X2936104Y8842127D01*
X2850000Y8825000D01*
X2350000Y8825000D01*
X2263896Y8842127D01*
X2190901Y8890901D01*
X2142127Y8963896D01*
X2125000Y9050000D01*
X2125000Y9500000D01*
X2142127Y9586104D01*
X2190901Y9659099D01*
X2263896Y9707873D01*
X2350000Y9725000D01*
X2850000Y9725000D01*
X2936104Y9707873D01*
G37*
G36*
X5995985Y9318339D02*
G01*
X6024372Y9299372D01*
X6043339Y9270985D01*
X6050000Y9237500D01*
X6050000Y9062500D01*
X6043339Y9029015D01*
X6024372Y9000628D01*
X5995985Y8981661D01*
X5962500Y8975000D01*
X5512500Y8975000D01*
X5479015Y8981661D01*
X5450628Y9000628D01*
X5431661Y9029015D01*
X5425000Y9062500D01*
X5425000Y9237500D01*
X5431661Y9270985D01*
X5450628Y9299372D01*
X5479015Y9318339D01*
X5512500Y9325000D01*
X5962500Y9325000D01*
X5995985Y9318339D01*
G37*
G36*
X8320985Y9318339D02*
G01*
X8349372Y9299372D01*
X8368339Y9270985D01*
X8375000Y9237500D01*
X8375000Y9062500D01*
X8368339Y9029015D01*
X8349372Y9000628D01*
X8320985Y8981661D01*
X8287500Y8975000D01*
X7837500Y8975000D01*
X7804015Y8981661D01*
X7775628Y9000628D01*
X7756661Y9029015D01*
X7750000Y9062500D01*
X7750000Y9237500D01*
X7756661Y9270985D01*
X7775628Y9299372D01*
X7804015Y9318339D01*
X7837500Y9325000D01*
X8287500Y9325000D01*
X8320985Y9318339D01*
G37*
G36*
X6520985Y9618339D02*
G01*
X6549372Y9599372D01*
X6568339Y9570985D01*
X6575000Y9537500D01*
X6575000Y9087500D01*
X6568339Y9054015D01*
X6549372Y9025628D01*
X6520985Y9006661D01*
X6487500Y9000000D01*
X6312500Y9000000D01*
X6279015Y9006661D01*
X6250628Y9025628D01*
X6231661Y9054015D01*
X6225000Y9087500D01*
X6225000Y9537500D01*
X6231661Y9570985D01*
X6250628Y9599372D01*
X6279015Y9618339D01*
X6312500Y9625000D01*
X6487500Y9625000D01*
X6520985Y9618339D01*
G37*
G36*
X7020985Y9618339D02*
G01*
X7049372Y9599372D01*
X7068339Y9570985D01*
X7075000Y9537500D01*
X7075000Y9087500D01*
X7068339Y9054015D01*
X7049372Y9025628D01*
X7020985Y9006661D01*
X6987500Y9000000D01*
X6812500Y9000000D01*
X6779015Y9006661D01*
X6750628Y9025628D01*
X6731661Y9054015D01*
X6725000Y9087500D01*
X6725000Y9537500D01*
X6731661Y9570985D01*
X6750628Y9599372D01*
X6779015Y9618339D01*
X6812500Y9625000D01*
X6987500Y9625000D01*
X7020985Y9618339D01*
G37*
G36*
X7520985Y9618339D02*
G01*
X7549372Y9599372D01*
X7568339Y9570985D01*
X7575000Y9537500D01*
X7575000Y9087500D01*
X7568339Y9054015D01*
X7549372Y9025628D01*
X7520985Y9006661D01*
X7487500Y9000000D01*
X7312500Y9000000D01*
X7279015Y9006661D01*
X7250628Y9025628D01*
X7231661Y9054015D01*
X7225000Y9087500D01*
X7225000Y9537500D01*
X7231661Y9570985D01*
X7250628Y9599372D01*
X7279015Y9618339D01*
X7312500Y9625000D01*
X7487500Y9625000D01*
X7520985Y9618339D01*
G37*
G36*
X12103701Y10619291D02*
G01*
X12128033Y10603033D01*
X12144291Y10578701D01*
X12150000Y10550000D01*
X12150000Y9100000D01*
X12144291Y9071299D01*
X12128033Y9046967D01*
X12103701Y9030709D01*
X12075000Y9025000D01*
X11925000Y9025000D01*
X11896299Y9030709D01*
X11871967Y9046967D01*
X11855709Y9071299D01*
X11850000Y9100000D01*
X11850000Y10550000D01*
X11855709Y10578701D01*
X11871967Y10603033D01*
X11896299Y10619291D01*
X11925000Y10625000D01*
X12075000Y10625000D01*
X12103701Y10619291D01*
G37*
G36*
X12603701Y10619291D02*
G01*
X12628033Y10603033D01*
X12644291Y10578701D01*
X12650000Y10550000D01*
X12650000Y9100000D01*
X12644291Y9071299D01*
X12628033Y9046967D01*
X12603701Y9030709D01*
X12575000Y9025000D01*
X12425000Y9025000D01*
X12396299Y9030709D01*
X12371967Y9046967D01*
X12355709Y9071299D01*
X12350000Y9100000D01*
X12350000Y10550000D01*
X12355709Y10578701D01*
X12371967Y10603033D01*
X12396299Y10619291D01*
X12425000Y10625000D01*
X12575000Y10625000D01*
X12603701Y10619291D01*
G37*
G36*
X13103701Y10619291D02*
G01*
X13128033Y10603033D01*
X13144291Y10578701D01*
X13150000Y10550000D01*
X13150000Y9100000D01*
X13144291Y9071299D01*
X13128033Y9046967D01*
X13103701Y9030709D01*
X13075000Y9025000D01*
X12925000Y9025000D01*
X12896299Y9030709D01*
X12871967Y9046967D01*
X12855709Y9071299D01*
X12850000Y9100000D01*
X12850000Y10550000D01*
X12855709Y10578701D01*
X12871967Y10603033D01*
X12896299Y10619291D01*
X12925000Y10625000D01*
X13075000Y10625000D01*
X13103701Y10619291D01*
G37*
G36*
X13603701Y10619291D02*
G01*
X13628033Y10603033D01*
X13644291Y10578701D01*
X13650000Y10550000D01*
X13650000Y9100000D01*
X13644291Y9071299D01*
X13628033Y9046967D01*
X13603701Y9030709D01*
X13575000Y9025000D01*
X13425000Y9025000D01*
X13396299Y9030709D01*
X13371967Y9046967D01*
X13355709Y9071299D01*
X13350000Y9100000D01*
X13350000Y10550000D01*
X13355709Y10578701D01*
X13371967Y10603033D01*
X13396299Y10619291D01*
X13425000Y10625000D01*
X13575000Y10625000D01*
X13603701Y10619291D01*
G37*
G36*
X14103701Y10619291D02*
G01*
X14128033Y10603033D01*
X14144291Y10578701D01*
X14150000Y10550000D01*
X14150000Y9100000D01*
X14144291Y9071299D01*
X14128033Y9046967D01*
X14103701Y9030709D01*
X14075000Y9025000D01*
X13925000Y9025000D01*
X13896299Y9030709D01*
X13871967Y9046967D01*
X13855709Y9071299D01*
X13850000Y9100000D01*
X13850000Y10550000D01*
X13855709Y10578701D01*
X13871967Y10603033D01*
X13896299Y10619291D01*
X13925000Y10625000D01*
X14075000Y10625000D01*
X14103701Y10619291D01*
G37*
G36*
X14603701Y10619291D02*
G01*
X14628033Y10603033D01*
X14644291Y10578701D01*
X14650000Y10550000D01*
X14650000Y9100000D01*
X14644291Y9071299D01*
X14628033Y9046967D01*
X14603701Y9030709D01*
X14575000Y9025000D01*
X14425000Y9025000D01*
X14396299Y9030709D01*
X14371967Y9046967D01*
X14355709Y9071299D01*
X14350000Y9100000D01*
X14350000Y10550000D01*
X14355709Y10578701D01*
X14371967Y10603033D01*
X14396299Y10619291D01*
X14425000Y10625000D01*
X14575000Y10625000D01*
X14603701Y10619291D01*
G37*
G36*
X15103701Y10619291D02*
G01*
X15128033Y10603033D01*
X15144291Y10578701D01*
X15150000Y10550000D01*
X15150000Y9100000D01*
X15144291Y9071299D01*
X15128033Y9046967D01*
X15103701Y9030709D01*
X15075000Y9025000D01*
X14925000Y9025000D01*
X14896299Y9030709D01*
X14871967Y9046967D01*
X14855709Y9071299D01*
X14850000Y9100000D01*
X14850000Y10550000D01*
X14855709Y10578701D01*
X14871967Y10603033D01*
X14896299Y10619291D01*
X14925000Y10625000D01*
X15075000Y10625000D01*
X15103701Y10619291D01*
G37*
G36*
X15603701Y10619291D02*
G01*
X15628033Y10603033D01*
X15644291Y10578701D01*
X15650000Y10550000D01*
X15650000Y9100000D01*
X15644291Y9071299D01*
X15628033Y9046967D01*
X15603701Y9030709D01*
X15575000Y9025000D01*
X15425000Y9025000D01*
X15396299Y9030709D01*
X15371967Y9046967D01*
X15355709Y9071299D01*
X15350000Y9100000D01*
X15350000Y10550000D01*
X15355709Y10578701D01*
X15371967Y10603033D01*
X15396299Y10619291D01*
X15425000Y10625000D01*
X15575000Y10625000D01*
X15603701Y10619291D01*
G37*
G36*
X16103701Y10619291D02*
G01*
X16128033Y10603033D01*
X16144291Y10578701D01*
X16150000Y10550000D01*
X16150000Y9100000D01*
X16144291Y9071299D01*
X16128033Y9046967D01*
X16103701Y9030709D01*
X16075000Y9025000D01*
X15925000Y9025000D01*
X15896299Y9030709D01*
X15871967Y9046967D01*
X15855709Y9071299D01*
X15850000Y9100000D01*
X15850000Y10550000D01*
X15855709Y10578701D01*
X15871967Y10603033D01*
X15896299Y10619291D01*
X15925000Y10625000D01*
X16075000Y10625000D01*
X16103701Y10619291D01*
G37*
G36*
X16603701Y10619291D02*
G01*
X16628033Y10603033D01*
X16644291Y10578701D01*
X16650000Y10550000D01*
X16650000Y9100000D01*
X16644291Y9071299D01*
X16628033Y9046967D01*
X16603701Y9030709D01*
X16575000Y9025000D01*
X16425000Y9025000D01*
X16396299Y9030709D01*
X16371967Y9046967D01*
X16355709Y9071299D01*
X16350000Y9100000D01*
X16350000Y10550000D01*
X16355709Y10578701D01*
X16371967Y10603033D01*
X16396299Y10619291D01*
X16425000Y10625000D01*
X16575000Y10625000D01*
X16603701Y10619291D01*
G37*
G36*
X17103701Y10619291D02*
G01*
X17128033Y10603033D01*
X17144291Y10578701D01*
X17150000Y10550000D01*
X17150000Y9100000D01*
X17144291Y9071299D01*
X17128033Y9046967D01*
X17103701Y9030709D01*
X17075000Y9025000D01*
X16925000Y9025000D01*
X16896299Y9030709D01*
X16871967Y9046967D01*
X16855709Y9071299D01*
X16850000Y9100000D01*
X16850000Y10550000D01*
X16855709Y10578701D01*
X16871967Y10603033D01*
X16896299Y10619291D01*
X16925000Y10625000D01*
X17075000Y10625000D01*
X17103701Y10619291D01*
G37*
G36*
X17603701Y10619291D02*
G01*
X17628033Y10603033D01*
X17644291Y10578701D01*
X17650000Y10550000D01*
X17650000Y9100000D01*
X17644291Y9071299D01*
X17628033Y9046967D01*
X17603701Y9030709D01*
X17575000Y9025000D01*
X17425000Y9025000D01*
X17396299Y9030709D01*
X17371967Y9046967D01*
X17355709Y9071299D01*
X17350000Y9100000D01*
X17350000Y10550000D01*
X17355709Y10578701D01*
X17371967Y10603033D01*
X17396299Y10619291D01*
X17425000Y10625000D01*
X17575000Y10625000D01*
X17603701Y10619291D01*
G37*
G36*
X18103701Y10619291D02*
G01*
X18128033Y10603033D01*
X18144291Y10578701D01*
X18150000Y10550000D01*
X18150000Y9100000D01*
X18144291Y9071299D01*
X18128033Y9046967D01*
X18103701Y9030709D01*
X18075000Y9025000D01*
X17925000Y9025000D01*
X17896299Y9030709D01*
X17871967Y9046967D01*
X17855709Y9071299D01*
X17850000Y9100000D01*
X17850000Y10550000D01*
X17855709Y10578701D01*
X17871967Y10603033D01*
X17896299Y10619291D01*
X17925000Y10625000D01*
X18075000Y10625000D01*
X18103701Y10619291D01*
G37*
G36*
X18603701Y10619291D02*
G01*
X18628033Y10603033D01*
X18644291Y10578701D01*
X18650000Y10550000D01*
X18650000Y9100000D01*
X18644291Y9071299D01*
X18628033Y9046967D01*
X18603701Y9030709D01*
X18575000Y9025000D01*
X18425000Y9025000D01*
X18396299Y9030709D01*
X18371967Y9046967D01*
X18355709Y9071299D01*
X18350000Y9100000D01*
X18350000Y10550000D01*
X18355709Y10578701D01*
X18371967Y10603033D01*
X18396299Y10619291D01*
X18425000Y10625000D01*
X18575000Y10625000D01*
X18603701Y10619291D01*
G37*
G36*
X19103701Y10619291D02*
G01*
X19128033Y10603033D01*
X19144291Y10578701D01*
X19150000Y10550000D01*
X19150000Y9100000D01*
X19144291Y9071299D01*
X19128033Y9046967D01*
X19103701Y9030709D01*
X19075000Y9025000D01*
X18925000Y9025000D01*
X18896299Y9030709D01*
X18871967Y9046967D01*
X18855709Y9071299D01*
X18850000Y9100000D01*
X18850000Y10550000D01*
X18855709Y10578701D01*
X18871967Y10603033D01*
X18896299Y10619291D01*
X18925000Y10625000D01*
X19075000Y10625000D01*
X19103701Y10619291D01*
G37*
G36*
X19603701Y10619291D02*
G01*
X19628033Y10603033D01*
X19644291Y10578701D01*
X19650000Y10550000D01*
X19650000Y9100000D01*
X19644291Y9071299D01*
X19628033Y9046967D01*
X19603701Y9030709D01*
X19575000Y9025000D01*
X19425000Y9025000D01*
X19396299Y9030709D01*
X19371967Y9046967D01*
X19355709Y9071299D01*
X19350000Y9100000D01*
X19350000Y10550000D01*
X19355709Y10578701D01*
X19371967Y10603033D01*
X19396299Y10619291D01*
X19425000Y10625000D01*
X19575000Y10625000D01*
X19603701Y10619291D01*
G37*
G36*
X20103701Y10619291D02*
G01*
X20128033Y10603033D01*
X20144291Y10578701D01*
X20150000Y10550000D01*
X20150000Y9100000D01*
X20144291Y9071299D01*
X20128033Y9046967D01*
X20103701Y9030709D01*
X20075000Y9025000D01*
X19925000Y9025000D01*
X19896299Y9030709D01*
X19871967Y9046967D01*
X19855709Y9071299D01*
X19850000Y9100000D01*
X19850000Y10550000D01*
X19855709Y10578701D01*
X19871967Y10603033D01*
X19896299Y10619291D01*
X19925000Y10625000D01*
X20075000Y10625000D01*
X20103701Y10619291D01*
G37*
G36*
X20603701Y10619291D02*
G01*
X20628033Y10603033D01*
X20644291Y10578701D01*
X20650000Y10550000D01*
X20650000Y9100000D01*
X20644291Y9071299D01*
X20628033Y9046967D01*
X20603701Y9030709D01*
X20575000Y9025000D01*
X20425000Y9025000D01*
X20396299Y9030709D01*
X20371967Y9046967D01*
X20355709Y9071299D01*
X20350000Y9100000D01*
X20350000Y10550000D01*
X20355709Y10578701D01*
X20371967Y10603033D01*
X20396299Y10619291D01*
X20425000Y10625000D01*
X20575000Y10625000D01*
X20603701Y10619291D01*
G37*
G36*
X21103701Y10619291D02*
G01*
X21128033Y10603033D01*
X21144291Y10578701D01*
X21150000Y10550000D01*
X21150000Y9100000D01*
X21144291Y9071299D01*
X21128033Y9046967D01*
X21103701Y9030709D01*
X21075000Y9025000D01*
X20925000Y9025000D01*
X20896299Y9030709D01*
X20871967Y9046967D01*
X20855709Y9071299D01*
X20850000Y9100000D01*
X20850000Y10550000D01*
X20855709Y10578701D01*
X20871967Y10603033D01*
X20896299Y10619291D01*
X20925000Y10625000D01*
X21075000Y10625000D01*
X21103701Y10619291D01*
G37*
G36*
X21603701Y10619291D02*
G01*
X21628033Y10603033D01*
X21644291Y10578701D01*
X21650000Y10550000D01*
X21650000Y9100000D01*
X21644291Y9071299D01*
X21628033Y9046967D01*
X21603701Y9030709D01*
X21575000Y9025000D01*
X21425000Y9025000D01*
X21396299Y9030709D01*
X21371967Y9046967D01*
X21355709Y9071299D01*
X21350000Y9100000D01*
X21350000Y10550000D01*
X21355709Y10578701D01*
X21371967Y10603033D01*
X21396299Y10619291D01*
X21425000Y10625000D01*
X21575000Y10625000D01*
X21603701Y10619291D01*
G37*
G36*
X22103701Y10619291D02*
G01*
X22128033Y10603033D01*
X22144291Y10578701D01*
X22150000Y10550000D01*
X22150000Y9100000D01*
X22144291Y9071299D01*
X22128033Y9046967D01*
X22103701Y9030709D01*
X22075000Y9025000D01*
X21925000Y9025000D01*
X21896299Y9030709D01*
X21871967Y9046967D01*
X21855709Y9071299D01*
X21850000Y9100000D01*
X21850000Y10550000D01*
X21855709Y10578701D01*
X21871967Y10603033D01*
X21896299Y10619291D01*
X21925000Y10625000D01*
X22075000Y10625000D01*
X22103701Y10619291D01*
G37*
G36*
X22603701Y10619291D02*
G01*
X22628033Y10603033D01*
X22644291Y10578701D01*
X22650000Y10550000D01*
X22650000Y9100000D01*
X22644291Y9071299D01*
X22628033Y9046967D01*
X22603701Y9030709D01*
X22575000Y9025000D01*
X22425000Y9025000D01*
X22396299Y9030709D01*
X22371967Y9046967D01*
X22355709Y9071299D01*
X22350000Y9100000D01*
X22350000Y10550000D01*
X22355709Y10578701D01*
X22371967Y10603033D01*
X22396299Y10619291D01*
X22425000Y10625000D01*
X22575000Y10625000D01*
X22603701Y10619291D01*
G37*
G36*
X23103701Y10619291D02*
G01*
X23128033Y10603033D01*
X23144291Y10578701D01*
X23150000Y10550000D01*
X23150000Y9100000D01*
X23144291Y9071299D01*
X23128033Y9046967D01*
X23103701Y9030709D01*
X23075000Y9025000D01*
X22925000Y9025000D01*
X22896299Y9030709D01*
X22871967Y9046967D01*
X22855709Y9071299D01*
X22850000Y9100000D01*
X22850000Y10550000D01*
X22855709Y10578701D01*
X22871967Y10603033D01*
X22896299Y10619291D01*
X22925000Y10625000D01*
X23075000Y10625000D01*
X23103701Y10619291D01*
G37*
G36*
X23603701Y10619291D02*
G01*
X23628033Y10603033D01*
X23644291Y10578701D01*
X23650000Y10550000D01*
X23650000Y9100000D01*
X23644291Y9071299D01*
X23628033Y9046967D01*
X23603701Y9030709D01*
X23575000Y9025000D01*
X23425000Y9025000D01*
X23396299Y9030709D01*
X23371967Y9046967D01*
X23355709Y9071299D01*
X23350000Y9100000D01*
X23350000Y10550000D01*
X23355709Y10578701D01*
X23371967Y10603033D01*
X23396299Y10619291D01*
X23425000Y10625000D01*
X23575000Y10625000D01*
X23603701Y10619291D01*
G37*
G36*
X24103701Y10619291D02*
G01*
X24128033Y10603033D01*
X24144291Y10578701D01*
X24150000Y10550000D01*
X24150000Y9100000D01*
X24144291Y9071299D01*
X24128033Y9046967D01*
X24103701Y9030709D01*
X24075000Y9025000D01*
X23925000Y9025000D01*
X23896299Y9030709D01*
X23871967Y9046967D01*
X23855709Y9071299D01*
X23850000Y9100000D01*
X23850000Y10550000D01*
X23855709Y10578701D01*
X23871967Y10603033D01*
X23896299Y10619291D01*
X23925000Y10625000D01*
X24075000Y10625000D01*
X24103701Y10619291D01*
G37*
G36*
X31532403Y9788582D02*
G01*
X31581066Y9756066D01*
X31613582Y9707403D01*
X31625000Y9650000D01*
X31625000Y9350000D01*
X31613582Y9292597D01*
X31581066Y9243934D01*
X31532403Y9211418D01*
X31475000Y9200000D01*
X30450000Y9200000D01*
X30392597Y9211418D01*
X30343934Y9243934D01*
X30311418Y9292597D01*
X30300000Y9350000D01*
X30300000Y9650000D01*
X30311418Y9707403D01*
X30343934Y9756066D01*
X30392597Y9788582D01*
X30450000Y9800000D01*
X31475000Y9800000D01*
X31532403Y9788582D01*
G37*
G36*
X33807403Y9788582D02*
G01*
X33856066Y9756066D01*
X33888582Y9707403D01*
X33900000Y9650000D01*
X33900000Y9350000D01*
X33888582Y9292597D01*
X33856066Y9243934D01*
X33807403Y9211418D01*
X33750000Y9200000D01*
X32725000Y9200000D01*
X32667597Y9211418D01*
X32618934Y9243934D01*
X32586418Y9292597D01*
X32575000Y9350000D01*
X32575000Y9650000D01*
X32586418Y9707403D01*
X32618934Y9756066D01*
X32667597Y9788582D01*
X32725000Y9800000D01*
X33750000Y9800000D01*
X33807403Y9788582D01*
G37*
G36*
X27869134Y10271194D02*
G01*
X27885355Y10260355D01*
X27896194Y10244134D01*
X27900000Y10225000D01*
X27900000Y9655000D01*
X27896194Y9635866D01*
X27885355Y9619645D01*
X27869134Y9608806D01*
X27850000Y9605000D01*
X27650000Y9605000D01*
X27630866Y9608806D01*
X27614645Y9619645D01*
X27603806Y9635866D01*
X27600000Y9655000D01*
X27600000Y10225000D01*
X27603806Y10244134D01*
X27614645Y10260355D01*
X27630866Y10271194D01*
X27650000Y10275000D01*
X27850000Y10275000D01*
X27869134Y10271194D01*
G37*
G36*
X28369134Y10271194D02*
G01*
X28385355Y10260355D01*
X28396194Y10244134D01*
X28400000Y10225000D01*
X28400000Y9655000D01*
X28396194Y9635866D01*
X28385355Y9619645D01*
X28369134Y9608806D01*
X28350000Y9605000D01*
X28150000Y9605000D01*
X28130866Y9608806D01*
X28114645Y9619645D01*
X28103806Y9635866D01*
X28100000Y9655000D01*
X28100000Y10225000D01*
X28103806Y10244134D01*
X28114645Y10260355D01*
X28130866Y10271194D01*
X28150000Y10275000D01*
X28350000Y10275000D01*
X28369134Y10271194D01*
G37*
G36*
X28869134Y10271194D02*
G01*
X28885355Y10260355D01*
X28896194Y10244134D01*
X28900000Y10225000D01*
X28900000Y9655000D01*
X28896194Y9635866D01*
X28885355Y9619645D01*
X28869134Y9608806D01*
X28850000Y9605000D01*
X28650000Y9605000D01*
X28630866Y9608806D01*
X28614645Y9619645D01*
X28603806Y9635866D01*
X28600000Y9655000D01*
X28600000Y10225000D01*
X28603806Y10244134D01*
X28614645Y10260355D01*
X28630866Y10271194D01*
X28650000Y10275000D01*
X28850000Y10275000D01*
X28869134Y10271194D01*
G37*
G36*
X29369134Y10271194D02*
G01*
X29385355Y10260355D01*
X29396194Y10244134D01*
X29400000Y10225000D01*
X29400000Y9655000D01*
X29396194Y9635866D01*
X29385355Y9619645D01*
X29369134Y9608806D01*
X29350000Y9605000D01*
X29150000Y9605000D01*
X29130866Y9608806D01*
X29114645Y9619645D01*
X29103806Y9635866D01*
X29100000Y9655000D01*
X29100000Y10225000D01*
X29103806Y10244134D01*
X29114645Y10260355D01*
X29130866Y10271194D01*
X29150000Y10275000D01*
X29350000Y10275000D01*
X29369134Y10271194D01*
G37*
G36*
X31532403Y10738582D02*
G01*
X31581066Y10706066D01*
X31613582Y10657403D01*
X31625000Y10600000D01*
X31625000Y10300000D01*
X31613582Y10242597D01*
X31581066Y10193934D01*
X31532403Y10161418D01*
X31475000Y10150000D01*
X30450000Y10150000D01*
X30392597Y10161418D01*
X30343934Y10193934D01*
X30311418Y10242597D01*
X30300000Y10300000D01*
X30300000Y10600000D01*
X30311418Y10657403D01*
X30343934Y10706066D01*
X30392597Y10738582D01*
X30450000Y10750000D01*
X31475000Y10750000D01*
X31532403Y10738582D01*
G37*
G36*
X33807403Y10738582D02*
G01*
X33856066Y10706066D01*
X33888582Y10657403D01*
X33900000Y10600000D01*
X33900000Y10300000D01*
X33888582Y10242597D01*
X33856066Y10193934D01*
X33807403Y10161418D01*
X33750000Y10150000D01*
X32725000Y10150000D01*
X32667597Y10161418D01*
X32618934Y10193934D01*
X32586418Y10242597D01*
X32575000Y10300000D01*
X32575000Y10600000D01*
X32586418Y10657403D01*
X32618934Y10706066D01*
X32667597Y10738582D01*
X32725000Y10750000D01*
X33750000Y10750000D01*
X33807403Y10738582D01*
G37*
G36*
X2551537Y11259776D02*
G01*
X2616421Y11216421D01*
X2659776Y11151537D01*
X2675000Y11075000D01*
X2675000Y10525000D01*
X2659776Y10448463D01*
X2616421Y10383579D01*
X2551537Y10340224D01*
X2475000Y10325000D01*
X2075000Y10325000D01*
X1998463Y10340224D01*
X1933579Y10383579D01*
X1890224Y10448463D01*
X1875000Y10525000D01*
X1875000Y11075000D01*
X1890224Y11151537D01*
X1933579Y11216421D01*
X1998463Y11259776D01*
X2075000Y11275000D01*
X2475000Y11275000D01*
X2551537Y11259776D01*
G37*
G36*
X4201537Y11259776D02*
G01*
X4266421Y11216421D01*
X4309776Y11151537D01*
X4325000Y11075000D01*
X4325000Y10525000D01*
X4309776Y10448463D01*
X4266421Y10383579D01*
X4201537Y10340224D01*
X4125000Y10325000D01*
X3725000Y10325000D01*
X3648463Y10340224D01*
X3583579Y10383579D01*
X3540224Y10448463D01*
X3525000Y10525000D01*
X3525000Y11075000D01*
X3540224Y11151537D01*
X3583579Y11216421D01*
X3648463Y11259776D01*
X3725000Y11275000D01*
X4125000Y11275000D01*
X4201537Y11259776D01*
G37*
G36*
X7601537Y11559776D02*
G01*
X7666421Y11516421D01*
X7709776Y11451537D01*
X7725000Y11375000D01*
X7725000Y10975000D01*
X7709776Y10898463D01*
X7666421Y10833579D01*
X7601537Y10790224D01*
X7525000Y10775000D01*
X6975000Y10775000D01*
X6898463Y10790224D01*
X6833579Y10833579D01*
X6790224Y10898463D01*
X6775000Y10975000D01*
X6775000Y11375000D01*
X6790224Y11451537D01*
X6833579Y11516421D01*
X6898463Y11559776D01*
X6975000Y11575000D01*
X7525000Y11575000D01*
X7601537Y11559776D01*
G37*
G36*
X35250000Y11150000D02*
G01*
X34700000Y11150000D01*
X34700000Y11950000D01*
X35250000Y11950000D01*
X35250000Y11150000D01*
G37*
G36*
X36500000Y11150000D02*
G01*
X35950000Y11150000D01*
X35950000Y11950000D01*
X36500000Y11950000D01*
X36500000Y11150000D01*
G37*
G36*
X11078701Y11644291D02*
G01*
X11103033Y11628033D01*
X11119291Y11603701D01*
X11125000Y11575000D01*
X11125000Y11425000D01*
X11119291Y11396299D01*
X11103033Y11371967D01*
X11078701Y11355709D01*
X11050000Y11350000D01*
X9600000Y11350000D01*
X9571299Y11355709D01*
X9546967Y11371967D01*
X9530709Y11396299D01*
X9525000Y11425000D01*
X9525000Y11575000D01*
X9530709Y11603701D01*
X9546967Y11628033D01*
X9571299Y11644291D01*
X9600000Y11650000D01*
X11050000Y11650000D01*
X11078701Y11644291D01*
G37*
G36*
X26428701Y11644291D02*
G01*
X26453033Y11628033D01*
X26469291Y11603701D01*
X26475000Y11575000D01*
X26475000Y11425000D01*
X26469291Y11396299D01*
X26453033Y11371967D01*
X26428701Y11355709D01*
X26400000Y11350000D01*
X24950000Y11350000D01*
X24921299Y11355709D01*
X24896967Y11371967D01*
X24880709Y11396299D01*
X24875000Y11425000D01*
X24875000Y11575000D01*
X24880709Y11603701D01*
X24896967Y11628033D01*
X24921299Y11644291D01*
X24950000Y11650000D01*
X26400000Y11650000D01*
X26428701Y11644291D01*
G37*
G36*
X11078701Y12144291D02*
G01*
X11103033Y12128033D01*
X11119291Y12103701D01*
X11125000Y12075000D01*
X11125000Y11925000D01*
X11119291Y11896299D01*
X11103033Y11871967D01*
X11078701Y11855709D01*
X11050000Y11850000D01*
X9600000Y11850000D01*
X9571299Y11855709D01*
X9546967Y11871967D01*
X9530709Y11896299D01*
X9525000Y11925000D01*
X9525000Y12075000D01*
X9530709Y12103701D01*
X9546967Y12128033D01*
X9571299Y12144291D01*
X9600000Y12150000D01*
X11050000Y12150000D01*
X11078701Y12144291D01*
G37*
G36*
X26428701Y12144291D02*
G01*
X26453033Y12128033D01*
X26469291Y12103701D01*
X26475000Y12075000D01*
X26475000Y11925000D01*
X26469291Y11896299D01*
X26453033Y11871967D01*
X26428701Y11855709D01*
X26400000Y11850000D01*
X24950000Y11850000D01*
X24921299Y11855709D01*
X24896967Y11871967D01*
X24880709Y11896299D01*
X24875000Y11925000D01*
X24875000Y12075000D01*
X24880709Y12103701D01*
X24896967Y12128033D01*
X24921299Y12144291D01*
X24950000Y12150000D01*
X26400000Y12150000D01*
X26428701Y12144291D01*
G37*
G36*
X11078701Y12644291D02*
G01*
X11103033Y12628033D01*
X11119291Y12603701D01*
X11125000Y12575000D01*
X11125000Y12425000D01*
X11119291Y12396299D01*
X11103033Y12371967D01*
X11078701Y12355709D01*
X11050000Y12350000D01*
X9600000Y12350000D01*
X9571299Y12355709D01*
X9546967Y12371967D01*
X9530709Y12396299D01*
X9525000Y12425000D01*
X9525000Y12575000D01*
X9530709Y12603701D01*
X9546967Y12628033D01*
X9571299Y12644291D01*
X9600000Y12650000D01*
X11050000Y12650000D01*
X11078701Y12644291D01*
G37*
G36*
X26428701Y12644291D02*
G01*
X26453033Y12628033D01*
X26469291Y12603701D01*
X26475000Y12575000D01*
X26475000Y12425000D01*
X26469291Y12396299D01*
X26453033Y12371967D01*
X26428701Y12355709D01*
X26400000Y12350000D01*
X24950000Y12350000D01*
X24921299Y12355709D01*
X24896967Y12371967D01*
X24880709Y12396299D01*
X24875000Y12425000D01*
X24875000Y12575000D01*
X24880709Y12603701D01*
X24896967Y12628033D01*
X24921299Y12644291D01*
X24950000Y12650000D01*
X26400000Y12650000D01*
X26428701Y12644291D01*
G37*
G36*
X7601537Y13209776D02*
G01*
X7666421Y13166421D01*
X7709776Y13101537D01*
X7725000Y13025000D01*
X7725000Y12625000D01*
X7709776Y12548463D01*
X7666421Y12483579D01*
X7601537Y12440224D01*
X7525000Y12425000D01*
X6975000Y12425000D01*
X6898463Y12440224D01*
X6833579Y12483579D01*
X6790224Y12548463D01*
X6775000Y12625000D01*
X6775000Y13025000D01*
X6790224Y13101537D01*
X6833579Y13166421D01*
X6898463Y13209776D01*
X6975000Y13225000D01*
X7525000Y13225000D01*
X7601537Y13209776D01*
G37*
G36*
X11078701Y13144291D02*
G01*
X11103033Y13128033D01*
X11119291Y13103701D01*
X11125000Y13075000D01*
X11125000Y12925000D01*
X11119291Y12896299D01*
X11103033Y12871967D01*
X11078701Y12855709D01*
X11050000Y12850000D01*
X9600000Y12850000D01*
X9571299Y12855709D01*
X9546967Y12871967D01*
X9530709Y12896299D01*
X9525000Y12925000D01*
X9525000Y13075000D01*
X9530709Y13103701D01*
X9546967Y13128033D01*
X9571299Y13144291D01*
X9600000Y13150000D01*
X11050000Y13150000D01*
X11078701Y13144291D01*
G37*
G36*
X26428701Y13144291D02*
G01*
X26453033Y13128033D01*
X26469291Y13103701D01*
X26475000Y13075000D01*
X26475000Y12925000D01*
X26469291Y12896299D01*
X26453033Y12871967D01*
X26428701Y12855709D01*
X26400000Y12850000D01*
X24950000Y12850000D01*
X24921299Y12855709D01*
X24896967Y12871967D01*
X24880709Y12896299D01*
X24875000Y12925000D01*
X24875000Y13075000D01*
X24880709Y13103701D01*
X24896967Y13128033D01*
X24921299Y13144291D01*
X24950000Y13150000D01*
X26400000Y13150000D01*
X26428701Y13144291D01*
G37*
G36*
X28551537Y13959776D02*
G01*
X28616421Y13916421D01*
X28659776Y13851537D01*
X28675000Y13775000D01*
X28675000Y13375000D01*
X28659776Y13298463D01*
X28616421Y13233579D01*
X28551537Y13190224D01*
X28475000Y13175000D01*
X27925000Y13175000D01*
X27848463Y13190224D01*
X27783579Y13233579D01*
X27740224Y13298463D01*
X27725000Y13375000D01*
X27725000Y13775000D01*
X27740224Y13851537D01*
X27783579Y13916421D01*
X27848463Y13959776D01*
X27925000Y13975000D01*
X28475000Y13975000D01*
X28551537Y13959776D01*
G37*
G36*
X31835263Y14175722D02*
G01*
X31961342Y14141940D01*
X32074381Y14076677D01*
X32166677Y13984381D01*
X32231940Y13871342D01*
X32265722Y13745263D01*
X32265722Y13614737D01*
X32231940Y13488658D01*
X32166677Y13375619D01*
X32074381Y13283323D01*
X31961342Y13218060D01*
X31835263Y13184278D01*
X31770000Y13180000D01*
X31768363Y13180000D01*
X30671637Y13180000D01*
X30670000Y13180000D01*
X30604737Y13184278D01*
X30478658Y13218060D01*
X30365619Y13283323D01*
X30273323Y13375619D01*
X30208060Y13488658D01*
X30174278Y13614737D01*
X30174278Y13745263D01*
X30208060Y13871342D01*
X30273323Y13984381D01*
X30365619Y14076677D01*
X30478658Y14141940D01*
X30604737Y14175722D01*
X30670000Y14180000D01*
X31770000Y14180000D01*
X31835263Y14175722D01*
G37*
G36*
X35865263Y14175722D02*
G01*
X35991342Y14141940D01*
X36104381Y14076677D01*
X36196677Y13984381D01*
X36261940Y13871342D01*
X36295722Y13745263D01*
X36295722Y13614737D01*
X36261940Y13488658D01*
X36196677Y13375619D01*
X36104381Y13283323D01*
X35991342Y13218060D01*
X35865263Y13184278D01*
X35800000Y13180000D01*
X35798363Y13180000D01*
X35001637Y13180000D01*
X35000000Y13180000D01*
X34934737Y13184278D01*
X34808658Y13218060D01*
X34695619Y13283323D01*
X34603323Y13375619D01*
X34538060Y13488658D01*
X34504278Y13614737D01*
X34504278Y13745263D01*
X34538060Y13871342D01*
X34603323Y13984381D01*
X34695619Y14076677D01*
X34808658Y14141940D01*
X34934737Y14175722D01*
X35000000Y14180000D01*
X35800000Y14180000D01*
X35865263Y14175722D01*
G37*
G36*
X11078701Y13644291D02*
G01*
X11103033Y13628033D01*
X11119291Y13603701D01*
X11125000Y13575000D01*
X11125000Y13425000D01*
X11119291Y13396299D01*
X11103033Y13371967D01*
X11078701Y13355709D01*
X11050000Y13350000D01*
X9600000Y13350000D01*
X9571299Y13355709D01*
X9546967Y13371967D01*
X9530709Y13396299D01*
X9525000Y13425000D01*
X9525000Y13575000D01*
X9530709Y13603701D01*
X9546967Y13628033D01*
X9571299Y13644291D01*
X9600000Y13650000D01*
X11050000Y13650000D01*
X11078701Y13644291D01*
G37*
G36*
X26428701Y13644291D02*
G01*
X26453033Y13628033D01*
X26469291Y13603701D01*
X26475000Y13575000D01*
X26475000Y13425000D01*
X26469291Y13396299D01*
X26453033Y13371967D01*
X26428701Y13355709D01*
X26400000Y13350000D01*
X24950000Y13350000D01*
X24921299Y13355709D01*
X24896967Y13371967D01*
X24880709Y13396299D01*
X24875000Y13425000D01*
X24875000Y13575000D01*
X24880709Y13603701D01*
X24896967Y13628033D01*
X24921299Y13644291D01*
X24950000Y13650000D01*
X26400000Y13650000D01*
X26428701Y13644291D01*
G37*
G36*
X11078701Y14144291D02*
G01*
X11103033Y14128033D01*
X11119291Y14103701D01*
X11125000Y14075000D01*
X11125000Y13925000D01*
X11119291Y13896299D01*
X11103033Y13871967D01*
X11078701Y13855709D01*
X11050000Y13850000D01*
X9600000Y13850000D01*
X9571299Y13855709D01*
X9546967Y13871967D01*
X9530709Y13896299D01*
X9525000Y13925000D01*
X9525000Y14075000D01*
X9530709Y14103701D01*
X9546967Y14128033D01*
X9571299Y14144291D01*
X9600000Y14150000D01*
X11050000Y14150000D01*
X11078701Y14144291D01*
G37*
G36*
X26428701Y14144291D02*
G01*
X26453033Y14128033D01*
X26469291Y14103701D01*
X26475000Y14075000D01*
X26475000Y13925000D01*
X26469291Y13896299D01*
X26453033Y13871967D01*
X26428701Y13855709D01*
X26400000Y13850000D01*
X24950000Y13850000D01*
X24921299Y13855709D01*
X24896967Y13871967D01*
X24880709Y13896299D01*
X24875000Y13925000D01*
X24875000Y14075000D01*
X24880709Y14103701D01*
X24896967Y14128033D01*
X24921299Y14144291D01*
X24950000Y14150000D01*
X26400000Y14150000D01*
X26428701Y14144291D01*
G37*
G36*
X11078701Y14644291D02*
G01*
X11103033Y14628033D01*
X11119291Y14603701D01*
X11125000Y14575000D01*
X11125000Y14425000D01*
X11119291Y14396299D01*
X11103033Y14371967D01*
X11078701Y14355709D01*
X11050000Y14350000D01*
X9600000Y14350000D01*
X9571299Y14355709D01*
X9546967Y14371967D01*
X9530709Y14396299D01*
X9525000Y14425000D01*
X9525000Y14575000D01*
X9530709Y14603701D01*
X9546967Y14628033D01*
X9571299Y14644291D01*
X9600000Y14650000D01*
X11050000Y14650000D01*
X11078701Y14644291D01*
G37*
G36*
X26428701Y14644291D02*
G01*
X26453033Y14628033D01*
X26469291Y14603701D01*
X26475000Y14575000D01*
X26475000Y14425000D01*
X26469291Y14396299D01*
X26453033Y14371967D01*
X26428701Y14355709D01*
X26400000Y14350000D01*
X24950000Y14350000D01*
X24921299Y14355709D01*
X24896967Y14371967D01*
X24880709Y14396299D01*
X24875000Y14425000D01*
X24875000Y14575000D01*
X24880709Y14603701D01*
X24896967Y14628033D01*
X24921299Y14644291D01*
X24950000Y14650000D01*
X26400000Y14650000D01*
X26428701Y14644291D01*
G37*
G36*
X31030000Y14450000D02*
G01*
X29580000Y14450000D01*
X29580000Y15050000D01*
X31030000Y15050000D01*
X31030000Y14450000D01*
G37*
G36*
X31874372Y15410261D02*
G01*
X31947847Y15367840D01*
X32007840Y15307847D01*
X32050261Y15234372D01*
X32072220Y15152421D01*
X32072220Y15067579D01*
X32050261Y14985628D01*
X32007840Y14912153D01*
X31947847Y14852160D01*
X31874372Y14809739D01*
X31792421Y14787780D01*
X31707579Y14787780D01*
X31625628Y14809739D01*
X31552153Y14852160D01*
X31492160Y14912153D01*
X31449739Y14985628D01*
X31427780Y15067579D01*
X31427780Y15152421D01*
X31449739Y15234372D01*
X31492160Y15307847D01*
X31552153Y15367840D01*
X31625628Y15410261D01*
X31707579Y15432220D01*
X31792421Y15432220D01*
X31874372Y15410261D01*
G37*
G36*
X28551537Y15609776D02*
G01*
X28616421Y15566421D01*
X28659776Y15501537D01*
X28675000Y15425000D01*
X28675000Y15025000D01*
X28659776Y14948463D01*
X28616421Y14883579D01*
X28551537Y14840224D01*
X28475000Y14825000D01*
X27925000Y14825000D01*
X27848463Y14840224D01*
X27783579Y14883579D01*
X27740224Y14948463D01*
X27725000Y15025000D01*
X27725000Y15425000D01*
X27740224Y15501537D01*
X27783579Y15566421D01*
X27848463Y15609776D01*
X27925000Y15625000D01*
X28475000Y15625000D01*
X28551537Y15609776D01*
G37*
G36*
X11078701Y15144291D02*
G01*
X11103033Y15128033D01*
X11119291Y15103701D01*
X11125000Y15075000D01*
X11125000Y14925000D01*
X11119291Y14896299D01*
X11103033Y14871967D01*
X11078701Y14855709D01*
X11050000Y14850000D01*
X9600000Y14850000D01*
X9571299Y14855709D01*
X9546967Y14871967D01*
X9530709Y14896299D01*
X9525000Y14925000D01*
X9525000Y15075000D01*
X9530709Y15103701D01*
X9546967Y15128033D01*
X9571299Y15144291D01*
X9600000Y15150000D01*
X11050000Y15150000D01*
X11078701Y15144291D01*
G37*
G36*
X26428701Y15144291D02*
G01*
X26453033Y15128033D01*
X26469291Y15103701D01*
X26475000Y15075000D01*
X26475000Y14925000D01*
X26469291Y14896299D01*
X26453033Y14871967D01*
X26428701Y14855709D01*
X26400000Y14850000D01*
X24950000Y14850000D01*
X24921299Y14855709D01*
X24896967Y14871967D01*
X24880709Y14896299D01*
X24875000Y14925000D01*
X24875000Y15075000D01*
X24880709Y15103701D01*
X24896967Y15128033D01*
X24921299Y15144291D01*
X24950000Y15150000D01*
X26400000Y15150000D01*
X26428701Y15144291D01*
G37*
G36*
X31030000Y15250000D02*
G01*
X29580000Y15250000D01*
X29580000Y15850000D01*
X31030000Y15850000D01*
X31030000Y15250000D01*
G37*
G36*
X11078701Y15644291D02*
G01*
X11103033Y15628033D01*
X11119291Y15603701D01*
X11125000Y15575000D01*
X11125000Y15425000D01*
X11119291Y15396299D01*
X11103033Y15371967D01*
X11078701Y15355709D01*
X11050000Y15350000D01*
X9600000Y15350000D01*
X9571299Y15355709D01*
X9546967Y15371967D01*
X9530709Y15396299D01*
X9525000Y15425000D01*
X9525000Y15575000D01*
X9530709Y15603701D01*
X9546967Y15628033D01*
X9571299Y15644291D01*
X9600000Y15650000D01*
X11050000Y15650000D01*
X11078701Y15644291D01*
G37*
G36*
X26428701Y15644291D02*
G01*
X26453033Y15628033D01*
X26469291Y15603701D01*
X26475000Y15575000D01*
X26475000Y15425000D01*
X26469291Y15396299D01*
X26453033Y15371967D01*
X26428701Y15355709D01*
X26400000Y15350000D01*
X24950000Y15350000D01*
X24921299Y15355709D01*
X24896967Y15371967D01*
X24880709Y15396299D01*
X24875000Y15425000D01*
X24875000Y15575000D01*
X24880709Y15603701D01*
X24896967Y15628033D01*
X24921299Y15644291D01*
X24950000Y15650000D01*
X26400000Y15650000D01*
X26428701Y15644291D01*
G37*
G36*
X11078701Y16144291D02*
G01*
X11103033Y16128033D01*
X11119291Y16103701D01*
X11125000Y16075000D01*
X11125000Y15925000D01*
X11119291Y15896299D01*
X11103033Y15871967D01*
X11078701Y15855709D01*
X11050000Y15850000D01*
X9600000Y15850000D01*
X9571299Y15855709D01*
X9546967Y15871967D01*
X9530709Y15896299D01*
X9525000Y15925000D01*
X9525000Y16075000D01*
X9530709Y16103701D01*
X9546967Y16128033D01*
X9571299Y16144291D01*
X9600000Y16150000D01*
X11050000Y16150000D01*
X11078701Y16144291D01*
G37*
G36*
X26428701Y16144291D02*
G01*
X26453033Y16128033D01*
X26469291Y16103701D01*
X26475000Y16075000D01*
X26475000Y15925000D01*
X26469291Y15896299D01*
X26453033Y15871967D01*
X26428701Y15855709D01*
X26400000Y15850000D01*
X24950000Y15850000D01*
X24921299Y15855709D01*
X24896967Y15871967D01*
X24880709Y15896299D01*
X24875000Y15925000D01*
X24875000Y16075000D01*
X24880709Y16103701D01*
X24896967Y16128033D01*
X24921299Y16144291D01*
X24950000Y16150000D01*
X26400000Y16150000D01*
X26428701Y16144291D01*
G37*
G36*
X31030000Y16100000D02*
G01*
X29580000Y16100000D01*
X29580000Y16400000D01*
X31030000Y16400000D01*
X31030000Y16100000D01*
G37*
G36*
X11078701Y16644291D02*
G01*
X11103033Y16628033D01*
X11119291Y16603701D01*
X11125000Y16575000D01*
X11125000Y16425000D01*
X11119291Y16396299D01*
X11103033Y16371967D01*
X11078701Y16355709D01*
X11050000Y16350000D01*
X9600000Y16350000D01*
X9571299Y16355709D01*
X9546967Y16371967D01*
X9530709Y16396299D01*
X9525000Y16425000D01*
X9525000Y16575000D01*
X9530709Y16603701D01*
X9546967Y16628033D01*
X9571299Y16644291D01*
X9600000Y16650000D01*
X11050000Y16650000D01*
X11078701Y16644291D01*
G37*
G36*
X26428701Y16644291D02*
G01*
X26453033Y16628033D01*
X26469291Y16603701D01*
X26475000Y16575000D01*
X26475000Y16425000D01*
X26469291Y16396299D01*
X26453033Y16371967D01*
X26428701Y16355709D01*
X26400000Y16350000D01*
X24950000Y16350000D01*
X24921299Y16355709D01*
X24896967Y16371967D01*
X24880709Y16396299D01*
X24875000Y16425000D01*
X24875000Y16575000D01*
X24880709Y16603701D01*
X24896967Y16628033D01*
X24921299Y16644291D01*
X24950000Y16650000D01*
X26400000Y16650000D01*
X26428701Y16644291D01*
G37*
G36*
X31030000Y16600000D02*
G01*
X29580000Y16600000D01*
X29580000Y16900000D01*
X31030000Y16900000D01*
X31030000Y16600000D01*
G37*
G36*
X11078701Y17144291D02*
G01*
X11103033Y17128033D01*
X11119291Y17103701D01*
X11125000Y17075000D01*
X11125000Y16925000D01*
X11119291Y16896299D01*
X11103033Y16871967D01*
X11078701Y16855709D01*
X11050000Y16850000D01*
X9600000Y16850000D01*
X9571299Y16855709D01*
X9546967Y16871967D01*
X9530709Y16896299D01*
X9525000Y16925000D01*
X9525000Y17075000D01*
X9530709Y17103701D01*
X9546967Y17128033D01*
X9571299Y17144291D01*
X9600000Y17150000D01*
X11050000Y17150000D01*
X11078701Y17144291D01*
G37*
G36*
X26428701Y17144291D02*
G01*
X26453033Y17128033D01*
X26469291Y17103701D01*
X26475000Y17075000D01*
X26475000Y16925000D01*
X26469291Y16896299D01*
X26453033Y16871967D01*
X26428701Y16855709D01*
X26400000Y16850000D01*
X24950000Y16850000D01*
X24921299Y16855709D01*
X24896967Y16871967D01*
X24880709Y16896299D01*
X24875000Y16925000D01*
X24875000Y17075000D01*
X24880709Y17103701D01*
X24896967Y17128033D01*
X24921299Y17144291D01*
X24950000Y17150000D01*
X26400000Y17150000D01*
X26428701Y17144291D01*
G37*
G36*
X31030000Y17100000D02*
G01*
X29580000Y17100000D01*
X29580000Y17400000D01*
X31030000Y17400000D01*
X31030000Y17100000D01*
G37*
G36*
X11078701Y17644291D02*
G01*
X11103033Y17628033D01*
X11119291Y17603701D01*
X11125000Y17575000D01*
X11125000Y17425000D01*
X11119291Y17396299D01*
X11103033Y17371967D01*
X11078701Y17355709D01*
X11050000Y17350000D01*
X9600000Y17350000D01*
X9571299Y17355709D01*
X9546967Y17371967D01*
X9530709Y17396299D01*
X9525000Y17425000D01*
X9525000Y17575000D01*
X9530709Y17603701D01*
X9546967Y17628033D01*
X9571299Y17644291D01*
X9600000Y17650000D01*
X11050000Y17650000D01*
X11078701Y17644291D01*
G37*
G36*
X26428701Y17644291D02*
G01*
X26453033Y17628033D01*
X26469291Y17603701D01*
X26475000Y17575000D01*
X26475000Y17425000D01*
X26469291Y17396299D01*
X26453033Y17371967D01*
X26428701Y17355709D01*
X26400000Y17350000D01*
X24950000Y17350000D01*
X24921299Y17355709D01*
X24896967Y17371967D01*
X24880709Y17396299D01*
X24875000Y17425000D01*
X24875000Y17575000D01*
X24880709Y17603701D01*
X24896967Y17628033D01*
X24921299Y17644291D01*
X24950000Y17650000D01*
X26400000Y17650000D01*
X26428701Y17644291D01*
G37*
G36*
X31030000Y17600000D02*
G01*
X29580000Y17600000D01*
X29580000Y17900000D01*
X31030000Y17900000D01*
X31030000Y17600000D01*
G37*
G36*
X11078701Y18144291D02*
G01*
X11103033Y18128033D01*
X11119291Y18103701D01*
X11125000Y18075000D01*
X11125000Y17925000D01*
X11119291Y17896299D01*
X11103033Y17871967D01*
X11078701Y17855709D01*
X11050000Y17850000D01*
X9600000Y17850000D01*
X9571299Y17855709D01*
X9546967Y17871967D01*
X9530709Y17896299D01*
X9525000Y17925000D01*
X9525000Y18075000D01*
X9530709Y18103701D01*
X9546967Y18128033D01*
X9571299Y18144291D01*
X9600000Y18150000D01*
X11050000Y18150000D01*
X11078701Y18144291D01*
G37*
G36*
X26428701Y18144291D02*
G01*
X26453033Y18128033D01*
X26469291Y18103701D01*
X26475000Y18075000D01*
X26475000Y17925000D01*
X26469291Y17896299D01*
X26453033Y17871967D01*
X26428701Y17855709D01*
X26400000Y17850000D01*
X24950000Y17850000D01*
X24921299Y17855709D01*
X24896967Y17871967D01*
X24880709Y17896299D01*
X24875000Y17925000D01*
X24875000Y18075000D01*
X24880709Y18103701D01*
X24896967Y18128033D01*
X24921299Y18144291D01*
X24950000Y18150000D01*
X26400000Y18150000D01*
X26428701Y18144291D01*
G37*
G36*
X6763576Y20639343D02*
G01*
X6808995Y20608995D01*
X6839343Y20563576D01*
X6850000Y20510000D01*
X6850000Y18090000D01*
X6839343Y18036424D01*
X6808995Y17991005D01*
X6763576Y17960657D01*
X6710000Y17950000D01*
X5590000Y17950000D01*
X5536424Y17960657D01*
X5491005Y17991005D01*
X5460657Y18036424D01*
X5450000Y18090000D01*
X5450000Y20510000D01*
X5460657Y20563576D01*
X5491005Y20608995D01*
X5536424Y20639343D01*
X5590000Y20650000D01*
X6710000Y20650000D01*
X6763576Y20639343D01*
G37*
G36*
X8663576Y20639343D02*
G01*
X8708995Y20608995D01*
X8739343Y20563576D01*
X8750000Y20510000D01*
X8750000Y18090000D01*
X8739343Y18036424D01*
X8708995Y17991005D01*
X8663576Y17960657D01*
X8610000Y17950000D01*
X7490000Y17950000D01*
X7436424Y17960657D01*
X7391005Y17991005D01*
X7360657Y18036424D01*
X7350000Y18090000D01*
X7350000Y20510000D01*
X7360657Y20563576D01*
X7391005Y20608995D01*
X7436424Y20639343D01*
X7490000Y20650000D01*
X8610000Y20650000D01*
X8663576Y20639343D01*
G37*
G36*
X31030000Y18100000D02*
G01*
X29580000Y18100000D01*
X29580000Y18400000D01*
X31030000Y18400000D01*
X31030000Y18100000D01*
G37*
G36*
X11078701Y18644291D02*
G01*
X11103033Y18628033D01*
X11119291Y18603701D01*
X11125000Y18575000D01*
X11125000Y18425000D01*
X11119291Y18396299D01*
X11103033Y18371967D01*
X11078701Y18355709D01*
X11050000Y18350000D01*
X9600000Y18350000D01*
X9571299Y18355709D01*
X9546967Y18371967D01*
X9530709Y18396299D01*
X9525000Y18425000D01*
X9525000Y18575000D01*
X9530709Y18603701D01*
X9546967Y18628033D01*
X9571299Y18644291D01*
X9600000Y18650000D01*
X11050000Y18650000D01*
X11078701Y18644291D01*
G37*
G36*
X26428701Y18644291D02*
G01*
X26453033Y18628033D01*
X26469291Y18603701D01*
X26475000Y18575000D01*
X26475000Y18425000D01*
X26469291Y18396299D01*
X26453033Y18371967D01*
X26428701Y18355709D01*
X26400000Y18350000D01*
X24950000Y18350000D01*
X24921299Y18355709D01*
X24896967Y18371967D01*
X24880709Y18396299D01*
X24875000Y18425000D01*
X24875000Y18575000D01*
X24880709Y18603701D01*
X24896967Y18628033D01*
X24921299Y18644291D01*
X24950000Y18650000D01*
X26400000Y18650000D01*
X26428701Y18644291D01*
G37*
G36*
X31030000Y18600000D02*
G01*
X29580000Y18600000D01*
X29580000Y18900000D01*
X31030000Y18900000D01*
X31030000Y18600000D01*
G37*
G36*
X11078701Y19144291D02*
G01*
X11103033Y19128033D01*
X11119291Y19103701D01*
X11125000Y19075000D01*
X11125000Y18925000D01*
X11119291Y18896299D01*
X11103033Y18871967D01*
X11078701Y18855709D01*
X11050000Y18850000D01*
X9600000Y18850000D01*
X9571299Y18855709D01*
X9546967Y18871967D01*
X9530709Y18896299D01*
X9525000Y18925000D01*
X9525000Y19075000D01*
X9530709Y19103701D01*
X9546967Y19128033D01*
X9571299Y19144291D01*
X9600000Y19150000D01*
X11050000Y19150000D01*
X11078701Y19144291D01*
G37*
G36*
X26428701Y19144291D02*
G01*
X26453033Y19128033D01*
X26469291Y19103701D01*
X26475000Y19075000D01*
X26475000Y18925000D01*
X26469291Y18896299D01*
X26453033Y18871967D01*
X26428701Y18855709D01*
X26400000Y18850000D01*
X24950000Y18850000D01*
X24921299Y18855709D01*
X24896967Y18871967D01*
X24880709Y18896299D01*
X24875000Y18925000D01*
X24875000Y19075000D01*
X24880709Y19103701D01*
X24896967Y19128033D01*
X24921299Y19144291D01*
X24950000Y19150000D01*
X26400000Y19150000D01*
X26428701Y19144291D01*
G37*
G36*
X2307403Y19538582D02*
G01*
X2356066Y19506066D01*
X2388582Y19457403D01*
X2400000Y19400000D01*
X2400000Y19100000D01*
X2388582Y19042597D01*
X2356066Y18993934D01*
X2307403Y18961418D01*
X2250000Y18950000D01*
X1075000Y18950000D01*
X1017597Y18961418D01*
X968934Y18993934D01*
X936418Y19042597D01*
X925000Y19100000D01*
X925000Y19400000D01*
X936418Y19457403D01*
X968934Y19506066D01*
X1017597Y19538582D01*
X1075000Y19550000D01*
X2250000Y19550000D01*
X2307403Y19538582D01*
G37*
G36*
X31030000Y19100000D02*
G01*
X29580000Y19100000D01*
X29580000Y19400000D01*
X31030000Y19400000D01*
X31030000Y19100000D01*
G37*
G36*
X11078701Y19644291D02*
G01*
X11103033Y19628033D01*
X11119291Y19603701D01*
X11125000Y19575000D01*
X11125000Y19425000D01*
X11119291Y19396299D01*
X11103033Y19371967D01*
X11078701Y19355709D01*
X11050000Y19350000D01*
X9600000Y19350000D01*
X9571299Y19355709D01*
X9546967Y19371967D01*
X9530709Y19396299D01*
X9525000Y19425000D01*
X9525000Y19575000D01*
X9530709Y19603701D01*
X9546967Y19628033D01*
X9571299Y19644291D01*
X9600000Y19650000D01*
X11050000Y19650000D01*
X11078701Y19644291D01*
G37*
G36*
X26428701Y19644291D02*
G01*
X26453033Y19628033D01*
X26469291Y19603701D01*
X26475000Y19575000D01*
X26475000Y19425000D01*
X26469291Y19396299D01*
X26453033Y19371967D01*
X26428701Y19355709D01*
X26400000Y19350000D01*
X24950000Y19350000D01*
X24921299Y19355709D01*
X24896967Y19371967D01*
X24880709Y19396299D01*
X24875000Y19425000D01*
X24875000Y19575000D01*
X24880709Y19603701D01*
X24896967Y19628033D01*
X24921299Y19644291D01*
X24950000Y19650000D01*
X26400000Y19650000D01*
X26428701Y19644291D01*
G37*
G36*
X31030000Y19600000D02*
G01*
X29580000Y19600000D01*
X29580000Y19900000D01*
X31030000Y19900000D01*
X31030000Y19600000D01*
G37*
G36*
X27576662Y20309724D02*
G01*
X27620459Y20280459D01*
X27649724Y20236662D01*
X27660000Y20185000D01*
X27660000Y19815000D01*
X27649724Y19763338D01*
X27620459Y19719541D01*
X27576662Y19690276D01*
X27525000Y19680000D01*
X27255000Y19680000D01*
X27203338Y19690276D01*
X27159541Y19719541D01*
X27130276Y19763338D01*
X27120000Y19815000D01*
X27120000Y20185000D01*
X27130276Y20236662D01*
X27159541Y20280459D01*
X27203338Y20309724D01*
X27255000Y20320000D01*
X27525000Y20320000D01*
X27576662Y20309724D01*
G37*
G36*
X28596662Y20309724D02*
G01*
X28640459Y20280459D01*
X28669724Y20236662D01*
X28680000Y20185000D01*
X28680000Y19815000D01*
X28669724Y19763338D01*
X28640459Y19719541D01*
X28596662Y19690276D01*
X28545000Y19680000D01*
X28275000Y19680000D01*
X28223338Y19690276D01*
X28179541Y19719541D01*
X28150276Y19763338D01*
X28140000Y19815000D01*
X28140000Y20185000D01*
X28150276Y20236662D01*
X28179541Y20280459D01*
X28223338Y20309724D01*
X28275000Y20320000D01*
X28545000Y20320000D01*
X28596662Y20309724D01*
G37*
G36*
X11078701Y20144291D02*
G01*
X11103033Y20128033D01*
X11119291Y20103701D01*
X11125000Y20075000D01*
X11125000Y19925000D01*
X11119291Y19896299D01*
X11103033Y19871967D01*
X11078701Y19855709D01*
X11050000Y19850000D01*
X9600000Y19850000D01*
X9571299Y19855709D01*
X9546967Y19871967D01*
X9530709Y19896299D01*
X9525000Y19925000D01*
X9525000Y20075000D01*
X9530709Y20103701D01*
X9546967Y20128033D01*
X9571299Y20144291D01*
X9600000Y20150000D01*
X11050000Y20150000D01*
X11078701Y20144291D01*
G37*
G36*
X26428701Y20144291D02*
G01*
X26453033Y20128033D01*
X26469291Y20103701D01*
X26475000Y20075000D01*
X26475000Y19925000D01*
X26469291Y19896299D01*
X26453033Y19871967D01*
X26428701Y19855709D01*
X26400000Y19850000D01*
X24950000Y19850000D01*
X24921299Y19855709D01*
X24896967Y19871967D01*
X24880709Y19896299D01*
X24875000Y19925000D01*
X24875000Y20075000D01*
X24880709Y20103701D01*
X24896967Y20128033D01*
X24921299Y20144291D01*
X24950000Y20150000D01*
X26400000Y20150000D01*
X26428701Y20144291D01*
G37*
G36*
X4182403Y20488582D02*
G01*
X4231066Y20456066D01*
X4263582Y20407403D01*
X4275000Y20350000D01*
X4275000Y20050000D01*
X4263582Y19992597D01*
X4231066Y19943934D01*
X4182403Y19911418D01*
X4125000Y19900000D01*
X2950000Y19900000D01*
X2892597Y19911418D01*
X2843934Y19943934D01*
X2811418Y19992597D01*
X2800000Y20050000D01*
X2800000Y20350000D01*
X2811418Y20407403D01*
X2843934Y20456066D01*
X2892597Y20488582D01*
X2950000Y20500000D01*
X4125000Y20500000D01*
X4182403Y20488582D01*
G37*
G36*
X31030000Y20150000D02*
G01*
X29580000Y20150000D01*
X29580000Y20750000D01*
X31030000Y20750000D01*
X31030000Y20150000D01*
G37*
G36*
X11078701Y20644291D02*
G01*
X11103033Y20628033D01*
X11119291Y20603701D01*
X11125000Y20575000D01*
X11125000Y20425000D01*
X11119291Y20396299D01*
X11103033Y20371967D01*
X11078701Y20355709D01*
X11050000Y20350000D01*
X9600000Y20350000D01*
X9571299Y20355709D01*
X9546967Y20371967D01*
X9530709Y20396299D01*
X9525000Y20425000D01*
X9525000Y20575000D01*
X9530709Y20603701D01*
X9546967Y20628033D01*
X9571299Y20644291D01*
X9600000Y20650000D01*
X11050000Y20650000D01*
X11078701Y20644291D01*
G37*
G36*
X26428701Y20644291D02*
G01*
X26453033Y20628033D01*
X26469291Y20603701D01*
X26475000Y20575000D01*
X26475000Y20425000D01*
X26469291Y20396299D01*
X26453033Y20371967D01*
X26428701Y20355709D01*
X26400000Y20350000D01*
X24950000Y20350000D01*
X24921299Y20355709D01*
X24896967Y20371967D01*
X24880709Y20396299D01*
X24875000Y20425000D01*
X24875000Y20575000D01*
X24880709Y20603701D01*
X24896967Y20628033D01*
X24921299Y20644291D01*
X24950000Y20650000D01*
X26400000Y20650000D01*
X26428701Y20644291D01*
G37*
G36*
X31874372Y21190261D02*
G01*
X31947847Y21147840D01*
X32007840Y21087847D01*
X32050261Y21014372D01*
X32072220Y20932421D01*
X32072220Y20847579D01*
X32050261Y20765628D01*
X32007840Y20692153D01*
X31947847Y20632160D01*
X31874372Y20589739D01*
X31792421Y20567780D01*
X31707579Y20567780D01*
X31625628Y20589739D01*
X31552153Y20632160D01*
X31492160Y20692153D01*
X31449739Y20765628D01*
X31427780Y20847579D01*
X31427780Y20932421D01*
X31449739Y21014372D01*
X31492160Y21087847D01*
X31552153Y21147840D01*
X31625628Y21190261D01*
X31707579Y21212220D01*
X31792421Y21212220D01*
X31874372Y21190261D01*
G37*
G36*
X2307403Y21438582D02*
G01*
X2356066Y21406066D01*
X2388582Y21357403D01*
X2400000Y21300000D01*
X2400000Y21000000D01*
X2388582Y20942597D01*
X2356066Y20893934D01*
X2307403Y20861418D01*
X2250000Y20850000D01*
X1075000Y20850000D01*
X1017597Y20861418D01*
X968934Y20893934D01*
X936418Y20942597D01*
X925000Y21000000D01*
X925000Y21300000D01*
X936418Y21357403D01*
X968934Y21406066D01*
X1017597Y21438582D01*
X1075000Y21450000D01*
X2250000Y21450000D01*
X2307403Y21438582D01*
G37*
G36*
X11078701Y21144291D02*
G01*
X11103033Y21128033D01*
X11119291Y21103701D01*
X11125000Y21075000D01*
X11125000Y20925000D01*
X11119291Y20896299D01*
X11103033Y20871967D01*
X11078701Y20855709D01*
X11050000Y20850000D01*
X9600000Y20850000D01*
X9571299Y20855709D01*
X9546967Y20871967D01*
X9530709Y20896299D01*
X9525000Y20925000D01*
X9525000Y21075000D01*
X9530709Y21103701D01*
X9546967Y21128033D01*
X9571299Y21144291D01*
X9600000Y21150000D01*
X11050000Y21150000D01*
X11078701Y21144291D01*
G37*
G36*
X26428701Y21144291D02*
G01*
X26453033Y21128033D01*
X26469291Y21103701D01*
X26475000Y21075000D01*
X26475000Y20925000D01*
X26469291Y20896299D01*
X26453033Y20871967D01*
X26428701Y20855709D01*
X26400000Y20850000D01*
X24950000Y20850000D01*
X24921299Y20855709D01*
X24896967Y20871967D01*
X24880709Y20896299D01*
X24875000Y20925000D01*
X24875000Y21075000D01*
X24880709Y21103701D01*
X24896967Y21128033D01*
X24921299Y21144291D01*
X24950000Y21150000D01*
X26400000Y21150000D01*
X26428701Y21144291D01*
G37*
G36*
X31030000Y20950000D02*
G01*
X29580000Y20950000D01*
X29580000Y21550000D01*
X31030000Y21550000D01*
X31030000Y20950000D01*
G37*
G36*
X27576662Y21809724D02*
G01*
X27620459Y21780459D01*
X27649724Y21736662D01*
X27660000Y21685000D01*
X27660000Y21315000D01*
X27649724Y21263338D01*
X27620459Y21219541D01*
X27576662Y21190276D01*
X27525000Y21180000D01*
X27255000Y21180000D01*
X27203338Y21190276D01*
X27159541Y21219541D01*
X27130276Y21263338D01*
X27120000Y21315000D01*
X27120000Y21685000D01*
X27130276Y21736662D01*
X27159541Y21780459D01*
X27203338Y21809724D01*
X27255000Y21820000D01*
X27525000Y21820000D01*
X27576662Y21809724D01*
G37*
G36*
X28596662Y21809724D02*
G01*
X28640459Y21780459D01*
X28669724Y21736662D01*
X28680000Y21685000D01*
X28680000Y21315000D01*
X28669724Y21263338D01*
X28640459Y21219541D01*
X28596662Y21190276D01*
X28545000Y21180000D01*
X28275000Y21180000D01*
X28223338Y21190276D01*
X28179541Y21219541D01*
X28150276Y21263338D01*
X28140000Y21315000D01*
X28140000Y21685000D01*
X28150276Y21736662D01*
X28179541Y21780459D01*
X28223338Y21809724D01*
X28275000Y21820000D01*
X28545000Y21820000D01*
X28596662Y21809724D01*
G37*
G36*
X11078701Y21644291D02*
G01*
X11103033Y21628033D01*
X11119291Y21603701D01*
X11125000Y21575000D01*
X11125000Y21425000D01*
X11119291Y21396299D01*
X11103033Y21371967D01*
X11078701Y21355709D01*
X11050000Y21350000D01*
X9600000Y21350000D01*
X9571299Y21355709D01*
X9546967Y21371967D01*
X9530709Y21396299D01*
X9525000Y21425000D01*
X9525000Y21575000D01*
X9530709Y21603701D01*
X9546967Y21628033D01*
X9571299Y21644291D01*
X9600000Y21650000D01*
X11050000Y21650000D01*
X11078701Y21644291D01*
G37*
G36*
X26428701Y21644291D02*
G01*
X26453033Y21628033D01*
X26469291Y21603701D01*
X26475000Y21575000D01*
X26475000Y21425000D01*
X26469291Y21396299D01*
X26453033Y21371967D01*
X26428701Y21355709D01*
X26400000Y21350000D01*
X24950000Y21350000D01*
X24921299Y21355709D01*
X24896967Y21371967D01*
X24880709Y21396299D01*
X24875000Y21425000D01*
X24875000Y21575000D01*
X24880709Y21603701D01*
X24896967Y21628033D01*
X24921299Y21644291D01*
X24950000Y21650000D01*
X26400000Y21650000D01*
X26428701Y21644291D01*
G37*
G36*
X6786104Y22457873D02*
G01*
X6859099Y22409099D01*
X6907873Y22336104D01*
X6925000Y22250000D01*
X6925000Y21750000D01*
X6907873Y21663896D01*
X6859099Y21590901D01*
X6786104Y21542127D01*
X6700000Y21525000D01*
X6250000Y21525000D01*
X6163896Y21542127D01*
X6090901Y21590901D01*
X6042127Y21663896D01*
X6025000Y21750000D01*
X6025000Y22250000D01*
X6042127Y22336104D01*
X6090901Y22409099D01*
X6163896Y22457873D01*
X6250000Y22475000D01*
X6700000Y22475000D01*
X6786104Y22457873D01*
G37*
G36*
X8336104Y22457873D02*
G01*
X8409099Y22409099D01*
X8457873Y22336104D01*
X8475000Y22250000D01*
X8475000Y21750000D01*
X8457873Y21663896D01*
X8409099Y21590901D01*
X8336104Y21542127D01*
X8250000Y21525000D01*
X7800000Y21525000D01*
X7713896Y21542127D01*
X7640901Y21590901D01*
X7592127Y21663896D01*
X7575000Y21750000D01*
X7575000Y22250000D01*
X7592127Y22336104D01*
X7640901Y22409099D01*
X7713896Y22457873D01*
X7800000Y22475000D01*
X8250000Y22475000D01*
X8336104Y22457873D01*
G37*
G36*
X31835263Y22815722D02*
G01*
X31961342Y22781940D01*
X32074381Y22716677D01*
X32166677Y22624381D01*
X32231940Y22511342D01*
X32265722Y22385263D01*
X32265722Y22254737D01*
X32231940Y22128658D01*
X32166677Y22015619D01*
X32074381Y21923323D01*
X31961342Y21858060D01*
X31835263Y21824278D01*
X31770000Y21820000D01*
X31768363Y21820000D01*
X30671637Y21820000D01*
X30670000Y21820000D01*
X30604737Y21824278D01*
X30478658Y21858060D01*
X30365619Y21923323D01*
X30273323Y22015619D01*
X30208060Y22128658D01*
X30174278Y22254737D01*
X30174278Y22385263D01*
X30208060Y22511342D01*
X30273323Y22624381D01*
X30365619Y22716677D01*
X30478658Y22781940D01*
X30604737Y22815722D01*
X30670000Y22820000D01*
X31770000Y22820000D01*
X31835263Y22815722D01*
G37*
G36*
X35865263Y22815722D02*
G01*
X35991342Y22781940D01*
X36104381Y22716677D01*
X36196677Y22624381D01*
X36261940Y22511342D01*
X36295722Y22385263D01*
X36295722Y22254737D01*
X36261940Y22128658D01*
X36196677Y22015619D01*
X36104381Y21923323D01*
X35991342Y21858060D01*
X35865263Y21824278D01*
X35800000Y21820000D01*
X35798363Y21820000D01*
X35001637Y21820000D01*
X35000000Y21820000D01*
X34934737Y21824278D01*
X34808658Y21858060D01*
X34695619Y21923323D01*
X34603323Y22015619D01*
X34538060Y22128658D01*
X34504278Y22254737D01*
X34504278Y22385263D01*
X34538060Y22511342D01*
X34603323Y22624381D01*
X34695619Y22716677D01*
X34808658Y22781940D01*
X34934737Y22815722D01*
X35000000Y22820000D01*
X35800000Y22820000D01*
X35865263Y22815722D01*
G37*
G36*
X11078701Y22144291D02*
G01*
X11103033Y22128033D01*
X11119291Y22103701D01*
X11125000Y22075000D01*
X11125000Y21925000D01*
X11119291Y21896299D01*
X11103033Y21871967D01*
X11078701Y21855709D01*
X11050000Y21850000D01*
X9600000Y21850000D01*
X9571299Y21855709D01*
X9546967Y21871967D01*
X9530709Y21896299D01*
X9525000Y21925000D01*
X9525000Y22075000D01*
X9530709Y22103701D01*
X9546967Y22128033D01*
X9571299Y22144291D01*
X9600000Y22150000D01*
X11050000Y22150000D01*
X11078701Y22144291D01*
G37*
G36*
X26428701Y22144291D02*
G01*
X26453033Y22128033D01*
X26469291Y22103701D01*
X26475000Y22075000D01*
X26475000Y21925000D01*
X26469291Y21896299D01*
X26453033Y21871967D01*
X26428701Y21855709D01*
X26400000Y21850000D01*
X24950000Y21850000D01*
X24921299Y21855709D01*
X24896967Y21871967D01*
X24880709Y21896299D01*
X24875000Y21925000D01*
X24875000Y22075000D01*
X24880709Y22103701D01*
X24896967Y22128033D01*
X24921299Y22144291D01*
X24950000Y22150000D01*
X26400000Y22150000D01*
X26428701Y22144291D01*
G37*
G36*
X11078701Y22644291D02*
G01*
X11103033Y22628033D01*
X11119291Y22603701D01*
X11125000Y22575000D01*
X11125000Y22425000D01*
X11119291Y22396299D01*
X11103033Y22371967D01*
X11078701Y22355709D01*
X11050000Y22350000D01*
X9600000Y22350000D01*
X9571299Y22355709D01*
X9546967Y22371967D01*
X9530709Y22396299D01*
X9525000Y22425000D01*
X9525000Y22575000D01*
X9530709Y22603701D01*
X9546967Y22628033D01*
X9571299Y22644291D01*
X9600000Y22650000D01*
X11050000Y22650000D01*
X11078701Y22644291D01*
G37*
G36*
X26428701Y22644291D02*
G01*
X26453033Y22628033D01*
X26469291Y22603701D01*
X26475000Y22575000D01*
X26475000Y22425000D01*
X26469291Y22396299D01*
X26453033Y22371967D01*
X26428701Y22355709D01*
X26400000Y22350000D01*
X24950000Y22350000D01*
X24921299Y22355709D01*
X24896967Y22371967D01*
X24880709Y22396299D01*
X24875000Y22425000D01*
X24875000Y22575000D01*
X24880709Y22603701D01*
X24896967Y22628033D01*
X24921299Y22644291D01*
X24950000Y22650000D01*
X26400000Y22650000D01*
X26428701Y22644291D01*
G37*
G36*
X2336104Y23257873D02*
G01*
X2409099Y23209099D01*
X2457873Y23136104D01*
X2475000Y23050000D01*
X2475000Y22600000D01*
X2457873Y22513896D01*
X2409099Y22440901D01*
X2336104Y22392127D01*
X2250000Y22375000D01*
X1750000Y22375000D01*
X1663896Y22392127D01*
X1590901Y22440901D01*
X1542127Y22513896D01*
X1525000Y22600000D01*
X1525000Y23050000D01*
X1542127Y23136104D01*
X1590901Y23209099D01*
X1663896Y23257873D01*
X1750000Y23275000D01*
X2250000Y23275000D01*
X2336104Y23257873D01*
G37*
G36*
X11078701Y23144291D02*
G01*
X11103033Y23128033D01*
X11119291Y23103701D01*
X11125000Y23075000D01*
X11125000Y22925000D01*
X11119291Y22896299D01*
X11103033Y22871967D01*
X11078701Y22855709D01*
X11050000Y22850000D01*
X9600000Y22850000D01*
X9571299Y22855709D01*
X9546967Y22871967D01*
X9530709Y22896299D01*
X9525000Y22925000D01*
X9525000Y23075000D01*
X9530709Y23103701D01*
X9546967Y23128033D01*
X9571299Y23144291D01*
X9600000Y23150000D01*
X11050000Y23150000D01*
X11078701Y23144291D01*
G37*
G36*
X26428701Y23144291D02*
G01*
X26453033Y23128033D01*
X26469291Y23103701D01*
X26475000Y23075000D01*
X26475000Y22925000D01*
X26469291Y22896299D01*
X26453033Y22871967D01*
X26428701Y22855709D01*
X26400000Y22850000D01*
X24950000Y22850000D01*
X24921299Y22855709D01*
X24896967Y22871967D01*
X24880709Y22896299D01*
X24875000Y22925000D01*
X24875000Y23075000D01*
X24880709Y23103701D01*
X24896967Y23128033D01*
X24921299Y23144291D01*
X24950000Y23150000D01*
X26400000Y23150000D01*
X26428701Y23144291D01*
G37*
G36*
X11078701Y23644291D02*
G01*
X11103033Y23628033D01*
X11119291Y23603701D01*
X11125000Y23575000D01*
X11125000Y23425000D01*
X11119291Y23396299D01*
X11103033Y23371967D01*
X11078701Y23355709D01*
X11050000Y23350000D01*
X9600000Y23350000D01*
X9571299Y23355709D01*
X9546967Y23371967D01*
X9530709Y23396299D01*
X9525000Y23425000D01*
X9525000Y23575000D01*
X9530709Y23603701D01*
X9546967Y23628033D01*
X9571299Y23644291D01*
X9600000Y23650000D01*
X11050000Y23650000D01*
X11078701Y23644291D01*
G37*
G36*
X26428701Y23644291D02*
G01*
X26453033Y23628033D01*
X26469291Y23603701D01*
X26475000Y23575000D01*
X26475000Y23425000D01*
X26469291Y23396299D01*
X26453033Y23371967D01*
X26428701Y23355709D01*
X26400000Y23350000D01*
X24950000Y23350000D01*
X24921299Y23355709D01*
X24896967Y23371967D01*
X24880709Y23396299D01*
X24875000Y23425000D01*
X24875000Y23575000D01*
X24880709Y23603701D01*
X24896967Y23628033D01*
X24921299Y23644291D01*
X24950000Y23650000D01*
X26400000Y23650000D01*
X26428701Y23644291D01*
G37*
G36*
X2336104Y24807873D02*
G01*
X2409099Y24759099D01*
X2457873Y24686104D01*
X2475000Y24600000D01*
X2475000Y24150000D01*
X2457873Y24063896D01*
X2409099Y23990901D01*
X2336104Y23942127D01*
X2250000Y23925000D01*
X1750000Y23925000D01*
X1663896Y23942127D01*
X1590901Y23990901D01*
X1542127Y24063896D01*
X1525000Y24150000D01*
X1525000Y24600000D01*
X1542127Y24686104D01*
X1590901Y24759099D01*
X1663896Y24807873D01*
X1750000Y24825000D01*
X2250000Y24825000D01*
X2336104Y24807873D01*
G37*
G36*
X33907403Y25438582D02*
G01*
X33956066Y25406066D01*
X33988582Y25357403D01*
X34000000Y25300000D01*
X34000000Y24125000D01*
X33988582Y24067597D01*
X33956066Y24018934D01*
X33907403Y23986418D01*
X33850000Y23975000D01*
X33550000Y23975000D01*
X33492597Y23986418D01*
X33443934Y24018934D01*
X33411418Y24067597D01*
X33400000Y24125000D01*
X33400000Y25300000D01*
X33411418Y25357403D01*
X33443934Y25406066D01*
X33492597Y25438582D01*
X33550000Y25450000D01*
X33850000Y25450000D01*
X33907403Y25438582D01*
G37*
G36*
X35807403Y25438582D02*
G01*
X35856066Y25406066D01*
X35888582Y25357403D01*
X35900000Y25300000D01*
X35900000Y24125000D01*
X35888582Y24067597D01*
X35856066Y24018934D01*
X35807403Y23986418D01*
X35750000Y23975000D01*
X35450000Y23975000D01*
X35392597Y23986418D01*
X35343934Y24018934D01*
X35311418Y24067597D01*
X35300000Y24125000D01*
X35300000Y25300000D01*
X35311418Y25357403D01*
X35343934Y25406066D01*
X35392597Y25438582D01*
X35450000Y25450000D01*
X35750000Y25450000D01*
X35807403Y25438582D01*
G37*
G36*
X29932403Y24838582D02*
G01*
X29981066Y24806066D01*
X30013582Y24757403D01*
X30025000Y24700000D01*
X30025000Y24400000D01*
X30013582Y24342597D01*
X29981066Y24293934D01*
X29932403Y24261418D01*
X29875000Y24250000D01*
X28850000Y24250000D01*
X28792597Y24261418D01*
X28743934Y24293934D01*
X28711418Y24342597D01*
X28700000Y24400000D01*
X28700000Y24700000D01*
X28711418Y24757403D01*
X28743934Y24806066D01*
X28792597Y24838582D01*
X28850000Y24850000D01*
X29875000Y24850000D01*
X29932403Y24838582D01*
G37*
G36*
X32207403Y24838582D02*
G01*
X32256066Y24806066D01*
X32288582Y24757403D01*
X32300000Y24700000D01*
X32300000Y24400000D01*
X32288582Y24342597D01*
X32256066Y24293934D01*
X32207403Y24261418D01*
X32150000Y24250000D01*
X31125000Y24250000D01*
X31067597Y24261418D01*
X31018934Y24293934D01*
X30986418Y24342597D01*
X30975000Y24400000D01*
X30975000Y24700000D01*
X30986418Y24757403D01*
X31018934Y24806066D01*
X31067597Y24838582D01*
X31125000Y24850000D01*
X32150000Y24850000D01*
X32207403Y24838582D01*
G37*
G36*
X12103701Y25969291D02*
G01*
X12128033Y25953033D01*
X12144291Y25928701D01*
X12150000Y25900000D01*
X12150000Y24450000D01*
X12144291Y24421299D01*
X12128033Y24396967D01*
X12103701Y24380709D01*
X12075000Y24375000D01*
X11925000Y24375000D01*
X11896299Y24380709D01*
X11871967Y24396967D01*
X11855709Y24421299D01*
X11850000Y24450000D01*
X11850000Y25900000D01*
X11855709Y25928701D01*
X11871967Y25953033D01*
X11896299Y25969291D01*
X11925000Y25975000D01*
X12075000Y25975000D01*
X12103701Y25969291D01*
G37*
G36*
X12603701Y25969291D02*
G01*
X12628033Y25953033D01*
X12644291Y25928701D01*
X12650000Y25900000D01*
X12650000Y24450000D01*
X12644291Y24421299D01*
X12628033Y24396967D01*
X12603701Y24380709D01*
X12575000Y24375000D01*
X12425000Y24375000D01*
X12396299Y24380709D01*
X12371967Y24396967D01*
X12355709Y24421299D01*
X12350000Y24450000D01*
X12350000Y25900000D01*
X12355709Y25928701D01*
X12371967Y25953033D01*
X12396299Y25969291D01*
X12425000Y25975000D01*
X12575000Y25975000D01*
X12603701Y25969291D01*
G37*
G36*
X13103701Y25969291D02*
G01*
X13128033Y25953033D01*
X13144291Y25928701D01*
X13150000Y25900000D01*
X13150000Y24450000D01*
X13144291Y24421299D01*
X13128033Y24396967D01*
X13103701Y24380709D01*
X13075000Y24375000D01*
X12925000Y24375000D01*
X12896299Y24380709D01*
X12871967Y24396967D01*
X12855709Y24421299D01*
X12850000Y24450000D01*
X12850000Y25900000D01*
X12855709Y25928701D01*
X12871967Y25953033D01*
X12896299Y25969291D01*
X12925000Y25975000D01*
X13075000Y25975000D01*
X13103701Y25969291D01*
G37*
G36*
X13603701Y25969291D02*
G01*
X13628033Y25953033D01*
X13644291Y25928701D01*
X13650000Y25900000D01*
X13650000Y24450000D01*
X13644291Y24421299D01*
X13628033Y24396967D01*
X13603701Y24380709D01*
X13575000Y24375000D01*
X13425000Y24375000D01*
X13396299Y24380709D01*
X13371967Y24396967D01*
X13355709Y24421299D01*
X13350000Y24450000D01*
X13350000Y25900000D01*
X13355709Y25928701D01*
X13371967Y25953033D01*
X13396299Y25969291D01*
X13425000Y25975000D01*
X13575000Y25975000D01*
X13603701Y25969291D01*
G37*
G36*
X14103701Y25969291D02*
G01*
X14128033Y25953033D01*
X14144291Y25928701D01*
X14150000Y25900000D01*
X14150000Y24450000D01*
X14144291Y24421299D01*
X14128033Y24396967D01*
X14103701Y24380709D01*
X14075000Y24375000D01*
X13925000Y24375000D01*
X13896299Y24380709D01*
X13871967Y24396967D01*
X13855709Y24421299D01*
X13850000Y24450000D01*
X13850000Y25900000D01*
X13855709Y25928701D01*
X13871967Y25953033D01*
X13896299Y25969291D01*
X13925000Y25975000D01*
X14075000Y25975000D01*
X14103701Y25969291D01*
G37*
G36*
X14603701Y25969291D02*
G01*
X14628033Y25953033D01*
X14644291Y25928701D01*
X14650000Y25900000D01*
X14650000Y24450000D01*
X14644291Y24421299D01*
X14628033Y24396967D01*
X14603701Y24380709D01*
X14575000Y24375000D01*
X14425000Y24375000D01*
X14396299Y24380709D01*
X14371967Y24396967D01*
X14355709Y24421299D01*
X14350000Y24450000D01*
X14350000Y25900000D01*
X14355709Y25928701D01*
X14371967Y25953033D01*
X14396299Y25969291D01*
X14425000Y25975000D01*
X14575000Y25975000D01*
X14603701Y25969291D01*
G37*
G36*
X15103701Y25969291D02*
G01*
X15128033Y25953033D01*
X15144291Y25928701D01*
X15150000Y25900000D01*
X15150000Y24450000D01*
X15144291Y24421299D01*
X15128033Y24396967D01*
X15103701Y24380709D01*
X15075000Y24375000D01*
X14925000Y24375000D01*
X14896299Y24380709D01*
X14871967Y24396967D01*
X14855709Y24421299D01*
X14850000Y24450000D01*
X14850000Y25900000D01*
X14855709Y25928701D01*
X14871967Y25953033D01*
X14896299Y25969291D01*
X14925000Y25975000D01*
X15075000Y25975000D01*
X15103701Y25969291D01*
G37*
G36*
X15603701Y25969291D02*
G01*
X15628033Y25953033D01*
X15644291Y25928701D01*
X15650000Y25900000D01*
X15650000Y24450000D01*
X15644291Y24421299D01*
X15628033Y24396967D01*
X15603701Y24380709D01*
X15575000Y24375000D01*
X15425000Y24375000D01*
X15396299Y24380709D01*
X15371967Y24396967D01*
X15355709Y24421299D01*
X15350000Y24450000D01*
X15350000Y25900000D01*
X15355709Y25928701D01*
X15371967Y25953033D01*
X15396299Y25969291D01*
X15425000Y25975000D01*
X15575000Y25975000D01*
X15603701Y25969291D01*
G37*
G36*
X16103701Y25969291D02*
G01*
X16128033Y25953033D01*
X16144291Y25928701D01*
X16150000Y25900000D01*
X16150000Y24450000D01*
X16144291Y24421299D01*
X16128033Y24396967D01*
X16103701Y24380709D01*
X16075000Y24375000D01*
X15925000Y24375000D01*
X15896299Y24380709D01*
X15871967Y24396967D01*
X15855709Y24421299D01*
X15850000Y24450000D01*
X15850000Y25900000D01*
X15855709Y25928701D01*
X15871967Y25953033D01*
X15896299Y25969291D01*
X15925000Y25975000D01*
X16075000Y25975000D01*
X16103701Y25969291D01*
G37*
G36*
X16603701Y25969291D02*
G01*
X16628033Y25953033D01*
X16644291Y25928701D01*
X16650000Y25900000D01*
X16650000Y24450000D01*
X16644291Y24421299D01*
X16628033Y24396967D01*
X16603701Y24380709D01*
X16575000Y24375000D01*
X16425000Y24375000D01*
X16396299Y24380709D01*
X16371967Y24396967D01*
X16355709Y24421299D01*
X16350000Y24450000D01*
X16350000Y25900000D01*
X16355709Y25928701D01*
X16371967Y25953033D01*
X16396299Y25969291D01*
X16425000Y25975000D01*
X16575000Y25975000D01*
X16603701Y25969291D01*
G37*
G36*
X17103701Y25969291D02*
G01*
X17128033Y25953033D01*
X17144291Y25928701D01*
X17150000Y25900000D01*
X17150000Y24450000D01*
X17144291Y24421299D01*
X17128033Y24396967D01*
X17103701Y24380709D01*
X17075000Y24375000D01*
X16925000Y24375000D01*
X16896299Y24380709D01*
X16871967Y24396967D01*
X16855709Y24421299D01*
X16850000Y24450000D01*
X16850000Y25900000D01*
X16855709Y25928701D01*
X16871967Y25953033D01*
X16896299Y25969291D01*
X16925000Y25975000D01*
X17075000Y25975000D01*
X17103701Y25969291D01*
G37*
G36*
X17603701Y25969291D02*
G01*
X17628033Y25953033D01*
X17644291Y25928701D01*
X17650000Y25900000D01*
X17650000Y24450000D01*
X17644291Y24421299D01*
X17628033Y24396967D01*
X17603701Y24380709D01*
X17575000Y24375000D01*
X17425000Y24375000D01*
X17396299Y24380709D01*
X17371967Y24396967D01*
X17355709Y24421299D01*
X17350000Y24450000D01*
X17350000Y25900000D01*
X17355709Y25928701D01*
X17371967Y25953033D01*
X17396299Y25969291D01*
X17425000Y25975000D01*
X17575000Y25975000D01*
X17603701Y25969291D01*
G37*
G36*
X18103701Y25969291D02*
G01*
X18128033Y25953033D01*
X18144291Y25928701D01*
X18150000Y25900000D01*
X18150000Y24450000D01*
X18144291Y24421299D01*
X18128033Y24396967D01*
X18103701Y24380709D01*
X18075000Y24375000D01*
X17925000Y24375000D01*
X17896299Y24380709D01*
X17871967Y24396967D01*
X17855709Y24421299D01*
X17850000Y24450000D01*
X17850000Y25900000D01*
X17855709Y25928701D01*
X17871967Y25953033D01*
X17896299Y25969291D01*
X17925000Y25975000D01*
X18075000Y25975000D01*
X18103701Y25969291D01*
G37*
G36*
X18603701Y25969291D02*
G01*
X18628033Y25953033D01*
X18644291Y25928701D01*
X18650000Y25900000D01*
X18650000Y24450000D01*
X18644291Y24421299D01*
X18628033Y24396967D01*
X18603701Y24380709D01*
X18575000Y24375000D01*
X18425000Y24375000D01*
X18396299Y24380709D01*
X18371967Y24396967D01*
X18355709Y24421299D01*
X18350000Y24450000D01*
X18350000Y25900000D01*
X18355709Y25928701D01*
X18371967Y25953033D01*
X18396299Y25969291D01*
X18425000Y25975000D01*
X18575000Y25975000D01*
X18603701Y25969291D01*
G37*
G36*
X19103701Y25969291D02*
G01*
X19128033Y25953033D01*
X19144291Y25928701D01*
X19150000Y25900000D01*
X19150000Y24450000D01*
X19144291Y24421299D01*
X19128033Y24396967D01*
X19103701Y24380709D01*
X19075000Y24375000D01*
X18925000Y24375000D01*
X18896299Y24380709D01*
X18871967Y24396967D01*
X18855709Y24421299D01*
X18850000Y24450000D01*
X18850000Y25900000D01*
X18855709Y25928701D01*
X18871967Y25953033D01*
X18896299Y25969291D01*
X18925000Y25975000D01*
X19075000Y25975000D01*
X19103701Y25969291D01*
G37*
G36*
X19603701Y25969291D02*
G01*
X19628033Y25953033D01*
X19644291Y25928701D01*
X19650000Y25900000D01*
X19650000Y24450000D01*
X19644291Y24421299D01*
X19628033Y24396967D01*
X19603701Y24380709D01*
X19575000Y24375000D01*
X19425000Y24375000D01*
X19396299Y24380709D01*
X19371967Y24396967D01*
X19355709Y24421299D01*
X19350000Y24450000D01*
X19350000Y25900000D01*
X19355709Y25928701D01*
X19371967Y25953033D01*
X19396299Y25969291D01*
X19425000Y25975000D01*
X19575000Y25975000D01*
X19603701Y25969291D01*
G37*
G36*
X20103701Y25969291D02*
G01*
X20128033Y25953033D01*
X20144291Y25928701D01*
X20150000Y25900000D01*
X20150000Y24450000D01*
X20144291Y24421299D01*
X20128033Y24396967D01*
X20103701Y24380709D01*
X20075000Y24375000D01*
X19925000Y24375000D01*
X19896299Y24380709D01*
X19871967Y24396967D01*
X19855709Y24421299D01*
X19850000Y24450000D01*
X19850000Y25900000D01*
X19855709Y25928701D01*
X19871967Y25953033D01*
X19896299Y25969291D01*
X19925000Y25975000D01*
X20075000Y25975000D01*
X20103701Y25969291D01*
G37*
G36*
X20603701Y25969291D02*
G01*
X20628033Y25953033D01*
X20644291Y25928701D01*
X20650000Y25900000D01*
X20650000Y24450000D01*
X20644291Y24421299D01*
X20628033Y24396967D01*
X20603701Y24380709D01*
X20575000Y24375000D01*
X20425000Y24375000D01*
X20396299Y24380709D01*
X20371967Y24396967D01*
X20355709Y24421299D01*
X20350000Y24450000D01*
X20350000Y25900000D01*
X20355709Y25928701D01*
X20371967Y25953033D01*
X20396299Y25969291D01*
X20425000Y25975000D01*
X20575000Y25975000D01*
X20603701Y25969291D01*
G37*
G36*
X21103701Y25969291D02*
G01*
X21128033Y25953033D01*
X21144291Y25928701D01*
X21150000Y25900000D01*
X21150000Y24450000D01*
X21144291Y24421299D01*
X21128033Y24396967D01*
X21103701Y24380709D01*
X21075000Y24375000D01*
X20925000Y24375000D01*
X20896299Y24380709D01*
X20871967Y24396967D01*
X20855709Y24421299D01*
X20850000Y24450000D01*
X20850000Y25900000D01*
X20855709Y25928701D01*
X20871967Y25953033D01*
X20896299Y25969291D01*
X20925000Y25975000D01*
X21075000Y25975000D01*
X21103701Y25969291D01*
G37*
G36*
X21603701Y25969291D02*
G01*
X21628033Y25953033D01*
X21644291Y25928701D01*
X21650000Y25900000D01*
X21650000Y24450000D01*
X21644291Y24421299D01*
X21628033Y24396967D01*
X21603701Y24380709D01*
X21575000Y24375000D01*
X21425000Y24375000D01*
X21396299Y24380709D01*
X21371967Y24396967D01*
X21355709Y24421299D01*
X21350000Y24450000D01*
X21350000Y25900000D01*
X21355709Y25928701D01*
X21371967Y25953033D01*
X21396299Y25969291D01*
X21425000Y25975000D01*
X21575000Y25975000D01*
X21603701Y25969291D01*
G37*
G36*
X22103701Y25969291D02*
G01*
X22128033Y25953033D01*
X22144291Y25928701D01*
X22150000Y25900000D01*
X22150000Y24450000D01*
X22144291Y24421299D01*
X22128033Y24396967D01*
X22103701Y24380709D01*
X22075000Y24375000D01*
X21925000Y24375000D01*
X21896299Y24380709D01*
X21871967Y24396967D01*
X21855709Y24421299D01*
X21850000Y24450000D01*
X21850000Y25900000D01*
X21855709Y25928701D01*
X21871967Y25953033D01*
X21896299Y25969291D01*
X21925000Y25975000D01*
X22075000Y25975000D01*
X22103701Y25969291D01*
G37*
G36*
X22603701Y25969291D02*
G01*
X22628033Y25953033D01*
X22644291Y25928701D01*
X22650000Y25900000D01*
X22650000Y24450000D01*
X22644291Y24421299D01*
X22628033Y24396967D01*
X22603701Y24380709D01*
X22575000Y24375000D01*
X22425000Y24375000D01*
X22396299Y24380709D01*
X22371967Y24396967D01*
X22355709Y24421299D01*
X22350000Y24450000D01*
X22350000Y25900000D01*
X22355709Y25928701D01*
X22371967Y25953033D01*
X22396299Y25969291D01*
X22425000Y25975000D01*
X22575000Y25975000D01*
X22603701Y25969291D01*
G37*
G36*
X23103701Y25969291D02*
G01*
X23128033Y25953033D01*
X23144291Y25928701D01*
X23150000Y25900000D01*
X23150000Y24450000D01*
X23144291Y24421299D01*
X23128033Y24396967D01*
X23103701Y24380709D01*
X23075000Y24375000D01*
X22925000Y24375000D01*
X22896299Y24380709D01*
X22871967Y24396967D01*
X22855709Y24421299D01*
X22850000Y24450000D01*
X22850000Y25900000D01*
X22855709Y25928701D01*
X22871967Y25953033D01*
X22896299Y25969291D01*
X22925000Y25975000D01*
X23075000Y25975000D01*
X23103701Y25969291D01*
G37*
G36*
X23603701Y25969291D02*
G01*
X23628033Y25953033D01*
X23644291Y25928701D01*
X23650000Y25900000D01*
X23650000Y24450000D01*
X23644291Y24421299D01*
X23628033Y24396967D01*
X23603701Y24380709D01*
X23575000Y24375000D01*
X23425000Y24375000D01*
X23396299Y24380709D01*
X23371967Y24396967D01*
X23355709Y24421299D01*
X23350000Y24450000D01*
X23350000Y25900000D01*
X23355709Y25928701D01*
X23371967Y25953033D01*
X23396299Y25969291D01*
X23425000Y25975000D01*
X23575000Y25975000D01*
X23603701Y25969291D01*
G37*
G36*
X24103701Y25969291D02*
G01*
X24128033Y25953033D01*
X24144291Y25928701D01*
X24150000Y25900000D01*
X24150000Y24450000D01*
X24144291Y24421299D01*
X24128033Y24396967D01*
X24103701Y24380709D01*
X24075000Y24375000D01*
X23925000Y24375000D01*
X23896299Y24380709D01*
X23871967Y24396967D01*
X23855709Y24421299D01*
X23850000Y24450000D01*
X23850000Y25900000D01*
X23855709Y25928701D01*
X23871967Y25953033D01*
X23896299Y25969291D01*
X23925000Y25975000D01*
X24075000Y25975000D01*
X24103701Y25969291D01*
G37*
G36*
X29932403Y25788582D02*
G01*
X29981066Y25756066D01*
X30013582Y25707403D01*
X30025000Y25650000D01*
X30025000Y25350000D01*
X30013582Y25292597D01*
X29981066Y25243934D01*
X29932403Y25211418D01*
X29875000Y25200000D01*
X28850000Y25200000D01*
X28792597Y25211418D01*
X28743934Y25243934D01*
X28711418Y25292597D01*
X28700000Y25350000D01*
X28700000Y25650000D01*
X28711418Y25707403D01*
X28743934Y25756066D01*
X28792597Y25788582D01*
X28850000Y25800000D01*
X29875000Y25800000D01*
X29932403Y25788582D01*
G37*
G36*
X32207403Y25788582D02*
G01*
X32256066Y25756066D01*
X32288582Y25707403D01*
X32300000Y25650000D01*
X32300000Y25350000D01*
X32288582Y25292597D01*
X32256066Y25243934D01*
X32207403Y25211418D01*
X32150000Y25200000D01*
X31125000Y25200000D01*
X31067597Y25211418D01*
X31018934Y25243934D01*
X30986418Y25292597D01*
X30975000Y25350000D01*
X30975000Y25650000D01*
X30986418Y25707403D01*
X31018934Y25756066D01*
X31067597Y25788582D01*
X31125000Y25800000D01*
X32150000Y25800000D01*
X32207403Y25788582D01*
G37*
G36*
X2479047Y26749195D02*
G01*
X2530408Y26743236D01*
X2547954Y26735489D01*
X2570671Y26730970D01*
X2594991Y26714720D01*
X2615793Y26705535D01*
X2630000Y26691328D01*
X2651777Y26676777D01*
X2666327Y26655001D01*
X2680534Y26640794D01*
X2689718Y26619994D01*
X2705970Y26595671D01*
X2710489Y26572952D01*
X2718235Y26555409D01*
X2724192Y26504060D01*
X2725000Y26500000D01*
X2725000Y26000000D01*
X2724192Y25995941D01*
X2718235Y25944592D01*
X2710489Y25927050D01*
X2705970Y25904329D01*
X2689716Y25880005D01*
X2680534Y25859207D01*
X2666329Y25845003D01*
X2651777Y25823223D01*
X2629997Y25808671D01*
X2615793Y25794466D01*
X2594995Y25785284D01*
X2570671Y25769030D01*
X2547950Y25764511D01*
X2530408Y25756765D01*
X2479061Y25750808D01*
X2475000Y25750000D01*
X1525000Y25750000D01*
X1520941Y25750808D01*
X1469591Y25756765D01*
X1452048Y25764511D01*
X1429329Y25769030D01*
X1405006Y25785282D01*
X1384206Y25794466D01*
X1369999Y25808673D01*
X1348223Y25823223D01*
X1333672Y25845000D01*
X1319465Y25859207D01*
X1310280Y25880009D01*
X1294030Y25904329D01*
X1289511Y25927046D01*
X1281764Y25944592D01*
X1275805Y25995951D01*
X1275000Y26000000D01*
X1275000Y26500000D01*
X1275804Y26504047D01*
X1281764Y26555409D01*
X1289511Y26572957D01*
X1294030Y26595671D01*
X1310278Y26619990D01*
X1319465Y26640794D01*
X1333674Y26655004D01*
X1348223Y26676777D01*
X1369996Y26691326D01*
X1384206Y26705535D01*
X1405010Y26714722D01*
X1429329Y26730970D01*
X1452043Y26735489D01*
X1469591Y26743236D01*
X1520952Y26749195D01*
X1525000Y26750000D01*
X2475000Y26750000D01*
X2479047Y26749195D01*
G37*
G36*
X34857403Y27313582D02*
G01*
X34906066Y27281066D01*
X34938582Y27232403D01*
X34950000Y27175000D01*
X34950000Y26000000D01*
X34938582Y25942597D01*
X34906066Y25893934D01*
X34857403Y25861418D01*
X34800000Y25850000D01*
X34500000Y25850000D01*
X34442597Y25861418D01*
X34393934Y25893934D01*
X34361418Y25942597D01*
X34350000Y26000000D01*
X34350000Y27175000D01*
X34361418Y27232403D01*
X34393934Y27281066D01*
X34442597Y27313582D01*
X34500000Y27325000D01*
X34800000Y27325000D01*
X34857403Y27313582D01*
G37*
G36*
X29932403Y26738582D02*
G01*
X29981066Y26706066D01*
X30013582Y26657403D01*
X30025000Y26600000D01*
X30025000Y26300000D01*
X30013582Y26242597D01*
X29981066Y26193934D01*
X29932403Y26161418D01*
X29875000Y26150000D01*
X28850000Y26150000D01*
X28792597Y26161418D01*
X28743934Y26193934D01*
X28711418Y26242597D01*
X28700000Y26300000D01*
X28700000Y26600000D01*
X28711418Y26657403D01*
X28743934Y26706066D01*
X28792597Y26738582D01*
X28850000Y26750000D01*
X29875000Y26750000D01*
X29932403Y26738582D01*
G37*
G36*
X32207403Y26738582D02*
G01*
X32256066Y26706066D01*
X32288582Y26657403D01*
X32300000Y26600000D01*
X32300000Y26300000D01*
X32288582Y26242597D01*
X32256066Y26193934D01*
X32207403Y26161418D01*
X32150000Y26150000D01*
X31125000Y26150000D01*
X31067597Y26161418D01*
X31018934Y26193934D01*
X30986418Y26242597D01*
X30975000Y26300000D01*
X30975000Y26600000D01*
X30986418Y26657403D01*
X31018934Y26706066D01*
X31067597Y26738582D01*
X31125000Y26750000D01*
X32150000Y26750000D01*
X32207403Y26738582D01*
G37*
G36*
X4361418Y26570242D02*
G01*
X4381694Y26556694D01*
X4395242Y26536418D01*
X4400000Y26512500D01*
X4400000Y26387500D01*
X4395242Y26363582D01*
X4381694Y26343306D01*
X4361418Y26329758D01*
X4337500Y26325000D01*
X3862500Y26325000D01*
X3838582Y26329758D01*
X3818306Y26343306D01*
X3804758Y26363582D01*
X3800000Y26387500D01*
X3800000Y26512500D01*
X3804758Y26536418D01*
X3818306Y26556694D01*
X3838582Y26570242D01*
X3862500Y26575000D01*
X4337500Y26575000D01*
X4361418Y26570242D01*
G37*
G36*
X6261418Y26570242D02*
G01*
X6281694Y26556694D01*
X6295242Y26536418D01*
X6300000Y26512500D01*
X6300000Y26387500D01*
X6295242Y26363582D01*
X6281694Y26343306D01*
X6261418Y26329758D01*
X6237500Y26325000D01*
X5762500Y26325000D01*
X5738582Y26329758D01*
X5718306Y26343306D01*
X5704758Y26363582D01*
X5700000Y26387500D01*
X5700000Y26512500D01*
X5704758Y26536418D01*
X5718306Y26556694D01*
X5738582Y26570242D01*
X5762500Y26575000D01*
X6237500Y26575000D01*
X6261418Y26570242D01*
G37*
G36*
X5469134Y27996194D02*
G01*
X5485355Y27985355D01*
X5496194Y27969134D01*
X5500000Y27950000D01*
X5500000Y26450000D01*
X5496194Y26430866D01*
X5485355Y26414645D01*
X5469134Y26403806D01*
X5450000Y26400000D01*
X4650000Y26400000D01*
X4630866Y26403806D01*
X4614645Y26414645D01*
X4603806Y26430866D01*
X4600000Y26450000D01*
X4600000Y27950000D01*
X4603806Y27969134D01*
X4614645Y27985355D01*
X4630866Y27996194D01*
X4650000Y28000000D01*
X5450000Y28000000D01*
X5469134Y27996194D01*
G37*
G36*
X7963268Y30142388D02*
G01*
X7995711Y30120711D01*
X8017388Y30088268D01*
X8025000Y30050000D01*
X8025000Y26850000D01*
X8017388Y26811732D01*
X7995711Y26779289D01*
X7963268Y26757612D01*
X7925000Y26750000D01*
X7125000Y26750000D01*
X7086732Y26757612D01*
X7054289Y26779289D01*
X7032612Y26811732D01*
X7025000Y26850000D01*
X7025000Y30050000D01*
X7032612Y30088268D01*
X7054289Y30120711D01*
X7086732Y30142388D01*
X7125000Y30150000D01*
X7925000Y30150000D01*
X7963268Y30142388D01*
G37*
G36*
X10063268Y30142388D02*
G01*
X10095711Y30120711D01*
X10117388Y30088268D01*
X10125000Y30050000D01*
X10125000Y26850000D01*
X10117388Y26811732D01*
X10095711Y26779289D01*
X10063268Y26757612D01*
X10025000Y26750000D01*
X9225000Y26750000D01*
X9186732Y26757612D01*
X9154289Y26779289D01*
X9132612Y26811732D01*
X9125000Y26850000D01*
X9125000Y30050000D01*
X9132612Y30088268D01*
X9154289Y30120711D01*
X9186732Y30142388D01*
X9225000Y30150000D01*
X10025000Y30150000D01*
X10063268Y30142388D01*
G37*
G36*
X4361418Y27070242D02*
G01*
X4381694Y27056694D01*
X4395242Y27036418D01*
X4400000Y27012500D01*
X4400000Y26887500D01*
X4395242Y26863582D01*
X4381694Y26843306D01*
X4361418Y26829758D01*
X4337500Y26825000D01*
X3862500Y26825000D01*
X3838582Y26829758D01*
X3818306Y26843306D01*
X3804758Y26863582D01*
X3800000Y26887500D01*
X3800000Y27012500D01*
X3804758Y27036418D01*
X3818306Y27056694D01*
X3838582Y27070242D01*
X3862500Y27075000D01*
X4337500Y27075000D01*
X4361418Y27070242D01*
G37*
G36*
X6261418Y27070242D02*
G01*
X6281694Y27056694D01*
X6295242Y27036418D01*
X6300000Y27012500D01*
X6300000Y26887500D01*
X6295242Y26863582D01*
X6281694Y26843306D01*
X6261418Y26829758D01*
X6237500Y26825000D01*
X5762500Y26825000D01*
X5738582Y26829758D01*
X5718306Y26843306D01*
X5704758Y26863582D01*
X5700000Y26887500D01*
X5700000Y27012500D01*
X5704758Y27036418D01*
X5718306Y27056694D01*
X5738582Y27070242D01*
X5762500Y27075000D01*
X6237500Y27075000D01*
X6261418Y27070242D01*
G37*
G36*
X4361418Y27570242D02*
G01*
X4381694Y27556694D01*
X4395242Y27536418D01*
X4400000Y27512500D01*
X4400000Y27387500D01*
X4395242Y27363582D01*
X4381694Y27343306D01*
X4361418Y27329758D01*
X4337500Y27325000D01*
X3862500Y27325000D01*
X3838582Y27329758D01*
X3818306Y27343306D01*
X3804758Y27363582D01*
X3800000Y27387500D01*
X3800000Y27512500D01*
X3804758Y27536418D01*
X3818306Y27556694D01*
X3838582Y27570242D01*
X3862500Y27575000D01*
X4337500Y27575000D01*
X4361418Y27570242D01*
G37*
G36*
X6261418Y27570242D02*
G01*
X6281694Y27556694D01*
X6295242Y27536418D01*
X6300000Y27512500D01*
X6300000Y27387500D01*
X6295242Y27363582D01*
X6281694Y27343306D01*
X6261418Y27329758D01*
X6237500Y27325000D01*
X5762500Y27325000D01*
X5738582Y27329758D01*
X5718306Y27343306D01*
X5704758Y27363582D01*
X5700000Y27387500D01*
X5700000Y27512500D01*
X5704758Y27536418D01*
X5718306Y27556694D01*
X5738582Y27570242D01*
X5762500Y27575000D01*
X6237500Y27575000D01*
X6261418Y27570242D01*
G37*
G36*
X22732403Y28088582D02*
G01*
X22781066Y28056066D01*
X22813582Y28007403D01*
X22825000Y27950000D01*
X22825000Y27650000D01*
X22813582Y27592597D01*
X22781066Y27543934D01*
X22732403Y27511418D01*
X22675000Y27500000D01*
X21650000Y27500000D01*
X21592597Y27511418D01*
X21543934Y27543934D01*
X21511418Y27592597D01*
X21500000Y27650000D01*
X21500000Y27950000D01*
X21511418Y28007403D01*
X21543934Y28056066D01*
X21592597Y28088582D01*
X21650000Y28100000D01*
X22675000Y28100000D01*
X22732403Y28088582D01*
G37*
G36*
X25007403Y28088582D02*
G01*
X25056066Y28056066D01*
X25088582Y28007403D01*
X25100000Y27950000D01*
X25100000Y27650000D01*
X25088582Y27592597D01*
X25056066Y27543934D01*
X25007403Y27511418D01*
X24950000Y27500000D01*
X23925000Y27500000D01*
X23867597Y27511418D01*
X23818934Y27543934D01*
X23786418Y27592597D01*
X23775000Y27650000D01*
X23775000Y27950000D01*
X23786418Y28007403D01*
X23818934Y28056066D01*
X23867597Y28088582D01*
X23925000Y28100000D01*
X24950000Y28100000D01*
X25007403Y28088582D01*
G37*
G36*
X11829047Y29349195D02*
G01*
X11880408Y29343236D01*
X11897954Y29335489D01*
X11920671Y29330970D01*
X11944991Y29314720D01*
X11965793Y29305535D01*
X11980000Y29291328D01*
X12001777Y29276777D01*
X12016327Y29255001D01*
X12030534Y29240794D01*
X12039718Y29219994D01*
X12055970Y29195671D01*
X12060489Y29172952D01*
X12068235Y29155409D01*
X12074192Y29104060D01*
X12075000Y29100000D01*
X12075000Y27800000D01*
X12074192Y27795941D01*
X12068235Y27744592D01*
X12060489Y27727050D01*
X12055970Y27704329D01*
X12039716Y27680005D01*
X12030534Y27659207D01*
X12016329Y27645003D01*
X12001777Y27623223D01*
X11979997Y27608671D01*
X11965793Y27594466D01*
X11944995Y27585284D01*
X11920671Y27569030D01*
X11897950Y27564511D01*
X11880408Y27556765D01*
X11829061Y27550808D01*
X11825000Y27550000D01*
X11175000Y27550000D01*
X11170941Y27550808D01*
X11119591Y27556765D01*
X11102048Y27564511D01*
X11079329Y27569030D01*
X11055006Y27585282D01*
X11034206Y27594466D01*
X11019999Y27608673D01*
X10998223Y27623223D01*
X10983672Y27645000D01*
X10969465Y27659207D01*
X10960280Y27680009D01*
X10944030Y27704329D01*
X10939511Y27727046D01*
X10931764Y27744592D01*
X10925805Y27795951D01*
X10925000Y27800000D01*
X10925000Y29100000D01*
X10925804Y29104047D01*
X10931764Y29155409D01*
X10939511Y29172957D01*
X10944030Y29195671D01*
X10960278Y29219990D01*
X10969465Y29240794D01*
X10983674Y29255004D01*
X10998223Y29276777D01*
X11019996Y29291326D01*
X11034206Y29305535D01*
X11055010Y29314722D01*
X11079329Y29330970D01*
X11102043Y29335489D01*
X11119591Y29343236D01*
X11170952Y29349195D01*
X11175000Y29350000D01*
X11825000Y29350000D01*
X11829047Y29349195D01*
G37*
G36*
X14779047Y29349195D02*
G01*
X14830408Y29343236D01*
X14847954Y29335489D01*
X14870671Y29330970D01*
X14894991Y29314720D01*
X14915793Y29305535D01*
X14930000Y29291328D01*
X14951777Y29276777D01*
X14966327Y29255001D01*
X14980534Y29240794D01*
X14989718Y29219994D01*
X15005970Y29195671D01*
X15010489Y29172952D01*
X15018235Y29155409D01*
X15024192Y29104060D01*
X15025000Y29100000D01*
X15025000Y27800000D01*
X15024192Y27795941D01*
X15018235Y27744592D01*
X15010489Y27727050D01*
X15005970Y27704329D01*
X14989716Y27680005D01*
X14980534Y27659207D01*
X14966329Y27645003D01*
X14951777Y27623223D01*
X14929997Y27608671D01*
X14915793Y27594466D01*
X14894995Y27585284D01*
X14870671Y27569030D01*
X14847950Y27564511D01*
X14830408Y27556765D01*
X14779061Y27550808D01*
X14775000Y27550000D01*
X14125000Y27550000D01*
X14120941Y27550808D01*
X14069591Y27556765D01*
X14052048Y27564511D01*
X14029329Y27569030D01*
X14005006Y27585282D01*
X13984206Y27594466D01*
X13969999Y27608673D01*
X13948223Y27623223D01*
X13933672Y27645000D01*
X13919465Y27659207D01*
X13910280Y27680009D01*
X13894030Y27704329D01*
X13889511Y27727046D01*
X13881764Y27744592D01*
X13875805Y27795951D01*
X13875000Y27800000D01*
X13875000Y29100000D01*
X13875804Y29104047D01*
X13881764Y29155409D01*
X13889511Y29172957D01*
X13894030Y29195671D01*
X13910278Y29219990D01*
X13919465Y29240794D01*
X13933674Y29255004D01*
X13948223Y29276777D01*
X13969996Y29291326D01*
X13984206Y29305535D01*
X14005010Y29314722D01*
X14029329Y29330970D01*
X14052043Y29335489D01*
X14069591Y29343236D01*
X14120952Y29349195D01*
X14125000Y29350000D01*
X14775000Y29350000D01*
X14779047Y29349195D01*
G37*
G36*
X2479047Y28649195D02*
G01*
X2530408Y28643236D01*
X2547954Y28635489D01*
X2570671Y28630970D01*
X2594991Y28614720D01*
X2615793Y28605535D01*
X2630000Y28591328D01*
X2651777Y28576777D01*
X2666327Y28555001D01*
X2680534Y28540794D01*
X2689718Y28519994D01*
X2705970Y28495671D01*
X2710489Y28472952D01*
X2718235Y28455409D01*
X2724192Y28404060D01*
X2725000Y28400000D01*
X2725000Y27900000D01*
X2724192Y27895941D01*
X2718235Y27844592D01*
X2710489Y27827050D01*
X2705970Y27804329D01*
X2689716Y27780005D01*
X2680534Y27759207D01*
X2666329Y27745003D01*
X2651777Y27723223D01*
X2629997Y27708671D01*
X2615793Y27694466D01*
X2594995Y27685284D01*
X2570671Y27669030D01*
X2547950Y27664511D01*
X2530408Y27656765D01*
X2479061Y27650808D01*
X2475000Y27650000D01*
X1525000Y27650000D01*
X1520941Y27650808D01*
X1469591Y27656765D01*
X1452048Y27664511D01*
X1429329Y27669030D01*
X1405006Y27685282D01*
X1384206Y27694466D01*
X1369999Y27708673D01*
X1348223Y27723223D01*
X1333672Y27745000D01*
X1319465Y27759207D01*
X1310280Y27780009D01*
X1294030Y27804329D01*
X1289511Y27827046D01*
X1281764Y27844592D01*
X1275805Y27895951D01*
X1275000Y27900000D01*
X1275000Y28400000D01*
X1275804Y28404047D01*
X1281764Y28455409D01*
X1289511Y28472957D01*
X1294030Y28495671D01*
X1310278Y28519990D01*
X1319465Y28540794D01*
X1333674Y28555004D01*
X1348223Y28576777D01*
X1369996Y28591326D01*
X1384206Y28605535D01*
X1405010Y28614722D01*
X1429329Y28630970D01*
X1452043Y28635489D01*
X1469591Y28643236D01*
X1520952Y28649195D01*
X1525000Y28650000D01*
X2475000Y28650000D01*
X2479047Y28649195D01*
G37*
G36*
X4361418Y28070242D02*
G01*
X4381694Y28056694D01*
X4395242Y28036418D01*
X4400000Y28012500D01*
X4400000Y27887500D01*
X4395242Y27863582D01*
X4381694Y27843306D01*
X4361418Y27829758D01*
X4337500Y27825000D01*
X3862500Y27825000D01*
X3838582Y27829758D01*
X3818306Y27843306D01*
X3804758Y27863582D01*
X3800000Y27887500D01*
X3800000Y28012500D01*
X3804758Y28036418D01*
X3818306Y28056694D01*
X3838582Y28070242D01*
X3862500Y28075000D01*
X4337500Y28075000D01*
X4361418Y28070242D01*
G37*
G36*
X6261418Y28070242D02*
G01*
X6281694Y28056694D01*
X6295242Y28036418D01*
X6300000Y28012500D01*
X6300000Y27887500D01*
X6295242Y27863582D01*
X6281694Y27843306D01*
X6261418Y27829758D01*
X6237500Y27825000D01*
X5762500Y27825000D01*
X5738582Y27829758D01*
X5718306Y27843306D01*
X5704758Y27863582D01*
X5700000Y27887500D01*
X5700000Y28012500D01*
X5704758Y28036418D01*
X5718306Y28056694D01*
X5738582Y28070242D01*
X5762500Y28075000D01*
X6237500Y28075000D01*
X6261418Y28070242D01*
G37*
G36*
X29651537Y28959776D02*
G01*
X29716421Y28916421D01*
X29759776Y28851537D01*
X29775000Y28775000D01*
X29775000Y28225000D01*
X29759776Y28148463D01*
X29716421Y28083579D01*
X29651537Y28040224D01*
X29575000Y28025000D01*
X29175000Y28025000D01*
X29098463Y28040224D01*
X29033579Y28083579D01*
X28990224Y28148463D01*
X28975000Y28225000D01*
X28975000Y28775000D01*
X28990224Y28851537D01*
X29033579Y28916421D01*
X29098463Y28959776D01*
X29175000Y28975000D01*
X29575000Y28975000D01*
X29651537Y28959776D01*
G37*
G36*
X31301537Y28959776D02*
G01*
X31366421Y28916421D01*
X31409776Y28851537D01*
X31425000Y28775000D01*
X31425000Y28225000D01*
X31409776Y28148463D01*
X31366421Y28083579D01*
X31301537Y28040224D01*
X31225000Y28025000D01*
X30825000Y28025000D01*
X30748463Y28040224D01*
X30683579Y28083579D01*
X30640224Y28148463D01*
X30625000Y28225000D01*
X30625000Y28775000D01*
X30640224Y28851537D01*
X30683579Y28916421D01*
X30748463Y28959776D01*
X30825000Y28975000D01*
X31225000Y28975000D01*
X31301537Y28959776D01*
G37*
G36*
X22732403Y29038582D02*
G01*
X22781066Y29006066D01*
X22813582Y28957403D01*
X22825000Y28900000D01*
X22825000Y28600000D01*
X22813582Y28542597D01*
X22781066Y28493934D01*
X22732403Y28461418D01*
X22675000Y28450000D01*
X21650000Y28450000D01*
X21592597Y28461418D01*
X21543934Y28493934D01*
X21511418Y28542597D01*
X21500000Y28600000D01*
X21500000Y28900000D01*
X21511418Y28957403D01*
X21543934Y29006066D01*
X21592597Y29038582D01*
X21650000Y29050000D01*
X22675000Y29050000D01*
X22732403Y29038582D01*
G37*
G36*
X25007403Y29038582D02*
G01*
X25056066Y29006066D01*
X25088582Y28957403D01*
X25100000Y28900000D01*
X25100000Y28600000D01*
X25088582Y28542597D01*
X25056066Y28493934D01*
X25007403Y28461418D01*
X24950000Y28450000D01*
X23925000Y28450000D01*
X23867597Y28461418D01*
X23818934Y28493934D01*
X23786418Y28542597D01*
X23775000Y28600000D01*
X23775000Y28900000D01*
X23786418Y28957403D01*
X23818934Y29006066D01*
X23867597Y29038582D01*
X23925000Y29050000D01*
X24950000Y29050000D01*
X25007403Y29038582D01*
G37*
G36*
X33286104Y29457873D02*
G01*
X33359099Y29409099D01*
X33407873Y29336104D01*
X33425000Y29250000D01*
X33425000Y28750000D01*
X33407873Y28663896D01*
X33359099Y28590901D01*
X33286104Y28542127D01*
X33200000Y28525000D01*
X32750000Y28525000D01*
X32663896Y28542127D01*
X32590901Y28590901D01*
X32542127Y28663896D01*
X32525000Y28750000D01*
X32525000Y29250000D01*
X32542127Y29336104D01*
X32590901Y29409099D01*
X32663896Y29457873D01*
X32750000Y29475000D01*
X33200000Y29475000D01*
X33286104Y29457873D01*
G37*
G36*
X34836104Y29457873D02*
G01*
X34909099Y29409099D01*
X34957873Y29336104D01*
X34975000Y29250000D01*
X34975000Y28750000D01*
X34957873Y28663896D01*
X34909099Y28590901D01*
X34836104Y28542127D01*
X34750000Y28525000D01*
X34300000Y28525000D01*
X34213896Y28542127D01*
X34140901Y28590901D01*
X34092127Y28663896D01*
X34075000Y28750000D01*
X34075000Y29250000D01*
X34092127Y29336104D01*
X34140901Y29409099D01*
X34213896Y29457873D01*
X34300000Y29475000D01*
X34750000Y29475000D01*
X34836104Y29457873D01*
G37*
G36*
X22732403Y29988582D02*
G01*
X22781066Y29956066D01*
X22813582Y29907403D01*
X22825000Y29850000D01*
X22825000Y29550000D01*
X22813582Y29492597D01*
X22781066Y29443934D01*
X22732403Y29411418D01*
X22675000Y29400000D01*
X21650000Y29400000D01*
X21592597Y29411418D01*
X21543934Y29443934D01*
X21511418Y29492597D01*
X21500000Y29550000D01*
X21500000Y29850000D01*
X21511418Y29907403D01*
X21543934Y29956066D01*
X21592597Y29988582D01*
X21650000Y30000000D01*
X22675000Y30000000D01*
X22732403Y29988582D01*
G37*
G36*
X25007403Y29988582D02*
G01*
X25056066Y29956066D01*
X25088582Y29907403D01*
X25100000Y29850000D01*
X25100000Y29550000D01*
X25088582Y29492597D01*
X25056066Y29443934D01*
X25007403Y29411418D01*
X24950000Y29400000D01*
X23925000Y29400000D01*
X23867597Y29411418D01*
X23818934Y29443934D01*
X23786418Y29492597D01*
X23775000Y29550000D01*
X23775000Y29850000D01*
X23786418Y29907403D01*
X23818934Y29956066D01*
X23867597Y29988582D01*
X23925000Y30000000D01*
X24950000Y30000000D01*
X25007403Y29988582D01*
G37*
G36*
X10740118Y33886451D02*
G01*
X10797865Y33847865D01*
X10836451Y33790118D01*
X10850000Y33722000D01*
X10850000Y31978000D01*
X10836451Y31909882D01*
X10797865Y31852135D01*
X10740118Y31813549D01*
X10672000Y31800000D01*
X9328000Y31800000D01*
X9259882Y31813549D01*
X9202135Y31852135D01*
X9163549Y31909882D01*
X9150000Y31978000D01*
X9150000Y33722000D01*
X9163549Y33790118D01*
X9202135Y33847865D01*
X9259882Y33886451D01*
X9328000Y33900000D01*
X10672000Y33900000D01*
X10740118Y33886451D01*
G37*
G36*
X12740118Y33886451D02*
G01*
X12797865Y33847865D01*
X12836451Y33790118D01*
X12850000Y33722000D01*
X12850000Y31978000D01*
X12836451Y31909882D01*
X12797865Y31852135D01*
X12740118Y31813549D01*
X12672000Y31800000D01*
X11328000Y31800000D01*
X11259882Y31813549D01*
X11202135Y31852135D01*
X11163549Y31909882D01*
X11150000Y31978000D01*
X11150000Y33722000D01*
X11163549Y33790118D01*
X11202135Y33847865D01*
X11259882Y33886451D01*
X11328000Y33900000D01*
X12672000Y33900000D01*
X12740118Y33886451D01*
G37*
G36*
X14790118Y33886451D02*
G01*
X14847865Y33847865D01*
X14886451Y33790118D01*
X14900000Y33722000D01*
X14900000Y31978000D01*
X14886451Y31909882D01*
X14847865Y31852135D01*
X14790118Y31813549D01*
X14722000Y31800000D01*
X13378000Y31800000D01*
X13309882Y31813549D01*
X13252135Y31852135D01*
X13213549Y31909882D01*
X13200000Y31978000D01*
X13200000Y33722000D01*
X13213549Y33790118D01*
X13252135Y33847865D01*
X13309882Y33886451D01*
X13378000Y33900000D01*
X14722000Y33900000D01*
X14790118Y33886451D01*
G37*
G36*
X16740118Y33886451D02*
G01*
X16797865Y33847865D01*
X16836451Y33790118D01*
X16850000Y33722000D01*
X16850000Y31978000D01*
X16836451Y31909882D01*
X16797865Y31852135D01*
X16740118Y31813549D01*
X16672000Y31800000D01*
X15328000Y31800000D01*
X15259882Y31813549D01*
X15202135Y31852135D01*
X15163549Y31909882D01*
X15150000Y31978000D01*
X15150000Y33722000D01*
X15163549Y33790118D01*
X15202135Y33847865D01*
X15259882Y33886451D01*
X15328000Y33900000D01*
X16672000Y33900000D01*
X16740118Y33886451D01*
G37*
G36*
X18740118Y33886451D02*
G01*
X18797865Y33847865D01*
X18836451Y33790118D01*
X18850000Y33722000D01*
X18850000Y31978000D01*
X18836451Y31909882D01*
X18797865Y31852135D01*
X18740118Y31813549D01*
X18672000Y31800000D01*
X17328000Y31800000D01*
X17259882Y31813549D01*
X17202135Y31852135D01*
X17163549Y31909882D01*
X17150000Y31978000D01*
X17150000Y33722000D01*
X17163549Y33790118D01*
X17202135Y33847865D01*
X17259882Y33886451D01*
X17328000Y33900000D01*
X18672000Y33900000D01*
X18740118Y33886451D01*
G37*
G36*
X20740118Y33886451D02*
G01*
X20797865Y33847865D01*
X20836451Y33790118D01*
X20850000Y33722000D01*
X20850000Y31978000D01*
X20836451Y31909882D01*
X20797865Y31852135D01*
X20740118Y31813549D01*
X20672000Y31800000D01*
X19328000Y31800000D01*
X19259882Y31813549D01*
X19202135Y31852135D01*
X19163549Y31909882D01*
X19150000Y31978000D01*
X19150000Y33722000D01*
X19163549Y33790118D01*
X19202135Y33847865D01*
X19259882Y33886451D01*
X19328000Y33900000D01*
X20672000Y33900000D01*
X20740118Y33886451D01*
G37*
G36*
X22740118Y33886451D02*
G01*
X22797865Y33847865D01*
X22836451Y33790118D01*
X22850000Y33722000D01*
X22850000Y31978000D01*
X22836451Y31909882D01*
X22797865Y31852135D01*
X22740118Y31813549D01*
X22672000Y31800000D01*
X21328000Y31800000D01*
X21259882Y31813549D01*
X21202135Y31852135D01*
X21163549Y31909882D01*
X21150000Y31978000D01*
X21150000Y33722000D01*
X21163549Y33790118D01*
X21202135Y33847865D01*
X21259882Y33886451D01*
X21328000Y33900000D01*
X22672000Y33900000D01*
X22740118Y33886451D01*
G37*
G36*
X24740118Y33886451D02*
G01*
X24797865Y33847865D01*
X24836451Y33790118D01*
X24850000Y33722000D01*
X24850000Y31978000D01*
X24836451Y31909882D01*
X24797865Y31852135D01*
X24740118Y31813549D01*
X24672000Y31800000D01*
X23328000Y31800000D01*
X23259882Y31813549D01*
X23202135Y31852135D01*
X23163549Y31909882D01*
X23150000Y31978000D01*
X23150000Y33722000D01*
X23163549Y33790118D01*
X23202135Y33847865D01*
X23259882Y33886451D01*
X23328000Y33900000D01*
X24672000Y33900000D01*
X24740118Y33886451D01*
G37*
G36*
X26740118Y33886451D02*
G01*
X26797865Y33847865D01*
X26836451Y33790118D01*
X26850000Y33722000D01*
X26850000Y31978000D01*
X26836451Y31909882D01*
X26797865Y31852135D01*
X26740118Y31813549D01*
X26672000Y31800000D01*
X25328000Y31800000D01*
X25259882Y31813549D01*
X25202135Y31852135D01*
X25163549Y31909882D01*
X25150000Y31978000D01*
X25150000Y33722000D01*
X25163549Y33790118D01*
X25202135Y33847865D01*
X25259882Y33886451D01*
X25328000Y33900000D01*
X26672000Y33900000D01*
X26740118Y33886451D01*
G37*
G36*
X28740118Y33886451D02*
G01*
X28797865Y33847865D01*
X28836451Y33790118D01*
X28850000Y33722000D01*
X28850000Y31978000D01*
X28836451Y31909882D01*
X28797865Y31852135D01*
X28740118Y31813549D01*
X28672000Y31800000D01*
X27328000Y31800000D01*
X27259882Y31813549D01*
X27202135Y31852135D01*
X27163549Y31909882D01*
X27150000Y31978000D01*
X27150000Y33722000D01*
X27163549Y33790118D01*
X27202135Y33847865D01*
X27259882Y33886451D01*
X27328000Y33900000D01*
X28672000Y33900000D01*
X28740118Y33886451D01*
G37*
G36*
X4006790Y35319607D02*
G01*
X4170952Y35266267D01*
X4324748Y35187904D01*
X4464393Y35086447D01*
X4586447Y34964393D01*
X4687904Y34824748D01*
X4766267Y34670952D01*
X4819607Y34506790D01*
X4846609Y34336305D01*
X4846609Y34163695D01*
X4819607Y33993210D01*
X4766267Y33829048D01*
X4687904Y33675252D01*
X4586447Y33535607D01*
X4464393Y33413553D01*
X4324748Y33312096D01*
X4170952Y33233733D01*
X4006790Y33180393D01*
X3836305Y33153391D01*
X3663695Y33153391D01*
X3493210Y33180393D01*
X3329048Y33233733D01*
X3175252Y33312096D01*
X3035607Y33413553D01*
X2913553Y33535607D01*
X2812096Y33675252D01*
X2733733Y33829048D01*
X2680393Y33993210D01*
X2653391Y34163695D01*
X2653391Y34336305D01*
X2680393Y34506790D01*
X2733733Y34670952D01*
X2812096Y34824748D01*
X2913553Y34964393D01*
X3035607Y35086447D01*
X3175252Y35187904D01*
X3329048Y35266267D01*
X3493210Y35319607D01*
X3663695Y35346609D01*
X3836305Y35346609D01*
X4006790Y35319607D01*
G37*
G36*
X34506790Y35319607D02*
G01*
X34670952Y35266267D01*
X34824748Y35187904D01*
X34964393Y35086447D01*
X35086447Y34964393D01*
X35187904Y34824748D01*
X35266267Y34670952D01*
X35319607Y34506790D01*
X35346609Y34336305D01*
X35346609Y34163695D01*
X35319607Y33993210D01*
X35266267Y33829048D01*
X35187904Y33675252D01*
X35086447Y33535607D01*
X34964393Y33413553D01*
X34824748Y33312096D01*
X34670952Y33233733D01*
X34506790Y33180393D01*
X34336305Y33153391D01*
X34163695Y33153391D01*
X33993210Y33180393D01*
X33829048Y33233733D01*
X33675252Y33312096D01*
X33535607Y33413553D01*
X33413553Y33535607D01*
X33312096Y33675252D01*
X33233733Y33829048D01*
X33180393Y33993210D01*
X33153391Y34163695D01*
X33153391Y34336305D01*
X33180393Y34506790D01*
X33233733Y34670952D01*
X33312096Y34824748D01*
X33413553Y34964393D01*
X33535607Y35086447D01*
X33675252Y35187904D01*
X33829048Y35266267D01*
X33993210Y35319607D01*
X34163695Y35346609D01*
X34336305Y35346609D01*
X34506790Y35319607D01*
G37*
G36*
X8740118Y37536451D02*
G01*
X8797865Y37497865D01*
X8836451Y37440118D01*
X8850000Y37372000D01*
X8850000Y35628000D01*
X8836451Y35559882D01*
X8797865Y35502135D01*
X8740118Y35463549D01*
X8672000Y35450000D01*
X7328000Y35450000D01*
X7259882Y35463549D01*
X7202135Y35502135D01*
X7163549Y35559882D01*
X7150000Y35628000D01*
X7150000Y37372000D01*
X7163549Y37440118D01*
X7202135Y37497865D01*
X7259882Y37536451D01*
X7328000Y37550000D01*
X8672000Y37550000D01*
X8740118Y37536451D01*
G37*
G36*
X10740118Y37536451D02*
G01*
X10797865Y37497865D01*
X10836451Y37440118D01*
X10850000Y37372000D01*
X10850000Y35628000D01*
X10836451Y35559882D01*
X10797865Y35502135D01*
X10740118Y35463549D01*
X10672000Y35450000D01*
X9328000Y35450000D01*
X9259882Y35463549D01*
X9202135Y35502135D01*
X9163549Y35559882D01*
X9150000Y35628000D01*
X9150000Y37372000D01*
X9163549Y37440118D01*
X9202135Y37497865D01*
X9259882Y37536451D01*
X9328000Y37550000D01*
X10672000Y37550000D01*
X10740118Y37536451D01*
G37*
G36*
X12740118Y37536451D02*
G01*
X12797865Y37497865D01*
X12836451Y37440118D01*
X12850000Y37372000D01*
X12850000Y35628000D01*
X12836451Y35559882D01*
X12797865Y35502135D01*
X12740118Y35463549D01*
X12672000Y35450000D01*
X11328000Y35450000D01*
X11259882Y35463549D01*
X11202135Y35502135D01*
X11163549Y35559882D01*
X11150000Y35628000D01*
X11150000Y37372000D01*
X11163549Y37440118D01*
X11202135Y37497865D01*
X11259882Y37536451D01*
X11328000Y37550000D01*
X12672000Y37550000D01*
X12740118Y37536451D01*
G37*
G36*
X14740118Y37536451D02*
G01*
X14797865Y37497865D01*
X14836451Y37440118D01*
X14850000Y37372000D01*
X14850000Y35628000D01*
X14836451Y35559882D01*
X14797865Y35502135D01*
X14740118Y35463549D01*
X14672000Y35450000D01*
X13328000Y35450000D01*
X13259882Y35463549D01*
X13202135Y35502135D01*
X13163549Y35559882D01*
X13150000Y35628000D01*
X13150000Y37372000D01*
X13163549Y37440118D01*
X13202135Y37497865D01*
X13259882Y37536451D01*
X13328000Y37550000D01*
X14672000Y37550000D01*
X14740118Y37536451D01*
G37*
G36*
X16740118Y37536451D02*
G01*
X16797865Y37497865D01*
X16836451Y37440118D01*
X16850000Y37372000D01*
X16850000Y35628000D01*
X16836451Y35559882D01*
X16797865Y35502135D01*
X16740118Y35463549D01*
X16672000Y35450000D01*
X15328000Y35450000D01*
X15259882Y35463549D01*
X15202135Y35502135D01*
X15163549Y35559882D01*
X15150000Y35628000D01*
X15150000Y37372000D01*
X15163549Y37440118D01*
X15202135Y37497865D01*
X15259882Y37536451D01*
X15328000Y37550000D01*
X16672000Y37550000D01*
X16740118Y37536451D01*
G37*
G36*
X18740118Y37536451D02*
G01*
X18797865Y37497865D01*
X18836451Y37440118D01*
X18850000Y37372000D01*
X18850000Y35628000D01*
X18836451Y35559882D01*
X18797865Y35502135D01*
X18740118Y35463549D01*
X18672000Y35450000D01*
X17328000Y35450000D01*
X17259882Y35463549D01*
X17202135Y35502135D01*
X17163549Y35559882D01*
X17150000Y35628000D01*
X17150000Y37372000D01*
X17163549Y37440118D01*
X17202135Y37497865D01*
X17259882Y37536451D01*
X17328000Y37550000D01*
X18672000Y37550000D01*
X18740118Y37536451D01*
G37*
G36*
X20740118Y37536451D02*
G01*
X20797865Y37497865D01*
X20836451Y37440118D01*
X20850000Y37372000D01*
X20850000Y35628000D01*
X20836451Y35559882D01*
X20797865Y35502135D01*
X20740118Y35463549D01*
X20672000Y35450000D01*
X19328000Y35450000D01*
X19259882Y35463549D01*
X19202135Y35502135D01*
X19163549Y35559882D01*
X19150000Y35628000D01*
X19150000Y37372000D01*
X19163549Y37440118D01*
X19202135Y37497865D01*
X19259882Y37536451D01*
X19328000Y37550000D01*
X20672000Y37550000D01*
X20740118Y37536451D01*
G37*
G36*
X22740118Y37536451D02*
G01*
X22797865Y37497865D01*
X22836451Y37440118D01*
X22850000Y37372000D01*
X22850000Y35628000D01*
X22836451Y35559882D01*
X22797865Y35502135D01*
X22740118Y35463549D01*
X22672000Y35450000D01*
X21328000Y35450000D01*
X21259882Y35463549D01*
X21202135Y35502135D01*
X21163549Y35559882D01*
X21150000Y35628000D01*
X21150000Y37372000D01*
X21163549Y37440118D01*
X21202135Y37497865D01*
X21259882Y37536451D01*
X21328000Y37550000D01*
X22672000Y37550000D01*
X22740118Y37536451D01*
G37*
G36*
X24740118Y37536451D02*
G01*
X24797865Y37497865D01*
X24836451Y37440118D01*
X24850000Y37372000D01*
X24850000Y35628000D01*
X24836451Y35559882D01*
X24797865Y35502135D01*
X24740118Y35463549D01*
X24672000Y35450000D01*
X23328000Y35450000D01*
X23259882Y35463549D01*
X23202135Y35502135D01*
X23163549Y35559882D01*
X23150000Y35628000D01*
X23150000Y37372000D01*
X23163549Y37440118D01*
X23202135Y37497865D01*
X23259882Y37536451D01*
X23328000Y37550000D01*
X24672000Y37550000D01*
X24740118Y37536451D01*
G37*
G36*
X26740118Y37536451D02*
G01*
X26797865Y37497865D01*
X26836451Y37440118D01*
X26850000Y37372000D01*
X26850000Y35628000D01*
X26836451Y35559882D01*
X26797865Y35502135D01*
X26740118Y35463549D01*
X26672000Y35450000D01*
X25328000Y35450000D01*
X25259882Y35463549D01*
X25202135Y35502135D01*
X25163549Y35559882D01*
X25150000Y35628000D01*
X25150000Y37372000D01*
X25163549Y37440118D01*
X25202135Y37497865D01*
X25259882Y37536451D01*
X25328000Y37550000D01*
X26672000Y37550000D01*
X26740118Y37536451D01*
G37*
G36*
X28740118Y37536451D02*
G01*
X28797865Y37497865D01*
X28836451Y37440118D01*
X28850000Y37372000D01*
X28850000Y35628000D01*
X28836451Y35559882D01*
X28797865Y35502135D01*
X28740118Y35463549D01*
X28672000Y35450000D01*
X27328000Y35450000D01*
X27259882Y35463549D01*
X27202135Y35502135D01*
X27163549Y35559882D01*
X27150000Y35628000D01*
X27150000Y37372000D01*
X27163549Y37440118D01*
X27202135Y37497865D01*
X27259882Y37536451D01*
X27328000Y37550000D01*
X28672000Y37550000D01*
X28740118Y37536451D01*
G37*
G36*
X30740118Y37536451D02*
G01*
X30797865Y37497865D01*
X30836451Y37440118D01*
X30850000Y37372000D01*
X30850000Y35628000D01*
X30836451Y35559882D01*
X30797865Y35502135D01*
X30740118Y35463549D01*
X30672000Y35450000D01*
X29328000Y35450000D01*
X29259882Y35463549D01*
X29202135Y35502135D01*
X29163549Y35559882D01*
X29150000Y35628000D01*
X29150000Y37372000D01*
X29163549Y37440118D01*
X29202135Y37497865D01*
X29259882Y37536451D01*
X29328000Y37550000D01*
X30672000Y37550000D01*
X30740118Y37536451D01*
G37*
M02*
