%TF.GenerationSoftware,KiCad,Pcbnew,9.0.2+dfsg-1*%
%TF.CreationDate,2026-10-04T02:34:44+08:00*%
%TF.ProjectId,controller,636f6e74-726f-46c6-9c65-722e6b696361,R3-S6-P6*%
%TF.SameCoordinates,Original*%
%TF.FileFunction,Paste,Bot*%
%TF.FilePolarity,Positive*%
%FSLAX46Y46*%
G04 Gerber Fmt 4.6, Leading zero omitted, Abs format (unit mm)*
G04 Created by KiCad (PCBNEW 9.0.2+dfsg-1) date 2026-10-04 02:34:44*
%MOMM*%
%LPD*%
G01*
G04 APERTURE LIST*
G04 Aperture macros list*
%AMRoundRect*
0 Rectangle with rounded corners*
0 $1 Rounding radius*
0 $2 $3 $4 $5 $6 $7 $8 $9 X,Y pos of 4 corners*
0 Add a 4 corners polygon primitive as box body*
4,1,4,$2,$3,$4,$5,$6,$7,$8,$9,$2,$3,0*
0 Add four circle primitives for the rounded corners*
1,1,$1+$1,$2,$3*
1,1,$1+$1,$4,$5*
1,1,$1+$1,$6,$7*
1,1,$1+$1,$8,$9*
0 Add four rect primitives between the rounded corners*
20,1,$1+$1,$2,$3,$4,$5,0*
20,1,$1+$1,$4,$5,$6,$7,0*
20,1,$1+$1,$6,$7,$8,$9,0*
20,1,$1+$1,$8,$9,$2,$3,0*%
G04 Aperture macros list end*
%ADD10RoundRect,0.200000X-0.200000X-0.275000X0.200000X-0.275000X0.200000X0.275000X-0.200000X0.275000X0*%
%ADD11RoundRect,0.225000X-0.250000X0.225000X-0.250000X-0.225000X0.250000X-0.225000X0.250000X0.225000X0*%
%ADD12RoundRect,0.225000X0.225000X0.250000X-0.225000X0.250000X-0.225000X-0.250000X0.225000X-0.250000X0*%
%ADD13RoundRect,0.250000X0.435000X0.615000X-0.435000X0.615000X-0.435000X-0.615000X0.435000X-0.615000X0*%
%ADD14RoundRect,0.125000X0.200000X0.125000X-0.200000X0.125000X-0.200000X-0.125000X0.200000X-0.125000X0*%
%ADD15RoundRect,0.225000X-0.225000X-0.250000X0.225000X-0.250000X0.225000X0.250000X-0.225000X0.250000X0*%
%ADD16RoundRect,0.200000X0.275000X-0.200000X0.275000X0.200000X-0.275000X0.200000X-0.275000X-0.200000X0*%
%ADD17RoundRect,0.250000X-0.475000X0.250000X-0.475000X-0.250000X0.475000X-0.250000X0.475000X0.250000X0*%
%ADD18R,0.470000X0.600000*%
%ADD19RoundRect,0.150000X-0.625000X0.150000X-0.625000X-0.150000X0.625000X-0.150000X0.625000X0.150000X0*%
%ADD20RoundRect,0.250000X-0.650000X0.350000X-0.650000X-0.350000X0.650000X-0.350000X0.650000X0.350000X0*%
%ADD21RoundRect,0.200000X-0.275000X0.200000X-0.275000X-0.200000X0.275000X-0.200000X0.275000X0.200000X0*%
%ADD22RoundRect,0.225000X0.250000X-0.225000X0.250000X0.225000X-0.250000X0.225000X-0.250000X-0.225000X0*%
%ADD23RoundRect,0.150000X0.625000X-0.150000X0.625000X0.150000X-0.625000X0.150000X-0.625000X-0.150000X0*%
%ADD24RoundRect,0.250000X0.650000X-0.350000X0.650000X0.350000X-0.650000X0.350000X-0.650000X-0.350000X0*%
%ADD25RoundRect,0.200000X0.200000X0.275000X-0.200000X0.275000X-0.200000X-0.275000X0.200000X-0.275000X0*%
%ADD26RoundRect,0.150000X-0.512500X-0.150000X0.512500X-0.150000X0.512500X0.150000X-0.512500X0.150000X0*%
G04 APERTURE END LIST*
D10*
%TO.C,R53*%
X15875000Y21650000D03*
X17525000Y21650000D03*
%TD*%
D11*
%TO.C,C33*%
X15400000Y15125000D03*
X15400000Y13575000D03*
%TD*%
D12*
%TO.C,C40*%
X28875000Y10500000D03*
X27325000Y10500000D03*
%TD*%
D13*
%TO.C,U11*%
X21400000Y16550000D03*
X21400000Y18700000D03*
X19700000Y16550000D03*
X19700000Y18700000D03*
D14*
X24300000Y19530000D03*
X24300000Y18260000D03*
X24300000Y16990000D03*
X24300000Y15720000D03*
X16800000Y15720000D03*
X16800000Y16990000D03*
X16800000Y18260000D03*
X16800000Y19530000D03*
%TD*%
D15*
%TO.C,C26*%
X22475000Y11500000D03*
X24025000Y11500000D03*
%TD*%
D16*
%TO.C,R46*%
X24000000Y21975000D03*
X24000000Y23625000D03*
%TD*%
D11*
%TO.C,C8*%
X24000000Y9775000D03*
X24000000Y8225000D03*
%TD*%
D10*
%TO.C,R50*%
X17175000Y24400000D03*
X18825000Y24400000D03*
%TD*%
D17*
%TO.C,C41*%
X27650000Y8150000D03*
X27650000Y6250000D03*
%TD*%
D10*
%TO.C,R10*%
X10175000Y29500000D03*
X11825000Y29500000D03*
%TD*%
%TO.C,R51*%
X18075000Y28300000D03*
X19725000Y28300000D03*
%TD*%
D18*
%TO.C,Q2*%
X19400000Y10625000D03*
X18100000Y10625000D03*
X18750000Y12525000D03*
%TD*%
D12*
%TO.C,C29*%
X23525000Y25250000D03*
X21975000Y25250000D03*
%TD*%
D19*
%TO.C,J5*%
X32800000Y28950000D03*
X32800000Y27950000D03*
X32800000Y26950000D03*
X32800000Y25950000D03*
D20*
X36675000Y30250000D03*
X36675000Y24650000D03*
%TD*%
D21*
%TO.C,R9*%
X8500000Y28125000D03*
X8500000Y26475000D03*
%TD*%
D11*
%TO.C,C24*%
X29400000Y25175000D03*
X29400000Y23625000D03*
%TD*%
D22*
%TO.C,C15*%
X12300000Y18025000D03*
X12300000Y19575000D03*
%TD*%
D10*
%TO.C,R45*%
X25175000Y26300000D03*
X26825000Y26300000D03*
%TD*%
%TO.C,R43*%
X20175000Y8700000D03*
X21825000Y8700000D03*
%TD*%
D22*
%TO.C,C3*%
X10250000Y21725000D03*
X10250000Y23275000D03*
%TD*%
D10*
%TO.C,R52*%
X17175000Y26600000D03*
X18825000Y26600000D03*
%TD*%
%TO.C,R48*%
X19275000Y31700000D03*
X20925000Y31700000D03*
%TD*%
D15*
%TO.C,C9*%
X25725000Y23500000D03*
X27275000Y23500000D03*
%TD*%
D16*
%TO.C,R1*%
X25750000Y9675000D03*
X25750000Y11325000D03*
%TD*%
D22*
%TO.C,C6*%
X10250000Y18475000D03*
X10250000Y20025000D03*
%TD*%
D12*
%TO.C,C32*%
X15475000Y19800000D03*
X13925000Y19800000D03*
%TD*%
D23*
%TO.C,J3*%
X5200000Y24050000D03*
X5200000Y25050000D03*
X5200000Y26050000D03*
X5200000Y27050000D03*
X5200000Y28050000D03*
X5200000Y29050000D03*
D24*
X1325000Y22750000D03*
X1325000Y30350000D03*
%TD*%
D16*
%TO.C,R6*%
X30500000Y26675000D03*
X30500000Y28325000D03*
%TD*%
D23*
%TO.C,J4*%
X5200000Y10750000D03*
X5200000Y11750000D03*
X5200000Y12750000D03*
X5200000Y13750000D03*
X5200000Y14750000D03*
X5200000Y15750000D03*
X5200000Y16750000D03*
X5200000Y17750000D03*
D24*
X1325000Y9450000D03*
X1325000Y19050000D03*
%TD*%
D10*
%TO.C,R44*%
X25175000Y28000000D03*
X26825000Y28000000D03*
%TD*%
D12*
%TO.C,C5*%
X32875000Y9000000D03*
X31325000Y9000000D03*
%TD*%
D15*
%TO.C,C37*%
X26525000Y21500000D03*
X28075000Y21500000D03*
%TD*%
D10*
%TO.C,R49*%
X23175000Y31400000D03*
X24825000Y31400000D03*
%TD*%
D15*
%TO.C,C11*%
X11975000Y14000000D03*
X13525000Y14000000D03*
%TD*%
D25*
%TO.C,R55*%
X20625000Y22300000D03*
X18975000Y22300000D03*
%TD*%
D12*
%TO.C,C10*%
X10275000Y13500000D03*
X8725000Y13500000D03*
%TD*%
D16*
%TO.C,R4*%
X12000000Y21175000D03*
X12000000Y22825000D03*
%TD*%
%TO.C,R3*%
X10250000Y24925000D03*
X10250000Y26575000D03*
%TD*%
D10*
%TO.C,R54*%
X32675000Y18000000D03*
X34325000Y18000000D03*
%TD*%
D16*
%TO.C,R5*%
X28750000Y26675000D03*
X28750000Y28325000D03*
%TD*%
D26*
%TO.C,U10*%
X13862500Y29050000D03*
X13862500Y30000000D03*
X13862500Y30950000D03*
X16137500Y30950000D03*
X16137500Y30000000D03*
X16137500Y29050000D03*
%TD*%
D21*
%TO.C,R42*%
X29500000Y9075000D03*
X29500000Y7425000D03*
%TD*%
D12*
%TO.C,C7*%
X11525000Y9750000D03*
X9975000Y9750000D03*
%TD*%
D22*
%TO.C,C25*%
X12000000Y25225000D03*
X12000000Y26775000D03*
%TD*%
D15*
%TO.C,C4*%
X31325000Y11000000D03*
X32875000Y11000000D03*
%TD*%
D22*
%TO.C,C34*%
X7500000Y19225000D03*
X7500000Y20775000D03*
%TD*%
D16*
%TO.C,R56*%
X15250000Y16625000D03*
X15250000Y18275000D03*
%TD*%
D15*
%TO.C,C31*%
X18025000Y30000000D03*
X19575000Y30000000D03*
%TD*%
D16*
%TO.C,R12*%
X30500000Y29925000D03*
X30500000Y31575000D03*
%TD*%
D25*
%TO.C,R58*%
X10625000Y16500000D03*
X8975000Y16500000D03*
%TD*%
M02*
