M48
; DRILL file {KiCad 9.0.2+dfsg-1} date 2026-10-04T02:34:44+0800
; FORMAT={-:-/ absolute / metric / decimal}
; Exact six-decimal mm coordinates converted losslessly from native KiCad 3:6
; #@! TF.CreationDate,2026-10-04T02:34:44+08:00
; #@! TF.GenerationSoftware,Kicad,Pcbnew,9.0.2+dfsg-1
; #@! TF.FileFunction,Plated,1,6,PTH
FMAT,2
METRIC
; #@! TA.AperFunction,Plated,PTH,ViaDrill
T1C0.200
; #@! TA.AperFunction,Plated,PTH,ViaDrill
T2C0.250
; #@! TA.AperFunction,Plated,PTH,ComponentDrill
T3C0.600
%
G90
G05
T1
X0.700000Y18.050000
X1.100000Y31.300000
X1.150000Y23.750000
X1.150000Y21.800000
X1.275000Y27.100000
X1.300000Y29.350000
X1.300000Y8.450000
X1.350000Y18.050000
X1.650000Y20.450000
X1.650000Y6.050000
X1.750000Y21.800000
X1.750000Y15.350000
X2.000000Y25.200000
X2.450000Y29.400000
X2.750000Y19.550000
X2.850000Y12.800000
X3.000000Y25.250000
X3.000000Y17.600000
X3.050000Y15.800000
X3.125000Y24.450000
X3.150000Y14.150000
X3.300000Y26.250000
X3.400000Y26.900000
X3.480000Y28.080000
X3.650000Y12.700000
X3.850000Y15.400000
X3.950000Y28.700000
X4.000000Y16.850000
X4.050000Y25.850000
X4.050000Y24.600000
X4.150000Y22.250000
X4.150000Y20.950000
X4.650000Y18.900000
X4.825000Y21.825000
X4.900000Y31.500000
X5.050000Y18.450000
X5.350000Y36.900000
X5.350000Y22.100000
X6.025000Y23.100000
X6.275000Y31.050000
X6.350000Y25.000000
X6.350000Y11.750000
X6.450000Y28.700000
X6.450000Y25.650000
X6.450000Y17.550000
X6.800000Y36.500000
X6.800000Y1.500000
X6.850000Y35.525000
X6.900000Y12.100000
X7.100000Y15.250000
X7.200000Y31.950000
X7.250000Y14.400000
X7.350000Y16.700000
X7.600000Y32.350000
X7.850000Y35.100000
X7.900000Y32.850000
X7.900000Y13.600000
X8.050000Y14.550000
X8.150000Y16.550000
X8.250000Y11.600000
X8.450000Y12.550000
X8.500000Y31.300000
X8.550000Y34.500000
X8.700000Y28.950000
X8.800000Y33.500000
X8.800000Y4.500000
X9.100000Y14.400000
X9.150000Y20.750000
X9.150000Y19.750000
X9.480000Y24.530000
X9.550000Y25.850000
X9.650000Y35.000000
X9.950000Y8.900000
X10.000000Y2.900000
X10.200000Y24.100000
X10.250000Y25.800000
X10.300000Y10.850000
X10.450000Y8.450000
X10.500000Y28.650000
X11.000000Y31.550000
X11.000000Y2.850000
X11.050000Y29.850000
X11.100000Y25.200000
X11.300000Y24.590000
X11.400000Y19.000000
X11.425000Y20.400000
X11.440000Y18.375000
X11.450000Y10.650000
X11.475000Y11.450000
X11.500000Y22.000000
X11.500000Y17.300000
X11.500000Y16.500000
X11.500000Y15.850000
X11.500000Y14.900000
X11.700000Y35.100000
X11.850000Y12.550000
X12.050000Y31.250000
X12.050000Y20.400000
X12.050000Y13.100000
X12.225000Y12.100000
X12.250000Y8.600000
X12.350000Y34.900000
X12.500000Y28.450000
X12.500000Y24.000000
X12.550000Y15.300000
X12.665000Y22.005000
X12.800000Y30.000000
X12.850000Y29.350000
X12.850000Y26.650000
X12.850000Y2.850000
X13.000000Y35.100000
X13.000000Y3.800000
X13.050000Y18.800000
X13.100000Y27.350000
X13.150000Y11.300000
X13.170000Y21.650000
X13.200000Y19.550000
X13.600000Y2.850000
X13.625000Y24.025000
X13.700000Y11.500000
X13.800000Y26.650000
X13.875000Y22.375000
X14.200000Y21.900000
X14.350000Y27.000000
X14.400000Y23.700000
X14.400000Y14.000000
X14.450000Y11.550000
X14.650000Y20.750000
X14.700000Y3.500000
X14.700000Y2.850000
X14.800000Y34.200000
X14.800000Y26.350000
X14.900000Y30.000000
X15.000000Y24.000000
X15.050000Y31.300000
X15.100000Y23.350000
X15.150000Y11.550000
X15.350000Y34.400000
X15.400000Y27.500000
X15.600000Y20.800000
X15.850000Y26.850000
X15.850000Y8.400000
X15.875000Y34.225000
X16.000000Y35.100000
X16.100000Y18.150000
X16.149999Y28.400000
X16.250000Y24.050000
X16.300000Y14.950000
X16.350000Y27.800000
X16.350000Y3.100000
X16.550000Y17.600000
X16.675000Y20.150000
X16.700000Y21.650000
X16.750000Y21.050000
X16.800000Y14.650000
X17.000000Y11.000000
X17.000000Y2.800000
X17.100000Y17.650000
X17.150000Y34.200000
X17.150000Y22.500000
X17.200000Y30.500000
X17.200000Y11.550000
X17.250000Y35.100000
X17.350000Y28.800000
X17.450000Y15.350000
X17.500000Y3.200000
X17.550000Y23.600000
X17.550000Y20.050000
X17.600000Y31.450000
X17.600000Y12.700000
X17.750000Y22.500000
X17.950000Y26.500000
X17.950000Y14.050000
X18.000000Y34.900000
X18.000000Y2.900000
X18.050000Y18.850000
X18.150000Y27.350000
X18.250000Y17.950000
X18.250000Y16.850000
X18.450000Y7.400000
X18.450000Y6.700000
X18.500000Y20.105000
X18.500000Y14.250000
X18.600000Y14.850000
X18.650000Y34.950000
X18.650000Y3.100000
X18.800000Y30.800000
X18.800000Y23.550000
X19.050000Y27.500000
X19.100000Y29.150000
X19.100000Y11.300000
X19.150000Y13.200000
X19.250000Y11.950000
X19.350000Y8.600000
X19.650000Y27.050000
X19.682500Y35.162500
X19.750000Y22.650000
X19.750000Y13.200000
X19.800000Y11.500000
X20.000000Y3.800000
X20.000000Y2.900000
X20.150000Y30.900000
X20.192500Y35.122500
X20.200000Y13.600000
X20.250000Y7.000000
X20.500000Y28.650000
X20.500000Y11.000000
X20.600000Y20.105000
X20.600000Y14.600000
X20.750000Y26.350000
X20.800000Y30.800000
X20.800000Y12.900000
X20.850000Y24.000000
X21.000000Y15.050000
X21.000000Y8.050000
X21.100000Y28.050000
X21.250000Y21.550000
X21.350000Y35.100000
X21.350000Y3.100000
X21.400000Y7.150000
X21.500000Y24.000000
X21.850000Y14.600000
X21.850000Y3.500000
X22.000000Y26.400000
X22.000000Y23.550000
X22.000000Y21.550000
X22.000000Y2.900000
X22.150000Y31.500000
X22.400000Y30.950000
X22.650000Y6.550000
X22.750000Y27.100000
X23.000000Y2.850000
X23.050000Y21.200000
X23.100000Y23.450000
X23.150000Y34.300000
X23.150000Y21.950000
X23.200000Y28.750000
X23.200000Y6.900000
X23.350000Y27.600000
X23.550000Y19.400000
X23.600000Y20.000000
X23.750000Y2.900000
X23.850000Y17.650000
X23.950000Y12.400000
X24.000000Y35.100000
X24.000000Y31.150000
X24.000000Y14.450000
X24.450000Y27.100000
X24.475000Y17.625000
X24.500000Y20.950000
X24.500000Y15.050000
X24.500000Y14.000000
X24.550000Y20.250000
X24.700000Y10.600000
X24.850000Y34.950000
X24.850000Y9.100000
X24.900000Y24.200000
X24.900000Y8.350000
X25.000000Y7.700000
X25.000000Y2.800000
X25.400000Y34.200000
X25.500000Y28.900000
X25.550000Y2.900000
X25.600000Y31.400000
X25.700000Y24.400000
X25.750000Y27.150000
X25.800000Y10.550000
X25.950000Y27.950000
X26.000000Y26.150000
X26.200000Y34.250000
X26.250000Y8.900000
X26.250000Y6.500000
X26.450000Y31.000000
X26.500000Y10.500000
X26.750000Y3.100000
X26.850000Y16.150000
X26.900000Y22.500000
X26.900000Y13.650000
X26.900000Y13.000000
X26.950000Y14.250000
X27.200000Y29.950000
X27.250000Y27.150000
X27.300000Y9.350000
X27.400000Y24.750000
X27.450000Y16.000000
X27.500000Y22.650000
X27.600000Y26.300000
X27.650000Y27.950000
X27.750000Y11.850000
X27.750000Y3.800000
X27.850000Y34.600000
X27.900000Y27.350000
X27.900000Y20.630000
X27.950000Y11.300000
X28.000000Y14.450000
X28.000000Y10.650000
X28.025000Y9.175000
X28.050000Y22.900000
X28.050000Y16.700000
X28.100000Y23.500000
X28.100000Y12.400000
X28.250000Y17.250000
X28.250000Y6.950000
X28.300000Y35.100000
X28.300000Y30.450000
X28.350000Y2.900000
X28.500000Y34.450000
X28.645000Y9.200000
X28.750000Y27.550000
X28.800000Y11.200000
X28.800000Y6.700000
X28.800000Y3.800000
X28.950000Y12.400000
X29.050000Y16.050000
X29.150000Y4.850000
X29.200000Y33.500000
X29.200000Y15.250000
X29.200000Y4.250000
X29.350000Y3.050000
X29.500000Y34.700000
X29.550000Y30.000000
X29.650000Y32.800000
X29.675000Y8.250000
X29.750000Y21.950000
X29.750000Y14.050000
X29.800000Y10.000000
X30.000000Y35.150000
X30.150000Y29.150000
X30.500000Y30.800000
X30.500000Y27.550000
X30.500000Y11.150000
X30.550000Y25.850000
X30.600000Y35.050000
X30.600000Y25.050000
X30.700000Y12.800000
X30.750000Y6.000000
X31.000000Y23.700000
X31.200000Y1.100000
X31.300000Y12.500000
X31.400000Y20.150000
X31.400000Y16.000000
X31.450000Y19.450000
X31.600000Y29.450000
X31.600000Y27.700000
X31.600000Y23.600000
X31.700000Y5.550000
X31.800000Y30.100000
X31.900000Y18.300000
X32.000000Y31.400000
X32.000000Y9.900000
X32.050000Y11.800000
X32.050000Y7.550000
X32.100000Y19.450000
X32.125000Y9.320000
X32.200000Y8.150000
X32.600000Y15.850000
X33.000000Y29.900000
X33.000000Y25.250000
X33.300000Y22.650000
X33.400000Y23.600000
X33.500000Y6.450000
X33.650000Y20.200000
X33.700000Y11.150000
X33.750000Y21.700000
X33.750000Y18.900000
X34.100000Y23.500000
X34.300000Y30.600000
X34.300000Y16.650000
X34.400000Y25.200000
X34.450000Y15.950000
X34.450000Y7.400000
X34.500000Y28.150000
X34.900000Y24.700000
X35.050000Y23.650000
X35.350000Y26.300000
X35.600000Y16.500000
X36.100000Y28.100000
X36.650000Y29.250000
X36.650000Y25.650000
X36.900000Y11.550000
X37.100000Y12.570000
X37.250000Y15.400000
X37.350000Y14.600000
T2
X2.600000Y6.950000
X3.450000Y9.275000
X3.750000Y8.250000
X4.050000Y12.250000
X4.300000Y6.500000
X4.450000Y9.150000
X4.800000Y8.600000
X5.000000Y9.650000
X5.100000Y6.200000
X5.750000Y6.200000
X6.400000Y6.700000
X7.400000Y6.850000
X7.600000Y10.000000
X8.175000Y6.800000
X8.750000Y9.400000
X8.750000Y8.350000
X9.475000Y6.800000
X11.025000Y8.150000
X11.500000Y6.750000
X11.900000Y7.700000
X12.650000Y7.200000
X14.250000Y7.975000
X15.450000Y6.700000
T3
X30.670000Y22.320000G85X31.770000Y22.320000
G05
X30.670000Y13.680000G85X31.770000Y13.680000
G05
X35.000000Y22.320000G85X35.800000Y22.320000
G05
X35.000000Y13.680000G85X35.800000Y13.680000
G05
M30
