%TF.GenerationSoftware,KiCad,Pcbnew,9.0.2+dfsg-1*%
%TF.CreationDate,2026-10-04T02:34:44+08:00*%
%TF.ProjectId,controller,636f6e74-726f-46c6-9c65-722e6b696361,R3-S6-P6*%
%TF.SameCoordinates,Original*%
%TF.FileFunction,Legend,Bot*%
%TF.FilePolarity,Positive*%
%FSLAX46Y46*%
G04 Gerber Fmt 4.6, Leading zero omitted, Abs format (unit mm)*
G04 Created by KiCad (PCBNEW 9.0.2+dfsg-1) date 2026-10-04 02:34:44*
%MOMM*%
%LPD*%
G01*
G04 APERTURE LIST*
%ADD10C,0.150000*%
G04 APERTURE END LIST*
D10*
X7764323Y3777382D02*
X7850038Y3825001D01*
X7850038Y3825001D02*
X7978609Y3825001D01*
X7978609Y3825001D02*
X8107180Y3777382D01*
X8107180Y3777382D02*
X8192895Y3682144D01*
X8192895Y3682144D02*
X8235752Y3586906D01*
X8235752Y3586906D02*
X8278609Y3396430D01*
X8278609Y3396430D02*
X8278609Y3253573D01*
X8278609Y3253573D02*
X8235752Y3063097D01*
X8235752Y3063097D02*
X8192895Y2967859D01*
X8192895Y2967859D02*
X8107180Y2872620D01*
X8107180Y2872620D02*
X7978609Y2825001D01*
X7978609Y2825001D02*
X7892895Y2825001D01*
X7892895Y2825001D02*
X7764323Y2872620D01*
X7764323Y2872620D02*
X7721466Y2920240D01*
X7721466Y2920240D02*
X7721466Y3253573D01*
X7721466Y3253573D02*
X7892895Y3253573D01*
X20664362Y35175001D02*
X20150077Y35175001D01*
X20407219Y34175001D02*
X20407219Y35175001D01*
X19935791Y35175001D02*
X19335791Y34175001D01*
X19335791Y35175001D02*
X19935791Y34175001D01*
X12764323Y35127382D02*
X12850038Y35175001D01*
X12850038Y35175001D02*
X12978609Y35175001D01*
X12978609Y35175001D02*
X13107180Y35127382D01*
X13107180Y35127382D02*
X13192895Y35032144D01*
X13192895Y35032144D02*
X13235752Y34936906D01*
X13235752Y34936906D02*
X13278609Y34746430D01*
X13278609Y34746430D02*
X13278609Y34603573D01*
X13278609Y34603573D02*
X13235752Y34413097D01*
X13235752Y34413097D02*
X13192895Y34317859D01*
X13192895Y34317859D02*
X13107180Y34222620D01*
X13107180Y34222620D02*
X12978609Y34175001D01*
X12978609Y34175001D02*
X12892895Y34175001D01*
X12892895Y34175001D02*
X12764323Y34222620D01*
X12764323Y34222620D02*
X12721466Y34270240D01*
X12721466Y34270240D02*
X12721466Y34603573D01*
X12721466Y34603573D02*
X12892895Y34603573D01*
X17214125Y35174841D02*
X17642697Y35174841D01*
X17642697Y35174841D02*
X17685554Y34698651D01*
X17685554Y34698651D02*
X17642697Y34746270D01*
X17642697Y34746270D02*
X17556983Y34793889D01*
X17556983Y34793889D02*
X17342697Y34793889D01*
X17342697Y34793889D02*
X17256983Y34746270D01*
X17256983Y34746270D02*
X17214125Y34698651D01*
X17214125Y34698651D02*
X17171268Y34603413D01*
X17171268Y34603413D02*
X17171268Y34365318D01*
X17171268Y34365318D02*
X17214125Y34270080D01*
X17214125Y34270080D02*
X17256983Y34222460D01*
X17256983Y34222460D02*
X17342697Y34174841D01*
X17342697Y34174841D02*
X17556983Y34174841D01*
X17556983Y34174841D02*
X17642697Y34222460D01*
X17642697Y34222460D02*
X17685554Y34270080D01*
X16914125Y35174841D02*
X16614125Y34174841D01*
X16614125Y34174841D02*
X16314125Y35174841D01*
X27231877Y33499991D02*
X27089020Y33499991D01*
X27089020Y33499991D02*
X27017591Y33452372D01*
X27017591Y33452372D02*
X26946163Y33357134D01*
X26946163Y33357134D02*
X26910448Y33166658D01*
X26910448Y33166658D02*
X26910448Y32833325D01*
X26910448Y32833325D02*
X26946163Y32642849D01*
X26946163Y32642849D02*
X27017591Y32547610D01*
X27017591Y32547610D02*
X27089020Y32499991D01*
X27089020Y32499991D02*
X27231877Y32499991D01*
X27231877Y32499991D02*
X27303306Y32547610D01*
X27303306Y32547610D02*
X27374734Y32642849D01*
X27374734Y32642849D02*
X27410448Y32833325D01*
X27410448Y32833325D02*
X27410448Y33166658D01*
X27410448Y33166658D02*
X27374734Y33357134D01*
X27374734Y33357134D02*
X27303306Y33452372D01*
X27303306Y33452372D02*
X27231877Y33499991D01*
X26589020Y32499991D02*
X26589020Y33499991D01*
X26160449Y32499991D02*
X26481877Y33071420D01*
X26160449Y33499991D02*
X26589020Y32928563D01*
X25839020Y33023801D02*
X25267592Y33023801D01*
X25267592Y32738087D02*
X25839020Y32738087D01*
X24910449Y32499991D02*
X24910449Y33499991D01*
X24910449Y33023801D02*
X24481878Y33023801D01*
X24481878Y32499991D02*
X24481878Y33499991D01*
X24124735Y32499991D02*
X24124735Y33499991D01*
X23374735Y33452372D02*
X23446164Y33499991D01*
X23446164Y33499991D02*
X23553306Y33499991D01*
X23553306Y33499991D02*
X23660449Y33452372D01*
X23660449Y33452372D02*
X23731878Y33357134D01*
X23731878Y33357134D02*
X23767592Y33261896D01*
X23767592Y33261896D02*
X23803306Y33071420D01*
X23803306Y33071420D02*
X23803306Y32928563D01*
X23803306Y32928563D02*
X23767592Y32738087D01*
X23767592Y32738087D02*
X23731878Y32642849D01*
X23731878Y32642849D02*
X23660449Y32547610D01*
X23660449Y32547610D02*
X23553306Y32499991D01*
X23553306Y32499991D02*
X23481878Y32499991D01*
X23481878Y32499991D02*
X23374735Y32547610D01*
X23374735Y32547610D02*
X23339021Y32595230D01*
X23339021Y32595230D02*
X23339021Y32928563D01*
X23339021Y32928563D02*
X23481878Y32928563D01*
X23017592Y32499991D02*
X23017592Y33499991D01*
X23017592Y33023801D02*
X22589021Y33023801D01*
X22589021Y32499991D02*
X22589021Y33499991D01*
X21150135Y6550240D02*
X21192992Y6502620D01*
X21192992Y6502620D02*
X21321564Y6455001D01*
X21321564Y6455001D02*
X21407278Y6455001D01*
X21407278Y6455001D02*
X21535849Y6502620D01*
X21535849Y6502620D02*
X21621564Y6597859D01*
X21621564Y6597859D02*
X21664421Y6693097D01*
X21664421Y6693097D02*
X21707278Y6883573D01*
X21707278Y6883573D02*
X21707278Y7026430D01*
X21707278Y7026430D02*
X21664421Y7216906D01*
X21664421Y7216906D02*
X21621564Y7312144D01*
X21621564Y7312144D02*
X21535849Y7407382D01*
X21535849Y7407382D02*
X21407278Y7455001D01*
X21407278Y7455001D02*
X21321564Y7455001D01*
X21321564Y7455001D02*
X21192992Y7407382D01*
X21192992Y7407382D02*
X21150135Y7359763D01*
X20635849Y7026430D02*
X20721564Y7074049D01*
X20721564Y7074049D02*
X20764421Y7121668D01*
X20764421Y7121668D02*
X20807278Y7216906D01*
X20807278Y7216906D02*
X20807278Y7264525D01*
X20807278Y7264525D02*
X20764421Y7359763D01*
X20764421Y7359763D02*
X20721564Y7407382D01*
X20721564Y7407382D02*
X20635849Y7455001D01*
X20635849Y7455001D02*
X20464421Y7455001D01*
X20464421Y7455001D02*
X20378707Y7407382D01*
X20378707Y7407382D02*
X20335849Y7359763D01*
X20335849Y7359763D02*
X20292992Y7264525D01*
X20292992Y7264525D02*
X20292992Y7216906D01*
X20292992Y7216906D02*
X20335849Y7121668D01*
X20335849Y7121668D02*
X20378707Y7074049D01*
X20378707Y7074049D02*
X20464421Y7026430D01*
X20464421Y7026430D02*
X20635849Y7026430D01*
X20635849Y7026430D02*
X20721564Y6978811D01*
X20721564Y6978811D02*
X20764421Y6931192D01*
X20764421Y6931192D02*
X20807278Y6835954D01*
X20807278Y6835954D02*
X20807278Y6645478D01*
X20807278Y6645478D02*
X20764421Y6550240D01*
X20764421Y6550240D02*
X20721564Y6502620D01*
X20721564Y6502620D02*
X20635849Y6455001D01*
X20635849Y6455001D02*
X20464421Y6455001D01*
X20464421Y6455001D02*
X20378707Y6502620D01*
X20378707Y6502620D02*
X20335849Y6550240D01*
X20335849Y6550240D02*
X20292992Y6645478D01*
X20292992Y6645478D02*
X20292992Y6835954D01*
X20292992Y6835954D02*
X20335849Y6931192D01*
X20335849Y6931192D02*
X20378707Y6978811D01*
X20378707Y6978811D02*
X20464421Y7026430D01*
X16600186Y3110529D02*
X16171615Y3110529D01*
X16685900Y2824814D02*
X16385900Y3824814D01*
X16385900Y3824814D02*
X16085900Y2824814D01*
X15871614Y3824814D02*
X15314471Y3824814D01*
X15314471Y3824814D02*
X15614471Y3443862D01*
X15614471Y3443862D02*
X15485900Y3443862D01*
X15485900Y3443862D02*
X15400186Y3396243D01*
X15400186Y3396243D02*
X15357328Y3348624D01*
X15357328Y3348624D02*
X15314471Y3253386D01*
X15314471Y3253386D02*
X15314471Y3015291D01*
X15314471Y3015291D02*
X15357328Y2920053D01*
X15357328Y2920053D02*
X15400186Y2872433D01*
X15400186Y2872433D02*
X15485900Y2824814D01*
X15485900Y2824814D02*
X15743043Y2824814D01*
X15743043Y2824814D02*
X15828757Y2872433D01*
X15828757Y2872433D02*
X15871614Y2920053D01*
X19764323Y3777382D02*
X19850038Y3825001D01*
X19850038Y3825001D02*
X19978609Y3825001D01*
X19978609Y3825001D02*
X20107180Y3777382D01*
X20107180Y3777382D02*
X20192895Y3682144D01*
X20192895Y3682144D02*
X20235752Y3586906D01*
X20235752Y3586906D02*
X20278609Y3396430D01*
X20278609Y3396430D02*
X20278609Y3253573D01*
X20278609Y3253573D02*
X20235752Y3063097D01*
X20235752Y3063097D02*
X20192895Y2967859D01*
X20192895Y2967859D02*
X20107180Y2872620D01*
X20107180Y2872620D02*
X19978609Y2825001D01*
X19978609Y2825001D02*
X19892895Y2825001D01*
X19892895Y2825001D02*
X19764323Y2872620D01*
X19764323Y2872620D02*
X19721466Y2920240D01*
X19721466Y2920240D02*
X19721466Y3253573D01*
X19721466Y3253573D02*
X19892895Y3253573D01*
X19407220Y6978811D02*
X19278648Y6931192D01*
X19278648Y6931192D02*
X19235791Y6883573D01*
X19235791Y6883573D02*
X19192934Y6788335D01*
X19192934Y6788335D02*
X19192934Y6645478D01*
X19192934Y6645478D02*
X19235791Y6550240D01*
X19235791Y6550240D02*
X19278648Y6502620D01*
X19278648Y6502620D02*
X19364363Y6455001D01*
X19364363Y6455001D02*
X19707220Y6455001D01*
X19707220Y6455001D02*
X19707220Y7455001D01*
X19707220Y7455001D02*
X19407220Y7455001D01*
X19407220Y7455001D02*
X19321506Y7407382D01*
X19321506Y7407382D02*
X19278648Y7359763D01*
X19278648Y7359763D02*
X19235791Y7264525D01*
X19235791Y7264525D02*
X19235791Y7169287D01*
X19235791Y7169287D02*
X19278648Y7074049D01*
X19278648Y7074049D02*
X19321506Y7026430D01*
X19321506Y7026430D02*
X19407220Y6978811D01*
X19407220Y6978811D02*
X19707220Y6978811D01*
X18892934Y7455001D02*
X18292934Y7455001D01*
X18292934Y7455001D02*
X18892934Y6455001D01*
X18892934Y6455001D02*
X18292934Y6455001D01*
X22192934Y34175085D02*
X22492934Y34651276D01*
X22707220Y34175085D02*
X22707220Y35175085D01*
X22707220Y35175085D02*
X22364363Y35175085D01*
X22364363Y35175085D02*
X22278648Y35127466D01*
X22278648Y35127466D02*
X22235791Y35079847D01*
X22235791Y35079847D02*
X22192934Y34984609D01*
X22192934Y34984609D02*
X22192934Y34841752D01*
X22192934Y34841752D02*
X22235791Y34746514D01*
X22235791Y34746514D02*
X22278648Y34698895D01*
X22278648Y34698895D02*
X22364363Y34651276D01*
X22364363Y34651276D02*
X22707220Y34651276D01*
X21892934Y35175085D02*
X21292934Y34175085D01*
X21292934Y35175085D02*
X21892934Y34175085D01*
X18342857Y3348811D02*
X18214285Y3301192D01*
X18214285Y3301192D02*
X18171428Y3253573D01*
X18171428Y3253573D02*
X18128571Y3158335D01*
X18128571Y3158335D02*
X18128571Y3015478D01*
X18128571Y3015478D02*
X18171428Y2920240D01*
X18171428Y2920240D02*
X18214285Y2872620D01*
X18214285Y2872620D02*
X18300000Y2825001D01*
X18300000Y2825001D02*
X18642857Y2825001D01*
X18642857Y2825001D02*
X18642857Y3825001D01*
X18642857Y3825001D02*
X18342857Y3825001D01*
X18342857Y3825001D02*
X18257143Y3777382D01*
X18257143Y3777382D02*
X18214285Y3729763D01*
X18214285Y3729763D02*
X18171428Y3634525D01*
X18171428Y3634525D02*
X18171428Y3539287D01*
X18171428Y3539287D02*
X18214285Y3444049D01*
X18214285Y3444049D02*
X18257143Y3396430D01*
X18257143Y3396430D02*
X18342857Y3348811D01*
X18342857Y3348811D02*
X18642857Y3348811D01*
X17871428Y3825001D02*
X17357143Y3825001D01*
X17614285Y2825001D02*
X17614285Y3825001D01*
X24449999Y2825001D02*
X24449999Y3825001D01*
X24449999Y3825001D02*
X24235713Y3825001D01*
X24235713Y3825001D02*
X24107142Y3777382D01*
X24107142Y3777382D02*
X24021427Y3682144D01*
X24021427Y3682144D02*
X23978570Y3586906D01*
X23978570Y3586906D02*
X23935713Y3396430D01*
X23935713Y3396430D02*
X23935713Y3253573D01*
X23935713Y3253573D02*
X23978570Y3063097D01*
X23978570Y3063097D02*
X24021427Y2967859D01*
X24021427Y2967859D02*
X24107142Y2872620D01*
X24107142Y2872620D02*
X24235713Y2825001D01*
X24235713Y2825001D02*
X24449999Y2825001D01*
X23549999Y2825001D02*
X23549999Y3825001D01*
X12764323Y7407382D02*
X12850038Y7455001D01*
X12850038Y7455001D02*
X12978609Y7455001D01*
X12978609Y7455001D02*
X13107180Y7407382D01*
X13107180Y7407382D02*
X13192895Y7312144D01*
X13192895Y7312144D02*
X13235752Y7216906D01*
X13235752Y7216906D02*
X13278609Y7026430D01*
X13278609Y7026430D02*
X13278609Y6883573D01*
X13278609Y6883573D02*
X13235752Y6693097D01*
X13235752Y6693097D02*
X13192895Y6597859D01*
X13192895Y6597859D02*
X13107180Y6502620D01*
X13107180Y6502620D02*
X12978609Y6455001D01*
X12978609Y6455001D02*
X12892895Y6455001D01*
X12892895Y6455001D02*
X12764323Y6502620D01*
X12764323Y6502620D02*
X12721466Y6550240D01*
X12721466Y6550240D02*
X12721466Y6883573D01*
X12721466Y6883573D02*
X12892895Y6883573D01*
X25192780Y6431061D02*
X25707066Y6431061D01*
X25449923Y6431061D02*
X25449923Y7431061D01*
X25449923Y7431061D02*
X25535637Y7288204D01*
X25535637Y7288204D02*
X25621352Y7192966D01*
X25621352Y7192966D02*
X25707066Y7145347D01*
X24421352Y7097728D02*
X24421352Y6431061D01*
X24635637Y7478680D02*
X24849923Y6764395D01*
X24849923Y6764395D02*
X24292780Y6764395D01*
X10707316Y3825033D02*
X10407316Y2825033D01*
X10407316Y2825033D02*
X10107316Y3825033D01*
X9293030Y2825033D02*
X9593030Y3301224D01*
X9807316Y2825033D02*
X9807316Y3825033D01*
X9807316Y3825033D02*
X9464459Y3825033D01*
X9464459Y3825033D02*
X9378744Y3777414D01*
X9378744Y3777414D02*
X9335887Y3729795D01*
X9335887Y3729795D02*
X9293030Y3634557D01*
X9293030Y3634557D02*
X9293030Y3491700D01*
X9293030Y3491700D02*
X9335887Y3396462D01*
X9335887Y3396462D02*
X9378744Y3348843D01*
X9378744Y3348843D02*
X9464459Y3301224D01*
X9464459Y3301224D02*
X9807316Y3301224D01*
X26171512Y2920240D02*
X26214369Y2872620D01*
X26214369Y2872620D02*
X26342941Y2825001D01*
X26342941Y2825001D02*
X26428655Y2825001D01*
X26428655Y2825001D02*
X26557226Y2872620D01*
X26557226Y2872620D02*
X26642941Y2967859D01*
X26642941Y2967859D02*
X26685798Y3063097D01*
X26685798Y3063097D02*
X26728655Y3253573D01*
X26728655Y3253573D02*
X26728655Y3396430D01*
X26728655Y3396430D02*
X26685798Y3586906D01*
X26685798Y3586906D02*
X26642941Y3682144D01*
X26642941Y3682144D02*
X26557226Y3777382D01*
X26557226Y3777382D02*
X26428655Y3825001D01*
X26428655Y3825001D02*
X26342941Y3825001D01*
X26342941Y3825001D02*
X26214369Y3777382D01*
X26214369Y3777382D02*
X26171512Y3729763D01*
X25785798Y2825001D02*
X25785798Y3825001D01*
X25271512Y2825001D02*
X25657226Y3396430D01*
X25271512Y3825001D02*
X25785798Y3253573D01*
X15789285Y7455126D02*
X15386904Y7455126D01*
X15386904Y7455126D02*
X15603571Y7074174D01*
X15603571Y7074174D02*
X15510714Y7074174D01*
X15510714Y7074174D02*
X15448809Y7026555D01*
X15448809Y7026555D02*
X15417857Y6978936D01*
X15417857Y6978936D02*
X15386904Y6883698D01*
X15386904Y6883698D02*
X15386904Y6645603D01*
X15386904Y6645603D02*
X15417857Y6550365D01*
X15417857Y6550365D02*
X15448809Y6502745D01*
X15448809Y6502745D02*
X15510714Y6455126D01*
X15510714Y6455126D02*
X15696428Y6455126D01*
X15696428Y6455126D02*
X15758333Y6502745D01*
X15758333Y6502745D02*
X15789285Y6550365D01*
X15201190Y7455126D02*
X14984523Y6455126D01*
X14984523Y6455126D02*
X14767856Y7455126D01*
X14613094Y7455126D02*
X14210713Y7455126D01*
X14210713Y7455126D02*
X14427380Y7074174D01*
X14427380Y7074174D02*
X14334523Y7074174D01*
X14334523Y7074174D02*
X14272618Y7026555D01*
X14272618Y7026555D02*
X14241666Y6978936D01*
X14241666Y6978936D02*
X14210713Y6883698D01*
X14210713Y6883698D02*
X14210713Y6645603D01*
X14210713Y6645603D02*
X14241666Y6550365D01*
X14241666Y6550365D02*
X14272618Y6502745D01*
X14272618Y6502745D02*
X14334523Y6455126D01*
X14334523Y6455126D02*
X14520237Y6455126D01*
X14520237Y6455126D02*
X14582142Y6502745D01*
X14582142Y6502745D02*
X14613094Y6550365D01*
X28171732Y2825001D02*
X28471732Y3301192D01*
X28686018Y2825001D02*
X28686018Y3825001D01*
X28686018Y3825001D02*
X28343161Y3825001D01*
X28343161Y3825001D02*
X28257446Y3777382D01*
X28257446Y3777382D02*
X28214589Y3729763D01*
X28214589Y3729763D02*
X28171732Y3634525D01*
X28171732Y3634525D02*
X28171732Y3491668D01*
X28171732Y3491668D02*
X28214589Y3396430D01*
X28214589Y3396430D02*
X28257446Y3348811D01*
X28257446Y3348811D02*
X28343161Y3301192D01*
X28343161Y3301192D02*
X28686018Y3301192D01*
X27828875Y2872620D02*
X27700304Y2825001D01*
X27700304Y2825001D02*
X27486018Y2825001D01*
X27486018Y2825001D02*
X27400304Y2872620D01*
X27400304Y2872620D02*
X27357446Y2920240D01*
X27357446Y2920240D02*
X27314589Y3015478D01*
X27314589Y3015478D02*
X27314589Y3110716D01*
X27314589Y3110716D02*
X27357446Y3205954D01*
X27357446Y3205954D02*
X27400304Y3253573D01*
X27400304Y3253573D02*
X27486018Y3301192D01*
X27486018Y3301192D02*
X27657446Y3348811D01*
X27657446Y3348811D02*
X27743161Y3396430D01*
X27743161Y3396430D02*
X27786018Y3444049D01*
X27786018Y3444049D02*
X27828875Y3539287D01*
X27828875Y3539287D02*
X27828875Y3634525D01*
X27828875Y3634525D02*
X27786018Y3729763D01*
X27786018Y3729763D02*
X27743161Y3777382D01*
X27743161Y3777382D02*
X27657446Y3825001D01*
X27657446Y3825001D02*
X27443161Y3825001D01*
X27443161Y3825001D02*
X27314589Y3777382D01*
X23150135Y6550240D02*
X23192992Y6502620D01*
X23192992Y6502620D02*
X23321564Y6455001D01*
X23321564Y6455001D02*
X23407278Y6455001D01*
X23407278Y6455001D02*
X23535849Y6502620D01*
X23535849Y6502620D02*
X23621564Y6597859D01*
X23621564Y6597859D02*
X23664421Y6693097D01*
X23664421Y6693097D02*
X23707278Y6883573D01*
X23707278Y6883573D02*
X23707278Y7026430D01*
X23707278Y7026430D02*
X23664421Y7216906D01*
X23664421Y7216906D02*
X23621564Y7312144D01*
X23621564Y7312144D02*
X23535849Y7407382D01*
X23535849Y7407382D02*
X23407278Y7455001D01*
X23407278Y7455001D02*
X23321564Y7455001D01*
X23321564Y7455001D02*
X23192992Y7407382D01*
X23192992Y7407382D02*
X23150135Y7359763D01*
X22721564Y6455001D02*
X22550135Y6455001D01*
X22550135Y6455001D02*
X22464421Y6502620D01*
X22464421Y6502620D02*
X22421564Y6550240D01*
X22421564Y6550240D02*
X22335849Y6693097D01*
X22335849Y6693097D02*
X22292992Y6883573D01*
X22292992Y6883573D02*
X22292992Y7264525D01*
X22292992Y7264525D02*
X22335849Y7359763D01*
X22335849Y7359763D02*
X22378707Y7407382D01*
X22378707Y7407382D02*
X22464421Y7455001D01*
X22464421Y7455001D02*
X22635849Y7455001D01*
X22635849Y7455001D02*
X22721564Y7407382D01*
X22721564Y7407382D02*
X22764421Y7359763D01*
X22764421Y7359763D02*
X22807278Y7264525D01*
X22807278Y7264525D02*
X22807278Y7026430D01*
X22807278Y7026430D02*
X22764421Y6931192D01*
X22764421Y6931192D02*
X22721564Y6883573D01*
X22721564Y6883573D02*
X22635849Y6835954D01*
X22635849Y6835954D02*
X22464421Y6835954D01*
X22464421Y6835954D02*
X22378707Y6883573D01*
X22378707Y6883573D02*
X22335849Y6931192D01*
X22335849Y6931192D02*
X22292992Y7026430D01*
X24193051Y34175000D02*
X24493051Y34651191D01*
X24707337Y34175000D02*
X24707337Y35175000D01*
X24707337Y35175000D02*
X24364480Y35175000D01*
X24364480Y35175000D02*
X24278765Y35127381D01*
X24278765Y35127381D02*
X24235908Y35079762D01*
X24235908Y35079762D02*
X24193051Y34984524D01*
X24193051Y34984524D02*
X24193051Y34841667D01*
X24193051Y34841667D02*
X24235908Y34746429D01*
X24235908Y34746429D02*
X24278765Y34698810D01*
X24278765Y34698810D02*
X24364480Y34651191D01*
X24364480Y34651191D02*
X24707337Y34651191D01*
X23807337Y34175000D02*
X23807337Y35175000D01*
X23807337Y35175000D02*
X23293051Y34175000D01*
X23293051Y34175000D02*
X23293051Y35175000D01*
X12599870Y3110716D02*
X12171299Y3110716D01*
X12685584Y2825001D02*
X12385584Y3825001D01*
X12385584Y3825001D02*
X12085584Y2825001D01*
X11314155Y2825001D02*
X11828441Y2825001D01*
X11571298Y2825001D02*
X11571298Y3825001D01*
X11571298Y3825001D02*
X11657012Y3682144D01*
X11657012Y3682144D02*
X11742727Y3586906D01*
X11742727Y3586906D02*
X11828441Y3539287D01*
X17193024Y6455001D02*
X17621596Y6455001D01*
X17621596Y6455001D02*
X17621596Y7455001D01*
X16893025Y6455001D02*
X16893025Y7455001D01*
X16893025Y7455001D02*
X16678739Y7455001D01*
X16678739Y7455001D02*
X16550168Y7407382D01*
X16550168Y7407382D02*
X16464453Y7312144D01*
X16464453Y7312144D02*
X16421596Y7216906D01*
X16421596Y7216906D02*
X16378739Y7026430D01*
X16378739Y7026430D02*
X16378739Y6883573D01*
X16378739Y6883573D02*
X16421596Y6693097D01*
X16421596Y6693097D02*
X16464453Y6597859D01*
X16464453Y6597859D02*
X16550168Y6502620D01*
X16550168Y6502620D02*
X16678739Y6455001D01*
X16678739Y6455001D02*
X16893025Y6455001D01*
X30236032Y2824843D02*
X30536032Y3301034D01*
X30750318Y2824843D02*
X30750318Y3824843D01*
X30750318Y3824843D02*
X30407461Y3824843D01*
X30407461Y3824843D02*
X30321746Y3777224D01*
X30321746Y3777224D02*
X30278889Y3729605D01*
X30278889Y3729605D02*
X30236032Y3634367D01*
X30236032Y3634367D02*
X30236032Y3491510D01*
X30236032Y3491510D02*
X30278889Y3396272D01*
X30278889Y3396272D02*
X30321746Y3348653D01*
X30321746Y3348653D02*
X30407461Y3301034D01*
X30407461Y3301034D02*
X30750318Y3301034D01*
X29850318Y2824843D02*
X29850318Y3824843D01*
X29850318Y3824843D02*
X29550318Y3110558D01*
X29550318Y3110558D02*
X29250318Y3824843D01*
X29250318Y3824843D02*
X29250318Y2824843D01*
X17821428Y33499991D02*
X18178571Y33499991D01*
X18178571Y33499991D02*
X18214285Y33023801D01*
X18214285Y33023801D02*
X18178571Y33071420D01*
X18178571Y33071420D02*
X18107143Y33119039D01*
X18107143Y33119039D02*
X17928571Y33119039D01*
X17928571Y33119039D02*
X17857143Y33071420D01*
X17857143Y33071420D02*
X17821428Y33023801D01*
X17821428Y33023801D02*
X17785714Y32928563D01*
X17785714Y32928563D02*
X17785714Y32690468D01*
X17785714Y32690468D02*
X17821428Y32595230D01*
X17821428Y32595230D02*
X17857143Y32547610D01*
X17857143Y32547610D02*
X17928571Y32499991D01*
X17928571Y32499991D02*
X18107143Y32499991D01*
X18107143Y32499991D02*
X18178571Y32547610D01*
X18178571Y32547610D02*
X18214285Y32595230D01*
X17571428Y33499991D02*
X17321428Y32499991D01*
X17321428Y32499991D02*
X17071428Y33499991D01*
X16821428Y33023801D02*
X16250000Y33023801D01*
X16250000Y32738087D02*
X16821428Y32738087D01*
X15928571Y32547610D02*
X15821429Y32499991D01*
X15821429Y32499991D02*
X15642857Y32499991D01*
X15642857Y32499991D02*
X15571429Y32547610D01*
X15571429Y32547610D02*
X15535714Y32595230D01*
X15535714Y32595230D02*
X15500000Y32690468D01*
X15500000Y32690468D02*
X15500000Y32785706D01*
X15500000Y32785706D02*
X15535714Y32880944D01*
X15535714Y32880944D02*
X15571429Y32928563D01*
X15571429Y32928563D02*
X15642857Y32976182D01*
X15642857Y32976182D02*
X15785714Y33023801D01*
X15785714Y33023801D02*
X15857143Y33071420D01*
X15857143Y33071420D02*
X15892857Y33119039D01*
X15892857Y33119039D02*
X15928571Y33214277D01*
X15928571Y33214277D02*
X15928571Y33309515D01*
X15928571Y33309515D02*
X15892857Y33404753D01*
X15892857Y33404753D02*
X15857143Y33452372D01*
X15857143Y33452372D02*
X15785714Y33499991D01*
X15785714Y33499991D02*
X15607143Y33499991D01*
X15607143Y33499991D02*
X15500000Y33452372D01*
X15285714Y33499991D02*
X14857143Y33499991D01*
X15071428Y32499991D02*
X15071428Y33499991D01*
X14642856Y32785706D02*
X14285714Y32785706D01*
X14714285Y32499991D02*
X14464285Y33499991D01*
X14464285Y33499991D02*
X14214285Y32499991D01*
X13535714Y32595230D02*
X13571428Y32547610D01*
X13571428Y32547610D02*
X13678571Y32499991D01*
X13678571Y32499991D02*
X13749999Y32499991D01*
X13749999Y32499991D02*
X13857142Y32547610D01*
X13857142Y32547610D02*
X13928571Y32642849D01*
X13928571Y32642849D02*
X13964285Y32738087D01*
X13964285Y32738087D02*
X13999999Y32928563D01*
X13999999Y32928563D02*
X13999999Y33071420D01*
X13999999Y33071420D02*
X13964285Y33261896D01*
X13964285Y33261896D02*
X13928571Y33357134D01*
X13928571Y33357134D02*
X13857142Y33452372D01*
X13857142Y33452372D02*
X13749999Y33499991D01*
X13749999Y33499991D02*
X13678571Y33499991D01*
X13678571Y33499991D02*
X13571428Y33452372D01*
X13571428Y33452372D02*
X13535714Y33404753D01*
X13214285Y32499991D02*
X13214285Y33499991D01*
X12785714Y32499991D02*
X13107142Y33071420D01*
X12785714Y33499991D02*
X13214285Y32928563D01*
X22789285Y3825126D02*
X22386904Y3825126D01*
X22386904Y3825126D02*
X22603571Y3444174D01*
X22603571Y3444174D02*
X22510714Y3444174D01*
X22510714Y3444174D02*
X22448809Y3396555D01*
X22448809Y3396555D02*
X22417857Y3348936D01*
X22417857Y3348936D02*
X22386904Y3253698D01*
X22386904Y3253698D02*
X22386904Y3015603D01*
X22386904Y3015603D02*
X22417857Y2920365D01*
X22417857Y2920365D02*
X22448809Y2872745D01*
X22448809Y2872745D02*
X22510714Y2825126D01*
X22510714Y2825126D02*
X22696428Y2825126D01*
X22696428Y2825126D02*
X22758333Y2872745D01*
X22758333Y2872745D02*
X22789285Y2920365D01*
X22201190Y3825126D02*
X21984523Y2825126D01*
X21984523Y2825126D02*
X21767856Y3825126D01*
X21613094Y3825126D02*
X21210713Y3825126D01*
X21210713Y3825126D02*
X21427380Y3444174D01*
X21427380Y3444174D02*
X21334523Y3444174D01*
X21334523Y3444174D02*
X21272618Y3396555D01*
X21272618Y3396555D02*
X21241666Y3348936D01*
X21241666Y3348936D02*
X21210713Y3253698D01*
X21210713Y3253698D02*
X21210713Y3015603D01*
X21210713Y3015603D02*
X21241666Y2920365D01*
X21241666Y2920365D02*
X21272618Y2872745D01*
X21272618Y2872745D02*
X21334523Y2825126D01*
X21334523Y2825126D02*
X21520237Y2825126D01*
X21520237Y2825126D02*
X21582142Y2872745D01*
X21582142Y2872745D02*
X21613094Y2920365D01*
X26535798Y35175047D02*
X26364370Y35175047D01*
X26364370Y35175047D02*
X26278655Y35127428D01*
X26278655Y35127428D02*
X26192941Y35032190D01*
X26192941Y35032190D02*
X26150084Y34841714D01*
X26150084Y34841714D02*
X26150084Y34508381D01*
X26150084Y34508381D02*
X26192941Y34317905D01*
X26192941Y34317905D02*
X26278655Y34222666D01*
X26278655Y34222666D02*
X26364370Y34175047D01*
X26364370Y34175047D02*
X26535798Y34175047D01*
X26535798Y34175047D02*
X26621513Y34222666D01*
X26621513Y34222666D02*
X26707227Y34317905D01*
X26707227Y34317905D02*
X26750084Y34508381D01*
X26750084Y34508381D02*
X26750084Y34841714D01*
X26750084Y34841714D02*
X26707227Y35032190D01*
X26707227Y35032190D02*
X26621513Y35127428D01*
X26621513Y35127428D02*
X26535798Y35175047D01*
X25764370Y34175047D02*
X25764370Y35175047D01*
X25250084Y34175047D02*
X25635798Y34746476D01*
X25250084Y35175047D02*
X25764370Y34603619D01*
X14600174Y3110793D02*
X14171603Y3110793D01*
X14685888Y2825078D02*
X14385888Y3825078D01*
X14385888Y3825078D02*
X14085888Y2825078D01*
X13828745Y3729840D02*
X13785888Y3777459D01*
X13785888Y3777459D02*
X13700174Y3825078D01*
X13700174Y3825078D02*
X13485888Y3825078D01*
X13485888Y3825078D02*
X13400174Y3777459D01*
X13400174Y3777459D02*
X13357316Y3729840D01*
X13357316Y3729840D02*
X13314459Y3634602D01*
X13314459Y3634602D02*
X13314459Y3539364D01*
X13314459Y3539364D02*
X13357316Y3396507D01*
X13357316Y3396507D02*
X13871602Y2825078D01*
X13871602Y2825078D02*
X13314459Y2825078D01*
%TO.C,R53*%
X16462742Y22172500D02*
X16937258Y22172500D01*
X16462742Y21127500D02*
X16937258Y21127500D01*
%TO.C,C33*%
X14890000Y14490580D02*
X14890000Y14209420D01*
X15910000Y14490580D02*
X15910000Y14209420D01*
%TO.C,C40*%
X28240580Y11010000D02*
X27959420Y11010000D01*
X28240580Y9990000D02*
X27959420Y9990000D01*
%TO.C,U11*%
X24540000Y20735000D02*
X16550000Y20735000D01*
X24550000Y14515000D02*
X16550000Y14515000D01*
X25260000Y19935000D02*
X24780000Y19935000D01*
X24780000Y20415000D01*
X25260000Y19935000D01*
G36*
X25260000Y19935000D02*
G01*
X24780000Y19935000D01*
X24780000Y20415000D01*
X25260000Y19935000D01*
G37*
%TO.C,C26*%
X23109420Y12010000D02*
X23390580Y12010000D01*
X23109420Y10990000D02*
X23390580Y10990000D01*
%TO.C,R46*%
X23477500Y22562742D02*
X23477500Y23037258D01*
X24522500Y22562742D02*
X24522500Y23037258D01*
%TO.C,C8*%
X23490000Y9140580D02*
X23490000Y8859420D01*
X24510000Y9140580D02*
X24510000Y8859420D01*
%TO.C,R50*%
X17762742Y24922500D02*
X18237258Y24922500D01*
X17762742Y23877500D02*
X18237258Y23877500D01*
%TO.C,C41*%
X26915000Y7461252D02*
X26915000Y6938748D01*
X28385000Y7461252D02*
X28385000Y6938748D01*
%TO.C,R10*%
X10762742Y30022500D02*
X11237258Y30022500D01*
X10762742Y28977500D02*
X11237258Y28977500D01*
%TO.C,R51*%
X18662742Y28822500D02*
X19137258Y28822500D01*
X18662742Y27777500D02*
X19137258Y27777500D01*
%TO.C,C29*%
X22890580Y25760000D02*
X22609420Y25760000D01*
X22890580Y24740000D02*
X22609420Y24740000D01*
%TO.C,J5*%
X33015000Y30560000D02*
X33015000Y29510000D01*
X33015000Y29510000D02*
X32025000Y29510000D01*
X33015000Y24340000D02*
X33015000Y25390000D01*
X35515000Y30560000D02*
X33015000Y30560000D01*
X35515000Y24340000D02*
X33015000Y24340000D01*
X37485000Y29390000D02*
X37485000Y25510000D01*
%TO.C,R9*%
X7977500Y27537258D02*
X7977500Y27062742D01*
X9022500Y27537258D02*
X9022500Y27062742D01*
%TO.C,C24*%
X28890000Y24540580D02*
X28890000Y24259420D01*
X29910000Y24540580D02*
X29910000Y24259420D01*
%TO.C,C15*%
X11790000Y18659420D02*
X11790000Y18940580D01*
X12810000Y18659420D02*
X12810000Y18940580D01*
%TO.C,R45*%
X25762742Y26822500D02*
X26237258Y26822500D01*
X25762742Y25777500D02*
X26237258Y25777500D01*
%TO.C,R43*%
X20762742Y9222500D02*
X21237258Y9222500D01*
X20762742Y8177500D02*
X21237258Y8177500D01*
%TO.C,C3*%
X9740000Y22359420D02*
X9740000Y22640580D01*
X10760000Y22359420D02*
X10760000Y22640580D01*
%TO.C,R52*%
X17762742Y27122500D02*
X18237258Y27122500D01*
X17762742Y26077500D02*
X18237258Y26077500D01*
%TO.C,R48*%
X19862742Y32222500D02*
X20337258Y32222500D01*
X19862742Y31177500D02*
X20337258Y31177500D01*
%TO.C,C9*%
X26359420Y24010000D02*
X26640580Y24010000D01*
X26359420Y22990000D02*
X26640580Y22990000D01*
%TO.C,R1*%
X25227500Y10262742D02*
X25227500Y10737258D01*
X26272500Y10262742D02*
X26272500Y10737258D01*
%TO.C,C6*%
X9740000Y19109420D02*
X9740000Y19390580D01*
X10760000Y19109420D02*
X10760000Y19390580D01*
%TO.C,C32*%
X14840580Y20310000D02*
X14559420Y20310000D01*
X14840580Y19290000D02*
X14559420Y19290000D01*
%TO.C,J3*%
X515000Y23610000D02*
X515000Y29490000D01*
X2485000Y30660000D02*
X4985000Y30660000D01*
X2485000Y22440000D02*
X4985000Y22440000D01*
X4985000Y30660000D02*
X4985000Y29610000D01*
X4985000Y23490000D02*
X5975000Y23490000D01*
X4985000Y22440000D02*
X4985000Y23490000D01*
%TO.C,R6*%
X29977500Y27262742D02*
X29977500Y27737258D01*
X31022500Y27262742D02*
X31022500Y27737258D01*
%TO.C,J4*%
X515000Y10310000D02*
X515000Y18190000D01*
X2485000Y19360000D02*
X4985000Y19360000D01*
X2485000Y9140000D02*
X4985000Y9140000D01*
X4985000Y19360000D02*
X4985000Y18310000D01*
X4985000Y10190000D02*
X5975000Y10190000D01*
X4985000Y9140000D02*
X4985000Y10190000D01*
%TO.C,R44*%
X25762742Y28522500D02*
X26237258Y28522500D01*
X25762742Y27477500D02*
X26237258Y27477500D01*
%TO.C,C5*%
X32240580Y9510000D02*
X31959420Y9510000D01*
X32240580Y8490000D02*
X31959420Y8490000D01*
%TO.C,C37*%
X27159420Y22010000D02*
X27440580Y22010000D01*
X27159420Y20990000D02*
X27440580Y20990000D01*
%TO.C,R49*%
X23762742Y31922500D02*
X24237258Y31922500D01*
X23762742Y30877500D02*
X24237258Y30877500D01*
%TO.C,C11*%
X12609420Y14510000D02*
X12890580Y14510000D01*
X12609420Y13490000D02*
X12890580Y13490000D01*
%TO.C,R55*%
X20037258Y22822500D02*
X19562742Y22822500D01*
X20037258Y21777500D02*
X19562742Y21777500D01*
%TO.C,C10*%
X9640580Y14010000D02*
X9359420Y14010000D01*
X9640580Y12990000D02*
X9359420Y12990000D01*
%TO.C,R4*%
X11477500Y21762742D02*
X11477500Y22237258D01*
X12522500Y21762742D02*
X12522500Y22237258D01*
%TO.C,R3*%
X9727500Y25512742D02*
X9727500Y25987258D01*
X10772500Y25512742D02*
X10772500Y25987258D01*
%TO.C,R54*%
X33262742Y18522500D02*
X33737258Y18522500D01*
X33262742Y17477500D02*
X33737258Y17477500D01*
%TO.C,R5*%
X28227500Y27262742D02*
X28227500Y27737258D01*
X29272500Y27262742D02*
X29272500Y27737258D01*
%TO.C,U10*%
X15000000Y31560000D02*
X14200000Y31560000D01*
X15000000Y31560000D02*
X15800000Y31560000D01*
X15000000Y28440000D02*
X14200000Y28440000D01*
X15000000Y28440000D02*
X15800000Y28440000D01*
X13940000Y28160000D02*
X13460000Y28160000D01*
X13700000Y28490000D01*
X13940000Y28160000D01*
G36*
X13940000Y28160000D02*
G01*
X13460000Y28160000D01*
X13700000Y28490000D01*
X13940000Y28160000D01*
G37*
%TO.C,R42*%
X28977500Y8487258D02*
X28977500Y8012742D01*
X30022500Y8487258D02*
X30022500Y8012742D01*
%TO.C,C7*%
X10890580Y10260000D02*
X10609420Y10260000D01*
X10890580Y9240000D02*
X10609420Y9240000D01*
%TO.C,C25*%
X11490000Y25859420D02*
X11490000Y26140580D01*
X12510000Y25859420D02*
X12510000Y26140580D01*
%TO.C,C4*%
X31959420Y11510000D02*
X32240580Y11510000D01*
X31959420Y10490000D02*
X32240580Y10490000D01*
%TO.C,C34*%
X6990000Y19859420D02*
X6990000Y20140580D01*
X8010000Y19859420D02*
X8010000Y20140580D01*
%TO.C,R56*%
X14727500Y17212742D02*
X14727500Y17687258D01*
X15772500Y17212742D02*
X15772500Y17687258D01*
%TO.C,C31*%
X18659420Y30510000D02*
X18940580Y30510000D01*
X18659420Y29490000D02*
X18940580Y29490000D01*
%TO.C,R12*%
X29977500Y30512742D02*
X29977500Y30987258D01*
X31022500Y30512742D02*
X31022500Y30987258D01*
%TO.C,R58*%
X10037258Y17022500D02*
X9562742Y17022500D01*
X10037258Y15977500D02*
X9562742Y15977500D01*
%TD*%
%LPC*%
G36*
X8740118Y2536451D02*
G01*
X8797865Y2497865D01*
X8836451Y2440118D01*
X8850000Y2372000D01*
X8850000Y628000D01*
X8836451Y559882D01*
X8797865Y502135D01*
X8740118Y463549D01*
X8672000Y450000D01*
X7328000Y450000D01*
X7259882Y463549D01*
X7202135Y502135D01*
X7163549Y559882D01*
X7150000Y628000D01*
X7150000Y2372000D01*
X7163549Y2440118D01*
X7202135Y2497865D01*
X7259882Y2536451D01*
X7328000Y2550000D01*
X8672000Y2550000D01*
X8740118Y2536451D01*
G37*
G36*
X10740118Y2536451D02*
G01*
X10797865Y2497865D01*
X10836451Y2440118D01*
X10850000Y2372000D01*
X10850000Y628000D01*
X10836451Y559882D01*
X10797865Y502135D01*
X10740118Y463549D01*
X10672000Y450000D01*
X9328000Y450000D01*
X9259882Y463549D01*
X9202135Y502135D01*
X9163549Y559882D01*
X9150000Y628000D01*
X9150000Y2372000D01*
X9163549Y2440118D01*
X9202135Y2497865D01*
X9259882Y2536451D01*
X9328000Y2550000D01*
X10672000Y2550000D01*
X10740118Y2536451D01*
G37*
G36*
X12740118Y2536451D02*
G01*
X12797865Y2497865D01*
X12836451Y2440118D01*
X12850000Y2372000D01*
X12850000Y628000D01*
X12836451Y559882D01*
X12797865Y502135D01*
X12740118Y463549D01*
X12672000Y450000D01*
X11328000Y450000D01*
X11259882Y463549D01*
X11202135Y502135D01*
X11163549Y559882D01*
X11150000Y628000D01*
X11150000Y2372000D01*
X11163549Y2440118D01*
X11202135Y2497865D01*
X11259882Y2536451D01*
X11328000Y2550000D01*
X12672000Y2550000D01*
X12740118Y2536451D01*
G37*
G36*
X14740118Y2536451D02*
G01*
X14797865Y2497865D01*
X14836451Y2440118D01*
X14850000Y2372000D01*
X14850000Y628000D01*
X14836451Y559882D01*
X14797865Y502135D01*
X14740118Y463549D01*
X14672000Y450000D01*
X13328000Y450000D01*
X13259882Y463549D01*
X13202135Y502135D01*
X13163549Y559882D01*
X13150000Y628000D01*
X13150000Y2372000D01*
X13163549Y2440118D01*
X13202135Y2497865D01*
X13259882Y2536451D01*
X13328000Y2550000D01*
X14672000Y2550000D01*
X14740118Y2536451D01*
G37*
G36*
X16740118Y2536451D02*
G01*
X16797865Y2497865D01*
X16836451Y2440118D01*
X16850000Y2372000D01*
X16850000Y628000D01*
X16836451Y559882D01*
X16797865Y502135D01*
X16740118Y463549D01*
X16672000Y450000D01*
X15328000Y450000D01*
X15259882Y463549D01*
X15202135Y502135D01*
X15163549Y559882D01*
X15150000Y628000D01*
X15150000Y2372000D01*
X15163549Y2440118D01*
X15202135Y2497865D01*
X15259882Y2536451D01*
X15328000Y2550000D01*
X16672000Y2550000D01*
X16740118Y2536451D01*
G37*
G36*
X18740118Y2536451D02*
G01*
X18797865Y2497865D01*
X18836451Y2440118D01*
X18850000Y2372000D01*
X18850000Y628000D01*
X18836451Y559882D01*
X18797865Y502135D01*
X18740118Y463549D01*
X18672000Y450000D01*
X17328000Y450000D01*
X17259882Y463549D01*
X17202135Y502135D01*
X17163549Y559882D01*
X17150000Y628000D01*
X17150000Y2372000D01*
X17163549Y2440118D01*
X17202135Y2497865D01*
X17259882Y2536451D01*
X17328000Y2550000D01*
X18672000Y2550000D01*
X18740118Y2536451D01*
G37*
G36*
X20740118Y2536451D02*
G01*
X20797865Y2497865D01*
X20836451Y2440118D01*
X20850000Y2372000D01*
X20850000Y628000D01*
X20836451Y559882D01*
X20797865Y502135D01*
X20740118Y463549D01*
X20672000Y450000D01*
X19328000Y450000D01*
X19259882Y463549D01*
X19202135Y502135D01*
X19163549Y559882D01*
X19150000Y628000D01*
X19150000Y2372000D01*
X19163549Y2440118D01*
X19202135Y2497865D01*
X19259882Y2536451D01*
X19328000Y2550000D01*
X20672000Y2550000D01*
X20740118Y2536451D01*
G37*
G36*
X22740118Y2536451D02*
G01*
X22797865Y2497865D01*
X22836451Y2440118D01*
X22850000Y2372000D01*
X22850000Y628000D01*
X22836451Y559882D01*
X22797865Y502135D01*
X22740118Y463549D01*
X22672000Y450000D01*
X21328000Y450000D01*
X21259882Y463549D01*
X21202135Y502135D01*
X21163549Y559882D01*
X21150000Y628000D01*
X21150000Y2372000D01*
X21163549Y2440118D01*
X21202135Y2497865D01*
X21259882Y2536451D01*
X21328000Y2550000D01*
X22672000Y2550000D01*
X22740118Y2536451D01*
G37*
G36*
X24740118Y2536451D02*
G01*
X24797865Y2497865D01*
X24836451Y2440118D01*
X24850000Y2372000D01*
X24850000Y628000D01*
X24836451Y559882D01*
X24797865Y502135D01*
X24740118Y463549D01*
X24672000Y450000D01*
X23328000Y450000D01*
X23259882Y463549D01*
X23202135Y502135D01*
X23163549Y559882D01*
X23150000Y628000D01*
X23150000Y2372000D01*
X23163549Y2440118D01*
X23202135Y2497865D01*
X23259882Y2536451D01*
X23328000Y2550000D01*
X24672000Y2550000D01*
X24740118Y2536451D01*
G37*
G36*
X26740118Y2536451D02*
G01*
X26797865Y2497865D01*
X26836451Y2440118D01*
X26850000Y2372000D01*
X26850000Y628000D01*
X26836451Y559882D01*
X26797865Y502135D01*
X26740118Y463549D01*
X26672000Y450000D01*
X25328000Y450000D01*
X25259882Y463549D01*
X25202135Y502135D01*
X25163549Y559882D01*
X25150000Y628000D01*
X25150000Y2372000D01*
X25163549Y2440118D01*
X25202135Y2497865D01*
X25259882Y2536451D01*
X25328000Y2550000D01*
X26672000Y2550000D01*
X26740118Y2536451D01*
G37*
G36*
X28740118Y2536451D02*
G01*
X28797865Y2497865D01*
X28836451Y2440118D01*
X28850000Y2372000D01*
X28850000Y628000D01*
X28836451Y559882D01*
X28797865Y502135D01*
X28740118Y463549D01*
X28672000Y450000D01*
X27328000Y450000D01*
X27259882Y463549D01*
X27202135Y502135D01*
X27163549Y559882D01*
X27150000Y628000D01*
X27150000Y2372000D01*
X27163549Y2440118D01*
X27202135Y2497865D01*
X27259882Y2536451D01*
X27328000Y2550000D01*
X28672000Y2550000D01*
X28740118Y2536451D01*
G37*
G36*
X30740118Y2536451D02*
G01*
X30797865Y2497865D01*
X30836451Y2440118D01*
X30850000Y2372000D01*
X30850000Y628000D01*
X30836451Y559882D01*
X30797865Y502135D01*
X30740118Y463549D01*
X30672000Y450000D01*
X29328000Y450000D01*
X29259882Y463549D01*
X29202135Y502135D01*
X29163549Y559882D01*
X29150000Y628000D01*
X29150000Y2372000D01*
X29163549Y2440118D01*
X29202135Y2497865D01*
X29259882Y2536451D01*
X29328000Y2550000D01*
X30672000Y2550000D01*
X30740118Y2536451D01*
G37*
G36*
X4006790Y4819607D02*
G01*
X4170952Y4766267D01*
X4324748Y4687904D01*
X4464393Y4586447D01*
X4586447Y4464393D01*
X4687904Y4324748D01*
X4766267Y4170952D01*
X4819607Y4006790D01*
X4846609Y3836305D01*
X4846609Y3663695D01*
X4819607Y3493210D01*
X4766267Y3329048D01*
X4687904Y3175252D01*
X4586447Y3035607D01*
X4464393Y2913553D01*
X4324748Y2812096D01*
X4170952Y2733733D01*
X4006790Y2680393D01*
X3836305Y2653391D01*
X3663695Y2653391D01*
X3493210Y2680393D01*
X3329048Y2733733D01*
X3175252Y2812096D01*
X3035607Y2913553D01*
X2913553Y3035607D01*
X2812096Y3175252D01*
X2733733Y3329048D01*
X2680393Y3493210D01*
X2653391Y3663695D01*
X2653391Y3836305D01*
X2680393Y4006790D01*
X2733733Y4170952D01*
X2812096Y4324748D01*
X2913553Y4464393D01*
X3035607Y4586447D01*
X3175252Y4687904D01*
X3329048Y4766267D01*
X3493210Y4819607D01*
X3663695Y4846609D01*
X3836305Y4846609D01*
X4006790Y4819607D01*
G37*
G36*
X34506790Y4819607D02*
G01*
X34670952Y4766267D01*
X34824748Y4687904D01*
X34964393Y4586447D01*
X35086447Y4464393D01*
X35187904Y4324748D01*
X35266267Y4170952D01*
X35319607Y4006790D01*
X35346609Y3836305D01*
X35346609Y3663695D01*
X35319607Y3493210D01*
X35266267Y3329048D01*
X35187904Y3175252D01*
X35086447Y3035607D01*
X34964393Y2913553D01*
X34824748Y2812096D01*
X34670952Y2733733D01*
X34506790Y2680393D01*
X34336305Y2653391D01*
X34163695Y2653391D01*
X33993210Y2680393D01*
X33829048Y2733733D01*
X33675252Y2812096D01*
X33535607Y2913553D01*
X33413553Y3035607D01*
X33312096Y3175252D01*
X33233733Y3329048D01*
X33180393Y3493210D01*
X33153391Y3663695D01*
X33153391Y3836305D01*
X33180393Y4006790D01*
X33233733Y4170952D01*
X33312096Y4324748D01*
X33413553Y4464393D01*
X33535607Y4586447D01*
X33675252Y4687904D01*
X33829048Y4766267D01*
X33993210Y4819607D01*
X34163695Y4846609D01*
X34336305Y4846609D01*
X34506790Y4819607D01*
G37*
G36*
X13740118Y6186451D02*
G01*
X13797865Y6147865D01*
X13836451Y6090118D01*
X13850000Y6022000D01*
X13850000Y4278000D01*
X13836451Y4209882D01*
X13797865Y4152135D01*
X13740118Y4113549D01*
X13672000Y4100000D01*
X12328000Y4100000D01*
X12259882Y4113549D01*
X12202135Y4152135D01*
X12163549Y4209882D01*
X12150000Y4278000D01*
X12150000Y6022000D01*
X12163549Y6090118D01*
X12202135Y6147865D01*
X12259882Y6186451D01*
X12328000Y6200000D01*
X13672000Y6200000D01*
X13740118Y6186451D01*
G37*
G36*
X15740118Y6186451D02*
G01*
X15797865Y6147865D01*
X15836451Y6090118D01*
X15850000Y6022000D01*
X15850000Y4278000D01*
X15836451Y4209882D01*
X15797865Y4152135D01*
X15740118Y4113549D01*
X15672000Y4100000D01*
X14328000Y4100000D01*
X14259882Y4113549D01*
X14202135Y4152135D01*
X14163549Y4209882D01*
X14150000Y4278000D01*
X14150000Y6022000D01*
X14163549Y6090118D01*
X14202135Y6147865D01*
X14259882Y6186451D01*
X14328000Y6200000D01*
X15672000Y6200000D01*
X15740118Y6186451D01*
G37*
G36*
X17740118Y6186451D02*
G01*
X17797865Y6147865D01*
X17836451Y6090118D01*
X17850000Y6022000D01*
X17850000Y4278000D01*
X17836451Y4209882D01*
X17797865Y4152135D01*
X17740118Y4113549D01*
X17672000Y4100000D01*
X16328000Y4100000D01*
X16259882Y4113549D01*
X16202135Y4152135D01*
X16163549Y4209882D01*
X16150000Y4278000D01*
X16150000Y6022000D01*
X16163549Y6090118D01*
X16202135Y6147865D01*
X16259882Y6186451D01*
X16328000Y6200000D01*
X17672000Y6200000D01*
X17740118Y6186451D01*
G37*
G36*
X19740118Y6186451D02*
G01*
X19797865Y6147865D01*
X19836451Y6090118D01*
X19850000Y6022000D01*
X19850000Y4278000D01*
X19836451Y4209882D01*
X19797865Y4152135D01*
X19740118Y4113549D01*
X19672000Y4100000D01*
X18328000Y4100000D01*
X18259882Y4113549D01*
X18202135Y4152135D01*
X18163549Y4209882D01*
X18150000Y4278000D01*
X18150000Y6022000D01*
X18163549Y6090118D01*
X18202135Y6147865D01*
X18259882Y6186451D01*
X18328000Y6200000D01*
X19672000Y6200000D01*
X19740118Y6186451D01*
G37*
G36*
X21740118Y6186451D02*
G01*
X21797865Y6147865D01*
X21836451Y6090118D01*
X21850000Y6022000D01*
X21850000Y4278000D01*
X21836451Y4209882D01*
X21797865Y4152135D01*
X21740118Y4113549D01*
X21672000Y4100000D01*
X20328000Y4100000D01*
X20259882Y4113549D01*
X20202135Y4152135D01*
X20163549Y4209882D01*
X20150000Y4278000D01*
X20150000Y6022000D01*
X20163549Y6090118D01*
X20202135Y6147865D01*
X20259882Y6186451D01*
X20328000Y6200000D01*
X21672000Y6200000D01*
X21740118Y6186451D01*
G37*
G36*
X23740118Y6186451D02*
G01*
X23797865Y6147865D01*
X23836451Y6090118D01*
X23850000Y6022000D01*
X23850000Y4278000D01*
X23836451Y4209882D01*
X23797865Y4152135D01*
X23740118Y4113549D01*
X23672000Y4100000D01*
X22328000Y4100000D01*
X22259882Y4113549D01*
X22202135Y4152135D01*
X22163549Y4209882D01*
X22150000Y4278000D01*
X22150000Y6022000D01*
X22163549Y6090118D01*
X22202135Y6147865D01*
X22259882Y6186451D01*
X22328000Y6200000D01*
X23672000Y6200000D01*
X23740118Y6186451D01*
G37*
G36*
X25740118Y6186451D02*
G01*
X25797865Y6147865D01*
X25836451Y6090118D01*
X25850000Y6022000D01*
X25850000Y4278000D01*
X25836451Y4209882D01*
X25797865Y4152135D01*
X25740118Y4113549D01*
X25672000Y4100000D01*
X24328000Y4100000D01*
X24259882Y4113549D01*
X24202135Y4152135D01*
X24163549Y4209882D01*
X24150000Y4278000D01*
X24150000Y6022000D01*
X24163549Y6090118D01*
X24202135Y6147865D01*
X24259882Y6186451D01*
X24328000Y6200000D01*
X25672000Y6200000D01*
X25740118Y6186451D01*
G37*
G36*
X28129047Y6749195D02*
G01*
X28180408Y6743236D01*
X28197954Y6735489D01*
X28220671Y6730970D01*
X28244991Y6714720D01*
X28265793Y6705535D01*
X28280000Y6691328D01*
X28301777Y6676777D01*
X28316327Y6655001D01*
X28330534Y6640794D01*
X28339718Y6619994D01*
X28355970Y6595671D01*
X28360489Y6572952D01*
X28368235Y6555409D01*
X28374192Y6504060D01*
X28375000Y6500000D01*
X28375000Y6000000D01*
X28374192Y5995941D01*
X28368235Y5944592D01*
X28360489Y5927050D01*
X28355970Y5904329D01*
X28339716Y5880005D01*
X28330534Y5859207D01*
X28316329Y5845003D01*
X28301777Y5823223D01*
X28279997Y5808671D01*
X28265793Y5794466D01*
X28244995Y5785284D01*
X28220671Y5769030D01*
X28197950Y5764511D01*
X28180408Y5756765D01*
X28129061Y5750808D01*
X28125000Y5750000D01*
X27175000Y5750000D01*
X27170941Y5750808D01*
X27119591Y5756765D01*
X27102048Y5764511D01*
X27079329Y5769030D01*
X27055006Y5785282D01*
X27034206Y5794466D01*
X27019999Y5808673D01*
X26998223Y5823223D01*
X26983672Y5845000D01*
X26969465Y5859207D01*
X26960280Y5880009D01*
X26944030Y5904329D01*
X26939511Y5927046D01*
X26931764Y5944592D01*
X26925805Y5995951D01*
X26925000Y6000000D01*
X26925000Y6500000D01*
X26925804Y6504047D01*
X26931764Y6555409D01*
X26939511Y6572957D01*
X26944030Y6595671D01*
X26960278Y6619990D01*
X26969465Y6640794D01*
X26983674Y6655004D01*
X26998223Y6676777D01*
X27019996Y6691326D01*
X27034206Y6705535D01*
X27055010Y6714722D01*
X27079329Y6730970D01*
X27102043Y6735489D01*
X27119591Y6743236D01*
X27170952Y6749195D01*
X27175000Y6750000D01*
X28125000Y6750000D01*
X28129047Y6749195D01*
G37*
G36*
X29851537Y7809776D02*
G01*
X29916421Y7766421D01*
X29959776Y7701537D01*
X29975000Y7625000D01*
X29975000Y7225000D01*
X29959776Y7148463D01*
X29916421Y7083579D01*
X29851537Y7040224D01*
X29775000Y7025000D01*
X29225000Y7025000D01*
X29148463Y7040224D01*
X29083579Y7083579D01*
X29040224Y7148463D01*
X29025000Y7225000D01*
X29025000Y7625000D01*
X29040224Y7701537D01*
X29083579Y7766421D01*
X29148463Y7809776D01*
X29225000Y7825000D01*
X29775000Y7825000D01*
X29851537Y7809776D01*
G37*
G36*
X28129047Y8649195D02*
G01*
X28180408Y8643236D01*
X28197954Y8635489D01*
X28220671Y8630970D01*
X28244991Y8614720D01*
X28265793Y8605535D01*
X28280000Y8591328D01*
X28301777Y8576777D01*
X28316327Y8555001D01*
X28330534Y8540794D01*
X28339718Y8519994D01*
X28355970Y8495671D01*
X28360489Y8472952D01*
X28368235Y8455409D01*
X28374192Y8404060D01*
X28375000Y8400000D01*
X28375000Y7900000D01*
X28374192Y7895941D01*
X28368235Y7844592D01*
X28360489Y7827050D01*
X28355970Y7804329D01*
X28339716Y7780005D01*
X28330534Y7759207D01*
X28316329Y7745003D01*
X28301777Y7723223D01*
X28279997Y7708671D01*
X28265793Y7694466D01*
X28244995Y7685284D01*
X28220671Y7669030D01*
X28197950Y7664511D01*
X28180408Y7656765D01*
X28129061Y7650808D01*
X28125000Y7650000D01*
X27175000Y7650000D01*
X27170941Y7650808D01*
X27119591Y7656765D01*
X27102048Y7664511D01*
X27079329Y7669030D01*
X27055006Y7685282D01*
X27034206Y7694466D01*
X27019999Y7708673D01*
X26998223Y7723223D01*
X26983672Y7745000D01*
X26969465Y7759207D01*
X26960280Y7780009D01*
X26944030Y7804329D01*
X26939511Y7827046D01*
X26931764Y7844592D01*
X26925805Y7895951D01*
X26925000Y7900000D01*
X26925000Y8400000D01*
X26925804Y8404047D01*
X26931764Y8455409D01*
X26939511Y8472957D01*
X26944030Y8495671D01*
X26960278Y8519990D01*
X26969465Y8540794D01*
X26983674Y8555004D01*
X26998223Y8576777D01*
X27019996Y8591326D01*
X27034206Y8605535D01*
X27055010Y8614722D01*
X27079329Y8630970D01*
X27102043Y8635489D01*
X27119591Y8643236D01*
X27170952Y8649195D01*
X27175000Y8650000D01*
X28125000Y8650000D01*
X28129047Y8649195D01*
G37*
G36*
X24336104Y8657873D02*
G01*
X24409099Y8609099D01*
X24457873Y8536104D01*
X24475000Y8450000D01*
X24475000Y8000000D01*
X24457873Y7913896D01*
X24409099Y7840901D01*
X24336104Y7792127D01*
X24250000Y7775000D01*
X23750000Y7775000D01*
X23663896Y7792127D01*
X23590901Y7840901D01*
X23542127Y7913896D01*
X23525000Y8000000D01*
X23525000Y8450000D01*
X23542127Y8536104D01*
X23590901Y8609099D01*
X23663896Y8657873D01*
X23750000Y8675000D01*
X24250000Y8675000D01*
X24336104Y8657873D01*
G37*
G36*
X20451537Y9159776D02*
G01*
X20516421Y9116421D01*
X20559776Y9051537D01*
X20575000Y8975000D01*
X20575000Y8425000D01*
X20559776Y8348463D01*
X20516421Y8283579D01*
X20451537Y8240224D01*
X20375000Y8225000D01*
X19975000Y8225000D01*
X19898463Y8240224D01*
X19833579Y8283579D01*
X19790224Y8348463D01*
X19775000Y8425000D01*
X19775000Y8975000D01*
X19790224Y9051537D01*
X19833579Y9116421D01*
X19898463Y9159776D01*
X19975000Y9175000D01*
X20375000Y9175000D01*
X20451537Y9159776D01*
G37*
G36*
X22101537Y9159776D02*
G01*
X22166421Y9116421D01*
X22209776Y9051537D01*
X22225000Y8975000D01*
X22225000Y8425000D01*
X22209776Y8348463D01*
X22166421Y8283579D01*
X22101537Y8240224D01*
X22025000Y8225000D01*
X21625000Y8225000D01*
X21548463Y8240224D01*
X21483579Y8283579D01*
X21440224Y8348463D01*
X21425000Y8425000D01*
X21425000Y8975000D01*
X21440224Y9051537D01*
X21483579Y9116421D01*
X21548463Y9159776D01*
X21625000Y9175000D01*
X22025000Y9175000D01*
X22101537Y9159776D01*
G37*
G36*
X31636104Y9457873D02*
G01*
X31709099Y9409099D01*
X31757873Y9336104D01*
X31775000Y9250000D01*
X31775000Y8750000D01*
X31757873Y8663896D01*
X31709099Y8590901D01*
X31636104Y8542127D01*
X31550000Y8525000D01*
X31100000Y8525000D01*
X31013896Y8542127D01*
X30940901Y8590901D01*
X30892127Y8663896D01*
X30875000Y8750000D01*
X30875000Y9250000D01*
X30892127Y9336104D01*
X30940901Y9409099D01*
X31013896Y9457873D01*
X31100000Y9475000D01*
X31550000Y9475000D01*
X31636104Y9457873D01*
G37*
G36*
X33186104Y9457873D02*
G01*
X33259099Y9409099D01*
X33307873Y9336104D01*
X33325000Y9250000D01*
X33325000Y8750000D01*
X33307873Y8663896D01*
X33259099Y8590901D01*
X33186104Y8542127D01*
X33100000Y8525000D01*
X32650000Y8525000D01*
X32563896Y8542127D01*
X32490901Y8590901D01*
X32442127Y8663896D01*
X32425000Y8750000D01*
X32425000Y9250000D01*
X32442127Y9336104D01*
X32490901Y9409099D01*
X32563896Y9457873D01*
X32650000Y9475000D01*
X33100000Y9475000D01*
X33186104Y9457873D01*
G37*
G36*
X29851537Y9459776D02*
G01*
X29916421Y9416421D01*
X29959776Y9351537D01*
X29975000Y9275000D01*
X29975000Y8875000D01*
X29959776Y8798463D01*
X29916421Y8733579D01*
X29851537Y8690224D01*
X29775000Y8675000D01*
X29225000Y8675000D01*
X29148463Y8690224D01*
X29083579Y8733579D01*
X29040224Y8798463D01*
X29025000Y8875000D01*
X29025000Y9275000D01*
X29040224Y9351537D01*
X29083579Y9416421D01*
X29148463Y9459776D01*
X29225000Y9475000D01*
X29775000Y9475000D01*
X29851537Y9459776D01*
G37*
G36*
X1979047Y10049195D02*
G01*
X2030408Y10043236D01*
X2047954Y10035489D01*
X2070671Y10030970D01*
X2094991Y10014720D01*
X2115793Y10005535D01*
X2130000Y9991328D01*
X2151777Y9976777D01*
X2166327Y9955001D01*
X2180534Y9940794D01*
X2189718Y9919994D01*
X2205970Y9895671D01*
X2210489Y9872952D01*
X2218235Y9855409D01*
X2224192Y9804060D01*
X2225000Y9800000D01*
X2225000Y9100000D01*
X2224192Y9095941D01*
X2218235Y9044592D01*
X2210489Y9027050D01*
X2205970Y9004329D01*
X2189716Y8980005D01*
X2180534Y8959207D01*
X2166329Y8945003D01*
X2151777Y8923223D01*
X2129997Y8908671D01*
X2115793Y8894466D01*
X2094995Y8885284D01*
X2070671Y8869030D01*
X2047950Y8864511D01*
X2030408Y8856765D01*
X1979061Y8850808D01*
X1975000Y8850000D01*
X675000Y8850000D01*
X670941Y8850808D01*
X619591Y8856765D01*
X602048Y8864511D01*
X579329Y8869030D01*
X555006Y8885282D01*
X534206Y8894466D01*
X519999Y8908673D01*
X498223Y8923223D01*
X483672Y8945000D01*
X469465Y8959207D01*
X460280Y8980009D01*
X444030Y9004329D01*
X439511Y9027046D01*
X431764Y9044592D01*
X425805Y9095951D01*
X425000Y9100000D01*
X425000Y9800000D01*
X425804Y9804047D01*
X431764Y9855409D01*
X439511Y9872957D01*
X444030Y9895671D01*
X460278Y9919990D01*
X469465Y9940794D01*
X483674Y9955004D01*
X498223Y9976777D01*
X519996Y9991326D01*
X534206Y10005535D01*
X555010Y10014722D01*
X579329Y10030970D01*
X602043Y10035489D01*
X619591Y10043236D01*
X670952Y10049195D01*
X675000Y10050000D01*
X1975000Y10050000D01*
X1979047Y10049195D01*
G37*
G36*
X10286104Y10207873D02*
G01*
X10359099Y10159099D01*
X10407873Y10086104D01*
X10425000Y10000000D01*
X10425000Y9500000D01*
X10407873Y9413896D01*
X10359099Y9340901D01*
X10286104Y9292127D01*
X10200000Y9275000D01*
X9750000Y9275000D01*
X9663896Y9292127D01*
X9590901Y9340901D01*
X9542127Y9413896D01*
X9525000Y9500000D01*
X9525000Y10000000D01*
X9542127Y10086104D01*
X9590901Y10159099D01*
X9663896Y10207873D01*
X9750000Y10225000D01*
X10200000Y10225000D01*
X10286104Y10207873D01*
G37*
G36*
X11836104Y10207873D02*
G01*
X11909099Y10159099D01*
X11957873Y10086104D01*
X11975000Y10000000D01*
X11975000Y9500000D01*
X11957873Y9413896D01*
X11909099Y9340901D01*
X11836104Y9292127D01*
X11750000Y9275000D01*
X11300000Y9275000D01*
X11213896Y9292127D01*
X11140901Y9340901D01*
X11092127Y9413896D01*
X11075000Y9500000D01*
X11075000Y10000000D01*
X11092127Y10086104D01*
X11140901Y10159099D01*
X11213896Y10207873D01*
X11300000Y10225000D01*
X11750000Y10225000D01*
X11836104Y10207873D01*
G37*
G36*
X26101537Y10059776D02*
G01*
X26166421Y10016421D01*
X26209776Y9951537D01*
X26225000Y9875000D01*
X26225000Y9475000D01*
X26209776Y9398463D01*
X26166421Y9333579D01*
X26101537Y9290224D01*
X26025000Y9275000D01*
X25475000Y9275000D01*
X25398463Y9290224D01*
X25333579Y9333579D01*
X25290224Y9398463D01*
X25275000Y9475000D01*
X25275000Y9875000D01*
X25290224Y9951537D01*
X25333579Y10016421D01*
X25398463Y10059776D01*
X25475000Y10075000D01*
X26025000Y10075000D01*
X26101537Y10059776D01*
G37*
G36*
X24336104Y10207873D02*
G01*
X24409099Y10159099D01*
X24457873Y10086104D01*
X24475000Y10000000D01*
X24475000Y9550000D01*
X24457873Y9463896D01*
X24409099Y9390901D01*
X24336104Y9342127D01*
X24250000Y9325000D01*
X23750000Y9325000D01*
X23663896Y9342127D01*
X23590901Y9390901D01*
X23542127Y9463896D01*
X23525000Y9550000D01*
X23525000Y10000000D01*
X23542127Y10086104D01*
X23590901Y10159099D01*
X23663896Y10207873D01*
X23750000Y10225000D01*
X24250000Y10225000D01*
X24336104Y10207873D01*
G37*
G36*
X27636104Y10957873D02*
G01*
X27709099Y10909099D01*
X27757873Y10836104D01*
X27775000Y10750000D01*
X27775000Y10250000D01*
X27757873Y10163896D01*
X27709099Y10090901D01*
X27636104Y10042127D01*
X27550000Y10025000D01*
X27100000Y10025000D01*
X27013896Y10042127D01*
X26940901Y10090901D01*
X26892127Y10163896D01*
X26875000Y10250000D01*
X26875000Y10750000D01*
X26892127Y10836104D01*
X26940901Y10909099D01*
X27013896Y10957873D01*
X27100000Y10975000D01*
X27550000Y10975000D01*
X27636104Y10957873D01*
G37*
G36*
X29186104Y10957873D02*
G01*
X29259099Y10909099D01*
X29307873Y10836104D01*
X29325000Y10750000D01*
X29325000Y10250000D01*
X29307873Y10163896D01*
X29259099Y10090901D01*
X29186104Y10042127D01*
X29100000Y10025000D01*
X28650000Y10025000D01*
X28563896Y10042127D01*
X28490901Y10090901D01*
X28442127Y10163896D01*
X28425000Y10250000D01*
X28425000Y10750000D01*
X28442127Y10836104D01*
X28490901Y10909099D01*
X28563896Y10957873D01*
X28650000Y10975000D01*
X29100000Y10975000D01*
X29186104Y10957873D01*
G37*
G36*
X18335000Y10325000D02*
G01*
X17865000Y10325000D01*
X17865000Y10925000D01*
X18335000Y10925000D01*
X18335000Y10325000D01*
G37*
G36*
X19635000Y10325000D02*
G01*
X19165000Y10325000D01*
X19165000Y10925000D01*
X19635000Y10925000D01*
X19635000Y10325000D01*
G37*
G36*
X5882403Y11038582D02*
G01*
X5931066Y11006066D01*
X5963582Y10957403D01*
X5975000Y10900000D01*
X5975000Y10600000D01*
X5963582Y10542597D01*
X5931066Y10493934D01*
X5882403Y10461418D01*
X5825000Y10450000D01*
X4575000Y10450000D01*
X4517597Y10461418D01*
X4468934Y10493934D01*
X4436418Y10542597D01*
X4425000Y10600000D01*
X4425000Y10900000D01*
X4436418Y10957403D01*
X4468934Y11006066D01*
X4517597Y11038582D01*
X4575000Y11050000D01*
X5825000Y11050000D01*
X5882403Y11038582D01*
G37*
G36*
X31636104Y11457873D02*
G01*
X31709099Y11409099D01*
X31757873Y11336104D01*
X31775000Y11250000D01*
X31775000Y10750000D01*
X31757873Y10663896D01*
X31709099Y10590901D01*
X31636104Y10542127D01*
X31550000Y10525000D01*
X31100000Y10525000D01*
X31013896Y10542127D01*
X30940901Y10590901D01*
X30892127Y10663896D01*
X30875000Y10750000D01*
X30875000Y11250000D01*
X30892127Y11336104D01*
X30940901Y11409099D01*
X31013896Y11457873D01*
X31100000Y11475000D01*
X31550000Y11475000D01*
X31636104Y11457873D01*
G37*
G36*
X33186104Y11457873D02*
G01*
X33259099Y11409099D01*
X33307873Y11336104D01*
X33325000Y11250000D01*
X33325000Y10750000D01*
X33307873Y10663896D01*
X33259099Y10590901D01*
X33186104Y10542127D01*
X33100000Y10525000D01*
X32650000Y10525000D01*
X32563896Y10542127D01*
X32490901Y10590901D01*
X32442127Y10663896D01*
X32425000Y10750000D01*
X32425000Y11250000D01*
X32442127Y11336104D01*
X32490901Y11409099D01*
X32563896Y11457873D01*
X32650000Y11475000D01*
X33100000Y11475000D01*
X33186104Y11457873D01*
G37*
G36*
X26101537Y11709776D02*
G01*
X26166421Y11666421D01*
X26209776Y11601537D01*
X26225000Y11525000D01*
X26225000Y11125000D01*
X26209776Y11048463D01*
X26166421Y10983579D01*
X26101537Y10940224D01*
X26025000Y10925000D01*
X25475000Y10925000D01*
X25398463Y10940224D01*
X25333579Y10983579D01*
X25290224Y11048463D01*
X25275000Y11125000D01*
X25275000Y11525000D01*
X25290224Y11601537D01*
X25333579Y11666421D01*
X25398463Y11709776D01*
X25475000Y11725000D01*
X26025000Y11725000D01*
X26101537Y11709776D01*
G37*
G36*
X22786104Y11957873D02*
G01*
X22859099Y11909099D01*
X22907873Y11836104D01*
X22925000Y11750000D01*
X22925000Y11250000D01*
X22907873Y11163896D01*
X22859099Y11090901D01*
X22786104Y11042127D01*
X22700000Y11025000D01*
X22250000Y11025000D01*
X22163896Y11042127D01*
X22090901Y11090901D01*
X22042127Y11163896D01*
X22025000Y11250000D01*
X22025000Y11750000D01*
X22042127Y11836104D01*
X22090901Y11909099D01*
X22163896Y11957873D01*
X22250000Y11975000D01*
X22700000Y11975000D01*
X22786104Y11957873D01*
G37*
G36*
X24336104Y11957873D02*
G01*
X24409099Y11909099D01*
X24457873Y11836104D01*
X24475000Y11750000D01*
X24475000Y11250000D01*
X24457873Y11163896D01*
X24409099Y11090901D01*
X24336104Y11042127D01*
X24250000Y11025000D01*
X23800000Y11025000D01*
X23713896Y11042127D01*
X23640901Y11090901D01*
X23592127Y11163896D01*
X23575000Y11250000D01*
X23575000Y11750000D01*
X23592127Y11836104D01*
X23640901Y11909099D01*
X23713896Y11957873D01*
X23800000Y11975000D01*
X24250000Y11975000D01*
X24336104Y11957873D01*
G37*
G36*
X5882403Y12038582D02*
G01*
X5931066Y12006066D01*
X5963582Y11957403D01*
X5975000Y11900000D01*
X5975000Y11600000D01*
X5963582Y11542597D01*
X5931066Y11493934D01*
X5882403Y11461418D01*
X5825000Y11450000D01*
X4575000Y11450000D01*
X4517597Y11461418D01*
X4468934Y11493934D01*
X4436418Y11542597D01*
X4425000Y11600000D01*
X4425000Y11900000D01*
X4436418Y11957403D01*
X4468934Y12006066D01*
X4517597Y12038582D01*
X4575000Y12050000D01*
X5825000Y12050000D01*
X5882403Y12038582D01*
G37*
G36*
X18985000Y12225000D02*
G01*
X18515000Y12225000D01*
X18515000Y12825000D01*
X18985000Y12825000D01*
X18985000Y12225000D01*
G37*
G36*
X5882403Y13038582D02*
G01*
X5931066Y13006066D01*
X5963582Y12957403D01*
X5975000Y12900000D01*
X5975000Y12600000D01*
X5963582Y12542597D01*
X5931066Y12493934D01*
X5882403Y12461418D01*
X5825000Y12450000D01*
X4575000Y12450000D01*
X4517597Y12461418D01*
X4468934Y12493934D01*
X4436418Y12542597D01*
X4425000Y12600000D01*
X4425000Y12900000D01*
X4436418Y12957403D01*
X4468934Y13006066D01*
X4517597Y13038582D01*
X4575000Y13050000D01*
X5825000Y13050000D01*
X5882403Y13038582D01*
G37*
G36*
X9036104Y13957873D02*
G01*
X9109099Y13909099D01*
X9157873Y13836104D01*
X9175000Y13750000D01*
X9175000Y13250000D01*
X9157873Y13163896D01*
X9109099Y13090901D01*
X9036104Y13042127D01*
X8950000Y13025000D01*
X8500000Y13025000D01*
X8413896Y13042127D01*
X8340901Y13090901D01*
X8292127Y13163896D01*
X8275000Y13250000D01*
X8275000Y13750000D01*
X8292127Y13836104D01*
X8340901Y13909099D01*
X8413896Y13957873D01*
X8500000Y13975000D01*
X8950000Y13975000D01*
X9036104Y13957873D01*
G37*
G36*
X10586104Y13957873D02*
G01*
X10659099Y13909099D01*
X10707873Y13836104D01*
X10725000Y13750000D01*
X10725000Y13250000D01*
X10707873Y13163896D01*
X10659099Y13090901D01*
X10586104Y13042127D01*
X10500000Y13025000D01*
X10050000Y13025000D01*
X9963896Y13042127D01*
X9890901Y13090901D01*
X9842127Y13163896D01*
X9825000Y13250000D01*
X9825000Y13750000D01*
X9842127Y13836104D01*
X9890901Y13909099D01*
X9963896Y13957873D01*
X10050000Y13975000D01*
X10500000Y13975000D01*
X10586104Y13957873D01*
G37*
G36*
X15736104Y14007873D02*
G01*
X15809099Y13959099D01*
X15857873Y13886104D01*
X15875000Y13800000D01*
X15875000Y13350000D01*
X15857873Y13263896D01*
X15809099Y13190901D01*
X15736104Y13142127D01*
X15650000Y13125000D01*
X15150000Y13125000D01*
X15063896Y13142127D01*
X14990901Y13190901D01*
X14942127Y13263896D01*
X14925000Y13350000D01*
X14925000Y13800000D01*
X14942127Y13886104D01*
X14990901Y13959099D01*
X15063896Y14007873D01*
X15150000Y14025000D01*
X15650000Y14025000D01*
X15736104Y14007873D01*
G37*
G36*
X31835263Y14175722D02*
G01*
X31961342Y14141940D01*
X32074381Y14076677D01*
X32166677Y13984381D01*
X32231940Y13871342D01*
X32265722Y13745263D01*
X32265722Y13614737D01*
X32231940Y13488658D01*
X32166677Y13375619D01*
X32074381Y13283323D01*
X31961342Y13218060D01*
X31835263Y13184278D01*
X31770000Y13180000D01*
X31768363Y13180000D01*
X30671637Y13180000D01*
X30670000Y13180000D01*
X30604737Y13184278D01*
X30478658Y13218060D01*
X30365619Y13283323D01*
X30273323Y13375619D01*
X30208060Y13488658D01*
X30174278Y13614737D01*
X30174278Y13745263D01*
X30208060Y13871342D01*
X30273323Y13984381D01*
X30365619Y14076677D01*
X30478658Y14141940D01*
X30604737Y14175722D01*
X30670000Y14180000D01*
X31770000Y14180000D01*
X31835263Y14175722D01*
G37*
G36*
X35865263Y14175722D02*
G01*
X35991342Y14141940D01*
X36104381Y14076677D01*
X36196677Y13984381D01*
X36261940Y13871342D01*
X36295722Y13745263D01*
X36295722Y13614737D01*
X36261940Y13488658D01*
X36196677Y13375619D01*
X36104381Y13283323D01*
X35991342Y13218060D01*
X35865263Y13184278D01*
X35800000Y13180000D01*
X35798363Y13180000D01*
X35001637Y13180000D01*
X35000000Y13180000D01*
X34934737Y13184278D01*
X34808658Y13218060D01*
X34695619Y13283323D01*
X34603323Y13375619D01*
X34538060Y13488658D01*
X34504278Y13614737D01*
X34504278Y13745263D01*
X34538060Y13871342D01*
X34603323Y13984381D01*
X34695619Y14076677D01*
X34808658Y14141940D01*
X34934737Y14175722D01*
X35000000Y14180000D01*
X35800000Y14180000D01*
X35865263Y14175722D01*
G37*
G36*
X5882403Y14038582D02*
G01*
X5931066Y14006066D01*
X5963582Y13957403D01*
X5975000Y13900000D01*
X5975000Y13600000D01*
X5963582Y13542597D01*
X5931066Y13493934D01*
X5882403Y13461418D01*
X5825000Y13450000D01*
X4575000Y13450000D01*
X4517597Y13461418D01*
X4468934Y13493934D01*
X4436418Y13542597D01*
X4425000Y13600000D01*
X4425000Y13900000D01*
X4436418Y13957403D01*
X4468934Y14006066D01*
X4517597Y14038582D01*
X4575000Y14050000D01*
X5825000Y14050000D01*
X5882403Y14038582D01*
G37*
G36*
X12286104Y14457873D02*
G01*
X12359099Y14409099D01*
X12407873Y14336104D01*
X12425000Y14250000D01*
X12425000Y13750000D01*
X12407873Y13663896D01*
X12359099Y13590901D01*
X12286104Y13542127D01*
X12200000Y13525000D01*
X11750000Y13525000D01*
X11663896Y13542127D01*
X11590901Y13590901D01*
X11542127Y13663896D01*
X11525000Y13750000D01*
X11525000Y14250000D01*
X11542127Y14336104D01*
X11590901Y14409099D01*
X11663896Y14457873D01*
X11750000Y14475000D01*
X12200000Y14475000D01*
X12286104Y14457873D01*
G37*
G36*
X13836104Y14457873D02*
G01*
X13909099Y14409099D01*
X13957873Y14336104D01*
X13975000Y14250000D01*
X13975000Y13750000D01*
X13957873Y13663896D01*
X13909099Y13590901D01*
X13836104Y13542127D01*
X13750000Y13525000D01*
X13300000Y13525000D01*
X13213896Y13542127D01*
X13140901Y13590901D01*
X13092127Y13663896D01*
X13075000Y13750000D01*
X13075000Y14250000D01*
X13092127Y14336104D01*
X13140901Y14409099D01*
X13213896Y14457873D01*
X13300000Y14475000D01*
X13750000Y14475000D01*
X13836104Y14457873D01*
G37*
G36*
X5882403Y15038582D02*
G01*
X5931066Y15006066D01*
X5963582Y14957403D01*
X5975000Y14900000D01*
X5975000Y14600000D01*
X5963582Y14542597D01*
X5931066Y14493934D01*
X5882403Y14461418D01*
X5825000Y14450000D01*
X4575000Y14450000D01*
X4517597Y14461418D01*
X4468934Y14493934D01*
X4436418Y14542597D01*
X4425000Y14600000D01*
X4425000Y14900000D01*
X4436418Y14957403D01*
X4468934Y15006066D01*
X4517597Y15038582D01*
X4575000Y15050000D01*
X5825000Y15050000D01*
X5882403Y15038582D01*
G37*
G36*
X15736104Y15557873D02*
G01*
X15809099Y15509099D01*
X15857873Y15436104D01*
X15875000Y15350000D01*
X15875000Y14900000D01*
X15857873Y14813896D01*
X15809099Y14740901D01*
X15736104Y14692127D01*
X15650000Y14675000D01*
X15150000Y14675000D01*
X15063896Y14692127D01*
X14990901Y14740901D01*
X14942127Y14813896D01*
X14925000Y14900000D01*
X14925000Y15350000D01*
X14942127Y15436104D01*
X14990901Y15509099D01*
X15063896Y15557873D01*
X15150000Y15575000D01*
X15650000Y15575000D01*
X15736104Y15557873D01*
G37*
G36*
X31874372Y15410261D02*
G01*
X31947847Y15367840D01*
X32007840Y15307847D01*
X32050261Y15234372D01*
X32072220Y15152421D01*
X32072220Y15067579D01*
X32050261Y14985628D01*
X32007840Y14912153D01*
X31947847Y14852160D01*
X31874372Y14809739D01*
X31792421Y14787780D01*
X31707579Y14787780D01*
X31625628Y14809739D01*
X31552153Y14852160D01*
X31492160Y14912153D01*
X31449739Y14985628D01*
X31427780Y15067579D01*
X31427780Y15152421D01*
X31449739Y15234372D01*
X31492160Y15307847D01*
X31552153Y15367840D01*
X31625628Y15410261D01*
X31707579Y15432220D01*
X31792421Y15432220D01*
X31874372Y15410261D01*
G37*
G36*
X5882403Y16038582D02*
G01*
X5931066Y16006066D01*
X5963582Y15957403D01*
X5975000Y15900000D01*
X5975000Y15600000D01*
X5963582Y15542597D01*
X5931066Y15493934D01*
X5882403Y15461418D01*
X5825000Y15450000D01*
X4575000Y15450000D01*
X4517597Y15461418D01*
X4468934Y15493934D01*
X4436418Y15542597D01*
X4425000Y15600000D01*
X4425000Y15900000D01*
X4436418Y15957403D01*
X4468934Y16006066D01*
X4517597Y16038582D01*
X4575000Y16050000D01*
X5825000Y16050000D01*
X5882403Y16038582D01*
G37*
G36*
X17047835Y15960485D02*
G01*
X17088388Y15933388D01*
X17115485Y15892835D01*
X17125000Y15845000D01*
X17125000Y15595000D01*
X17115485Y15547165D01*
X17088388Y15506612D01*
X17047835Y15479515D01*
X17000000Y15470000D01*
X16600000Y15470000D01*
X16552165Y15479515D01*
X16511612Y15506612D01*
X16484515Y15547165D01*
X16475000Y15595000D01*
X16475000Y15845000D01*
X16484515Y15892835D01*
X16511612Y15933388D01*
X16552165Y15960485D01*
X16600000Y15970000D01*
X17000000Y15970000D01*
X17047835Y15960485D01*
G37*
G36*
X24547835Y15960485D02*
G01*
X24588388Y15933388D01*
X24615485Y15892835D01*
X24625000Y15845000D01*
X24625000Y15595000D01*
X24615485Y15547165D01*
X24588388Y15506612D01*
X24547835Y15479515D01*
X24500000Y15470000D01*
X24100000Y15470000D01*
X24052165Y15479515D01*
X24011612Y15506612D01*
X23984515Y15547165D01*
X23975000Y15595000D01*
X23975000Y15845000D01*
X23984515Y15892835D01*
X24011612Y15933388D01*
X24052165Y15960485D01*
X24100000Y15970000D01*
X24500000Y15970000D01*
X24547835Y15960485D01*
G37*
G36*
X22250000Y15475000D02*
G01*
X18850000Y15475000D01*
X18850000Y19775000D01*
X22250000Y19775000D01*
X22250000Y15475000D01*
G37*
G36*
X9251537Y16959776D02*
G01*
X9316421Y16916421D01*
X9359776Y16851537D01*
X9375000Y16775000D01*
X9375000Y16225000D01*
X9359776Y16148463D01*
X9316421Y16083579D01*
X9251537Y16040224D01*
X9175000Y16025000D01*
X8775000Y16025000D01*
X8698463Y16040224D01*
X8633579Y16083579D01*
X8590224Y16148463D01*
X8575000Y16225000D01*
X8575000Y16775000D01*
X8590224Y16851537D01*
X8633579Y16916421D01*
X8698463Y16959776D01*
X8775000Y16975000D01*
X9175000Y16975000D01*
X9251537Y16959776D01*
G37*
G36*
X10901537Y16959776D02*
G01*
X10966421Y16916421D01*
X11009776Y16851537D01*
X11025000Y16775000D01*
X11025000Y16225000D01*
X11009776Y16148463D01*
X10966421Y16083579D01*
X10901537Y16040224D01*
X10825000Y16025000D01*
X10425000Y16025000D01*
X10348463Y16040224D01*
X10283579Y16083579D01*
X10240224Y16148463D01*
X10225000Y16225000D01*
X10225000Y16775000D01*
X10240224Y16851537D01*
X10283579Y16916421D01*
X10348463Y16959776D01*
X10425000Y16975000D01*
X10825000Y16975000D01*
X10901537Y16959776D01*
G37*
G36*
X15601537Y17009776D02*
G01*
X15666421Y16966421D01*
X15709776Y16901537D01*
X15725000Y16825000D01*
X15725000Y16425000D01*
X15709776Y16348463D01*
X15666421Y16283579D01*
X15601537Y16240224D01*
X15525000Y16225000D01*
X14975000Y16225000D01*
X14898463Y16240224D01*
X14833579Y16283579D01*
X14790224Y16348463D01*
X14775000Y16425000D01*
X14775000Y16825000D01*
X14790224Y16901537D01*
X14833579Y16966421D01*
X14898463Y17009776D01*
X14975000Y17025000D01*
X15525000Y17025000D01*
X15601537Y17009776D01*
G37*
G36*
X5882403Y17038582D02*
G01*
X5931066Y17006066D01*
X5963582Y16957403D01*
X5975000Y16900000D01*
X5975000Y16600000D01*
X5963582Y16542597D01*
X5931066Y16493934D01*
X5882403Y16461418D01*
X5825000Y16450000D01*
X4575000Y16450000D01*
X4517597Y16461418D01*
X4468934Y16493934D01*
X4436418Y16542597D01*
X4425000Y16600000D01*
X4425000Y16900000D01*
X4436418Y16957403D01*
X4468934Y17006066D01*
X4517597Y17038582D01*
X4575000Y17050000D01*
X5825000Y17050000D01*
X5882403Y17038582D01*
G37*
G36*
X17047835Y17230485D02*
G01*
X17088388Y17203388D01*
X17115485Y17162835D01*
X17125000Y17115000D01*
X17125000Y16865000D01*
X17115485Y16817165D01*
X17088388Y16776612D01*
X17047835Y16749515D01*
X17000000Y16740000D01*
X16600000Y16740000D01*
X16552165Y16749515D01*
X16511612Y16776612D01*
X16484515Y16817165D01*
X16475000Y16865000D01*
X16475000Y17115000D01*
X16484515Y17162835D01*
X16511612Y17203388D01*
X16552165Y17230485D01*
X16600000Y17240000D01*
X17000000Y17240000D01*
X17047835Y17230485D01*
G37*
G36*
X24547835Y17230485D02*
G01*
X24588388Y17203388D01*
X24615485Y17162835D01*
X24625000Y17115000D01*
X24625000Y16865000D01*
X24615485Y16817165D01*
X24588388Y16776612D01*
X24547835Y16749515D01*
X24500000Y16740000D01*
X24100000Y16740000D01*
X24052165Y16749515D01*
X24011612Y16776612D01*
X23984515Y16817165D01*
X23975000Y16865000D01*
X23975000Y17115000D01*
X23984515Y17162835D01*
X24011612Y17203388D01*
X24052165Y17230485D01*
X24100000Y17240000D01*
X24500000Y17240000D01*
X24547835Y17230485D01*
G37*
G36*
X5882403Y18038582D02*
G01*
X5931066Y18006066D01*
X5963582Y17957403D01*
X5975000Y17900000D01*
X5975000Y17600000D01*
X5963582Y17542597D01*
X5931066Y17493934D01*
X5882403Y17461418D01*
X5825000Y17450000D01*
X4575000Y17450000D01*
X4517597Y17461418D01*
X4468934Y17493934D01*
X4436418Y17542597D01*
X4425000Y17600000D01*
X4425000Y17900000D01*
X4436418Y17957403D01*
X4468934Y18006066D01*
X4517597Y18038582D01*
X4575000Y18050000D01*
X5825000Y18050000D01*
X5882403Y18038582D01*
G37*
G36*
X32951537Y18459776D02*
G01*
X33016421Y18416421D01*
X33059776Y18351537D01*
X33075000Y18275000D01*
X33075000Y17725000D01*
X33059776Y17648463D01*
X33016421Y17583579D01*
X32951537Y17540224D01*
X32875000Y17525000D01*
X32475000Y17525000D01*
X32398463Y17540224D01*
X32333579Y17583579D01*
X32290224Y17648463D01*
X32275000Y17725000D01*
X32275000Y18275000D01*
X32290224Y18351537D01*
X32333579Y18416421D01*
X32398463Y18459776D01*
X32475000Y18475000D01*
X32875000Y18475000D01*
X32951537Y18459776D01*
G37*
G36*
X34601537Y18459776D02*
G01*
X34666421Y18416421D01*
X34709776Y18351537D01*
X34725000Y18275000D01*
X34725000Y17725000D01*
X34709776Y17648463D01*
X34666421Y17583579D01*
X34601537Y17540224D01*
X34525000Y17525000D01*
X34125000Y17525000D01*
X34048463Y17540224D01*
X33983579Y17583579D01*
X33940224Y17648463D01*
X33925000Y17725000D01*
X33925000Y18275000D01*
X33940224Y18351537D01*
X33983579Y18416421D01*
X34048463Y18459776D01*
X34125000Y18475000D01*
X34525000Y18475000D01*
X34601537Y18459776D01*
G37*
G36*
X12636104Y18457873D02*
G01*
X12709099Y18409099D01*
X12757873Y18336104D01*
X12775000Y18250000D01*
X12775000Y17800000D01*
X12757873Y17713896D01*
X12709099Y17640901D01*
X12636104Y17592127D01*
X12550000Y17575000D01*
X12050000Y17575000D01*
X11963896Y17592127D01*
X11890901Y17640901D01*
X11842127Y17713896D01*
X11825000Y17800000D01*
X11825000Y18250000D01*
X11842127Y18336104D01*
X11890901Y18409099D01*
X11963896Y18457873D01*
X12050000Y18475000D01*
X12550000Y18475000D01*
X12636104Y18457873D01*
G37*
G36*
X15601537Y18659776D02*
G01*
X15666421Y18616421D01*
X15709776Y18551537D01*
X15725000Y18475000D01*
X15725000Y18075000D01*
X15709776Y17998463D01*
X15666421Y17933579D01*
X15601537Y17890224D01*
X15525000Y17875000D01*
X14975000Y17875000D01*
X14898463Y17890224D01*
X14833579Y17933579D01*
X14790224Y17998463D01*
X14775000Y18075000D01*
X14775000Y18475000D01*
X14790224Y18551537D01*
X14833579Y18616421D01*
X14898463Y18659776D01*
X14975000Y18675000D01*
X15525000Y18675000D01*
X15601537Y18659776D01*
G37*
G36*
X17047835Y18500485D02*
G01*
X17088388Y18473388D01*
X17115485Y18432835D01*
X17125000Y18385000D01*
X17125000Y18135000D01*
X17115485Y18087165D01*
X17088388Y18046612D01*
X17047835Y18019515D01*
X17000000Y18010000D01*
X16600000Y18010000D01*
X16552165Y18019515D01*
X16511612Y18046612D01*
X16484515Y18087165D01*
X16475000Y18135000D01*
X16475000Y18385000D01*
X16484515Y18432835D01*
X16511612Y18473388D01*
X16552165Y18500485D01*
X16600000Y18510000D01*
X17000000Y18510000D01*
X17047835Y18500485D01*
G37*
G36*
X24547835Y18500485D02*
G01*
X24588388Y18473388D01*
X24615485Y18432835D01*
X24625000Y18385000D01*
X24625000Y18135000D01*
X24615485Y18087165D01*
X24588388Y18046612D01*
X24547835Y18019515D01*
X24500000Y18010000D01*
X24100000Y18010000D01*
X24052165Y18019515D01*
X24011612Y18046612D01*
X23984515Y18087165D01*
X23975000Y18135000D01*
X23975000Y18385000D01*
X23984515Y18432835D01*
X24011612Y18473388D01*
X24052165Y18500485D01*
X24100000Y18510000D01*
X24500000Y18510000D01*
X24547835Y18500485D01*
G37*
G36*
X10586104Y18907873D02*
G01*
X10659099Y18859099D01*
X10707873Y18786104D01*
X10725000Y18700000D01*
X10725000Y18250000D01*
X10707873Y18163896D01*
X10659099Y18090901D01*
X10586104Y18042127D01*
X10500000Y18025000D01*
X10000000Y18025000D01*
X9913896Y18042127D01*
X9840901Y18090901D01*
X9792127Y18163896D01*
X9775000Y18250000D01*
X9775000Y18700000D01*
X9792127Y18786104D01*
X9840901Y18859099D01*
X9913896Y18907873D01*
X10000000Y18925000D01*
X10500000Y18925000D01*
X10586104Y18907873D01*
G37*
G36*
X1979047Y19649195D02*
G01*
X2030408Y19643236D01*
X2047954Y19635489D01*
X2070671Y19630970D01*
X2094991Y19614720D01*
X2115793Y19605535D01*
X2130000Y19591328D01*
X2151777Y19576777D01*
X2166327Y19555001D01*
X2180534Y19540794D01*
X2189718Y19519994D01*
X2205970Y19495671D01*
X2210489Y19472952D01*
X2218235Y19455409D01*
X2224192Y19404060D01*
X2225000Y19400000D01*
X2225000Y18700000D01*
X2224192Y18695941D01*
X2218235Y18644592D01*
X2210489Y18627050D01*
X2205970Y18604329D01*
X2189716Y18580005D01*
X2180534Y18559207D01*
X2166329Y18545003D01*
X2151777Y18523223D01*
X2129997Y18508671D01*
X2115793Y18494466D01*
X2094995Y18485284D01*
X2070671Y18469030D01*
X2047950Y18464511D01*
X2030408Y18456765D01*
X1979061Y18450808D01*
X1975000Y18450000D01*
X675000Y18450000D01*
X670941Y18450808D01*
X619591Y18456765D01*
X602048Y18464511D01*
X579329Y18469030D01*
X555006Y18485282D01*
X534206Y18494466D01*
X519999Y18508673D01*
X498223Y18523223D01*
X483672Y18545000D01*
X469465Y18559207D01*
X460280Y18580009D01*
X444030Y18604329D01*
X439511Y18627046D01*
X431764Y18644592D01*
X425805Y18695951D01*
X425000Y18700000D01*
X425000Y19400000D01*
X425804Y19404047D01*
X431764Y19455409D01*
X439511Y19472957D01*
X444030Y19495671D01*
X460278Y19519990D01*
X469465Y19540794D01*
X483674Y19555004D01*
X498223Y19576777D01*
X519996Y19591326D01*
X534206Y19605535D01*
X555010Y19614722D01*
X579329Y19630970D01*
X602043Y19635489D01*
X619591Y19643236D01*
X670952Y19649195D01*
X675000Y19650000D01*
X1975000Y19650000D01*
X1979047Y19649195D01*
G37*
G36*
X7836104Y19657873D02*
G01*
X7909099Y19609099D01*
X7957873Y19536104D01*
X7975000Y19450000D01*
X7975000Y19000000D01*
X7957873Y18913896D01*
X7909099Y18840901D01*
X7836104Y18792127D01*
X7750000Y18775000D01*
X7250000Y18775000D01*
X7163896Y18792127D01*
X7090901Y18840901D01*
X7042127Y18913896D01*
X7025000Y19000000D01*
X7025000Y19450000D01*
X7042127Y19536104D01*
X7090901Y19609099D01*
X7163896Y19657873D01*
X7250000Y19675000D01*
X7750000Y19675000D01*
X7836104Y19657873D01*
G37*
G36*
X12636104Y20007873D02*
G01*
X12709099Y19959099D01*
X12757873Y19886104D01*
X12775000Y19800000D01*
X12775000Y19350000D01*
X12757873Y19263896D01*
X12709099Y19190901D01*
X12636104Y19142127D01*
X12550000Y19125000D01*
X12050000Y19125000D01*
X11963896Y19142127D01*
X11890901Y19190901D01*
X11842127Y19263896D01*
X11825000Y19350000D01*
X11825000Y19800000D01*
X11842127Y19886104D01*
X11890901Y19959099D01*
X11963896Y20007873D01*
X12050000Y20025000D01*
X12550000Y20025000D01*
X12636104Y20007873D01*
G37*
G36*
X17047835Y19770485D02*
G01*
X17088388Y19743388D01*
X17115485Y19702835D01*
X17125000Y19655000D01*
X17125000Y19405000D01*
X17115485Y19357165D01*
X17088388Y19316612D01*
X17047835Y19289515D01*
X17000000Y19280000D01*
X16600000Y19280000D01*
X16552165Y19289515D01*
X16511612Y19316612D01*
X16484515Y19357165D01*
X16475000Y19405000D01*
X16475000Y19655000D01*
X16484515Y19702835D01*
X16511612Y19743388D01*
X16552165Y19770485D01*
X16600000Y19780000D01*
X17000000Y19780000D01*
X17047835Y19770485D01*
G37*
G36*
X24547835Y19770485D02*
G01*
X24588388Y19743388D01*
X24615485Y19702835D01*
X24625000Y19655000D01*
X24625000Y19405000D01*
X24615485Y19357165D01*
X24588388Y19316612D01*
X24547835Y19289515D01*
X24500000Y19280000D01*
X24100000Y19280000D01*
X24052165Y19289515D01*
X24011612Y19316612D01*
X23984515Y19357165D01*
X23975000Y19405000D01*
X23975000Y19655000D01*
X23984515Y19702835D01*
X24011612Y19743388D01*
X24052165Y19770485D01*
X24100000Y19780000D01*
X24500000Y19780000D01*
X24547835Y19770485D01*
G37*
G36*
X14236104Y20257873D02*
G01*
X14309099Y20209099D01*
X14357873Y20136104D01*
X14375000Y20050000D01*
X14375000Y19550000D01*
X14357873Y19463896D01*
X14309099Y19390901D01*
X14236104Y19342127D01*
X14150000Y19325000D01*
X13700000Y19325000D01*
X13613896Y19342127D01*
X13540901Y19390901D01*
X13492127Y19463896D01*
X13475000Y19550000D01*
X13475000Y20050000D01*
X13492127Y20136104D01*
X13540901Y20209099D01*
X13613896Y20257873D01*
X13700000Y20275000D01*
X14150000Y20275000D01*
X14236104Y20257873D01*
G37*
G36*
X15786104Y20257873D02*
G01*
X15859099Y20209099D01*
X15907873Y20136104D01*
X15925000Y20050000D01*
X15925000Y19550000D01*
X15907873Y19463896D01*
X15859099Y19390901D01*
X15786104Y19342127D01*
X15700000Y19325000D01*
X15250000Y19325000D01*
X15163896Y19342127D01*
X15090901Y19390901D01*
X15042127Y19463896D01*
X15025000Y19550000D01*
X15025000Y20050000D01*
X15042127Y20136104D01*
X15090901Y20209099D01*
X15163896Y20257873D01*
X15250000Y20275000D01*
X15700000Y20275000D01*
X15786104Y20257873D01*
G37*
G36*
X30100909Y20485037D02*
G01*
X30219600Y20416511D01*
X30316511Y20319600D01*
X30385037Y20200909D01*
X30420509Y20068526D01*
X30420509Y19931474D01*
X30385037Y19799091D01*
X30316511Y19680400D01*
X30219600Y19583489D01*
X30100909Y19514963D01*
X29968526Y19479491D01*
X29831474Y19479491D01*
X29699091Y19514963D01*
X29580400Y19583489D01*
X29483489Y19680400D01*
X29414963Y19799091D01*
X29379491Y19931474D01*
X29379491Y20068526D01*
X29414963Y20200909D01*
X29483489Y20319600D01*
X29580400Y20416511D01*
X29699091Y20485037D01*
X29831474Y20520509D01*
X29968526Y20520509D01*
X30100909Y20485037D01*
G37*
G36*
X10586104Y20457873D02*
G01*
X10659099Y20409099D01*
X10707873Y20336104D01*
X10725000Y20250000D01*
X10725000Y19800000D01*
X10707873Y19713896D01*
X10659099Y19640901D01*
X10586104Y19592127D01*
X10500000Y19575000D01*
X10000000Y19575000D01*
X9913896Y19592127D01*
X9840901Y19640901D01*
X9792127Y19713896D01*
X9775000Y19800000D01*
X9775000Y20250000D01*
X9792127Y20336104D01*
X9840901Y20409099D01*
X9913896Y20457873D01*
X10000000Y20475000D01*
X10500000Y20475000D01*
X10586104Y20457873D01*
G37*
G36*
X7836104Y21207873D02*
G01*
X7909099Y21159099D01*
X7957873Y21086104D01*
X7975000Y21000000D01*
X7975000Y20550000D01*
X7957873Y20463896D01*
X7909099Y20390901D01*
X7836104Y20342127D01*
X7750000Y20325000D01*
X7250000Y20325000D01*
X7163896Y20342127D01*
X7090901Y20390901D01*
X7042127Y20463896D01*
X7025000Y20550000D01*
X7025000Y21000000D01*
X7042127Y21086104D01*
X7090901Y21159099D01*
X7163896Y21207873D01*
X7250000Y21225000D01*
X7750000Y21225000D01*
X7836104Y21207873D01*
G37*
G36*
X31874372Y21190261D02*
G01*
X31947847Y21147840D01*
X32007840Y21087847D01*
X32050261Y21014372D01*
X32072220Y20932421D01*
X32072220Y20847579D01*
X32050261Y20765628D01*
X32007840Y20692153D01*
X31947847Y20632160D01*
X31874372Y20589739D01*
X31792421Y20567780D01*
X31707579Y20567780D01*
X31625628Y20589739D01*
X31552153Y20632160D01*
X31492160Y20692153D01*
X31449739Y20765628D01*
X31427780Y20847579D01*
X31427780Y20932421D01*
X31449739Y21014372D01*
X31492160Y21087847D01*
X31552153Y21147840D01*
X31625628Y21190261D01*
X31707579Y21212220D01*
X31792421Y21212220D01*
X31874372Y21190261D01*
G37*
G36*
X12351537Y21559776D02*
G01*
X12416421Y21516421D01*
X12459776Y21451537D01*
X12475000Y21375000D01*
X12475000Y20975000D01*
X12459776Y20898463D01*
X12416421Y20833579D01*
X12351537Y20790224D01*
X12275000Y20775000D01*
X11725000Y20775000D01*
X11648463Y20790224D01*
X11583579Y20833579D01*
X11540224Y20898463D01*
X11525000Y20975000D01*
X11525000Y21375000D01*
X11540224Y21451537D01*
X11583579Y21516421D01*
X11648463Y21559776D01*
X11725000Y21575000D01*
X12275000Y21575000D01*
X12351537Y21559776D01*
G37*
G36*
X26836104Y21957873D02*
G01*
X26909099Y21909099D01*
X26957873Y21836104D01*
X26975000Y21750000D01*
X26975000Y21250000D01*
X26957873Y21163896D01*
X26909099Y21090901D01*
X26836104Y21042127D01*
X26750000Y21025000D01*
X26300000Y21025000D01*
X26213896Y21042127D01*
X26140901Y21090901D01*
X26092127Y21163896D01*
X26075000Y21250000D01*
X26075000Y21750000D01*
X26092127Y21836104D01*
X26140901Y21909099D01*
X26213896Y21957873D01*
X26300000Y21975000D01*
X26750000Y21975000D01*
X26836104Y21957873D01*
G37*
G36*
X28386104Y21957873D02*
G01*
X28459099Y21909099D01*
X28507873Y21836104D01*
X28525000Y21750000D01*
X28525000Y21250000D01*
X28507873Y21163896D01*
X28459099Y21090901D01*
X28386104Y21042127D01*
X28300000Y21025000D01*
X27850000Y21025000D01*
X27763896Y21042127D01*
X27690901Y21090901D01*
X27642127Y21163896D01*
X27625000Y21250000D01*
X27625000Y21750000D01*
X27642127Y21836104D01*
X27690901Y21909099D01*
X27763896Y21957873D01*
X27850000Y21975000D01*
X28300000Y21975000D01*
X28386104Y21957873D01*
G37*
G36*
X16151537Y22109776D02*
G01*
X16216421Y22066421D01*
X16259776Y22001537D01*
X16275000Y21925000D01*
X16275000Y21375000D01*
X16259776Y21298463D01*
X16216421Y21233579D01*
X16151537Y21190224D01*
X16075000Y21175000D01*
X15675000Y21175000D01*
X15598463Y21190224D01*
X15533579Y21233579D01*
X15490224Y21298463D01*
X15475000Y21375000D01*
X15475000Y21925000D01*
X15490224Y22001537D01*
X15533579Y22066421D01*
X15598463Y22109776D01*
X15675000Y22125000D01*
X16075000Y22125000D01*
X16151537Y22109776D01*
G37*
G36*
X17801537Y22109776D02*
G01*
X17866421Y22066421D01*
X17909776Y22001537D01*
X17925000Y21925000D01*
X17925000Y21375000D01*
X17909776Y21298463D01*
X17866421Y21233579D01*
X17801537Y21190224D01*
X17725000Y21175000D01*
X17325000Y21175000D01*
X17248463Y21190224D01*
X17183579Y21233579D01*
X17140224Y21298463D01*
X17125000Y21375000D01*
X17125000Y21925000D01*
X17140224Y22001537D01*
X17183579Y22066421D01*
X17248463Y22109776D01*
X17325000Y22125000D01*
X17725000Y22125000D01*
X17801537Y22109776D01*
G37*
G36*
X10586104Y22157873D02*
G01*
X10659099Y22109099D01*
X10707873Y22036104D01*
X10725000Y21950000D01*
X10725000Y21500000D01*
X10707873Y21413896D01*
X10659099Y21340901D01*
X10586104Y21292127D01*
X10500000Y21275000D01*
X10000000Y21275000D01*
X9913896Y21292127D01*
X9840901Y21340901D01*
X9792127Y21413896D01*
X9775000Y21500000D01*
X9775000Y21950000D01*
X9792127Y22036104D01*
X9840901Y22109099D01*
X9913896Y22157873D01*
X10000000Y22175000D01*
X10500000Y22175000D01*
X10586104Y22157873D01*
G37*
G36*
X24351537Y22359776D02*
G01*
X24416421Y22316421D01*
X24459776Y22251537D01*
X24475000Y22175000D01*
X24475000Y21775000D01*
X24459776Y21698463D01*
X24416421Y21633579D01*
X24351537Y21590224D01*
X24275000Y21575000D01*
X23725000Y21575000D01*
X23648463Y21590224D01*
X23583579Y21633579D01*
X23540224Y21698463D01*
X23525000Y21775000D01*
X23525000Y22175000D01*
X23540224Y22251537D01*
X23583579Y22316421D01*
X23648463Y22359776D01*
X23725000Y22375000D01*
X24275000Y22375000D01*
X24351537Y22359776D01*
G37*
G36*
X31835263Y22815722D02*
G01*
X31961342Y22781940D01*
X32074381Y22716677D01*
X32166677Y22624381D01*
X32231940Y22511342D01*
X32265722Y22385263D01*
X32265722Y22254737D01*
X32231940Y22128658D01*
X32166677Y22015619D01*
X32074381Y21923323D01*
X31961342Y21858060D01*
X31835263Y21824278D01*
X31770000Y21820000D01*
X31768363Y21820000D01*
X30671637Y21820000D01*
X30670000Y21820000D01*
X30604737Y21824278D01*
X30478658Y21858060D01*
X30365619Y21923323D01*
X30273323Y22015619D01*
X30208060Y22128658D01*
X30174278Y22254737D01*
X30174278Y22385263D01*
X30208060Y22511342D01*
X30273323Y22624381D01*
X30365619Y22716677D01*
X30478658Y22781940D01*
X30604737Y22815722D01*
X30670000Y22820000D01*
X31770000Y22820000D01*
X31835263Y22815722D01*
G37*
G36*
X35865263Y22815722D02*
G01*
X35991342Y22781940D01*
X36104381Y22716677D01*
X36196677Y22624381D01*
X36261940Y22511342D01*
X36295722Y22385263D01*
X36295722Y22254737D01*
X36261940Y22128658D01*
X36196677Y22015619D01*
X36104381Y21923323D01*
X35991342Y21858060D01*
X35865263Y21824278D01*
X35800000Y21820000D01*
X35798363Y21820000D01*
X35001637Y21820000D01*
X35000000Y21820000D01*
X34934737Y21824278D01*
X34808658Y21858060D01*
X34695619Y21923323D01*
X34603323Y22015619D01*
X34538060Y22128658D01*
X34504278Y22254737D01*
X34504278Y22385263D01*
X34538060Y22511342D01*
X34603323Y22624381D01*
X34695619Y22716677D01*
X34808658Y22781940D01*
X34934737Y22815722D01*
X35000000Y22820000D01*
X35800000Y22820000D01*
X35865263Y22815722D01*
G37*
G36*
X19251537Y22759776D02*
G01*
X19316421Y22716421D01*
X19359776Y22651537D01*
X19375000Y22575000D01*
X19375000Y22025000D01*
X19359776Y21948463D01*
X19316421Y21883579D01*
X19251537Y21840224D01*
X19175000Y21825000D01*
X18775000Y21825000D01*
X18698463Y21840224D01*
X18633579Y21883579D01*
X18590224Y21948463D01*
X18575000Y22025000D01*
X18575000Y22575000D01*
X18590224Y22651537D01*
X18633579Y22716421D01*
X18698463Y22759776D01*
X18775000Y22775000D01*
X19175000Y22775000D01*
X19251537Y22759776D01*
G37*
G36*
X20901537Y22759776D02*
G01*
X20966421Y22716421D01*
X21009776Y22651537D01*
X21025000Y22575000D01*
X21025000Y22025000D01*
X21009776Y21948463D01*
X20966421Y21883579D01*
X20901537Y21840224D01*
X20825000Y21825000D01*
X20425000Y21825000D01*
X20348463Y21840224D01*
X20283579Y21883579D01*
X20240224Y21948463D01*
X20225000Y22025000D01*
X20225000Y22575000D01*
X20240224Y22651537D01*
X20283579Y22716421D01*
X20348463Y22759776D01*
X20425000Y22775000D01*
X20825000Y22775000D01*
X20901537Y22759776D01*
G37*
G36*
X1979047Y23349195D02*
G01*
X2030408Y23343236D01*
X2047954Y23335489D01*
X2070671Y23330970D01*
X2094991Y23314720D01*
X2115793Y23305535D01*
X2130000Y23291328D01*
X2151777Y23276777D01*
X2166327Y23255001D01*
X2180534Y23240794D01*
X2189718Y23219994D01*
X2205970Y23195671D01*
X2210489Y23172952D01*
X2218235Y23155409D01*
X2224192Y23104060D01*
X2225000Y23100000D01*
X2225000Y22400000D01*
X2224192Y22395941D01*
X2218235Y22344592D01*
X2210489Y22327050D01*
X2205970Y22304329D01*
X2189716Y22280005D01*
X2180534Y22259207D01*
X2166329Y22245003D01*
X2151777Y22223223D01*
X2129997Y22208671D01*
X2115793Y22194466D01*
X2094995Y22185284D01*
X2070671Y22169030D01*
X2047950Y22164511D01*
X2030408Y22156765D01*
X1979061Y22150808D01*
X1975000Y22150000D01*
X675000Y22150000D01*
X670941Y22150808D01*
X619591Y22156765D01*
X602048Y22164511D01*
X579329Y22169030D01*
X555006Y22185282D01*
X534206Y22194466D01*
X519999Y22208673D01*
X498223Y22223223D01*
X483672Y22245000D01*
X469465Y22259207D01*
X460280Y22280009D01*
X444030Y22304329D01*
X439511Y22327046D01*
X431764Y22344592D01*
X425805Y22395951D01*
X425000Y22400000D01*
X425000Y23100000D01*
X425804Y23104047D01*
X431764Y23155409D01*
X439511Y23172957D01*
X444030Y23195671D01*
X460278Y23219990D01*
X469465Y23240794D01*
X483674Y23255004D01*
X498223Y23276777D01*
X519996Y23291326D01*
X534206Y23305535D01*
X555010Y23314722D01*
X579329Y23330970D01*
X602043Y23335489D01*
X619591Y23343236D01*
X670952Y23349195D01*
X675000Y23350000D01*
X1975000Y23350000D01*
X1979047Y23349195D01*
G37*
G36*
X12351537Y23209776D02*
G01*
X12416421Y23166421D01*
X12459776Y23101537D01*
X12475000Y23025000D01*
X12475000Y22625000D01*
X12459776Y22548463D01*
X12416421Y22483579D01*
X12351537Y22440224D01*
X12275000Y22425000D01*
X11725000Y22425000D01*
X11648463Y22440224D01*
X11583579Y22483579D01*
X11540224Y22548463D01*
X11525000Y22625000D01*
X11525000Y23025000D01*
X11540224Y23101537D01*
X11583579Y23166421D01*
X11648463Y23209776D01*
X11725000Y23225000D01*
X12275000Y23225000D01*
X12351537Y23209776D01*
G37*
G36*
X10586104Y23707873D02*
G01*
X10659099Y23659099D01*
X10707873Y23586104D01*
X10725000Y23500000D01*
X10725000Y23050000D01*
X10707873Y22963896D01*
X10659099Y22890901D01*
X10586104Y22842127D01*
X10500000Y22825000D01*
X10000000Y22825000D01*
X9913896Y22842127D01*
X9840901Y22890901D01*
X9792127Y22963896D01*
X9775000Y23050000D01*
X9775000Y23500000D01*
X9792127Y23586104D01*
X9840901Y23659099D01*
X9913896Y23707873D01*
X10000000Y23725000D01*
X10500000Y23725000D01*
X10586104Y23707873D01*
G37*
G36*
X26036104Y23957873D02*
G01*
X26109099Y23909099D01*
X26157873Y23836104D01*
X26175000Y23750000D01*
X26175000Y23250000D01*
X26157873Y23163896D01*
X26109099Y23090901D01*
X26036104Y23042127D01*
X25950000Y23025000D01*
X25500000Y23025000D01*
X25413896Y23042127D01*
X25340901Y23090901D01*
X25292127Y23163896D01*
X25275000Y23250000D01*
X25275000Y23750000D01*
X25292127Y23836104D01*
X25340901Y23909099D01*
X25413896Y23957873D01*
X25500000Y23975000D01*
X25950000Y23975000D01*
X26036104Y23957873D01*
G37*
G36*
X27586104Y23957873D02*
G01*
X27659099Y23909099D01*
X27707873Y23836104D01*
X27725000Y23750000D01*
X27725000Y23250000D01*
X27707873Y23163896D01*
X27659099Y23090901D01*
X27586104Y23042127D01*
X27500000Y23025000D01*
X27050000Y23025000D01*
X26963896Y23042127D01*
X26890901Y23090901D01*
X26842127Y23163896D01*
X26825000Y23250000D01*
X26825000Y23750000D01*
X26842127Y23836104D01*
X26890901Y23909099D01*
X26963896Y23957873D01*
X27050000Y23975000D01*
X27500000Y23975000D01*
X27586104Y23957873D01*
G37*
G36*
X29736104Y24057873D02*
G01*
X29809099Y24009099D01*
X29857873Y23936104D01*
X29875000Y23850000D01*
X29875000Y23400000D01*
X29857873Y23313896D01*
X29809099Y23240901D01*
X29736104Y23192127D01*
X29650000Y23175000D01*
X29150000Y23175000D01*
X29063896Y23192127D01*
X28990901Y23240901D01*
X28942127Y23313896D01*
X28925000Y23400000D01*
X28925000Y23850000D01*
X28942127Y23936104D01*
X28990901Y24009099D01*
X29063896Y24057873D01*
X29150000Y24075000D01*
X29650000Y24075000D01*
X29736104Y24057873D01*
G37*
G36*
X24351537Y24009776D02*
G01*
X24416421Y23966421D01*
X24459776Y23901537D01*
X24475000Y23825000D01*
X24475000Y23425000D01*
X24459776Y23348463D01*
X24416421Y23283579D01*
X24351537Y23240224D01*
X24275000Y23225000D01*
X23725000Y23225000D01*
X23648463Y23240224D01*
X23583579Y23283579D01*
X23540224Y23348463D01*
X23525000Y23425000D01*
X23525000Y23825000D01*
X23540224Y23901537D01*
X23583579Y23966421D01*
X23648463Y24009776D01*
X23725000Y24025000D01*
X24275000Y24025000D01*
X24351537Y24009776D01*
G37*
G36*
X5882403Y24338582D02*
G01*
X5931066Y24306066D01*
X5963582Y24257403D01*
X5975000Y24200000D01*
X5975000Y23900000D01*
X5963582Y23842597D01*
X5931066Y23793934D01*
X5882403Y23761418D01*
X5825000Y23750000D01*
X4575000Y23750000D01*
X4517597Y23761418D01*
X4468934Y23793934D01*
X4436418Y23842597D01*
X4425000Y23900000D01*
X4425000Y24200000D01*
X4436418Y24257403D01*
X4468934Y24306066D01*
X4517597Y24338582D01*
X4575000Y24350000D01*
X5825000Y24350000D01*
X5882403Y24338582D01*
G37*
G36*
X17451537Y24859776D02*
G01*
X17516421Y24816421D01*
X17559776Y24751537D01*
X17575000Y24675000D01*
X17575000Y24125000D01*
X17559776Y24048463D01*
X17516421Y23983579D01*
X17451537Y23940224D01*
X17375000Y23925000D01*
X16975000Y23925000D01*
X16898463Y23940224D01*
X16833579Y23983579D01*
X16790224Y24048463D01*
X16775000Y24125000D01*
X16775000Y24675000D01*
X16790224Y24751537D01*
X16833579Y24816421D01*
X16898463Y24859776D01*
X16975000Y24875000D01*
X17375000Y24875000D01*
X17451537Y24859776D01*
G37*
G36*
X19101537Y24859776D02*
G01*
X19166421Y24816421D01*
X19209776Y24751537D01*
X19225000Y24675000D01*
X19225000Y24125000D01*
X19209776Y24048463D01*
X19166421Y23983579D01*
X19101537Y23940224D01*
X19025000Y23925000D01*
X18625000Y23925000D01*
X18548463Y23940224D01*
X18483579Y23983579D01*
X18440224Y24048463D01*
X18425000Y24125000D01*
X18425000Y24675000D01*
X18440224Y24751537D01*
X18483579Y24816421D01*
X18548463Y24859776D01*
X18625000Y24875000D01*
X19025000Y24875000D01*
X19101537Y24859776D01*
G37*
G36*
X37329047Y25249195D02*
G01*
X37380408Y25243236D01*
X37397954Y25235489D01*
X37420671Y25230970D01*
X37444991Y25214720D01*
X37465793Y25205535D01*
X37480000Y25191328D01*
X37501777Y25176777D01*
X37516327Y25155001D01*
X37530534Y25140794D01*
X37539718Y25119994D01*
X37555970Y25095671D01*
X37560489Y25072952D01*
X37568235Y25055409D01*
X37574192Y25004060D01*
X37575000Y25000000D01*
X37575000Y24300000D01*
X37574192Y24295941D01*
X37568235Y24244592D01*
X37560489Y24227050D01*
X37555970Y24204329D01*
X37539716Y24180005D01*
X37530534Y24159207D01*
X37516329Y24145003D01*
X37501777Y24123223D01*
X37479997Y24108671D01*
X37465793Y24094466D01*
X37444995Y24085284D01*
X37420671Y24069030D01*
X37397950Y24064511D01*
X37380408Y24056765D01*
X37329061Y24050808D01*
X37325000Y24050000D01*
X36025000Y24050000D01*
X36020941Y24050808D01*
X35969591Y24056765D01*
X35952048Y24064511D01*
X35929329Y24069030D01*
X35905006Y24085282D01*
X35884206Y24094466D01*
X35869999Y24108673D01*
X35848223Y24123223D01*
X35833672Y24145000D01*
X35819465Y24159207D01*
X35810280Y24180009D01*
X35794030Y24204329D01*
X35789511Y24227046D01*
X35781764Y24244592D01*
X35775805Y24295951D01*
X35775000Y24300000D01*
X35775000Y25000000D01*
X35775804Y25004047D01*
X35781764Y25055409D01*
X35789511Y25072957D01*
X35794030Y25095671D01*
X35810278Y25119990D01*
X35819465Y25140794D01*
X35833674Y25155004D01*
X35848223Y25176777D01*
X35869996Y25191326D01*
X35884206Y25205535D01*
X35905010Y25214722D01*
X35929329Y25230970D01*
X35952043Y25235489D01*
X35969591Y25243236D01*
X36020952Y25249195D01*
X36025000Y25250000D01*
X37325000Y25250000D01*
X37329047Y25249195D01*
G37*
G36*
X10601537Y25309776D02*
G01*
X10666421Y25266421D01*
X10709776Y25201537D01*
X10725000Y25125000D01*
X10725000Y24725000D01*
X10709776Y24648463D01*
X10666421Y24583579D01*
X10601537Y24540224D01*
X10525000Y24525000D01*
X9975000Y24525000D01*
X9898463Y24540224D01*
X9833579Y24583579D01*
X9790224Y24648463D01*
X9775000Y24725000D01*
X9775000Y25125000D01*
X9790224Y25201537D01*
X9833579Y25266421D01*
X9898463Y25309776D01*
X9975000Y25325000D01*
X10525000Y25325000D01*
X10601537Y25309776D01*
G37*
G36*
X29736104Y25607873D02*
G01*
X29809099Y25559099D01*
X29857873Y25486104D01*
X29875000Y25400000D01*
X29875000Y24950000D01*
X29857873Y24863896D01*
X29809099Y24790901D01*
X29736104Y24742127D01*
X29650000Y24725000D01*
X29150000Y24725000D01*
X29063896Y24742127D01*
X28990901Y24790901D01*
X28942127Y24863896D01*
X28925000Y24950000D01*
X28925000Y25400000D01*
X28942127Y25486104D01*
X28990901Y25559099D01*
X29063896Y25607873D01*
X29150000Y25625000D01*
X29650000Y25625000D01*
X29736104Y25607873D01*
G37*
G36*
X5882403Y25338582D02*
G01*
X5931066Y25306066D01*
X5963582Y25257403D01*
X5975000Y25200000D01*
X5975000Y24900000D01*
X5963582Y24842597D01*
X5931066Y24793934D01*
X5882403Y24761418D01*
X5825000Y24750000D01*
X4575000Y24750000D01*
X4517597Y24761418D01*
X4468934Y24793934D01*
X4436418Y24842597D01*
X4425000Y24900000D01*
X4425000Y25200000D01*
X4436418Y25257403D01*
X4468934Y25306066D01*
X4517597Y25338582D01*
X4575000Y25350000D01*
X5825000Y25350000D01*
X5882403Y25338582D01*
G37*
G36*
X12336104Y25657873D02*
G01*
X12409099Y25609099D01*
X12457873Y25536104D01*
X12475000Y25450000D01*
X12475000Y25000000D01*
X12457873Y24913896D01*
X12409099Y24840901D01*
X12336104Y24792127D01*
X12250000Y24775000D01*
X11750000Y24775000D01*
X11663896Y24792127D01*
X11590901Y24840901D01*
X11542127Y24913896D01*
X11525000Y25000000D01*
X11525000Y25450000D01*
X11542127Y25536104D01*
X11590901Y25609099D01*
X11663896Y25657873D01*
X11750000Y25675000D01*
X12250000Y25675000D01*
X12336104Y25657873D01*
G37*
G36*
X22286104Y25707873D02*
G01*
X22359099Y25659099D01*
X22407873Y25586104D01*
X22425000Y25500000D01*
X22425000Y25000000D01*
X22407873Y24913896D01*
X22359099Y24840901D01*
X22286104Y24792127D01*
X22200000Y24775000D01*
X21750000Y24775000D01*
X21663896Y24792127D01*
X21590901Y24840901D01*
X21542127Y24913896D01*
X21525000Y25000000D01*
X21525000Y25500000D01*
X21542127Y25586104D01*
X21590901Y25659099D01*
X21663896Y25707873D01*
X21750000Y25725000D01*
X22200000Y25725000D01*
X22286104Y25707873D01*
G37*
G36*
X23836104Y25707873D02*
G01*
X23909099Y25659099D01*
X23957873Y25586104D01*
X23975000Y25500000D01*
X23975000Y25000000D01*
X23957873Y24913896D01*
X23909099Y24840901D01*
X23836104Y24792127D01*
X23750000Y24775000D01*
X23300000Y24775000D01*
X23213896Y24792127D01*
X23140901Y24840901D01*
X23092127Y24913896D01*
X23075000Y25000000D01*
X23075000Y25500000D01*
X23092127Y25586104D01*
X23140901Y25659099D01*
X23213896Y25707873D01*
X23300000Y25725000D01*
X23750000Y25725000D01*
X23836104Y25707873D01*
G37*
G36*
X33482403Y26238582D02*
G01*
X33531066Y26206066D01*
X33563582Y26157403D01*
X33575000Y26100000D01*
X33575000Y25800000D01*
X33563582Y25742597D01*
X33531066Y25693934D01*
X33482403Y25661418D01*
X33425000Y25650000D01*
X32175000Y25650000D01*
X32117597Y25661418D01*
X32068934Y25693934D01*
X32036418Y25742597D01*
X32025000Y25800000D01*
X32025000Y26100000D01*
X32036418Y26157403D01*
X32068934Y26206066D01*
X32117597Y26238582D01*
X32175000Y26250000D01*
X33425000Y26250000D01*
X33482403Y26238582D01*
G37*
G36*
X5882403Y26338582D02*
G01*
X5931066Y26306066D01*
X5963582Y26257403D01*
X5975000Y26200000D01*
X5975000Y25900000D01*
X5963582Y25842597D01*
X5931066Y25793934D01*
X5882403Y25761418D01*
X5825000Y25750000D01*
X4575000Y25750000D01*
X4517597Y25761418D01*
X4468934Y25793934D01*
X4436418Y25842597D01*
X4425000Y25900000D01*
X4425000Y26200000D01*
X4436418Y26257403D01*
X4468934Y26306066D01*
X4517597Y26338582D01*
X4575000Y26350000D01*
X5825000Y26350000D01*
X5882403Y26338582D01*
G37*
G36*
X25451537Y26759776D02*
G01*
X25516421Y26716421D01*
X25559776Y26651537D01*
X25575000Y26575000D01*
X25575000Y26025000D01*
X25559776Y25948463D01*
X25516421Y25883579D01*
X25451537Y25840224D01*
X25375000Y25825000D01*
X24975000Y25825000D01*
X24898463Y25840224D01*
X24833579Y25883579D01*
X24790224Y25948463D01*
X24775000Y26025000D01*
X24775000Y26575000D01*
X24790224Y26651537D01*
X24833579Y26716421D01*
X24898463Y26759776D01*
X24975000Y26775000D01*
X25375000Y26775000D01*
X25451537Y26759776D01*
G37*
G36*
X27101537Y26759776D02*
G01*
X27166421Y26716421D01*
X27209776Y26651537D01*
X27225000Y26575000D01*
X27225000Y26025000D01*
X27209776Y25948463D01*
X27166421Y25883579D01*
X27101537Y25840224D01*
X27025000Y25825000D01*
X26625000Y25825000D01*
X26548463Y25840224D01*
X26483579Y25883579D01*
X26440224Y25948463D01*
X26425000Y26025000D01*
X26425000Y26575000D01*
X26440224Y26651537D01*
X26483579Y26716421D01*
X26548463Y26759776D01*
X26625000Y26775000D01*
X27025000Y26775000D01*
X27101537Y26759776D01*
G37*
G36*
X8851537Y26859776D02*
G01*
X8916421Y26816421D01*
X8959776Y26751537D01*
X8975000Y26675000D01*
X8975000Y26275000D01*
X8959776Y26198463D01*
X8916421Y26133579D01*
X8851537Y26090224D01*
X8775000Y26075000D01*
X8225000Y26075000D01*
X8148463Y26090224D01*
X8083579Y26133579D01*
X8040224Y26198463D01*
X8025000Y26275000D01*
X8025000Y26675000D01*
X8040224Y26751537D01*
X8083579Y26816421D01*
X8148463Y26859776D01*
X8225000Y26875000D01*
X8775000Y26875000D01*
X8851537Y26859776D01*
G37*
G36*
X17451537Y27059776D02*
G01*
X17516421Y27016421D01*
X17559776Y26951537D01*
X17575000Y26875000D01*
X17575000Y26325000D01*
X17559776Y26248463D01*
X17516421Y26183579D01*
X17451537Y26140224D01*
X17375000Y26125000D01*
X16975000Y26125000D01*
X16898463Y26140224D01*
X16833579Y26183579D01*
X16790224Y26248463D01*
X16775000Y26325000D01*
X16775000Y26875000D01*
X16790224Y26951537D01*
X16833579Y27016421D01*
X16898463Y27059776D01*
X16975000Y27075000D01*
X17375000Y27075000D01*
X17451537Y27059776D01*
G37*
G36*
X19101537Y27059776D02*
G01*
X19166421Y27016421D01*
X19209776Y26951537D01*
X19225000Y26875000D01*
X19225000Y26325000D01*
X19209776Y26248463D01*
X19166421Y26183579D01*
X19101537Y26140224D01*
X19025000Y26125000D01*
X18625000Y26125000D01*
X18548463Y26140224D01*
X18483579Y26183579D01*
X18440224Y26248463D01*
X18425000Y26325000D01*
X18425000Y26875000D01*
X18440224Y26951537D01*
X18483579Y27016421D01*
X18548463Y27059776D01*
X18625000Y27075000D01*
X19025000Y27075000D01*
X19101537Y27059776D01*
G37*
G36*
X10601537Y26959776D02*
G01*
X10666421Y26916421D01*
X10709776Y26851537D01*
X10725000Y26775000D01*
X10725000Y26375000D01*
X10709776Y26298463D01*
X10666421Y26233579D01*
X10601537Y26190224D01*
X10525000Y26175000D01*
X9975000Y26175000D01*
X9898463Y26190224D01*
X9833579Y26233579D01*
X9790224Y26298463D01*
X9775000Y26375000D01*
X9775000Y26775000D01*
X9790224Y26851537D01*
X9833579Y26916421D01*
X9898463Y26959776D01*
X9975000Y26975000D01*
X10525000Y26975000D01*
X10601537Y26959776D01*
G37*
G36*
X29101537Y27059776D02*
G01*
X29166421Y27016421D01*
X29209776Y26951537D01*
X29225000Y26875000D01*
X29225000Y26475000D01*
X29209776Y26398463D01*
X29166421Y26333579D01*
X29101537Y26290224D01*
X29025000Y26275000D01*
X28475000Y26275000D01*
X28398463Y26290224D01*
X28333579Y26333579D01*
X28290224Y26398463D01*
X28275000Y26475000D01*
X28275000Y26875000D01*
X28290224Y26951537D01*
X28333579Y27016421D01*
X28398463Y27059776D01*
X28475000Y27075000D01*
X29025000Y27075000D01*
X29101537Y27059776D01*
G37*
G36*
X30851537Y27059776D02*
G01*
X30916421Y27016421D01*
X30959776Y26951537D01*
X30975000Y26875000D01*
X30975000Y26475000D01*
X30959776Y26398463D01*
X30916421Y26333579D01*
X30851537Y26290224D01*
X30775000Y26275000D01*
X30225000Y26275000D01*
X30148463Y26290224D01*
X30083579Y26333579D01*
X30040224Y26398463D01*
X30025000Y26475000D01*
X30025000Y26875000D01*
X30040224Y26951537D01*
X30083579Y27016421D01*
X30148463Y27059776D01*
X30225000Y27075000D01*
X30775000Y27075000D01*
X30851537Y27059776D01*
G37*
G36*
X12336104Y27207873D02*
G01*
X12409099Y27159099D01*
X12457873Y27086104D01*
X12475000Y27000000D01*
X12475000Y26550000D01*
X12457873Y26463896D01*
X12409099Y26390901D01*
X12336104Y26342127D01*
X12250000Y26325000D01*
X11750000Y26325000D01*
X11663896Y26342127D01*
X11590901Y26390901D01*
X11542127Y26463896D01*
X11525000Y26550000D01*
X11525000Y27000000D01*
X11542127Y27086104D01*
X11590901Y27159099D01*
X11663896Y27207873D01*
X11750000Y27225000D01*
X12250000Y27225000D01*
X12336104Y27207873D01*
G37*
G36*
X33482403Y27238582D02*
G01*
X33531066Y27206066D01*
X33563582Y27157403D01*
X33575000Y27100000D01*
X33575000Y26800000D01*
X33563582Y26742597D01*
X33531066Y26693934D01*
X33482403Y26661418D01*
X33425000Y26650000D01*
X32175000Y26650000D01*
X32117597Y26661418D01*
X32068934Y26693934D01*
X32036418Y26742597D01*
X32025000Y26800000D01*
X32025000Y27100000D01*
X32036418Y27157403D01*
X32068934Y27206066D01*
X32117597Y27238582D01*
X32175000Y27250000D01*
X33425000Y27250000D01*
X33482403Y27238582D01*
G37*
G36*
X5882403Y27338582D02*
G01*
X5931066Y27306066D01*
X5963582Y27257403D01*
X5975000Y27200000D01*
X5975000Y26900000D01*
X5963582Y26842597D01*
X5931066Y26793934D01*
X5882403Y26761418D01*
X5825000Y26750000D01*
X4575000Y26750000D01*
X4517597Y26761418D01*
X4468934Y26793934D01*
X4436418Y26842597D01*
X4425000Y26900000D01*
X4425000Y27200000D01*
X4436418Y27257403D01*
X4468934Y27306066D01*
X4517597Y27338582D01*
X4575000Y27350000D01*
X5825000Y27350000D01*
X5882403Y27338582D01*
G37*
G36*
X25451537Y28459776D02*
G01*
X25516421Y28416421D01*
X25559776Y28351537D01*
X25575000Y28275000D01*
X25575000Y27725000D01*
X25559776Y27648463D01*
X25516421Y27583579D01*
X25451537Y27540224D01*
X25375000Y27525000D01*
X24975000Y27525000D01*
X24898463Y27540224D01*
X24833579Y27583579D01*
X24790224Y27648463D01*
X24775000Y27725000D01*
X24775000Y28275000D01*
X24790224Y28351537D01*
X24833579Y28416421D01*
X24898463Y28459776D01*
X24975000Y28475000D01*
X25375000Y28475000D01*
X25451537Y28459776D01*
G37*
G36*
X27101537Y28459776D02*
G01*
X27166421Y28416421D01*
X27209776Y28351537D01*
X27225000Y28275000D01*
X27225000Y27725000D01*
X27209776Y27648463D01*
X27166421Y27583579D01*
X27101537Y27540224D01*
X27025000Y27525000D01*
X26625000Y27525000D01*
X26548463Y27540224D01*
X26483579Y27583579D01*
X26440224Y27648463D01*
X26425000Y27725000D01*
X26425000Y28275000D01*
X26440224Y28351537D01*
X26483579Y28416421D01*
X26548463Y28459776D01*
X26625000Y28475000D01*
X27025000Y28475000D01*
X27101537Y28459776D01*
G37*
G36*
X33482403Y28238582D02*
G01*
X33531066Y28206066D01*
X33563582Y28157403D01*
X33575000Y28100000D01*
X33575000Y27800000D01*
X33563582Y27742597D01*
X33531066Y27693934D01*
X33482403Y27661418D01*
X33425000Y27650000D01*
X32175000Y27650000D01*
X32117597Y27661418D01*
X32068934Y27693934D01*
X32036418Y27742597D01*
X32025000Y27800000D01*
X32025000Y28100000D01*
X32036418Y28157403D01*
X32068934Y28206066D01*
X32117597Y28238582D01*
X32175000Y28250000D01*
X33425000Y28250000D01*
X33482403Y28238582D01*
G37*
G36*
X8851537Y28509776D02*
G01*
X8916421Y28466421D01*
X8959776Y28401537D01*
X8975000Y28325000D01*
X8975000Y27925000D01*
X8959776Y27848463D01*
X8916421Y27783579D01*
X8851537Y27740224D01*
X8775000Y27725000D01*
X8225000Y27725000D01*
X8148463Y27740224D01*
X8083579Y27783579D01*
X8040224Y27848463D01*
X8025000Y27925000D01*
X8025000Y28325000D01*
X8040224Y28401537D01*
X8083579Y28466421D01*
X8148463Y28509776D01*
X8225000Y28525000D01*
X8775000Y28525000D01*
X8851537Y28509776D01*
G37*
G36*
X5882403Y28338582D02*
G01*
X5931066Y28306066D01*
X5963582Y28257403D01*
X5975000Y28200000D01*
X5975000Y27900000D01*
X5963582Y27842597D01*
X5931066Y27793934D01*
X5882403Y27761418D01*
X5825000Y27750000D01*
X4575000Y27750000D01*
X4517597Y27761418D01*
X4468934Y27793934D01*
X4436418Y27842597D01*
X4425000Y27900000D01*
X4425000Y28200000D01*
X4436418Y28257403D01*
X4468934Y28306066D01*
X4517597Y28338582D01*
X4575000Y28350000D01*
X5825000Y28350000D01*
X5882403Y28338582D01*
G37*
G36*
X18351537Y28759776D02*
G01*
X18416421Y28716421D01*
X18459776Y28651537D01*
X18475000Y28575000D01*
X18475000Y28025000D01*
X18459776Y27948463D01*
X18416421Y27883579D01*
X18351537Y27840224D01*
X18275000Y27825000D01*
X17875000Y27825000D01*
X17798463Y27840224D01*
X17733579Y27883579D01*
X17690224Y27948463D01*
X17675000Y28025000D01*
X17675000Y28575000D01*
X17690224Y28651537D01*
X17733579Y28716421D01*
X17798463Y28759776D01*
X17875000Y28775000D01*
X18275000Y28775000D01*
X18351537Y28759776D01*
G37*
G36*
X20001537Y28759776D02*
G01*
X20066421Y28716421D01*
X20109776Y28651537D01*
X20125000Y28575000D01*
X20125000Y28025000D01*
X20109776Y27948463D01*
X20066421Y27883579D01*
X20001537Y27840224D01*
X19925000Y27825000D01*
X19525000Y27825000D01*
X19448463Y27840224D01*
X19383579Y27883579D01*
X19340224Y27948463D01*
X19325000Y28025000D01*
X19325000Y28575000D01*
X19340224Y28651537D01*
X19383579Y28716421D01*
X19448463Y28759776D01*
X19525000Y28775000D01*
X19925000Y28775000D01*
X20001537Y28759776D01*
G37*
G36*
X29101537Y28709776D02*
G01*
X29166421Y28666421D01*
X29209776Y28601537D01*
X29225000Y28525000D01*
X29225000Y28125000D01*
X29209776Y28048463D01*
X29166421Y27983579D01*
X29101537Y27940224D01*
X29025000Y27925000D01*
X28475000Y27925000D01*
X28398463Y27940224D01*
X28333579Y27983579D01*
X28290224Y28048463D01*
X28275000Y28125000D01*
X28275000Y28525000D01*
X28290224Y28601537D01*
X28333579Y28666421D01*
X28398463Y28709776D01*
X28475000Y28725000D01*
X29025000Y28725000D01*
X29101537Y28709776D01*
G37*
G36*
X30851537Y28709776D02*
G01*
X30916421Y28666421D01*
X30959776Y28601537D01*
X30975000Y28525000D01*
X30975000Y28125000D01*
X30959776Y28048463D01*
X30916421Y27983579D01*
X30851537Y27940224D01*
X30775000Y27925000D01*
X30225000Y27925000D01*
X30148463Y27940224D01*
X30083579Y27983579D01*
X30040224Y28048463D01*
X30025000Y28125000D01*
X30025000Y28525000D01*
X30040224Y28601537D01*
X30083579Y28666421D01*
X30148463Y28709776D01*
X30225000Y28725000D01*
X30775000Y28725000D01*
X30851537Y28709776D01*
G37*
G36*
X33482403Y29238582D02*
G01*
X33531066Y29206066D01*
X33563582Y29157403D01*
X33575000Y29100000D01*
X33575000Y28800000D01*
X33563582Y28742597D01*
X33531066Y28693934D01*
X33482403Y28661418D01*
X33425000Y28650000D01*
X32175000Y28650000D01*
X32117597Y28661418D01*
X32068934Y28693934D01*
X32036418Y28742597D01*
X32025000Y28800000D01*
X32025000Y29100000D01*
X32036418Y29157403D01*
X32068934Y29206066D01*
X32117597Y29238582D01*
X32175000Y29250000D01*
X33425000Y29250000D01*
X33482403Y29238582D01*
G37*
G36*
X5882403Y29338582D02*
G01*
X5931066Y29306066D01*
X5963582Y29257403D01*
X5975000Y29200000D01*
X5975000Y28900000D01*
X5963582Y28842597D01*
X5931066Y28793934D01*
X5882403Y28761418D01*
X5825000Y28750000D01*
X4575000Y28750000D01*
X4517597Y28761418D01*
X4468934Y28793934D01*
X4436418Y28842597D01*
X4425000Y28900000D01*
X4425000Y29200000D01*
X4436418Y29257403D01*
X4468934Y29306066D01*
X4517597Y29338582D01*
X4575000Y29350000D01*
X5825000Y29350000D01*
X5882403Y29338582D01*
G37*
G36*
X14432403Y29338582D02*
G01*
X14481066Y29306066D01*
X14513582Y29257403D01*
X14525000Y29200000D01*
X14525000Y28900000D01*
X14513582Y28842597D01*
X14481066Y28793934D01*
X14432403Y28761418D01*
X14375000Y28750000D01*
X13350000Y28750000D01*
X13292597Y28761418D01*
X13243934Y28793934D01*
X13211418Y28842597D01*
X13200000Y28900000D01*
X13200000Y29200000D01*
X13211418Y29257403D01*
X13243934Y29306066D01*
X13292597Y29338582D01*
X13350000Y29350000D01*
X14375000Y29350000D01*
X14432403Y29338582D01*
G37*
G36*
X16707403Y29338582D02*
G01*
X16756066Y29306066D01*
X16788582Y29257403D01*
X16800000Y29200000D01*
X16800000Y28900000D01*
X16788582Y28842597D01*
X16756066Y28793934D01*
X16707403Y28761418D01*
X16650000Y28750000D01*
X15625000Y28750000D01*
X15567597Y28761418D01*
X15518934Y28793934D01*
X15486418Y28842597D01*
X15475000Y28900000D01*
X15475000Y29200000D01*
X15486418Y29257403D01*
X15518934Y29306066D01*
X15567597Y29338582D01*
X15625000Y29350000D01*
X16650000Y29350000D01*
X16707403Y29338582D01*
G37*
G36*
X10451537Y29959776D02*
G01*
X10516421Y29916421D01*
X10559776Y29851537D01*
X10575000Y29775000D01*
X10575000Y29225000D01*
X10559776Y29148463D01*
X10516421Y29083579D01*
X10451537Y29040224D01*
X10375000Y29025000D01*
X9975000Y29025000D01*
X9898463Y29040224D01*
X9833579Y29083579D01*
X9790224Y29148463D01*
X9775000Y29225000D01*
X9775000Y29775000D01*
X9790224Y29851537D01*
X9833579Y29916421D01*
X9898463Y29959776D01*
X9975000Y29975000D01*
X10375000Y29975000D01*
X10451537Y29959776D01*
G37*
G36*
X12101537Y29959776D02*
G01*
X12166421Y29916421D01*
X12209776Y29851537D01*
X12225000Y29775000D01*
X12225000Y29225000D01*
X12209776Y29148463D01*
X12166421Y29083579D01*
X12101537Y29040224D01*
X12025000Y29025000D01*
X11625000Y29025000D01*
X11548463Y29040224D01*
X11483579Y29083579D01*
X11440224Y29148463D01*
X11425000Y29225000D01*
X11425000Y29775000D01*
X11440224Y29851537D01*
X11483579Y29916421D01*
X11548463Y29959776D01*
X11625000Y29975000D01*
X12025000Y29975000D01*
X12101537Y29959776D01*
G37*
G36*
X18336104Y30457873D02*
G01*
X18409099Y30409099D01*
X18457873Y30336104D01*
X18475000Y30250000D01*
X18475000Y29750000D01*
X18457873Y29663896D01*
X18409099Y29590901D01*
X18336104Y29542127D01*
X18250000Y29525000D01*
X17800000Y29525000D01*
X17713896Y29542127D01*
X17640901Y29590901D01*
X17592127Y29663896D01*
X17575000Y29750000D01*
X17575000Y30250000D01*
X17592127Y30336104D01*
X17640901Y30409099D01*
X17713896Y30457873D01*
X17800000Y30475000D01*
X18250000Y30475000D01*
X18336104Y30457873D01*
G37*
G36*
X19886104Y30457873D02*
G01*
X19959099Y30409099D01*
X20007873Y30336104D01*
X20025000Y30250000D01*
X20025000Y29750000D01*
X20007873Y29663896D01*
X19959099Y29590901D01*
X19886104Y29542127D01*
X19800000Y29525000D01*
X19350000Y29525000D01*
X19263896Y29542127D01*
X19190901Y29590901D01*
X19142127Y29663896D01*
X19125000Y29750000D01*
X19125000Y30250000D01*
X19142127Y30336104D01*
X19190901Y30409099D01*
X19263896Y30457873D01*
X19350000Y30475000D01*
X19800000Y30475000D01*
X19886104Y30457873D01*
G37*
G36*
X30851537Y30309776D02*
G01*
X30916421Y30266421D01*
X30959776Y30201537D01*
X30975000Y30125000D01*
X30975000Y29725000D01*
X30959776Y29648463D01*
X30916421Y29583579D01*
X30851537Y29540224D01*
X30775000Y29525000D01*
X30225000Y29525000D01*
X30148463Y29540224D01*
X30083579Y29583579D01*
X30040224Y29648463D01*
X30025000Y29725000D01*
X30025000Y30125000D01*
X30040224Y30201537D01*
X30083579Y30266421D01*
X30148463Y30309776D01*
X30225000Y30325000D01*
X30775000Y30325000D01*
X30851537Y30309776D01*
G37*
G36*
X37329047Y30849195D02*
G01*
X37380408Y30843236D01*
X37397954Y30835489D01*
X37420671Y30830970D01*
X37444991Y30814720D01*
X37465793Y30805535D01*
X37480000Y30791328D01*
X37501777Y30776777D01*
X37516327Y30755001D01*
X37530534Y30740794D01*
X37539718Y30719994D01*
X37555970Y30695671D01*
X37560489Y30672952D01*
X37568235Y30655409D01*
X37574192Y30604060D01*
X37575000Y30600000D01*
X37575000Y29900000D01*
X37574192Y29895941D01*
X37568235Y29844592D01*
X37560489Y29827050D01*
X37555970Y29804329D01*
X37539716Y29780005D01*
X37530534Y29759207D01*
X37516329Y29745003D01*
X37501777Y29723223D01*
X37479997Y29708671D01*
X37465793Y29694466D01*
X37444995Y29685284D01*
X37420671Y29669030D01*
X37397950Y29664511D01*
X37380408Y29656765D01*
X37329061Y29650808D01*
X37325000Y29650000D01*
X36025000Y29650000D01*
X36020941Y29650808D01*
X35969591Y29656765D01*
X35952048Y29664511D01*
X35929329Y29669030D01*
X35905006Y29685282D01*
X35884206Y29694466D01*
X35869999Y29708673D01*
X35848223Y29723223D01*
X35833672Y29745000D01*
X35819465Y29759207D01*
X35810280Y29780009D01*
X35794030Y29804329D01*
X35789511Y29827046D01*
X35781764Y29844592D01*
X35775805Y29895951D01*
X35775000Y29900000D01*
X35775000Y30600000D01*
X35775804Y30604047D01*
X35781764Y30655409D01*
X35789511Y30672957D01*
X35794030Y30695671D01*
X35810278Y30719990D01*
X35819465Y30740794D01*
X35833674Y30755004D01*
X35848223Y30776777D01*
X35869996Y30791326D01*
X35884206Y30805535D01*
X35905010Y30814722D01*
X35929329Y30830970D01*
X35952043Y30835489D01*
X35969591Y30843236D01*
X36020952Y30849195D01*
X36025000Y30850000D01*
X37325000Y30850000D01*
X37329047Y30849195D01*
G37*
G36*
X14432403Y30288582D02*
G01*
X14481066Y30256066D01*
X14513582Y30207403D01*
X14525000Y30150000D01*
X14525000Y29850000D01*
X14513582Y29792597D01*
X14481066Y29743934D01*
X14432403Y29711418D01*
X14375000Y29700000D01*
X13350000Y29700000D01*
X13292597Y29711418D01*
X13243934Y29743934D01*
X13211418Y29792597D01*
X13200000Y29850000D01*
X13200000Y30150000D01*
X13211418Y30207403D01*
X13243934Y30256066D01*
X13292597Y30288582D01*
X13350000Y30300000D01*
X14375000Y30300000D01*
X14432403Y30288582D01*
G37*
G36*
X16707403Y30288582D02*
G01*
X16756066Y30256066D01*
X16788582Y30207403D01*
X16800000Y30150000D01*
X16800000Y29850000D01*
X16788582Y29792597D01*
X16756066Y29743934D01*
X16707403Y29711418D01*
X16650000Y29700000D01*
X15625000Y29700000D01*
X15567597Y29711418D01*
X15518934Y29743934D01*
X15486418Y29792597D01*
X15475000Y29850000D01*
X15475000Y30150000D01*
X15486418Y30207403D01*
X15518934Y30256066D01*
X15567597Y30288582D01*
X15625000Y30300000D01*
X16650000Y30300000D01*
X16707403Y30288582D01*
G37*
G36*
X1979047Y30949195D02*
G01*
X2030408Y30943236D01*
X2047954Y30935489D01*
X2070671Y30930970D01*
X2094991Y30914720D01*
X2115793Y30905535D01*
X2130000Y30891328D01*
X2151777Y30876777D01*
X2166327Y30855001D01*
X2180534Y30840794D01*
X2189718Y30819994D01*
X2205970Y30795671D01*
X2210489Y30772952D01*
X2218235Y30755409D01*
X2224192Y30704060D01*
X2225000Y30700000D01*
X2225000Y30000000D01*
X2224192Y29995941D01*
X2218235Y29944592D01*
X2210489Y29927050D01*
X2205970Y29904329D01*
X2189716Y29880005D01*
X2180534Y29859207D01*
X2166329Y29845003D01*
X2151777Y29823223D01*
X2129997Y29808671D01*
X2115793Y29794466D01*
X2094995Y29785284D01*
X2070671Y29769030D01*
X2047950Y29764511D01*
X2030408Y29756765D01*
X1979061Y29750808D01*
X1975000Y29750000D01*
X675000Y29750000D01*
X670941Y29750808D01*
X619591Y29756765D01*
X602048Y29764511D01*
X579329Y29769030D01*
X555006Y29785282D01*
X534206Y29794466D01*
X519999Y29808673D01*
X498223Y29823223D01*
X483672Y29845000D01*
X469465Y29859207D01*
X460280Y29880009D01*
X444030Y29904329D01*
X439511Y29927046D01*
X431764Y29944592D01*
X425805Y29995951D01*
X425000Y30000000D01*
X425000Y30700000D01*
X425804Y30704047D01*
X431764Y30755409D01*
X439511Y30772957D01*
X444030Y30795671D01*
X460278Y30819990D01*
X469465Y30840794D01*
X483674Y30855004D01*
X498223Y30876777D01*
X519996Y30891326D01*
X534206Y30905535D01*
X555010Y30914722D01*
X579329Y30930970D01*
X602043Y30935489D01*
X619591Y30943236D01*
X670952Y30949195D01*
X675000Y30950000D01*
X1975000Y30950000D01*
X1979047Y30949195D01*
G37*
G36*
X14432403Y31238582D02*
G01*
X14481066Y31206066D01*
X14513582Y31157403D01*
X14525000Y31100000D01*
X14525000Y30800000D01*
X14513582Y30742597D01*
X14481066Y30693934D01*
X14432403Y30661418D01*
X14375000Y30650000D01*
X13350000Y30650000D01*
X13292597Y30661418D01*
X13243934Y30693934D01*
X13211418Y30742597D01*
X13200000Y30800000D01*
X13200000Y31100000D01*
X13211418Y31157403D01*
X13243934Y31206066D01*
X13292597Y31238582D01*
X13350000Y31250000D01*
X14375000Y31250000D01*
X14432403Y31238582D01*
G37*
G36*
X16707403Y31238582D02*
G01*
X16756066Y31206066D01*
X16788582Y31157403D01*
X16800000Y31100000D01*
X16800000Y30800000D01*
X16788582Y30742597D01*
X16756066Y30693934D01*
X16707403Y30661418D01*
X16650000Y30650000D01*
X15625000Y30650000D01*
X15567597Y30661418D01*
X15518934Y30693934D01*
X15486418Y30742597D01*
X15475000Y30800000D01*
X15475000Y31100000D01*
X15486418Y31157403D01*
X15518934Y31206066D01*
X15567597Y31238582D01*
X15625000Y31250000D01*
X16650000Y31250000D01*
X16707403Y31238582D01*
G37*
G36*
X23451537Y31859776D02*
G01*
X23516421Y31816421D01*
X23559776Y31751537D01*
X23575000Y31675000D01*
X23575000Y31125000D01*
X23559776Y31048463D01*
X23516421Y30983579D01*
X23451537Y30940224D01*
X23375000Y30925000D01*
X22975000Y30925000D01*
X22898463Y30940224D01*
X22833579Y30983579D01*
X22790224Y31048463D01*
X22775000Y31125000D01*
X22775000Y31675000D01*
X22790224Y31751537D01*
X22833579Y31816421D01*
X22898463Y31859776D01*
X22975000Y31875000D01*
X23375000Y31875000D01*
X23451537Y31859776D01*
G37*
G36*
X25101537Y31859776D02*
G01*
X25166421Y31816421D01*
X25209776Y31751537D01*
X25225000Y31675000D01*
X25225000Y31125000D01*
X25209776Y31048463D01*
X25166421Y30983579D01*
X25101537Y30940224D01*
X25025000Y30925000D01*
X24625000Y30925000D01*
X24548463Y30940224D01*
X24483579Y30983579D01*
X24440224Y31048463D01*
X24425000Y31125000D01*
X24425000Y31675000D01*
X24440224Y31751537D01*
X24483579Y31816421D01*
X24548463Y31859776D01*
X24625000Y31875000D01*
X25025000Y31875000D01*
X25101537Y31859776D01*
G37*
G36*
X30851537Y31959776D02*
G01*
X30916421Y31916421D01*
X30959776Y31851537D01*
X30975000Y31775000D01*
X30975000Y31375000D01*
X30959776Y31298463D01*
X30916421Y31233579D01*
X30851537Y31190224D01*
X30775000Y31175000D01*
X30225000Y31175000D01*
X30148463Y31190224D01*
X30083579Y31233579D01*
X30040224Y31298463D01*
X30025000Y31375000D01*
X30025000Y31775000D01*
X30040224Y31851537D01*
X30083579Y31916421D01*
X30148463Y31959776D01*
X30225000Y31975000D01*
X30775000Y31975000D01*
X30851537Y31959776D01*
G37*
G36*
X19551537Y32159776D02*
G01*
X19616421Y32116421D01*
X19659776Y32051537D01*
X19675000Y31975000D01*
X19675000Y31425000D01*
X19659776Y31348463D01*
X19616421Y31283579D01*
X19551537Y31240224D01*
X19475000Y31225000D01*
X19075000Y31225000D01*
X18998463Y31240224D01*
X18933579Y31283579D01*
X18890224Y31348463D01*
X18875000Y31425000D01*
X18875000Y31975000D01*
X18890224Y32051537D01*
X18933579Y32116421D01*
X18998463Y32159776D01*
X19075000Y32175000D01*
X19475000Y32175000D01*
X19551537Y32159776D01*
G37*
G36*
X21201537Y32159776D02*
G01*
X21266421Y32116421D01*
X21309776Y32051537D01*
X21325000Y31975000D01*
X21325000Y31425000D01*
X21309776Y31348463D01*
X21266421Y31283579D01*
X21201537Y31240224D01*
X21125000Y31225000D01*
X20725000Y31225000D01*
X20648463Y31240224D01*
X20583579Y31283579D01*
X20540224Y31348463D01*
X20525000Y31425000D01*
X20525000Y31975000D01*
X20540224Y32051537D01*
X20583579Y32116421D01*
X20648463Y32159776D01*
X20725000Y32175000D01*
X21125000Y32175000D01*
X21201537Y32159776D01*
G37*
G36*
X4006790Y35319607D02*
G01*
X4170952Y35266267D01*
X4324748Y35187904D01*
X4464393Y35086447D01*
X4586447Y34964393D01*
X4687904Y34824748D01*
X4766267Y34670952D01*
X4819607Y34506790D01*
X4846609Y34336305D01*
X4846609Y34163695D01*
X4819607Y33993210D01*
X4766267Y33829048D01*
X4687904Y33675252D01*
X4586447Y33535607D01*
X4464393Y33413553D01*
X4324748Y33312096D01*
X4170952Y33233733D01*
X4006790Y33180393D01*
X3836305Y33153391D01*
X3663695Y33153391D01*
X3493210Y33180393D01*
X3329048Y33233733D01*
X3175252Y33312096D01*
X3035607Y33413553D01*
X2913553Y33535607D01*
X2812096Y33675252D01*
X2733733Y33829048D01*
X2680393Y33993210D01*
X2653391Y34163695D01*
X2653391Y34336305D01*
X2680393Y34506790D01*
X2733733Y34670952D01*
X2812096Y34824748D01*
X2913553Y34964393D01*
X3035607Y35086447D01*
X3175252Y35187904D01*
X3329048Y35266267D01*
X3493210Y35319607D01*
X3663695Y35346609D01*
X3836305Y35346609D01*
X4006790Y35319607D01*
G37*
G36*
X34506790Y35319607D02*
G01*
X34670952Y35266267D01*
X34824748Y35187904D01*
X34964393Y35086447D01*
X35086447Y34964393D01*
X35187904Y34824748D01*
X35266267Y34670952D01*
X35319607Y34506790D01*
X35346609Y34336305D01*
X35346609Y34163695D01*
X35319607Y33993210D01*
X35266267Y33829048D01*
X35187904Y33675252D01*
X35086447Y33535607D01*
X34964393Y33413553D01*
X34824748Y33312096D01*
X34670952Y33233733D01*
X34506790Y33180393D01*
X34336305Y33153391D01*
X34163695Y33153391D01*
X33993210Y33180393D01*
X33829048Y33233733D01*
X33675252Y33312096D01*
X33535607Y33413553D01*
X33413553Y33535607D01*
X33312096Y33675252D01*
X33233733Y33829048D01*
X33180393Y33993210D01*
X33153391Y34163695D01*
X33153391Y34336305D01*
X33180393Y34506790D01*
X33233733Y34670952D01*
X33312096Y34824748D01*
X33413553Y34964393D01*
X33535607Y35086447D01*
X33675252Y35187904D01*
X33829048Y35266267D01*
X33993210Y35319607D01*
X34163695Y35346609D01*
X34336305Y35346609D01*
X34506790Y35319607D01*
G37*
G36*
X14720364Y37534015D02*
G01*
X14788492Y37488492D01*
X14834015Y37420364D01*
X14850000Y37340000D01*
X14850000Y35660000D01*
X14834015Y35579636D01*
X14788492Y35511508D01*
X14720364Y35465985D01*
X14640000Y35450000D01*
X11360000Y35450000D01*
X11279636Y35465985D01*
X11211508Y35511508D01*
X11165985Y35579636D01*
X11150000Y35660000D01*
X11150000Y37340000D01*
X11165985Y37420364D01*
X11211508Y37488492D01*
X11279636Y37534015D01*
X11360000Y37550000D01*
X14640000Y37550000D01*
X14720364Y37534015D01*
G37*
G36*
X18720364Y37534015D02*
G01*
X18788492Y37488492D01*
X18834015Y37420364D01*
X18850000Y37340000D01*
X18850000Y35660000D01*
X18834015Y35579636D01*
X18788492Y35511508D01*
X18720364Y35465985D01*
X18640000Y35450000D01*
X15360000Y35450000D01*
X15279636Y35465985D01*
X15211508Y35511508D01*
X15165985Y35579636D01*
X15150000Y35660000D01*
X15150000Y37340000D01*
X15165985Y37420364D01*
X15211508Y37488492D01*
X15279636Y37534015D01*
X15360000Y37550000D01*
X18640000Y37550000D01*
X18720364Y37534015D01*
G37*
G36*
X20740118Y37536451D02*
G01*
X20797865Y37497865D01*
X20836451Y37440118D01*
X20850000Y37372000D01*
X20850000Y35628000D01*
X20836451Y35559882D01*
X20797865Y35502135D01*
X20740118Y35463549D01*
X20672000Y35450000D01*
X19328000Y35450000D01*
X19259882Y35463549D01*
X19202135Y35502135D01*
X19163549Y35559882D01*
X19150000Y35628000D01*
X19150000Y37372000D01*
X19163549Y37440118D01*
X19202135Y37497865D01*
X19259882Y37536451D01*
X19328000Y37550000D01*
X20672000Y37550000D01*
X20740118Y37536451D01*
G37*
G36*
X22740118Y37536451D02*
G01*
X22797865Y37497865D01*
X22836451Y37440118D01*
X22850000Y37372000D01*
X22850000Y35628000D01*
X22836451Y35559882D01*
X22797865Y35502135D01*
X22740118Y35463549D01*
X22672000Y35450000D01*
X21328000Y35450000D01*
X21259882Y35463549D01*
X21202135Y35502135D01*
X21163549Y35559882D01*
X21150000Y35628000D01*
X21150000Y37372000D01*
X21163549Y37440118D01*
X21202135Y37497865D01*
X21259882Y37536451D01*
X21328000Y37550000D01*
X22672000Y37550000D01*
X22740118Y37536451D01*
G37*
G36*
X24740118Y37536451D02*
G01*
X24797865Y37497865D01*
X24836451Y37440118D01*
X24850000Y37372000D01*
X24850000Y35628000D01*
X24836451Y35559882D01*
X24797865Y35502135D01*
X24740118Y35463549D01*
X24672000Y35450000D01*
X23328000Y35450000D01*
X23259882Y35463549D01*
X23202135Y35502135D01*
X23163549Y35559882D01*
X23150000Y35628000D01*
X23150000Y37372000D01*
X23163549Y37440118D01*
X23202135Y37497865D01*
X23259882Y37536451D01*
X23328000Y37550000D01*
X24672000Y37550000D01*
X24740118Y37536451D01*
G37*
G36*
X26740118Y37536451D02*
G01*
X26797865Y37497865D01*
X26836451Y37440118D01*
X26850000Y37372000D01*
X26850000Y35628000D01*
X26836451Y35559882D01*
X26797865Y35502135D01*
X26740118Y35463549D01*
X26672000Y35450000D01*
X25328000Y35450000D01*
X25259882Y35463549D01*
X25202135Y35502135D01*
X25163549Y35559882D01*
X25150000Y35628000D01*
X25150000Y37372000D01*
X25163549Y37440118D01*
X25202135Y37497865D01*
X25259882Y37536451D01*
X25328000Y37550000D01*
X26672000Y37550000D01*
X26740118Y37536451D01*
G37*
%LPD*%
M02*
