%TF.GenerationSoftware,KiCad,Pcbnew,10.0.6*%
%TF.CreationDate,2026-10-07T12:36:03+00:00*%
%TF.ProjectId,f722-heli,66373232-2d68-4656-9c69-2e6b69636164,rev?*%
%TF.SameCoordinates,Original*%
%TF.FileFunction,Legend,Top*%
%TF.FilePolarity,Positive*%
%FSLAX46Y46*%
G04 Gerber Fmt 4.6, Leading zero omitted, Abs format (unit mm)*
G04 Created by KiCad (PCBNEW 10.0.6) date 2026-10-07 12:36:03*
%MOMM*%
%LPD*%
G01*
G04 APERTURE LIST*
%ADD10C,0.100000*%
%ADD11C,0.120000*%
%ADD12C,0.130000*%
%ADD13C,0.040000*%
G04 APERTURE END LIST*
D10*
X38733333Y-7164895D02*
X38733333Y-7736323D01*
X38733333Y-7736323D02*
X38695238Y-7850609D01*
X38695238Y-7850609D02*
X38619047Y-7926800D01*
X38619047Y-7926800D02*
X38504762Y-7964895D01*
X38504762Y-7964895D02*
X38428571Y-7964895D01*
X39533333Y-7964895D02*
X39076190Y-7964895D01*
X39304762Y-7964895D02*
X39304762Y-7164895D01*
X39304762Y-7164895D02*
X39228571Y-7279180D01*
X39228571Y-7279180D02*
X39152381Y-7355371D01*
X39152381Y-7355371D02*
X39076190Y-7393466D01*
%TO.C,D6*%
D11*
X34150000Y-9100000D02*
X34150000Y-10460000D01*
X34150000Y-10460000D02*
X34950000Y-10460000D01*
X34950000Y-9100000D02*
X34950000Y-10460000D01*
%TO.C,U6*%
D12*
X18905000Y-12620000D02*
G75*
G02*
X18775000Y-12620000I-65000J0D01*
G01*
X18775000Y-12620000D02*
G75*
G02*
X18905000Y-12620000I65000J0D01*
G01*
%TO.C,R40*%
D11*
X19620000Y-16353641D02*
X19620000Y-16046359D01*
X20380000Y-16353641D02*
X20380000Y-16046359D01*
%TO.C,U15*%
D10*
X33155000Y-15730000D02*
X32255000Y-15730000D01*
X33155000Y-18570000D02*
X32255000Y-18570000D01*
D13*
X33505000Y-18470000D02*
X33325000Y-18470000D01*
X33505000Y-18650000D01*
X33505000Y-18470000D01*
G36*
X33505000Y-18650000D02*
G01*
X33325000Y-18470000D01*
X33505000Y-18470000D01*
X33505000Y-18650000D01*
G37*
%TO.C,R10*%
D11*
X1646359Y-24120000D02*
X1953641Y-24120000D01*
X1646359Y-24880000D02*
X1953641Y-24880000D01*
%TO.C,U5*%
D12*
X10845000Y-15230000D02*
G75*
G02*
X10715000Y-15230000I-65000J0D01*
G01*
X10715000Y-15230000D02*
G75*
G02*
X10845000Y-15230000I65000J0D01*
G01*
%TO.C,C54*%
D11*
X20721251Y-13390000D02*
X20198747Y-13390000D01*
X20721251Y-14860000D02*
X20198747Y-14860000D01*
%TO.C,R32*%
X27811359Y-12220000D02*
X28118641Y-12220000D01*
X27811359Y-12980000D02*
X28118641Y-12980000D01*
%TO.C,C71*%
X17448748Y-15765000D02*
X17971252Y-15765000D01*
X17448748Y-17235000D02*
X17971252Y-17235000D01*
%TO.C,C55*%
X12398748Y-7140000D02*
X12921252Y-7140000D01*
X12398748Y-8610000D02*
X12921252Y-8610000D01*
%TO.C,R55*%
X20596359Y-8120000D02*
X20903641Y-8120000D01*
X20596359Y-8880000D02*
X20903641Y-8880000D01*
%TO.C,J3*%
X350000Y-4860000D02*
X2660000Y-4860000D01*
X350000Y-7640000D02*
X2660000Y-7640000D01*
X2660000Y-4860000D02*
X2660000Y-7640000D01*
X4240000Y-5070000D02*
G75*
G02*
X3880000Y-5070000I-180000J0D01*
G01*
X3880000Y-5070000D02*
G75*
G02*
X4240000Y-5070000I180000J0D01*
G01*
%TO.C,R42*%
X21820000Y-16046359D02*
X21820000Y-16353641D01*
X22580000Y-16046359D02*
X22580000Y-16353641D01*
%TO.C,J8*%
X350000Y-20860000D02*
X2660000Y-20860000D01*
X350000Y-23640000D02*
X2660000Y-23640000D01*
X2660000Y-20860000D02*
X2660000Y-23640000D01*
X4240000Y-21070000D02*
G75*
G02*
X3880000Y-21070000I-180000J0D01*
G01*
X3880000Y-21070000D02*
G75*
G02*
X4240000Y-21070000I180000J0D01*
G01*
%TO.C,C75*%
X30665000Y-13238748D02*
X30665000Y-13761252D01*
X32135000Y-13238748D02*
X32135000Y-13761252D01*
%TO.C,J11*%
X26765000Y-20190000D02*
X28565000Y-20190000D01*
X26765000Y-21790000D02*
X26765000Y-20190000D01*
X33435000Y-20190000D02*
X33435000Y-19250000D01*
X33965000Y-24660000D02*
X28035000Y-24660000D01*
X35235000Y-20190000D02*
X33435000Y-20190000D01*
X35235000Y-21790000D02*
X35235000Y-20190000D01*
%TO.C,D2*%
X39965000Y-20015000D02*
X39965000Y-22300000D01*
X41435000Y-20015000D02*
X39965000Y-20015000D01*
X41435000Y-22300000D02*
X41435000Y-20015000D01*
%TO.C,J4*%
X350000Y-7960000D02*
X2660000Y-7960000D01*
X350000Y-10740000D02*
X2660000Y-10740000D01*
X2660000Y-7960000D02*
X2660000Y-10740000D01*
X4240000Y-8170000D02*
G75*
G02*
X3880000Y-8170000I-180000J0D01*
G01*
X3880000Y-8170000D02*
G75*
G02*
X4240000Y-8170000I180000J0D01*
G01*
%TO.C,R15*%
X33170000Y-10746359D02*
X33170000Y-11053641D01*
X33930000Y-10746359D02*
X33930000Y-11053641D01*
%TO.C,R65*%
X33846359Y-6020000D02*
X34153641Y-6020000D01*
X33846359Y-6780000D02*
X34153641Y-6780000D01*
%TO.C,D4*%
X34500000Y-12150000D02*
X35860000Y-12150000D01*
X34500000Y-12950000D02*
X35860000Y-12950000D01*
X35860000Y-12950000D02*
X35860000Y-12150000D01*
%TO.C,R3*%
X19046359Y-17620000D02*
X19353641Y-17620000D01*
X19046359Y-18380000D02*
X19353641Y-18380000D01*
%TO.C,C11*%
X25740000Y-13892164D02*
X25740000Y-14107836D01*
X26460000Y-13892164D02*
X26460000Y-14107836D01*
%TO.C,C30*%
X14990000Y-15892164D02*
X14990000Y-16107836D01*
X15710000Y-15892164D02*
X15710000Y-16107836D01*
%TO.C,C74*%
X31859420Y-7840000D02*
X32140580Y-7840000D01*
X31859420Y-8860000D02*
X32140580Y-8860000D01*
%TO.C,R43*%
X20430000Y-17946359D02*
X20430000Y-18253641D01*
X21190000Y-17946359D02*
X21190000Y-18253641D01*
%TO.C,C73*%
X16400580Y-7460000D02*
X16119420Y-7460000D01*
X16400580Y-8480000D02*
X16119420Y-8480000D01*
%TO.C,C12*%
X25702500Y-11892164D02*
X25702500Y-12107836D01*
X26422500Y-11892164D02*
X26422500Y-12107836D01*
%TO.C,J7*%
X350000Y-17760000D02*
X2660000Y-17760000D01*
X350000Y-20540000D02*
X2660000Y-20540000D01*
X2660000Y-17760000D02*
X2660000Y-20540000D01*
X4240000Y-17970000D02*
G75*
G02*
X3880000Y-17970000I-180000J0D01*
G01*
X3880000Y-17970000D02*
G75*
G02*
X4240000Y-17970000I180000J0D01*
G01*
%TO.C,J6*%
X350000Y-14660000D02*
X2660000Y-14660000D01*
X350000Y-17440000D02*
X2660000Y-17440000D01*
X2660000Y-14660000D02*
X2660000Y-17440000D01*
X4240000Y-14870000D02*
G75*
G02*
X3880000Y-14870000I-180000J0D01*
G01*
X3880000Y-14870000D02*
G75*
G02*
X4240000Y-14870000I180000J0D01*
G01*
%TO.C,J2*%
X350000Y-1760000D02*
X2660000Y-1760000D01*
X350000Y-4540000D02*
X2660000Y-4540000D01*
X2660000Y-1760000D02*
X2660000Y-4540000D01*
X4240000Y-1970000D02*
G75*
G02*
X3880000Y-1970000I-180000J0D01*
G01*
X3880000Y-1970000D02*
G75*
G02*
X4240000Y-1970000I180000J0D01*
G01*
%TO.C,R41*%
X20720000Y-16046359D02*
X20720000Y-16353641D01*
X21480000Y-16046359D02*
X21480000Y-16353641D01*
%TO.C,R68*%
X36296359Y-4670000D02*
X36603641Y-4670000D01*
X36296359Y-5430000D02*
X36603641Y-5430000D01*
%TO.C,R62*%
X33846359Y-4020000D02*
X34153641Y-4020000D01*
X33846359Y-4780000D02*
X34153641Y-4780000D01*
%TO.C,J9*%
X10975000Y-3810000D02*
X10975000Y-5410000D01*
X10975000Y-5410000D02*
X12775000Y-5410000D01*
X12245000Y-940000D02*
X18175000Y-940000D01*
X12775000Y-5410000D02*
X12775000Y-6350000D01*
X19445000Y-3810000D02*
X19445000Y-5410000D01*
X19445000Y-5410000D02*
X17645000Y-5410000D01*
%TO.C,R36*%
X25153641Y-23620000D02*
X24846359Y-23620000D01*
X25153641Y-24380000D02*
X24846359Y-24380000D01*
%TO.C,R1*%
X9246359Y-520000D02*
X9553641Y-520000D01*
X9246359Y-1280000D02*
X9553641Y-1280000D01*
%TO.C,R52*%
X13620000Y-16203641D02*
X13620000Y-15896359D01*
X14380000Y-16203641D02*
X14380000Y-15896359D01*
%TO.C,D1*%
X3600000Y-25265000D02*
X5885000Y-25265000D01*
X5885000Y-23795000D02*
X3600000Y-23795000D01*
X5885000Y-25265000D02*
X5885000Y-23795000D01*
%TO.C,R44*%
X22170000Y-18746359D02*
X22170000Y-19053641D01*
X22930000Y-18746359D02*
X22930000Y-19053641D01*
%TO.C,U14*%
D10*
X22080000Y-8350000D02*
X22080000Y-7450000D01*
X24920000Y-8350000D02*
X24920000Y-7450000D01*
D13*
X22180000Y-8700000D02*
X22180000Y-8520000D01*
X22000000Y-8700000D01*
X22180000Y-8700000D01*
G36*
X22180000Y-8700000D02*
G01*
X22000000Y-8700000D01*
X22180000Y-8520000D01*
X22180000Y-8700000D01*
G37*
%TO.C,R63*%
D11*
X34303641Y-5020000D02*
X33996359Y-5020000D01*
X34303641Y-5780000D02*
X33996359Y-5780000D01*
%TO.C,C64*%
X31789999Y-5790580D02*
X31789999Y-5509420D01*
X32809999Y-5790580D02*
X32809999Y-5509420D01*
%TO.C,R54*%
X18646359Y-7420000D02*
X18953641Y-7420000D01*
X18646359Y-8180000D02*
X18953641Y-8180000D01*
%TO.C,C72*%
X16819420Y-13190000D02*
X17100580Y-13190000D01*
X16819420Y-14210000D02*
X17100580Y-14210000D01*
%TO.C,J12*%
X11350000Y-20890000D02*
X13100000Y-20890000D01*
X11350000Y-21540000D02*
X11350000Y-20890000D01*
X11350000Y-24810000D02*
X11350000Y-24360000D01*
X17320000Y-20890000D02*
X17320000Y-19000000D01*
X19070000Y-20890000D02*
X17320000Y-20890000D01*
X19070000Y-21540000D02*
X19070000Y-20890000D01*
X19070000Y-24360000D02*
X19070000Y-24810000D01*
X19070000Y-24810000D02*
X11350000Y-24810000D01*
%TO.C,C58*%
X19300000Y-11017164D02*
X19300000Y-11232836D01*
X20020000Y-11017164D02*
X20020000Y-11232836D01*
%TO.C,U16*%
X20440000Y-21900000D02*
X20440000Y-21250000D01*
X20440000Y-21900000D02*
X20440000Y-22550000D01*
X23560000Y-21900000D02*
X23560000Y-21250000D01*
X23560000Y-21900000D02*
X23560000Y-22550000D01*
X20490000Y-23062500D02*
X20160000Y-23302500D01*
X20160000Y-22822500D01*
X20490000Y-23062500D01*
G36*
X20490000Y-23062500D02*
G01*
X20160000Y-23302500D01*
X20160000Y-22822500D01*
X20490000Y-23062500D01*
G37*
%TO.C,J1*%
D10*
X36580000Y-15550000D02*
X36820000Y-15750000D01*
X36580000Y-15950000D02*
X36580000Y-15550000D01*
X36820000Y-15750000D02*
X36580000Y-15950000D01*
D11*
X38350000Y-8380000D02*
X39650000Y-8380000D01*
X38350000Y-17620000D02*
X39650000Y-17620000D01*
%TO.C,D3*%
X34500000Y-13450000D02*
X35860000Y-13450000D01*
X34500000Y-14250000D02*
X35860000Y-14250000D01*
X35860000Y-14250000D02*
X35860000Y-13450000D01*
%TO.C,R11*%
X40220000Y-24153641D02*
X40220000Y-23846359D01*
X40980000Y-24153641D02*
X40980000Y-23846359D01*
%TO.C,R2*%
X16753641Y-17620000D02*
X16446359Y-17620000D01*
X16753641Y-18380000D02*
X16446359Y-18380000D01*
%TO.C,D5*%
X35300000Y-15900000D02*
X35300000Y-17260000D01*
X35300000Y-17260000D02*
X36100000Y-17260000D01*
X36100000Y-15900000D02*
X36100000Y-17260000D01*
%TO.C,J5*%
X350000Y-11060000D02*
X2660000Y-11060000D01*
X350000Y-13840000D02*
X2660000Y-13840000D01*
X2660000Y-11060000D02*
X2660000Y-13840000D01*
X4240000Y-11270000D02*
G75*
G02*
X3880000Y-11270000I-180000J0D01*
G01*
X3880000Y-11270000D02*
G75*
G02*
X4240000Y-11270000I180000J0D01*
G01*
%TO.C,J10*%
X20615000Y-3810000D02*
X20615000Y-5410000D01*
X20615000Y-5410000D02*
X22415000Y-5410000D01*
X21885000Y-940000D02*
X27815000Y-940000D01*
X22415000Y-5410000D02*
X22415000Y-6350000D01*
X29085000Y-3810000D02*
X29085000Y-5410000D01*
X29085000Y-5410000D02*
X27285000Y-5410000D01*
%TO.C,U2*%
X21599999Y-12960000D02*
X21599999Y-12785000D01*
X22274999Y-10240000D02*
X21899999Y-10240000D01*
X22274999Y-12960000D02*
X21599999Y-12960000D01*
X24144999Y-10240000D02*
X24819999Y-10240000D01*
X24144999Y-12960000D02*
X24819999Y-12960000D01*
X24819999Y-10240000D02*
X24819999Y-10415000D01*
X24819999Y-12960000D02*
X24819999Y-12785000D01*
X21599999Y-10240000D02*
X21459999Y-10050000D01*
X21739999Y-10050000D01*
X21599999Y-10240000D01*
G36*
X21599999Y-10240000D02*
G01*
X21459999Y-10050000D01*
X21739999Y-10050000D01*
X21599999Y-10240000D01*
G37*
%TO.C,U12*%
X28850000Y-15490000D02*
X28050000Y-15490000D01*
X28850000Y-15490000D02*
X29650000Y-15490000D01*
X28850000Y-18610000D02*
X28050000Y-18610000D01*
X28850000Y-18610000D02*
X29650000Y-18610000D01*
X30150000Y-18560000D02*
X30390000Y-18890000D01*
X29910000Y-18890000D01*
X30150000Y-18560000D01*
G36*
X30390000Y-18890000D02*
G01*
X29910000Y-18890000D01*
X30150000Y-18560000D01*
X30390000Y-18890000D01*
G37*
%TO.C,C10*%
X17692164Y-14640000D02*
X17907836Y-14640000D01*
X17692164Y-15360000D02*
X17907836Y-15360000D01*
%TO.C,R14*%
X34270000Y-16453641D02*
X34270000Y-16146359D01*
X35030000Y-16453641D02*
X35030000Y-16146359D01*
%TO.C,C13*%
X23619419Y-13690000D02*
X23900579Y-13690000D01*
X23619419Y-14710000D02*
X23900579Y-14710000D01*
%TD*%
M02*
