%TF.GenerationSoftware,KiCad,Pcbnew,10.0.6*%
%TF.CreationDate,2026-10-07T12:36:03+00:00*%
%TF.ProjectId,f722-heli,66373232-2d68-4656-9c69-2e6b69636164,rev?*%
%TF.SameCoordinates,Original*%
%TF.FileFunction,Copper,L6,Bot*%
%TF.FilePolarity,Positive*%
%FSLAX46Y46*%
G04 Gerber Fmt 4.6, Leading zero omitted, Abs format (unit mm)*
G04 Created by KiCad (PCBNEW 10.0.6) date 2026-10-07 12:36:03*
%MOMM*%
%LPD*%
G01*
G04 APERTURE LIST*
G04 Aperture macros list*
%AMRoundRect*
0 Rectangle with rounded corners*
0 $1 Rounding radius*
0 $2 $3 $4 $5 $6 $7 $8 $9 X,Y pos of 4 corners*
0 Add a 4 corners polygon primitive as box body*
4,1,4,$2,$3,$4,$5,$6,$7,$8,$9,$2,$3,0*
0 Add four circle primitives for the rounded corners*
1,1,$1+$1,$2,$3*
1,1,$1+$1,$4,$5*
1,1,$1+$1,$6,$7*
1,1,$1+$1,$8,$9*
0 Add four rect primitives between the rounded corners*
20,1,$1+$1,$2,$3,$4,$5,0*
20,1,$1+$1,$4,$5,$6,$7,0*
20,1,$1+$1,$6,$7,$8,$9,0*
20,1,$1+$1,$8,$9,$2,$3,0*%
G04 Aperture macros list end*
%TA.AperFunction,ComponentPad*%
%ADD10R,1.800000X1.800000*%
%TD*%
%TA.AperFunction,ComponentPad*%
%ADD11O,1.800000X1.800000*%
%TD*%
%TA.AperFunction,ComponentPad*%
%ADD12O,1.100000X1.600000*%
%TD*%
%TA.AperFunction,SMDPad,CuDef*%
%ADD13RoundRect,0.135000X0.185000X-0.135000X0.185000X0.135000X-0.185000X0.135000X-0.185000X-0.135000X0*%
%TD*%
%TA.AperFunction,SMDPad,CuDef*%
%ADD14RoundRect,0.140000X0.170000X-0.140000X0.170000X0.140000X-0.170000X0.140000X-0.170000X-0.140000X0*%
%TD*%
%TA.AperFunction,SMDPad,CuDef*%
%ADD15RoundRect,0.050000X-0.175000X-0.100000X0.175000X-0.100000X0.175000X0.100000X-0.175000X0.100000X0*%
%TD*%
%TA.AperFunction,HeatsinkPad*%
%ADD16RoundRect,0.050000X-0.450000X-0.750000X0.450000X-0.750000X0.450000X0.750000X-0.450000X0.750000X0*%
%TD*%
%TA.AperFunction,SMDPad,CuDef*%
%ADD17RoundRect,0.135000X-0.135000X-0.185000X0.135000X-0.185000X0.135000X0.185000X-0.135000X0.185000X0*%
%TD*%
%TA.AperFunction,SMDPad,CuDef*%
%ADD18RoundRect,0.050000X-0.200000X-0.200000X0.200000X-0.200000X0.200000X0.200000X-0.200000X0.200000X0*%
%TD*%
%TA.AperFunction,SMDPad,CuDef*%
%ADD19RoundRect,0.150000X-0.587500X-0.150000X0.587500X-0.150000X0.587500X0.150000X-0.587500X0.150000X0*%
%TD*%
%TA.AperFunction,SMDPad,CuDef*%
%ADD20RoundRect,0.225000X-0.225000X-0.250000X0.225000X-0.250000X0.225000X0.250000X-0.225000X0.250000X0*%
%TD*%
%TA.AperFunction,SMDPad,CuDef*%
%ADD21RoundRect,0.050000X-0.200000X0.200000X-0.200000X-0.200000X0.200000X-0.200000X0.200000X0.200000X0*%
%TD*%
%TA.AperFunction,SMDPad,CuDef*%
%ADD22RoundRect,0.225000X0.250000X-0.225000X0.250000X0.225000X-0.250000X0.225000X-0.250000X-0.225000X0*%
%TD*%
%TA.AperFunction,SMDPad,CuDef*%
%ADD23RoundRect,0.140000X-0.140000X-0.170000X0.140000X-0.170000X0.140000X0.170000X-0.140000X0.170000X0*%
%TD*%
%TA.AperFunction,SMDPad,CuDef*%
%ADD24RoundRect,0.050000X0.200000X0.200000X-0.200000X0.200000X-0.200000X-0.200000X0.200000X-0.200000X0*%
%TD*%
%TA.AperFunction,SMDPad,CuDef*%
%ADD25RoundRect,0.135000X0.135000X0.185000X-0.135000X0.185000X-0.135000X-0.185000X0.135000X-0.185000X0*%
%TD*%
%TA.AperFunction,SMDPad,CuDef*%
%ADD26RoundRect,0.125000X-0.175000X0.125000X-0.175000X-0.125000X0.175000X-0.125000X0.175000X0.125000X0*%
%TD*%
%TA.AperFunction,SMDPad,CuDef*%
%ADD27RoundRect,0.140000X0.140000X0.170000X-0.140000X0.170000X-0.140000X-0.170000X0.140000X-0.170000X0*%
%TD*%
%TA.AperFunction,SMDPad,CuDef*%
%ADD28C,1.000000*%
%TD*%
%TA.AperFunction,SMDPad,CuDef*%
%ADD29RoundRect,0.050000X-0.200000X-0.075000X0.200000X-0.075000X0.200000X0.075000X-0.200000X0.075000X0*%
%TD*%
%TA.AperFunction,HeatsinkPad*%
%ADD30RoundRect,0.050000X-0.400000X-0.750000X0.400000X-0.750000X0.400000X0.750000X-0.400000X0.750000X0*%
%TD*%
%TA.AperFunction,SMDPad,CuDef*%
%ADD31RoundRect,0.130000X-0.520000X-0.570000X0.520000X-0.570000X0.520000X0.570000X-0.520000X0.570000X0*%
%TD*%
%TA.AperFunction,SMDPad,CuDef*%
%ADD32RoundRect,0.250000X0.250000X0.475000X-0.250000X0.475000X-0.250000X-0.475000X0.250000X-0.475000X0*%
%TD*%
%TA.AperFunction,SMDPad,CuDef*%
%ADD33RoundRect,0.150000X0.150000X-0.587500X0.150000X0.587500X-0.150000X0.587500X-0.150000X-0.587500X0*%
%TD*%
%TA.AperFunction,SMDPad,CuDef*%
%ADD34RoundRect,0.050000X0.200000X-0.200000X0.200000X0.200000X-0.200000X0.200000X-0.200000X-0.200000X0*%
%TD*%
%TA.AperFunction,SMDPad,CuDef*%
%ADD35RoundRect,0.250000X-0.250000X-0.475000X0.250000X-0.475000X0.250000X0.475000X-0.250000X0.475000X0*%
%TD*%
%TA.AperFunction,SMDPad,CuDef*%
%ADD36RoundRect,0.225000X0.225000X0.250000X-0.225000X0.250000X-0.225000X-0.250000X0.225000X-0.250000X0*%
%TD*%
%TA.AperFunction,SMDPad,CuDef*%
%ADD37R,0.450000X0.450000*%
%TD*%
%TA.AperFunction,SMDPad,CuDef*%
%ADD38RoundRect,0.050000X0.285000X0.100000X-0.285000X0.100000X-0.285000X-0.100000X0.285000X-0.100000X0*%
%TD*%
%TA.AperFunction,SMDPad,CuDef*%
%ADD39RoundRect,0.125000X-0.200000X-0.125000X0.200000X-0.125000X0.200000X0.125000X-0.200000X0.125000X0*%
%TD*%
%TA.AperFunction,HeatsinkPad*%
%ADD40R,3.400000X4.300000*%
%TD*%
%TA.AperFunction,SMDPad,CuDef*%
%ADD41R,0.900000X2.800000*%
%TD*%
%TA.AperFunction,SMDPad,CuDef*%
%ADD42RoundRect,0.050000X-0.475000X-0.150000X0.475000X-0.150000X0.475000X0.150000X-0.475000X0.150000X0*%
%TD*%
%TA.AperFunction,SMDPad,CuDef*%
%ADD43RoundRect,0.050000X-0.050000X-0.250000X0.050000X-0.250000X0.050000X0.250000X-0.050000X0.250000X0*%
%TD*%
%TA.AperFunction,SMDPad,CuDef*%
%ADD44RoundRect,0.250000X0.350000X-0.450000X0.350000X0.450000X-0.350000X0.450000X-0.350000X-0.450000X0*%
%TD*%
%TA.AperFunction,SMDPad,CuDef*%
%ADD45RoundRect,0.062500X0.117500X0.062500X-0.117500X0.062500X-0.117500X-0.062500X0.117500X-0.062500X0*%
%TD*%
%TA.AperFunction,SMDPad,CuDef*%
%ADD46RoundRect,0.050000X0.175000X0.100000X-0.175000X0.100000X-0.175000X-0.100000X0.175000X-0.100000X0*%
%TD*%
%TA.AperFunction,HeatsinkPad*%
%ADD47RoundRect,0.050000X0.450000X0.750000X-0.450000X0.750000X-0.450000X-0.750000X0.450000X-0.750000X0*%
%TD*%
%TA.AperFunction,SMDPad,CuDef*%
%ADD48RoundRect,0.075000X-0.700000X-0.075000X0.700000X-0.075000X0.700000X0.075000X-0.700000X0.075000X0*%
%TD*%
%TA.AperFunction,SMDPad,CuDef*%
%ADD49RoundRect,0.075000X-0.075000X-0.700000X0.075000X-0.700000X0.075000X0.700000X-0.075000X0.700000X0*%
%TD*%
%TA.AperFunction,SMDPad,CuDef*%
%ADD50RoundRect,0.135000X0.082518X0.213637X-0.178282X0.143756X-0.082518X-0.213637X0.178282X-0.143756X0*%
%TD*%
%TA.AperFunction,SMDPad,CuDef*%
%ADD51RoundRect,0.140000X-0.170000X0.140000X-0.170000X-0.140000X0.170000X-0.140000X0.170000X0.140000X0*%
%TD*%
%TA.AperFunction,SMDPad,CuDef*%
%ADD52RoundRect,0.135000X-0.185000X0.135000X-0.185000X-0.135000X0.185000X-0.135000X0.185000X0.135000X0*%
%TD*%
%TA.AperFunction,SMDPad,CuDef*%
%ADD53RoundRect,0.097500X-0.227500X-0.252500X0.227500X-0.252500X0.227500X0.252500X-0.227500X0.252500X0*%
%TD*%
%TA.AperFunction,SMDPad,CuDef*%
%ADD54RoundRect,0.150000X-0.512500X-0.150000X0.512500X-0.150000X0.512500X0.150000X-0.512500X0.150000X0*%
%TD*%
%TA.AperFunction,SMDPad,CuDef*%
%ADD55RoundRect,0.200000X0.275000X-0.137500X0.275000X0.137500X-0.275000X0.137500X-0.275000X-0.137500X0*%
%TD*%
%TA.AperFunction,ViaPad*%
%ADD56C,0.600000*%
%TD*%
%TA.AperFunction,ViaPad*%
%ADD57C,0.450000*%
%TD*%
%TA.AperFunction,Conductor*%
%ADD58C,0.600000*%
%TD*%
%TA.AperFunction,Conductor*%
%ADD59C,0.200000*%
%TD*%
%TA.AperFunction,Conductor*%
%ADD60C,0.300000*%
%TD*%
%TA.AperFunction,Conductor*%
%ADD61C,0.350000*%
%TD*%
%TA.AperFunction,Conductor*%
%ADD62C,0.450000*%
%TD*%
%TA.AperFunction,Conductor*%
%ADD63C,0.400000*%
%TD*%
%TA.AperFunction,Conductor*%
%ADD64C,0.127000*%
%TD*%
%TA.AperFunction,Conductor*%
%ADD65C,0.500000*%
%TD*%
%TA.AperFunction,Conductor*%
%ADD66C,0.150000*%
%TD*%
%TA.AperFunction,Conductor*%
%ADD67C,1.200000*%
%TD*%
%TA.AperFunction,Conductor*%
%ADD68C,0.800000*%
%TD*%
%TA.AperFunction,Conductor*%
%ADD69C,0.135600*%
%TD*%
%TA.AperFunction,Conductor*%
%ADD70C,0.250000*%
%TD*%
G04 APERTURE END LIST*
D10*
%TO.P,J3,1*%
%TO.N,GND*%
X4060000Y-6250000D03*
D11*
%TO.P,J3,2*%
%TO.N,VX_RAW*%
X6600000Y-6250000D03*
%TO.P,J3,3*%
%TO.N,SERVO2_EXT*%
X9140000Y-6250000D03*
%TD*%
D10*
%TO.P,J8,1*%
%TO.N,GND*%
X4060000Y-22250000D03*
D11*
%TO.P,J8,2*%
%TO.N,VX_RAW*%
X6600000Y-22250000D03*
%TO.P,J8,3*%
%TO.N,SBUS_EXT*%
X9140000Y-22250000D03*
%TD*%
D10*
%TO.P,J4,1*%
%TO.N,GND*%
X4060000Y-9350000D03*
D11*
%TO.P,J4,2*%
%TO.N,VX_RAW*%
X6600000Y-9350000D03*
%TO.P,J4,3*%
%TO.N,SERVO3_EXT*%
X9140000Y-9350000D03*
%TD*%
D10*
%TO.P,J7,1*%
%TO.N,GND*%
X4060000Y-19150000D03*
D11*
%TO.P,J7,2*%
%TO.N,VX_RAW*%
X6600000Y-19150000D03*
%TO.P,J7,3*%
%TO.N,RPM_EXT*%
X9140000Y-19150000D03*
%TD*%
D10*
%TO.P,J6,1*%
%TO.N,GND*%
X4060000Y-16050000D03*
D11*
%TO.P,J6,2*%
%TO.N,VX_RAW*%
X6600000Y-16050000D03*
%TO.P,J6,3*%
%TO.N,ESC_EXT*%
X9140000Y-16050000D03*
%TD*%
D10*
%TO.P,J2,1*%
%TO.N,GND*%
X4060000Y-3150000D03*
D11*
%TO.P,J2,2*%
%TO.N,VX_RAW*%
X6600000Y-3150000D03*
%TO.P,J2,3*%
%TO.N,SERVO1_EXT*%
X9140000Y-3150000D03*
%TD*%
D12*
%TO.P,J1,S1*%
%TO.N,GND*%
X37570000Y-17000000D03*
X40430000Y-17000000D03*
X37570000Y-9000000D03*
X40430000Y-9000000D03*
%TD*%
D10*
%TO.P,J5,1*%
%TO.N,GND*%
X4060000Y-12450000D03*
D11*
%TO.P,J5,2*%
%TO.N,VX_RAW*%
X6600000Y-12450000D03*
%TO.P,J5,3*%
%TO.N,TAIL_EXT*%
X9140000Y-12450000D03*
%TD*%
D13*
%TO.P,R9,1*%
%TO.N,HSE_OUT*%
X13050000Y-10660000D03*
%TO.P,R9,2*%
%TO.N,HSE_XTAL_OUT*%
X13050000Y-9640000D03*
%TD*%
D14*
%TO.P,C19,1*%
%TO.N,HSE_XTAL_OUT*%
X11900000Y-10630000D03*
%TO.P,C19,2*%
%TO.N,GND*%
X11900000Y-9670000D03*
%TD*%
D15*
%TO.P,U11,1*%
%TO.N,+3V3_DSM*%
X19025000Y-23150000D03*
%TO.P,U11,2*%
%TO.N,DSM_ILIM*%
X19025000Y-22500000D03*
%TO.P,U11,3*%
%TO.N,unconnected-(U11-~{FAULT}-Pad3)*%
X19025000Y-21850000D03*
%TO.P,U11,4*%
%TO.N,+3V3_CORE*%
X20975000Y-21850000D03*
%TO.P,U11,5*%
%TO.N,GND*%
X20975000Y-22500000D03*
%TO.P,U11,6*%
%TO.N,+3V3_CORE*%
X20975000Y-23150000D03*
D16*
%TO.P,U11,7*%
%TO.N,GND*%
X20000000Y-22500000D03*
%TD*%
D17*
%TO.P,R33,1*%
%TO.N,PORT_B_TX_EXT*%
X30690000Y-18200000D03*
%TO.P,R33,2*%
%TO.N,PORT_B_TX_MCU*%
X31710000Y-18200000D03*
%TD*%
D18*
%TO.P,R23,1*%
%TO.N,TAIL_EXT*%
X1500000Y-11500000D03*
%TO.P,R23,2*%
%TO.N,TAIL_MCU*%
X2500000Y-11500000D03*
%TD*%
D19*
%TO.P,Q2,1*%
%TO.N,+3V3_CORE*%
X1012500Y-15150000D03*
%TO.P,Q2,2*%
%TO.N,SBUS_LV*%
X1012500Y-13250000D03*
%TO.P,Q2,3*%
%TO.N,SBUS_HV*%
X2887500Y-14200000D03*
%TD*%
D20*
%TO.P,C52,1*%
%TO.N,VX_PROTECTED*%
X11225000Y-17200000D03*
%TO.P,C52,2*%
%TO.N,GND*%
X12775000Y-17200000D03*
%TD*%
D21*
%TO.P,R21,1*%
%TO.N,SERVO2_EXT*%
X800000Y-6600000D03*
%TO.P,R21,2*%
%TO.N,SERVO2_MCU*%
X800000Y-7600000D03*
%TD*%
D22*
%TO.P,C69,1*%
%TO.N,+3V3_CORE*%
X22300000Y-23075000D03*
%TO.P,C69,2*%
%TO.N,GND*%
X22300000Y-21525000D03*
%TD*%
D23*
%TO.P,C6,1*%
%TO.N,+3V3_CORE*%
X15020000Y-21350000D03*
%TO.P,C6,2*%
%TO.N,GND*%
X15980000Y-21350000D03*
%TD*%
D17*
%TO.P,R57,1*%
%TO.N,VX_PROTECTED*%
X6490000Y-4700000D03*
%TO.P,R57,2*%
%TO.N,ABC_EN*%
X7510000Y-4700000D03*
%TD*%
D24*
%TO.P,R20,1*%
%TO.N,SERVO1_EXT*%
X1600000Y-4700000D03*
%TO.P,R20,2*%
%TO.N,SERVO1_MCU*%
X600000Y-4700000D03*
%TD*%
D25*
%TO.P,R35,1*%
%TO.N,PORT_C_TX_EXT*%
X33710000Y-18100000D03*
%TO.P,R35,2*%
%TO.N,PORT_C_TX_MCU*%
X32690000Y-18100000D03*
%TD*%
D26*
%TO.P,C60,1*%
%TO.N,USB_LIMITED*%
X14100000Y-6250000D03*
%TO.P,C60,2*%
%TO.N,GND*%
X14100000Y-7150000D03*
%TD*%
D14*
%TO.P,C14,1*%
%TO.N,+3V3_CORE*%
X39900000Y-24680000D03*
%TO.P,C14,2*%
%TO.N,GND*%
X39900000Y-23720000D03*
%TD*%
D23*
%TO.P,C17,1*%
%TO.N,+3V3_CORE*%
X1120000Y-24150000D03*
%TO.P,C17,2*%
%TO.N,GND*%
X2080000Y-24150000D03*
%TD*%
D27*
%TO.P,C18,1*%
%TO.N,HSE_IN*%
X12380000Y-16000000D03*
%TO.P,C18,2*%
%TO.N,GND*%
X11420000Y-16000000D03*
%TD*%
D17*
%TO.P,R69,1*%
%TO.N,USB_VBUS_RAW*%
X31789999Y-9200000D03*
%TO.P,R69,2*%
%TO.N,GND*%
X32809999Y-9200000D03*
%TD*%
D28*
%TO.P,TP1,1*%
%TO.N,SWDIO*%
X29885000Y-17000000D03*
%TD*%
D20*
%TO.P,C51,1*%
%TO.N,VX_RAW*%
X7095000Y-14325000D03*
%TO.P,C51,2*%
%TO.N,GND*%
X8645000Y-14325000D03*
%TD*%
D27*
%TO.P,C9,1*%
%TO.N,+3V3_ANALOG*%
X12830000Y-8475000D03*
%TO.P,C9,2*%
%TO.N,GND*%
X11870000Y-8475000D03*
%TD*%
D29*
%TO.P,U9,1*%
%TO.N,GND*%
X27910000Y-3250000D03*
%TO.P,U9,2*%
%TO.N,CORE_BUCK_IN*%
X27910000Y-2750000D03*
%TO.P,U9,3*%
X27910000Y-2250000D03*
%TO.P,U9,4*%
%TO.N,GND*%
X27910000Y-1750000D03*
%TO.P,U9,5*%
X29810000Y-1750000D03*
%TO.P,U9,6*%
%TO.N,+3V3_CORE*%
X29810000Y-2250000D03*
%TO.P,U9,7*%
%TO.N,CORE_SW*%
X29810000Y-2750000D03*
%TO.P,U9,8*%
%TO.N,unconnected-(U9-PG-Pad8)*%
X29810000Y-3250000D03*
D30*
%TO.P,U9,9*%
%TO.N,GND*%
X28860000Y-2500000D03*
%TD*%
D20*
%TO.P,C5,1*%
%TO.N,+3V3_CORE*%
X20125000Y-4600000D03*
%TO.P,C5,2*%
%TO.N,GND*%
X21675000Y-4600000D03*
%TD*%
D31*
%TO.P,D8,1*%
%TO.N,USB_VBUS_RAW*%
X28650000Y-15000000D03*
%TO.P,D8,2*%
%TO.N,GND*%
X31550000Y-15000000D03*
%TD*%
D32*
%TO.P,C66,1*%
%TO.N,CORE_BUCK_IN*%
X26310000Y-2400000D03*
%TO.P,C66,2*%
%TO.N,GND*%
X24410000Y-2400000D03*
%TD*%
D28*
%TO.P,TP2,1*%
%TO.N,SWCLK*%
X34010000Y-16524999D03*
%TD*%
D17*
%TO.P,R50,1*%
%TO.N,VX_RAW*%
X6690000Y-20700000D03*
%TO.P,R50,2*%
%TO.N,EFUSE_EN*%
X7710000Y-20700000D03*
%TD*%
D33*
%TO.P,Q1,1*%
%TO.N,+3V3_CORE*%
X25950000Y-23387500D03*
%TO.P,Q1,2*%
%TO.N,RPM_LV*%
X24050000Y-23387500D03*
%TO.P,Q1,3*%
%TO.N,RPM_HV*%
X25000000Y-21512500D03*
%TD*%
D22*
%TO.P,C20,1*%
%TO.N,USB_VBUS_RAW*%
X31900000Y-12775000D03*
%TO.P,C20,2*%
%TO.N,GND*%
X31900000Y-11225000D03*
%TD*%
D31*
%TO.P,D9,1*%
%TO.N,VX_RAW*%
X10950000Y-1600000D03*
%TO.P,D9,2*%
%TO.N,GND*%
X13850000Y-1600000D03*
%TD*%
D34*
%TO.P,FB1,1*%
%TO.N,+3V3_CORE*%
X10740000Y-9250000D03*
%TO.P,FB1,2*%
%TO.N,+3V3_ANALOG*%
X10740000Y-8350000D03*
%TD*%
D22*
%TO.P,C59,1*%
%TO.N,+5V_BEC*%
X18200000Y-5125000D03*
%TO.P,C59,2*%
%TO.N,GND*%
X18200000Y-3575000D03*
%TD*%
D17*
%TO.P,R71,1*%
%TO.N,+3V3_CORE*%
X32890000Y-14400000D03*
%TO.P,R71,2*%
%TO.N,DSM_RX_MCU*%
X33910000Y-14400000D03*
%TD*%
D23*
%TO.P,C31,1*%
%TO.N,ADC_BUS*%
X13520000Y-24100000D03*
%TO.P,C31,2*%
%TO.N,GND*%
X14480000Y-24100000D03*
%TD*%
D35*
%TO.P,C53,1*%
%TO.N,VX_PROTECTED*%
X20850000Y-1100000D03*
%TO.P,C53,2*%
%TO.N,GND*%
X22750000Y-1100000D03*
%TD*%
D17*
%TO.P,R4,1*%
%TO.N,+3V3_CORE*%
X25990000Y-20250000D03*
%TO.P,R4,2*%
%TO.N,FLASH_CS*%
X27010000Y-20250000D03*
%TD*%
D13*
%TO.P,R34,1*%
%TO.N,PORT_C_RX_EXT*%
X29650000Y-20810000D03*
%TO.P,R34,2*%
%TO.N,PORT_C_RX_MCU*%
X29650000Y-19790000D03*
%TD*%
D36*
%TO.P,C68,1*%
%TO.N,USB_LIMITED*%
X35525000Y-9800000D03*
%TO.P,C68,2*%
%TO.N,GND*%
X33975000Y-9800000D03*
%TD*%
D18*
%TO.P,R24,1*%
%TO.N,ESC_EXT*%
X1500000Y-16700000D03*
%TO.P,R24,2*%
%TO.N,ESC_MCU*%
X2500000Y-16700000D03*
%TD*%
D37*
%TO.P,U4,1*%
%TO.N,GND*%
X2325000Y-21675000D03*
%TO.P,U4,2*%
%TO.N,+3V3_CORE*%
X2325000Y-21025000D03*
%TO.P,U4,3*%
%TO.N,BARO_SDA*%
X2325000Y-20375000D03*
%TO.P,U4,4*%
%TO.N,BARO_SCL*%
X2325000Y-19725000D03*
%TO.P,U4,5*%
%TO.N,GND*%
X875000Y-19725000D03*
%TO.P,U4,6*%
%TO.N,+3V3_CORE*%
X875000Y-20375000D03*
%TO.P,U4,7*%
%TO.N,GND*%
X875000Y-21025000D03*
%TO.P,U4,8*%
%TO.N,+3V3_CORE*%
X875000Y-21675000D03*
%TD*%
D17*
%TO.P,R60,1*%
%TO.N,VX_PROTECTED*%
X28790000Y-700000D03*
%TO.P,R60,2*%
%TO.N,CORE_PRIORITY*%
X29810000Y-700000D03*
%TD*%
D38*
%TO.P,U7,1*%
%TO.N,GND*%
X16840000Y-4850000D03*
%TO.P,U7,2*%
%TO.N,+5V_PERIPH*%
X16840000Y-5350000D03*
%TO.P,U7,3*%
%TO.N,+5V_BEC*%
X16840000Y-5850000D03*
%TO.P,U7,4*%
%TO.N,ABC_PG*%
X16840000Y-6350000D03*
%TO.P,U7,5*%
%TO.N,+5V_BEC*%
X15360000Y-6350000D03*
%TO.P,U7,6*%
%TO.N,USB_LIMITED*%
X15360000Y-5850000D03*
%TO.P,U7,7*%
%TO.N,+5V_PERIPH*%
X15360000Y-5350000D03*
%TO.P,U7,8*%
%TO.N,unconnected-(U7-ST-Pad8)*%
X15360000Y-4850000D03*
%TD*%
D39*
%TO.P,U3,1*%
%TO.N,FLASH_CS*%
X30950000Y-23905000D03*
%TO.P,U3,2*%
%TO.N,FLASH_MISO*%
X30950000Y-22635000D03*
%TO.P,U3,3*%
%TO.N,FLASH_WP_N*%
X30950000Y-21365000D03*
%TO.P,U3,4*%
%TO.N,GND*%
X30950000Y-20095000D03*
%TO.P,U3,5*%
%TO.N,FLASH_MOSI*%
X38450000Y-20095000D03*
%TO.P,U3,6*%
%TO.N,FLASH_SCK*%
X38450000Y-21365000D03*
%TO.P,U3,7*%
%TO.N,FLASH_HOLD_N*%
X38450000Y-22635000D03*
%TO.P,U3,8*%
%TO.N,+3V3_CORE*%
X38450000Y-23905000D03*
D40*
%TO.P,U3,9*%
%TO.N,GND*%
X34700000Y-22000000D03*
%TD*%
D41*
%TO.P,L2,1*%
%TO.N,CORE_SW*%
X31660000Y-2500000D03*
%TO.P,L2,2*%
%TO.N,+3V3_CORE*%
X34460000Y-2500000D03*
%TD*%
D23*
%TO.P,C50,1*%
%TO.N,EFUSE_DVDT*%
X11420000Y-19100000D03*
%TO.P,C50,2*%
%TO.N,GND*%
X12380000Y-19100000D03*
%TD*%
%TO.P,C1,1*%
%TO.N,+3V3_CORE*%
X18029999Y-6300000D03*
%TO.P,C1,2*%
%TO.N,GND*%
X18989999Y-6300000D03*
%TD*%
D36*
%TO.P,C7,1*%
%TO.N,VCAP_CAP*%
X21775000Y-6150000D03*
%TO.P,C7,2*%
%TO.N,GND*%
X20225000Y-6150000D03*
%TD*%
D42*
%TO.P,U8,1*%
%TO.N,CORE_BUCK_IN*%
X28825000Y-6150000D03*
%TO.P,U8,2*%
%TO.N,USB_LIMITED*%
X28825000Y-5450000D03*
D43*
%TO.P,U8,3*%
%TO.N,CORE_REF*%
X28750000Y-4650000D03*
%TO.P,U8,4*%
%TO.N,GND*%
X29250000Y-4650000D03*
%TO.P,U8,5*%
X29750000Y-4650000D03*
%TO.P,U8,6*%
%TO.N,CORE_PRIORITY*%
X30250000Y-4650000D03*
D42*
%TO.P,U8,7*%
%TO.N,VX_PROTECTED*%
X30175000Y-5450000D03*
%TO.P,U8,8*%
%TO.N,CORE_BUCK_IN*%
X30175000Y-6150000D03*
D43*
%TO.P,U8,9*%
%TO.N,CORE_MUX_ST*%
X30250000Y-6950000D03*
%TO.P,U8,10*%
%TO.N,CORE_ILIM*%
X29750000Y-6950000D03*
%TO.P,U8,11*%
%TO.N,CORE_SS*%
X29250000Y-6950000D03*
%TO.P,U8,12*%
%TO.N,GND*%
X28750000Y-6950000D03*
%TD*%
D35*
%TO.P,C57,1*%
%TO.N,+5V_BEC*%
X10850000Y-6725000D03*
%TO.P,C57,2*%
%TO.N,GND*%
X12750000Y-6725000D03*
%TD*%
D14*
%TO.P,C3,1*%
%TO.N,+3V3_CORE*%
X28250000Y-17980000D03*
%TO.P,C3,2*%
%TO.N,GND*%
X28250000Y-17020000D03*
%TD*%
D44*
%TO.P,Y1,1*%
%TO.N,HSE_IN*%
X11050000Y-14400000D03*
%TO.P,Y1,2*%
%TO.N,GND*%
X11050000Y-12200000D03*
%TO.P,Y1,3*%
%TO.N,HSE_XTAL_OUT*%
X12750000Y-12200000D03*
%TO.P,Y1,4*%
%TO.N,GND*%
X12750000Y-14400000D03*
%TD*%
D45*
%TO.P,D7,1*%
%TO.N,DSM_RX_EXT*%
X13580000Y-19450000D03*
%TO.P,D7,2*%
%TO.N,GND*%
X14420000Y-19450000D03*
%TD*%
D36*
%TO.P,C70,1*%
%TO.N,+3V3_DSM*%
X19225000Y-24600000D03*
%TO.P,C70,2*%
%TO.N,GND*%
X17675000Y-24600000D03*
%TD*%
D46*
%TO.P,U10,1*%
%TO.N,USB_LIMITED*%
X35575000Y-11350000D03*
%TO.P,U10,2*%
%TO.N,USB_ILIM*%
X35575000Y-12000000D03*
%TO.P,U10,3*%
%TO.N,unconnected-(U10-~{FAULT}-Pad3)*%
X35575000Y-12650000D03*
%TO.P,U10,4*%
%TO.N,USB_VBUS_RAW*%
X33625000Y-12650000D03*
%TO.P,U10,5*%
%TO.N,GND*%
X33625000Y-12000000D03*
%TO.P,U10,6*%
%TO.N,USB_VBUS_RAW*%
X33625000Y-11350000D03*
D47*
%TO.P,U10,7*%
%TO.N,GND*%
X34600000Y-12000000D03*
%TD*%
D23*
%TO.P,C16,1*%
%TO.N,+3V3_CORE*%
X1120000Y-22950000D03*
%TO.P,C16,2*%
%TO.N,GND*%
X2080000Y-22950000D03*
%TD*%
D13*
%TO.P,R6,1*%
%TO.N,+3V3_CORE*%
X27285000Y-22160000D03*
%TO.P,R6,2*%
%TO.N,FLASH_HOLD_N*%
X27285000Y-21140000D03*
%TD*%
D17*
%TO.P,R37,1*%
%TO.N,+3V3_CORE*%
X8990000Y-24400000D03*
%TO.P,R37,2*%
%TO.N,SBUS_LV*%
X10010000Y-24400000D03*
%TD*%
D35*
%TO.P,C56,1*%
%TO.N,+5V_BEC*%
X10850000Y-4650000D03*
%TO.P,C56,2*%
%TO.N,GND*%
X12750000Y-4650000D03*
%TD*%
D48*
%TO.P,U1,1*%
%TO.N,+3V3_CORE*%
X15284999Y-17550000D03*
%TO.P,U1,2*%
%TO.N,unconnected-(U1-PC13-Pad2)*%
X15284999Y-17050000D03*
%TO.P,U1,3*%
%TO.N,LED_GREEN_K*%
X15284999Y-16550000D03*
%TO.P,U1,4*%
%TO.N,LED_RED_K*%
X15284999Y-16050000D03*
%TO.P,U1,5*%
%TO.N,HSE_IN*%
X15284999Y-15550000D03*
%TO.P,U1,6*%
%TO.N,HSE_OUT*%
X15284999Y-15050000D03*
%TO.P,U1,7*%
%TO.N,NRST*%
X15284999Y-14550000D03*
%TO.P,U1,8*%
%TO.N,unconnected-(U1-PC0-Pad8)*%
X15284999Y-14050000D03*
%TO.P,U1,9*%
%TO.N,ADC_BEC*%
X15284999Y-13550000D03*
%TO.P,U1,10*%
%TO.N,ADC_BUS*%
X15284999Y-13050000D03*
%TO.P,U1,11*%
%TO.N,unconnected-(U1-PC3-Pad11)*%
X15284999Y-12550000D03*
%TO.P,U1,12*%
%TO.N,GND*%
X15284999Y-12050000D03*
%TO.P,U1,13*%
%TO.N,+3V3_ANALOG*%
X15284999Y-11550000D03*
%TO.P,U1,14*%
%TO.N,PORT_A_RX_MCU*%
X15284999Y-11050000D03*
%TO.P,U1,15*%
%TO.N,PORT_A_TX_MCU*%
X15284999Y-10550000D03*
%TO.P,U1,16*%
%TO.N,RPM_MCU*%
X15284999Y-10050000D03*
D49*
%TO.P,U1,17*%
%TO.N,SBUS_MCU*%
X17209999Y-8125000D03*
%TO.P,U1,18*%
%TO.N,GND*%
X17709999Y-8125000D03*
%TO.P,U1,19*%
%TO.N,+3V3_CORE*%
X18209999Y-8125000D03*
%TO.P,U1,20*%
%TO.N,IMU_CS*%
X18709999Y-8125000D03*
%TO.P,U1,21*%
%TO.N,IMU_SCK*%
X19209999Y-8125000D03*
%TO.P,U1,22*%
%TO.N,IMU_MISO*%
X19709999Y-8125000D03*
%TO.P,U1,23*%
%TO.N,IMU_MOSI*%
X20209999Y-8125000D03*
%TO.P,U1,24*%
%TO.N,unconnected-(U1-PC4-Pad24)*%
X20709999Y-8125000D03*
%TO.P,U1,25*%
%TO.N,SERVO3_MCU*%
X21209999Y-8125000D03*
%TO.P,U1,26*%
%TO.N,unconnected-(U1-PB1-Pad26)*%
X21709999Y-8125000D03*
%TO.P,U1,27*%
%TO.N,unconnected-(U1-PB2-Pad27)*%
X22209999Y-8125000D03*
%TO.P,U1,28*%
%TO.N,PORT_C_RX_MCU*%
X22709999Y-8125000D03*
%TO.P,U1,29*%
%TO.N,PORT_C_TX_MCU*%
X23209999Y-8125000D03*
%TO.P,U1,30*%
%TO.N,VCAP*%
X23709999Y-8125000D03*
%TO.P,U1,31*%
%TO.N,GND*%
X24209999Y-8125000D03*
%TO.P,U1,32*%
%TO.N,+3V3_CORE*%
X24709999Y-8125000D03*
D48*
%TO.P,U1,33*%
%TO.N,FLASH_CS*%
X26634999Y-10050000D03*
%TO.P,U1,34*%
%TO.N,FLASH_SCK*%
X26634999Y-10550000D03*
%TO.P,U1,35*%
%TO.N,FLASH_MISO*%
X26634999Y-11050000D03*
%TO.P,U1,36*%
%TO.N,FLASH_MOSI*%
X26634999Y-11550000D03*
%TO.P,U1,37*%
%TO.N,PORT_B_RX_MCU*%
X26634999Y-12050000D03*
%TO.P,U1,38*%
%TO.N,PORT_B_TX_MCU*%
X26634999Y-12550000D03*
%TO.P,U1,39*%
%TO.N,unconnected-(U1-PC8-Pad39)*%
X26634999Y-13050000D03*
%TO.P,U1,40*%
%TO.N,unconnected-(U1-PC9-Pad40)*%
X26634999Y-13550000D03*
%TO.P,U1,41*%
%TO.N,unconnected-(U1-PA8-Pad41)*%
X26634999Y-14050000D03*
%TO.P,U1,42*%
%TO.N,unconnected-(U1-PA9-Pad42)*%
X26634999Y-14550000D03*
%TO.P,U1,43*%
%TO.N,DSM_RX_MCU*%
X26634999Y-15050000D03*
%TO.P,U1,44*%
%TO.N,USB_N*%
X26634999Y-15550000D03*
%TO.P,U1,45*%
%TO.N,USB_P*%
X26634999Y-16050000D03*
%TO.P,U1,46*%
%TO.N,SWDIO*%
X26634999Y-16550000D03*
%TO.P,U1,47*%
%TO.N,GND*%
X26634999Y-17050000D03*
%TO.P,U1,48*%
%TO.N,+3V3_CORE*%
X26634999Y-17550000D03*
D49*
%TO.P,U1,49*%
%TO.N,SWCLK*%
X24709999Y-19475000D03*
%TO.P,U1,50*%
%TO.N,IMU_INT*%
X24209999Y-19475000D03*
%TO.P,U1,51*%
%TO.N,unconnected-(U1-PC10-Pad51)*%
X23709999Y-19475000D03*
%TO.P,U1,52*%
%TO.N,unconnected-(U1-PC11-Pad52)*%
X23209999Y-19475000D03*
%TO.P,U1,53*%
%TO.N,unconnected-(U1-PC12-Pad53)*%
X22709999Y-19475000D03*
%TO.P,U1,54*%
%TO.N,unconnected-(U1-PD2-Pad54)*%
X22209999Y-19475000D03*
%TO.P,U1,55*%
%TO.N,TAIL_MCU*%
X21709999Y-19475000D03*
%TO.P,U1,56*%
%TO.N,SERVO1_MCU*%
X21209999Y-19475000D03*
%TO.P,U1,57*%
%TO.N,SERVO2_MCU*%
X20709999Y-19475000D03*
%TO.P,U1,58*%
%TO.N,ESC_MCU*%
X20209999Y-19475000D03*
%TO.P,U1,59*%
%TO.N,unconnected-(U1-PB7-Pad59)*%
X19709999Y-19475000D03*
%TO.P,U1,60*%
%TO.N,BOOT0*%
X19209999Y-19475000D03*
%TO.P,U1,61*%
%TO.N,BARO_SCL*%
X18709999Y-19475000D03*
%TO.P,U1,62*%
%TO.N,BARO_SDA*%
X18209999Y-19475000D03*
%TO.P,U1,63*%
%TO.N,GND*%
X17709999Y-19475000D03*
%TO.P,U1,64*%
%TO.N,+3V3_CORE*%
X17209999Y-19475000D03*
%TD*%
D50*
%TO.P,R56,1*%
%TO.N,+5V_BEC*%
X15272622Y-3418002D03*
%TO.P,R56,2*%
%TO.N,ABC_PG*%
X14287378Y-3681998D03*
%TD*%
D51*
%TO.P,C62,1*%
%TO.N,CORE_SS*%
X29380000Y-8050000D03*
%TO.P,C62,2*%
%TO.N,GND*%
X29380000Y-9010000D03*
%TD*%
D52*
%TO.P,R8,1*%
%TO.N,+3V3_CORE*%
X2400000Y-2640000D03*
%TO.P,R8,2*%
%TO.N,BARO_SDA*%
X2400000Y-3660000D03*
%TD*%
D24*
%TO.P,R53,1*%
%TO.N,VX_PROTECTED*%
X5700000Y-17600000D03*
%TO.P,R53,2*%
%TO.N,GND*%
X4700000Y-17600000D03*
%TD*%
D17*
%TO.P,R61,1*%
%TO.N,CORE_PRIORITY*%
X33790000Y-7800000D03*
%TO.P,R61,2*%
%TO.N,GND*%
X34810000Y-7800000D03*
%TD*%
D25*
%TO.P,R51,1*%
%TO.N,EFUSE_OVC*%
X9110000Y-17600000D03*
%TO.P,R51,2*%
%TO.N,GND*%
X8090000Y-17600000D03*
%TD*%
D34*
%TO.P,R22,1*%
%TO.N,SERVO3_EXT*%
X2400000Y-9850000D03*
%TO.P,R22,2*%
%TO.N,SERVO3_MCU*%
X2400000Y-8850000D03*
%TD*%
D53*
%TO.P,SW1,1*%
%TO.N,+3V3_CORE*%
X37925000Y-14050000D03*
X40875000Y-14050000D03*
%TO.P,SW1,2*%
%TO.N,BOOT0*%
X37925000Y-12150000D03*
X40875000Y-12150000D03*
%TD*%
D25*
%TO.P,R30,1*%
%TO.N,PORT_A_RX_EXT*%
X6110000Y-800000D03*
%TO.P,R30,2*%
%TO.N,PORT_A_RX_MCU*%
X5090000Y-800000D03*
%TD*%
%TO.P,R67,1*%
%TO.N,USB_ILIM*%
X36410000Y-14100000D03*
%TO.P,R67,2*%
%TO.N,GND*%
X35390000Y-14100000D03*
%TD*%
D54*
%TO.P,U13,1*%
%TO.N,ESC_MCU*%
X11062500Y-22350000D03*
%TO.P,U13,2*%
%TO.N,GND*%
X11062500Y-21400000D03*
%TO.P,U13,3*%
%TO.N,RPM_MCU*%
X11062500Y-20450000D03*
%TO.P,U13,4*%
%TO.N,unconnected-(U13-I{slash}O3-Pad4)*%
X13337500Y-20450000D03*
%TO.P,U13,5*%
%TO.N,+3V3_CORE*%
X13337500Y-21400000D03*
%TO.P,U13,6*%
%TO.N,SBUS_MCU*%
X13337500Y-22350000D03*
%TD*%
D22*
%TO.P,C15,1*%
%TO.N,+3V3_CORE*%
X39900000Y-22175000D03*
%TO.P,C15,2*%
%TO.N,GND*%
X39900000Y-20625000D03*
%TD*%
D28*
%TO.P,TP3,1*%
%TO.N,+3V3_CORE*%
X800000Y-10100000D03*
%TD*%
D17*
%TO.P,R64,1*%
%TO.N,+3V3_CORE*%
X22140000Y-3300000D03*
%TO.P,R64,2*%
%TO.N,CORE_MUX_ST*%
X23160000Y-3300000D03*
%TD*%
D22*
%TO.P,C61,1*%
%TO.N,+5V_PERIPH*%
X16649999Y-3075000D03*
%TO.P,C61,2*%
%TO.N,GND*%
X16649999Y-1525000D03*
%TD*%
D14*
%TO.P,C2,1*%
%TO.N,+3V3_CORE*%
X26250000Y-7550000D03*
%TO.P,C2,2*%
%TO.N,GND*%
X26250000Y-6590000D03*
%TD*%
D55*
%TO.P,R16,1*%
%TO.N,VCAP*%
X24350000Y-6342500D03*
%TO.P,R16,2*%
%TO.N,VCAP_CAP*%
X24350000Y-4817500D03*
%TD*%
D28*
%TO.P,TP4,1*%
%TO.N,GND*%
X900000Y-1900000D03*
%TD*%
D17*
%TO.P,R39,1*%
%TO.N,RPM_LV*%
X8690000Y-20700000D03*
%TO.P,R39,2*%
%TO.N,RPM_MCU*%
X9710000Y-20700000D03*
%TD*%
D13*
%TO.P,R58,1*%
%TO.N,+5V_BEC*%
X15335000Y-2310000D03*
%TO.P,R58,2*%
%TO.N,GND*%
X15335000Y-1290000D03*
%TD*%
D17*
%TO.P,R66,1*%
%TO.N,CORE_ILIM*%
X30270000Y-8180000D03*
%TO.P,R66,2*%
%TO.N,GND*%
X31290000Y-8180000D03*
%TD*%
D23*
%TO.P,C4,1*%
%TO.N,+3V3_CORE*%
X17030000Y-21200000D03*
%TO.P,C4,2*%
%TO.N,GND*%
X17990000Y-21200000D03*
%TD*%
D17*
%TO.P,R7,1*%
%TO.N,+3V3_CORE*%
X3790000Y-20700000D03*
%TO.P,R7,2*%
%TO.N,BARO_SCL*%
X4810000Y-20700000D03*
%TD*%
D52*
%TO.P,R38,1*%
%TO.N,DSM_RX_EXT*%
X4400000Y-23840000D03*
%TO.P,R38,2*%
%TO.N,DSM_RX_MCU*%
X4400000Y-24860000D03*
%TD*%
D32*
%TO.P,C67,1*%
%TO.N,+3V3_CORE*%
X34010000Y-5400000D03*
%TO.P,C67,2*%
%TO.N,GND*%
X32110000Y-5400000D03*
%TD*%
D13*
%TO.P,R5,1*%
%TO.N,+3V3_CORE*%
X27285000Y-24510000D03*
%TO.P,R5,2*%
%TO.N,FLASH_WP_N*%
X27285000Y-23490000D03*
%TD*%
D36*
%TO.P,C65,1*%
%TO.N,USB_LIMITED*%
X27345000Y-5400000D03*
%TO.P,C65,2*%
%TO.N,GND*%
X25795000Y-5400000D03*
%TD*%
D27*
%TO.P,C63,1*%
%TO.N,CORE_REF*%
X26930000Y-4050000D03*
%TO.P,C63,2*%
%TO.N,GND*%
X25970000Y-4050000D03*
%TD*%
D17*
%TO.P,R45,1*%
%TO.N,SBUS_LV*%
X11265000Y-23925000D03*
%TO.P,R45,2*%
%TO.N,SBUS_MCU*%
X12285000Y-23925000D03*
%TD*%
D25*
%TO.P,R70,1*%
%TO.N,DSM_ILIM*%
X17810000Y-22800000D03*
%TO.P,R70,2*%
%TO.N,GND*%
X16790000Y-22800000D03*
%TD*%
D56*
%TO.N,GND*%
X14500000Y-18925000D03*
X23650000Y-600000D03*
D57*
X600000Y-9000000D03*
X38900000Y-12100000D03*
X19175000Y-6975000D03*
D56*
X13700000Y-17655000D03*
D57*
X34800000Y-8500000D03*
X21350000Y-21262500D03*
D56*
X20000000Y-23800000D03*
D57*
X8465000Y-13525000D03*
X30850000Y-3500000D03*
X19900000Y-7000000D03*
X16379999Y-15300000D03*
X22300000Y-5350000D03*
X28900000Y-11345000D03*
D56*
X4500000Y-14725000D03*
X23250000Y-21400000D03*
D57*
X600000Y-3000000D03*
X15075000Y-24125000D03*
D56*
X28040000Y-21000000D03*
D57*
X15975000Y-22000000D03*
X25375000Y-11430000D03*
X39100000Y-13950000D03*
D56*
X37500000Y-18575000D03*
X13550000Y-9025000D03*
D57*
X40500000Y-19600000D03*
D56*
X27370000Y-7295000D03*
X23380000Y-6730000D03*
D57*
X18515000Y-12475000D03*
X30850000Y-4000000D03*
D56*
X33605000Y-8905000D03*
X31000000Y-16810000D03*
X34600000Y-13350000D03*
D57*
X38300000Y-6150000D03*
X30120000Y-14200000D03*
D56*
X28400000Y-4000000D03*
D57*
X25200000Y-4099999D03*
X17760000Y-10300000D03*
X28880000Y-16940000D03*
X16700000Y-18600000D03*
X18400000Y-14325000D03*
X28450000Y-20700000D03*
D56*
X14925000Y-575000D03*
D57*
X36750000Y-23725000D03*
X22600000Y-20610000D03*
X500000Y-19100000D03*
D56*
X19250000Y-15450000D03*
D57*
X2725000Y-22950000D03*
D56*
X33600000Y-24600000D03*
D57*
X28730000Y-7620000D03*
X37460000Y-5550000D03*
X17850000Y-4325000D03*
X24525000Y-9850000D03*
X12050000Y-21400000D03*
X1875000Y-18325000D03*
D56*
X14950000Y-6950000D03*
D57*
X10200000Y-19850000D03*
X25375000Y-12900000D03*
X16750000Y-24840000D03*
D56*
X10550000Y-3375000D03*
X24000000Y-3525000D03*
X17550000Y-1400000D03*
D57*
X39200000Y-23100000D03*
D56*
X34000000Y-15500000D03*
D57*
X20600000Y-16210000D03*
X19005000Y-9795000D03*
X1800000Y-1700000D03*
X10200000Y-15350000D03*
X8240000Y-16975000D03*
D56*
X30775000Y-11400000D03*
D57*
%TO.N,ABC_PG*%
X17350000Y-6725000D03*
X20195000Y-11125000D03*
X10600000Y-2700000D03*
X10018870Y-5344675D03*
X14200000Y-9300000D03*
D56*
%TO.N,+5V_BEC*%
X16000000Y-6850000D03*
X16600000Y-6970000D03*
X11750000Y-5400000D03*
X14650000Y-8700000D03*
X11750000Y-6000000D03*
%TO.N,VX_PROTECTED*%
X14007107Y-2792893D03*
X13300000Y-3500000D03*
X17722354Y-17110222D03*
X10600000Y-10200000D03*
X33299999Y-7150000D03*
X22100000Y-2200000D03*
X31125000Y-5450000D03*
X10700000Y-18300000D03*
X10700000Y-18900000D03*
D57*
X26000000Y-500000D03*
D56*
X10600000Y-10800000D03*
X22300000Y-13375000D03*
X11800000Y-4350000D03*
D57*
X8600000Y-4300000D03*
D56*
X17877646Y-17689778D03*
X16900000Y-14280000D03*
D57*
X7875000Y-16175000D03*
%TO.N,ABC_EN*%
X17050000Y-13050000D03*
X9950000Y-13430000D03*
X5320000Y-6150000D03*
X8450000Y-4865000D03*
X7900000Y-10290000D03*
%TO.N,VX_RAW*%
X19425000Y-12600000D03*
X18575000Y-6975000D03*
X20300000Y-12275000D03*
D56*
X11800000Y-18100000D03*
D57*
X19800000Y-17310000D03*
D56*
X12425000Y-18275000D03*
D57*
%TO.N,ADC_BEC*%
X14700000Y-18100000D03*
X18600000Y-13500000D03*
%TO.N,PORT_C_RX_EXT*%
X33625000Y-19100000D03*
%TO.N,PORT_C_TX_EXT*%
X34500000Y-18500000D03*
%TO.N,+3V3_CORE*%
X14500000Y-22400000D03*
X15275000Y-18300000D03*
X36750000Y-24675000D03*
X19000000Y-12100000D03*
D56*
X1650000Y-21950000D03*
D57*
X26475000Y-8199999D03*
X35600000Y-15200000D03*
D56*
X35200000Y-4800000D03*
D57*
X1750000Y-2640000D03*
X8750000Y-23700000D03*
X33290000Y-13707180D03*
X1950000Y-12625000D03*
X26400000Y-22300000D03*
X19325000Y-4600000D03*
X17950000Y-6975000D03*
X8550000Y-7850000D03*
D56*
X28375000Y-18750000D03*
X15900000Y-22850000D03*
D57*
X1675000Y-8925000D03*
X22850000Y-4225000D03*
D56*
X22300000Y-24075000D03*
D57*
X2950000Y-17950000D03*
D56*
X26800000Y-8800000D03*
D57*
X16000000Y-20600000D03*
X1725000Y-21025000D03*
X500000Y-22725000D03*
X1565000Y-23650000D03*
D56*
X22750000Y-17300000D03*
D57*
X24400000Y-16700000D03*
X39950000Y-23000000D03*
X24750000Y-17062500D03*
X37400000Y-22975000D03*
X11375000Y-9125000D03*
X2100000Y-15575000D03*
%TO.N,EFUSE_EN*%
X8000000Y-19900000D03*
X10450000Y-15950000D03*
%TO.N,EFUSE_OVC*%
X9825000Y-17575000D03*
%TO.N,EFUSE_DVDT*%
X11400000Y-19750000D03*
X13975000Y-18275000D03*
%TO.N,PORT_B_RX_MCU*%
X27750000Y-13750000D03*
%TO.N,SERVO2_EXT*%
X3050000Y-7800000D03*
X950000Y-5925000D03*
%TO.N,+5V_PERIPH*%
X22100000Y-15090000D03*
D56*
X25550000Y-7050000D03*
X29200000Y-12600000D03*
X30050000Y-22700000D03*
X15700000Y-4230000D03*
X25437500Y-8137499D03*
X28250000Y-10650000D03*
X16399999Y-4230000D03*
D57*
%TO.N,ADC_BUS*%
X21450000Y-18240000D03*
X20350000Y-12900000D03*
X12800000Y-23375000D03*
%TO.N,SBUS_EXT*%
X26200000Y-24500000D03*
%TO.N,LED_RED_K*%
X28604527Y-9676289D03*
X23760000Y-13540000D03*
X17765000Y-16190000D03*
X39800000Y-19800000D03*
X32993876Y-9876359D03*
%TO.N,NRST*%
X9525000Y-7500000D03*
X17534999Y-15650000D03*
%TO.N,CORE_MUX_ST*%
X35500000Y-6500000D03*
X37100000Y-1300000D03*
X31895000Y-7600000D03*
X24750000Y-3650000D03*
%TO.N,CORE_PRIORITY*%
X35100000Y-6000000D03*
%TO.N,USB_N*%
X39350000Y-13350000D03*
X38550000Y-12650000D03*
X24700000Y-15500000D03*
%TO.N,+3V3_IMU*%
X25425000Y-12025000D03*
X23100000Y-13300000D03*
X19175000Y-17525000D03*
%TO.N,IMU_CS*%
X20300000Y-18100000D03*
X23700000Y-9800000D03*
X18709999Y-9225000D03*
D56*
%TO.N,CORE_BUCK_IN*%
X25375000Y-2575000D03*
X31375000Y-6550000D03*
X31375000Y-7100000D03*
D57*
%TO.N,+3V3_ANALOG*%
X13520000Y-13500000D03*
X12700000Y-7850000D03*
X17610000Y-11625000D03*
%TO.N,ESC_EXT*%
X2000000Y-16200000D03*
%TO.N,SERVO1_EXT*%
X3000000Y-4700000D03*
X600000Y-5450000D03*
D56*
%TO.N,USB_LIMITED*%
X12950000Y-600000D03*
X27870000Y-6250000D03*
X19900000Y-2100000D03*
X13800000Y-4300000D03*
X30200000Y-8940000D03*
X28140000Y-7300000D03*
D57*
X36450000Y-6000000D03*
D56*
X36200000Y-11550000D03*
D57*
%TO.N,CORE_REF*%
X27200000Y-3040000D03*
X30750000Y-1930000D03*
X36350000Y-6700000D03*
%TO.N,PORT_A_RX_EXT*%
X12375000Y-1000000D03*
X19625000Y-5375000D03*
X24300000Y-488000D03*
X5700000Y-1700000D03*
X21025000Y-6700000D03*
%TO.N,PORT_A_TX_EXT*%
X22575000Y-6675000D03*
X15000000Y-4350000D03*
%TO.N,RPM_LV*%
X12043750Y-20818750D03*
X20700000Y-20625000D03*
X7875000Y-23150000D03*
X24600000Y-24650000D03*
%TO.N,RPM_HV*%
X21150000Y-24000000D03*
X10800000Y-24500000D03*
X16800000Y-23950000D03*
%TO.N,LED_GREEN_K*%
X5330000Y-23150000D03*
X10200000Y-16750000D03*
%TO.N,PORT_B_TX_EXT*%
X27800000Y-11165000D03*
X31650000Y-17050000D03*
D56*
%TO.N,+3V3_DSM*%
X17550000Y-22050000D03*
D57*
X20600000Y-24800000D03*
D56*
X18750000Y-21250000D03*
D57*
%TO.N,DSM_RX_EXT*%
X8100000Y-23800000D03*
X13050000Y-19500000D03*
%TO.N,SBUS_HV*%
X23600000Y-20650000D03*
X5330000Y-19200000D03*
X5330000Y-22250000D03*
X5300000Y-14200000D03*
D56*
%TO.N,USB_VBUS_RAW*%
X32900000Y-12100000D03*
X39500000Y-14900000D03*
X30450000Y-15250000D03*
X32799999Y-12750000D03*
X30800000Y-10300000D03*
X40485000Y-11000000D03*
D57*
%TO.N,USB_P*%
X24700000Y-16100000D03*
%TO.N,BOOT0*%
X19209999Y-20575000D03*
X25894400Y-18105600D03*
X35950000Y-19050000D03*
%TO.N,IMU_MISO*%
X21250000Y-10425000D03*
%TO.N,IMU_INT*%
X24209999Y-20575000D03*
X22875000Y-16274999D03*
%TO.N,IMU_SCK*%
X22800000Y-9500000D03*
%TO.N,IMU_MOSI*%
X22250000Y-9900000D03*
X20700000Y-9275000D03*
%TO.N,PORT_A_TX_MCU*%
X19650000Y-10000000D03*
%TO.N,SERVO1_MCU*%
X30800000Y-22000000D03*
X38300000Y-24700000D03*
X600000Y-3700000D03*
X12500000Y-2525000D03*
X21490000Y-17650000D03*
%TO.N,SERVO2_MCU*%
X17420000Y-2100000D03*
X28990000Y-11975000D03*
X21975000Y-17335000D03*
X29675000Y-14800000D03*
X32424999Y-22700000D03*
X600000Y-8400000D03*
X2800000Y-1450000D03*
X28850000Y-16059999D03*
X27800000Y-21650000D03*
%TO.N,SERVO3_MCU*%
X2800000Y-10400000D03*
X21285000Y-9250000D03*
X29400000Y-14000000D03*
X26712500Y-18350000D03*
X26900000Y-7800000D03*
%TO.N,TAIL_MCU*%
X31550000Y-18890000D03*
X18040000Y-2150000D03*
X23375000Y-18125000D03*
X16024999Y-2225000D03*
X3400000Y-1250000D03*
X27550000Y-19087500D03*
X2800000Y-12200000D03*
%TO.N,PORT_B_TX_MCU*%
X25350000Y-14350000D03*
X29650000Y-19050000D03*
%TO.N,SBUS_LV*%
X550000Y-12100000D03*
X11525000Y-24650000D03*
%TO.N,PORT_C_TX_MCU*%
X20500000Y-6980000D03*
X29450000Y-21500000D03*
X32600000Y-23300000D03*
X35075000Y-18425000D03*
%TO.N,SWCLK*%
X25209999Y-19525000D03*
X30200000Y-18850000D03*
%TO.N,DSM_RX_MCU*%
X5950000Y-24000000D03*
X23950000Y-24600000D03*
X34510000Y-14400000D03*
X25250000Y-15025000D03*
X24300000Y-21150000D03*
%TO.N,PORT_C_RX_MCU*%
X27675000Y-20435000D03*
X29050000Y-18890000D03*
X22150000Y-9300000D03*
%TO.N,ESC_MCU*%
X20109999Y-20575000D03*
X24000000Y-22200000D03*
X2100000Y-17200000D03*
X2900000Y-23900000D03*
X10500000Y-23600000D03*
X16100000Y-24000000D03*
%TO.N,BARO_SDA*%
X1700000Y-20300000D03*
X2450000Y-8074999D03*
X18059999Y-18375000D03*
%TO.N,BARO_SCL*%
X2800000Y-19300000D03*
X5330000Y-20100000D03*
X18609999Y-20575000D03*
%TO.N,FLASH_WP_N*%
X32750000Y-24650000D03*
X28560000Y-21425000D03*
%TO.N,FLASH_MOSI*%
X27734999Y-11750000D03*
X39100000Y-20095000D03*
X35550000Y-19470000D03*
%TO.N,FLASH_SCK*%
X39100000Y-21365000D03*
X29500000Y-11450000D03*
%TO.N,FLASH_HOLD_N*%
X26400000Y-21500000D03*
X35800000Y-24550000D03*
X38450000Y-22000000D03*
%TO.N,PORT_A_RX_MCU*%
X13975000Y-11675000D03*
X4800000Y-1500000D03*
%TO.N,RPM_MCU*%
X15284999Y-9550000D03*
X11975000Y-19850000D03*
%TO.N,SBUS_MCU*%
X16300000Y-8500000D03*
X14500000Y-20000000D03*
%TD*%
%TO.N,GND*%
D58*
X34600000Y-12000000D02*
X34600000Y-13350000D01*
X17675000Y-24600000D02*
X16750000Y-24840000D01*
X32549999Y-8380000D02*
X33605000Y-8905000D01*
D59*
X34700000Y-13150000D02*
X34600000Y-13350000D01*
X12420000Y-9025000D02*
X13550000Y-9025000D01*
X12115245Y-9527360D02*
X12617605Y-9025000D01*
D58*
X24032392Y-3411127D02*
X24000000Y-3525000D01*
D59*
X16900000Y-18400000D02*
X16700000Y-18600000D01*
D58*
X12175000Y-3700000D02*
X11850000Y-3600000D01*
D59*
X24294280Y-8798649D02*
X24525000Y-9850000D01*
D60*
X27910000Y-3250000D02*
X28200000Y-3400000D01*
D58*
X25795000Y-5400000D02*
X26250000Y-6590000D01*
D59*
X31371726Y-10553273D02*
X30775000Y-11400000D01*
X29380000Y-9010000D02*
X29000000Y-8700000D01*
X4700000Y-17600000D02*
X4059999Y-19150000D01*
X400000Y-19200000D02*
X500000Y-19100000D01*
X13900000Y-19075000D02*
X14500000Y-18925000D01*
D58*
X14404421Y-1429408D02*
X14803784Y-1406847D01*
D59*
X30665268Y-11913774D02*
X30775000Y-11400000D01*
X11420000Y-16000000D02*
X11050000Y-15550000D01*
D60*
X39900000Y-23720000D02*
X39200000Y-23100000D01*
D59*
X900000Y-1900000D02*
X1800000Y-1700000D01*
D58*
X12750000Y-6725000D02*
X13800000Y-7100000D01*
X26600000Y-6850000D02*
X27370000Y-7295000D01*
D59*
X29750000Y-4650000D02*
X28860000Y-3900000D01*
D58*
X14803784Y-1406847D02*
X14925000Y-1400000D01*
D59*
X11870000Y-8475000D02*
X12420000Y-9025000D01*
D60*
X17990000Y-21200000D02*
X17700000Y-19900000D01*
D58*
X26250000Y-6590000D02*
X26600000Y-6850000D01*
X18712500Y-2225000D02*
X18712500Y-2037500D01*
X12400000Y-3900000D02*
X12175000Y-3700000D01*
X18337500Y-1537500D02*
X18125000Y-1475000D01*
D59*
X1875000Y-18725000D02*
X1875000Y-18325000D01*
X17400000Y-18400000D02*
X16900000Y-18400000D01*
X17700000Y-8900000D02*
X18500000Y-9700000D01*
D58*
X18512500Y-1662500D02*
X18337500Y-1537500D01*
D59*
X14420000Y-19450000D02*
X14500000Y-18925000D01*
D58*
X32400543Y-6421338D02*
X32549999Y-6421338D01*
D59*
X400000Y-20700000D02*
X400000Y-19200000D01*
D61*
X32400544Y-6021338D02*
X32400544Y-6421338D01*
D59*
X32722639Y-7215245D02*
X33605000Y-8905000D01*
X17600000Y-18600000D02*
X17400000Y-18400000D01*
X29598501Y-13303116D02*
X30120000Y-14200000D01*
D58*
X28860000Y-3350000D02*
X28400000Y-4000000D01*
X12775000Y-17200000D02*
X13700000Y-17655000D01*
D59*
X17150000Y-23200000D02*
X17300000Y-23900000D01*
D60*
X16300000Y-12000000D02*
X18515000Y-12475000D01*
D58*
X18712500Y-2037500D02*
X18637500Y-1825000D01*
D59*
X28730000Y-7620000D02*
X28750000Y-6950000D01*
X12552575Y-18905761D02*
X13900000Y-19075000D01*
D62*
X8645000Y-14325000D02*
X8465000Y-13525000D01*
D59*
X34810000Y-7800000D02*
X34800000Y-8500000D01*
D60*
X32810000Y-9200000D02*
X33700000Y-8900000D01*
D59*
X700000Y-20900000D02*
X600000Y-20900000D01*
D58*
X28860000Y-1750000D02*
X28860000Y-3350000D01*
X13800000Y-7100000D02*
X14950000Y-6950000D01*
X12750000Y-4650000D02*
X12400000Y-3900000D01*
X18200000Y-3575000D02*
X18537500Y-2975000D01*
D59*
X28250000Y-17020000D02*
X28880000Y-16940000D01*
X11050000Y-15550000D02*
X10200000Y-15350000D01*
D58*
X20000000Y-22500000D02*
X20000000Y-23800000D01*
X13850000Y-1600000D02*
X14925000Y-575000D01*
X31900000Y-11225000D02*
X30775000Y-11400000D01*
D59*
X18900000Y-9700000D02*
X19005000Y-9795000D01*
X28780000Y-8400000D02*
X28730000Y-7620000D01*
X2260000Y-22950000D02*
X2724999Y-22950000D01*
X33545432Y-24066200D02*
X33600000Y-24600000D01*
X12617605Y-9025000D02*
X13550000Y-9025000D01*
X31371726Y-9773925D02*
X31371726Y-10553273D01*
D58*
X22300000Y-21525000D02*
X23250000Y-21400000D01*
X22750000Y-1100000D02*
X23650000Y-600000D01*
D63*
X30950000Y-20095000D02*
X33100000Y-20095000D01*
D59*
X8090000Y-17600000D02*
X8240000Y-16975000D01*
D60*
X15284999Y-12050000D02*
X16300000Y-12000000D01*
D59*
X17600000Y-18800000D02*
X17600000Y-18600000D01*
D60*
X11050000Y-12200000D02*
X11300000Y-10300000D01*
D59*
X600000Y-20900000D02*
X400000Y-20700000D01*
D60*
X16840000Y-4850000D02*
X17850000Y-4325000D01*
D59*
X29000000Y-8700000D02*
X28780000Y-8400000D01*
X2222639Y-23934754D02*
X2725000Y-22950000D01*
D60*
X28200000Y-3400000D02*
X28860000Y-3400000D01*
D59*
X15976612Y-21560013D02*
X15975000Y-22000000D01*
X2479289Y-21829289D02*
X2725000Y-22950000D01*
X25970000Y-4050000D02*
X25200000Y-4099999D01*
D58*
X33975000Y-9800000D02*
X33605000Y-8905000D01*
D59*
X27910000Y-1750000D02*
X29810000Y-1750000D01*
D58*
X11850000Y-3600000D02*
X10550000Y-3375000D01*
D60*
X39900000Y-20625000D02*
X40500000Y-19600000D01*
D59*
X21675000Y-4600000D02*
X22300000Y-5350000D01*
X28860000Y-3900000D02*
X28400000Y-4000000D01*
X18500000Y-9700000D02*
X18900000Y-9700000D01*
X14480000Y-24100000D02*
X15075000Y-24125000D01*
D60*
X35390000Y-14100000D02*
X34600000Y-13350000D01*
D59*
X11625000Y-21400000D02*
X12050000Y-21400000D01*
D60*
X17700000Y-19900000D02*
X17709999Y-19475000D01*
D58*
X18125000Y-1475000D02*
X17550000Y-1400000D01*
X30672866Y-14185658D02*
X29975000Y-13675000D01*
D59*
X27298083Y-16946272D02*
X28250000Y-17020000D01*
D58*
X18537500Y-2975000D02*
X18712500Y-2225000D01*
D60*
X20975000Y-22500000D02*
X20000000Y-22500000D01*
D59*
X16790000Y-22800000D02*
X17150000Y-23200000D01*
D58*
X24141836Y-3026391D02*
X24032392Y-3411127D01*
D59*
X31290000Y-8180000D02*
X32380000Y-8380000D01*
X29195403Y-4457367D02*
X28860000Y-3900000D01*
D58*
X18637500Y-1825000D02*
X18512500Y-1662500D01*
D60*
X18989999Y-6350000D02*
X20225000Y-6150000D01*
X12750000Y-14400000D02*
X11050000Y-12200000D01*
D58*
X30995673Y-14421870D02*
X30672866Y-14185658D01*
D60*
X20225000Y-6150000D02*
X19900000Y-7000000D01*
X11300000Y-10300000D02*
X11900000Y-9670000D01*
D58*
X16649999Y-1525000D02*
X17550000Y-1400000D01*
D60*
X33625000Y-12000000D02*
X34600000Y-12000000D01*
D58*
X32549999Y-6421338D02*
X32549999Y-8380000D01*
D59*
X17300000Y-23900000D02*
X17675000Y-24600000D01*
X875000Y-19725000D02*
X1875000Y-18725000D01*
%TO.N,ABC_PG*%
D64*
X14100000Y-3592893D02*
X14287378Y-3681998D01*
X13407106Y-2900000D02*
X14100000Y-3592893D01*
X10600000Y-2700000D02*
X12487500Y-2962500D01*
X13100000Y-2962500D02*
X13407106Y-2900000D01*
X16840000Y-6350000D02*
X17350000Y-6725000D01*
X12487500Y-2962500D02*
X13100000Y-2962500D01*
%TO.N,+5V_BEC*%
D60*
X16840000Y-5850000D02*
X16100000Y-5850000D01*
D59*
X15360000Y-6350000D02*
X16059999Y-6350000D01*
D58*
X11750000Y-5400000D02*
X10850000Y-4650000D01*
X18200000Y-5125000D02*
X17750000Y-5550000D01*
D59*
X15900000Y-1150000D02*
X15900000Y-1550000D01*
X15335000Y-2310000D02*
X15272622Y-3418002D01*
X18800000Y-450000D02*
X18350000Y-400000D01*
D60*
X17750000Y-5550000D02*
X17350000Y-5850000D01*
X16100000Y-5850000D02*
X16100000Y-6050000D01*
D59*
X15900000Y-1550000D02*
X15335000Y-2310000D01*
X16200000Y-850000D02*
X15900000Y-1150000D01*
D65*
X16000000Y-6850000D02*
X16600000Y-6970000D01*
D59*
X18350000Y-400000D02*
X16200000Y-850000D01*
X19237500Y-1912500D02*
X19000000Y-650000D01*
X19250000Y-2237500D02*
X19237500Y-1912500D01*
D60*
X17350000Y-5850000D02*
X16840000Y-5850000D01*
D59*
X18200000Y-5125000D02*
X18900000Y-3950000D01*
D58*
X11750000Y-6000000D02*
X10850000Y-6725000D01*
D65*
X16100000Y-6050000D02*
X16000000Y-6850000D01*
D59*
X19000000Y-650000D02*
X18800000Y-450000D01*
X18900000Y-3950000D02*
X19250000Y-2237500D01*
%TO.N,VX_PROTECTED*%
X7875000Y-16325000D02*
X7875000Y-16175000D01*
X28100000Y-1000000D02*
X26500000Y-1000000D01*
D58*
X10700000Y-18600000D02*
X10700000Y-18900000D01*
D59*
X6490000Y-4700000D02*
X7250000Y-4150000D01*
X7635000Y-16575000D02*
X7875000Y-16325000D01*
D58*
X11225000Y-17200000D02*
X10700000Y-18600000D01*
D59*
X26500000Y-1000000D02*
X26000000Y-500000D01*
D58*
X19800000Y-16000000D02*
X22300000Y-13375000D01*
X20850000Y-1100000D02*
X21700000Y-1100000D01*
D59*
X8225000Y-4125000D02*
X8600000Y-4300000D01*
D58*
X10700000Y-18600000D02*
X10700000Y-18300000D01*
X30604089Y-5323377D02*
X30754555Y-5294709D01*
D59*
X5700000Y-17600000D02*
X6806250Y-17193750D01*
D58*
X21700000Y-1100000D02*
X21700000Y-2200000D01*
X21700000Y-2200000D02*
X22100000Y-2200000D01*
D59*
X28790000Y-700000D02*
X28100000Y-1000000D01*
D66*
X6806250Y-17193750D02*
X7275000Y-16950000D01*
D58*
X30754555Y-5294709D02*
X31125000Y-5450000D01*
X17722354Y-17110222D02*
X19800000Y-16000000D01*
D59*
X7250000Y-4150000D02*
X8225000Y-4125000D01*
D66*
X7275000Y-16950000D02*
X7635000Y-16575000D01*
%TO.N,ABC_EN*%
D64*
X7510000Y-4800000D02*
X8450000Y-4865000D01*
%TO.N,VX_RAW*%
D67*
X6600000Y-3150000D02*
X8300000Y-1675000D01*
D62*
X7095000Y-14325000D02*
X6600000Y-16050000D01*
D59*
X6690000Y-20600000D02*
X6600000Y-19150000D01*
D67*
X9300000Y-1475000D02*
X10950000Y-1600000D01*
X8775000Y-1500000D02*
X9300000Y-1475000D01*
X8300000Y-1675000D02*
X8775000Y-1500000D01*
%TO.N,ADC_BEC*%
D59*
X17000000Y-13550000D02*
X16584999Y-13550000D01*
X18600000Y-13500000D02*
X17000000Y-13550000D01*
D66*
X15284999Y-13550000D02*
X16584999Y-13550000D01*
%TO.N,PORT_C_RX_EXT*%
D64*
X31900000Y-19575000D02*
X33625000Y-19100000D01*
X30600000Y-19650000D02*
X31900000Y-19575000D01*
X29650000Y-20810000D02*
X30600000Y-19650000D01*
%TO.N,PORT_C_TX_EXT*%
X33710000Y-18100000D02*
X34500000Y-18500000D01*
%TO.N,+3V3_CORE*%
D59*
X18105119Y-7463233D02*
X18105119Y-6950000D01*
X26000000Y-21750000D02*
X26150000Y-21900000D01*
X10900557Y-9169721D02*
X11375000Y-9125000D01*
X1229289Y-20529289D02*
X1725000Y-21025000D01*
X2400000Y-15575000D02*
X2100000Y-15575000D01*
D58*
X15800000Y-20600000D02*
X16000000Y-20600000D01*
D64*
X2950000Y-17950000D02*
X1250000Y-20200000D01*
D60*
X39950000Y-23000000D02*
X39900000Y-22175000D01*
D59*
X27112278Y-22345774D02*
X26600000Y-22858052D01*
X18209999Y-8125000D02*
X18029999Y-6350000D01*
X17082196Y-20098731D02*
X16000000Y-20600000D01*
D60*
X14500000Y-22400000D02*
X15020000Y-21350000D01*
D59*
X15201138Y-21164560D02*
X16000000Y-20600000D01*
X15281651Y-17600221D02*
X15275000Y-18300000D01*
D60*
X37300000Y-23600000D02*
X37200000Y-24000000D01*
D63*
X37400000Y-22975000D02*
X38450000Y-23905000D01*
D60*
X40875000Y-14050000D02*
X40875000Y-15650000D01*
X28250000Y-17980000D02*
X28375000Y-18750000D01*
D58*
X15450000Y-22450000D02*
X15300000Y-22100000D01*
D59*
X15281651Y-17600221D02*
X15275000Y-18300000D01*
X26600000Y-22858052D02*
X26600000Y-23625000D01*
X35425000Y-15920000D02*
X38375000Y-15920000D01*
X26600000Y-23625000D02*
X26400000Y-22300000D01*
X1120000Y-22950000D02*
X500000Y-22725000D01*
D58*
X34438360Y-4957576D02*
X35200000Y-4800000D01*
D60*
X38375000Y-15920000D02*
X37200000Y-15900000D01*
D59*
X22140000Y-3300000D02*
X22850000Y-4225000D01*
X21101998Y-23231866D02*
X22300000Y-23231866D01*
X13901440Y-21245831D02*
X16000000Y-20600000D01*
D60*
X36700000Y-16500000D02*
X36800000Y-20000000D01*
D59*
X977360Y-23934754D02*
X500000Y-22725000D01*
X1074999Y-21675000D02*
X1725000Y-21025000D01*
X1029289Y-20529289D02*
X1229289Y-20529289D01*
X25950000Y-23387500D02*
X26600000Y-23625000D01*
D58*
X15300000Y-20900000D02*
X15550000Y-20650000D01*
D59*
X16837651Y-21036813D02*
X16000000Y-20600000D01*
X22300000Y-23231866D02*
X22300000Y-24075000D01*
D64*
X8550000Y-7850000D02*
X9800000Y-8450000D01*
D59*
X16837651Y-21036813D02*
X16000000Y-20600000D01*
D64*
X1250000Y-20200000D02*
X1229289Y-20529289D01*
D59*
X25900000Y-17500000D02*
X25300000Y-17500000D01*
X1229289Y-20529289D02*
X1725000Y-21025000D01*
D66*
X30300000Y-650000D02*
X34600000Y-650000D01*
D59*
X2200000Y-21025000D02*
X1725000Y-21025000D01*
X20975000Y-21850000D02*
X21450000Y-21850000D01*
X15284999Y-17550000D02*
X15020000Y-21350000D01*
X25925000Y-21550000D02*
X26000000Y-21750000D01*
X18105119Y-6950000D02*
X17950000Y-6975000D01*
X875000Y-21675000D02*
X1074999Y-21675000D01*
D66*
X34600000Y-650000D02*
X34600000Y-2500000D01*
D60*
X37400000Y-22975000D02*
X37300000Y-23600000D01*
D59*
X27090450Y-24334855D02*
X26600000Y-23625000D01*
X25200000Y-17400000D02*
X25100000Y-17400000D01*
X17887359Y-6565245D02*
X17950000Y-6975000D01*
X26250000Y-7550000D02*
X25150000Y-7620000D01*
X17082196Y-20098731D02*
X16000000Y-20600000D01*
X18105119Y-6950000D02*
X17950000Y-6975000D01*
D58*
X15550000Y-20650000D02*
X15275000Y-18450000D01*
X15550000Y-20650000D02*
X15800000Y-20600000D01*
X22819615Y-23375000D02*
X22300000Y-24075000D01*
D59*
X25100000Y-17400000D02*
X24400000Y-16700000D01*
D60*
X37925000Y-15400000D02*
X38375000Y-15920000D01*
D58*
X15300000Y-22100000D02*
X15250000Y-21250000D01*
D59*
X26600000Y-22858052D02*
X26600000Y-23625000D01*
D58*
X20975000Y-23150000D02*
X22300000Y-23075000D01*
D59*
X26475000Y-8199999D02*
X26250000Y-7550000D01*
X27090450Y-24334855D02*
X26600000Y-23625000D01*
X18105119Y-7463233D02*
X18105119Y-6950000D01*
X977360Y-23934754D02*
X500000Y-22725000D01*
X1120000Y-22950000D02*
X500000Y-22725000D01*
X26634999Y-17550000D02*
X28250000Y-17980000D01*
D60*
X40875000Y-15650000D02*
X38645000Y-15650000D01*
D59*
X17887359Y-6565245D02*
X17950000Y-6975000D01*
D58*
X15250000Y-21250000D02*
X15300000Y-20900000D01*
D59*
X35600000Y-15200000D02*
X35425000Y-15920000D01*
X22300000Y-23424999D02*
X22300000Y-24075000D01*
D60*
X38645000Y-15650000D02*
X38375000Y-15920000D01*
D59*
X875000Y-21675000D02*
X1120000Y-24150000D01*
D58*
X22681409Y-23310844D02*
X22819615Y-23375000D01*
D59*
X800000Y-10100000D02*
X1675000Y-8925000D01*
X10900557Y-9169721D02*
X11375000Y-9125000D01*
D60*
X37925000Y-14050000D02*
X37925000Y-15400000D01*
D59*
X15201138Y-21164560D02*
X16000000Y-20600000D01*
D66*
X29810000Y-2250000D02*
X30300000Y-2250000D01*
D59*
X25990000Y-20250000D02*
X25925000Y-21550000D01*
X26375000Y-22150000D02*
X27285000Y-22160000D01*
X2400000Y-15575000D02*
X2100000Y-15575000D01*
X21101998Y-23231866D02*
X22300000Y-23231866D01*
D64*
X1012500Y-15150000D02*
X2100000Y-15575000D01*
D59*
X26150000Y-21900000D02*
X26375000Y-22150000D01*
X1029289Y-20529289D02*
X1229289Y-20529289D01*
X3790000Y-20800000D02*
X2325000Y-21025000D01*
X25971914Y-17446272D02*
X25146272Y-17446272D01*
X17209999Y-19475000D02*
X17030000Y-21200000D01*
X25300000Y-17500000D02*
X25200000Y-17400000D01*
D60*
X38450000Y-23905000D02*
X39900000Y-24680000D01*
D59*
X22300000Y-23424999D02*
X22300000Y-24075000D01*
X8750000Y-24400000D02*
X8990000Y-24400000D01*
X19775000Y-4600000D02*
X19325000Y-4600000D01*
X25146272Y-17446272D02*
X24400000Y-16700000D01*
D64*
X9800000Y-8450000D02*
X10900557Y-9169721D01*
D59*
X2400000Y-2640000D02*
X1750000Y-2640000D01*
X1074999Y-21675000D02*
X1725000Y-21025000D01*
X2200000Y-21025000D02*
X1725000Y-21025000D01*
X21450000Y-21850000D02*
X21450000Y-23150000D01*
X875000Y-21675000D02*
X1074999Y-21675000D01*
X32890000Y-14400000D02*
X33290000Y-13707180D01*
D58*
X15900000Y-22850000D02*
X15450000Y-22450000D01*
D59*
X19775000Y-4600000D02*
X19325000Y-4600000D01*
X27112278Y-22345774D02*
X26600000Y-22858052D01*
D60*
X37200000Y-15900000D02*
X36700000Y-16500000D01*
D68*
X34460000Y-2500000D02*
X34460000Y-4950000D01*
D66*
X30300000Y-2250000D02*
X30300000Y-650000D01*
D60*
X36800000Y-20000000D02*
X37400000Y-22975000D01*
D59*
X8750000Y-23700000D02*
X8750000Y-24400000D01*
X22300000Y-23231866D02*
X22300000Y-24075000D01*
D60*
X37200000Y-24000000D02*
X36750000Y-24675000D01*
D68*
X34460000Y-4950000D02*
X34010000Y-5400000D01*
D59*
X25150000Y-7620000D02*
X24709999Y-8125000D01*
X13901440Y-21245831D02*
X16000000Y-20600000D01*
%TO.N,EFUSE_EN*%
X8000000Y-19900000D02*
X7710000Y-20600000D01*
%TO.N,EFUSE_OVC*%
D64*
X9825000Y-17575000D02*
X9110000Y-17600000D01*
%TO.N,EFUSE_DVDT*%
X11400000Y-19750000D02*
X11420000Y-19100000D01*
%TO.N,PORT_B_RX_MCU*%
D66*
X27750000Y-13750000D02*
X27784999Y-12450000D01*
X26634999Y-12050000D02*
X27384999Y-12050000D01*
X27384999Y-12050000D02*
X27784999Y-12450000D01*
%TO.N,SERVO2_EXT*%
X3675000Y-7425000D02*
X3000000Y-7350000D01*
X800000Y-6600000D02*
X950000Y-5925000D01*
X6900000Y-7350000D02*
X3675000Y-7425000D01*
X3000000Y-7350000D02*
X3050000Y-7800000D01*
X9140000Y-6250000D02*
X6900000Y-7350000D01*
%TO.N,+5V_PERIPH*%
D58*
X15700000Y-4230000D02*
X16399999Y-4230000D01*
D65*
X16100000Y-5150000D02*
X16100000Y-4230000D01*
D58*
X16649999Y-3075000D02*
X16399999Y-4230000D01*
D60*
X16100000Y-5350000D02*
X16100000Y-5150000D01*
X15360000Y-5350000D02*
X16840000Y-5350000D01*
%TO.N,ADC_BUS*%
D59*
X17000000Y-12575000D02*
X18175000Y-12800000D01*
X18175000Y-12800000D02*
X18350000Y-12925000D01*
X20375000Y-13375000D02*
X20350000Y-12900000D01*
X18350000Y-12925000D02*
X20375000Y-13375000D01*
X13520000Y-24100000D02*
X12800000Y-23375000D01*
X15284999Y-13050000D02*
X16100000Y-12925000D01*
X16100000Y-12925000D02*
X17000000Y-12575000D01*
%TO.N,LED_RED_K*%
D66*
X15284999Y-16050000D02*
X17634999Y-16250000D01*
X17634999Y-16250000D02*
X17765000Y-16190000D01*
%TO.N,SERVO3_EXT*%
X2850000Y-9225000D02*
X2400000Y-9850000D01*
X6900000Y-8250000D02*
X3675000Y-8175000D01*
X9140000Y-9350000D02*
X6900000Y-8250000D01*
X2925000Y-8475000D02*
X2850000Y-9225000D01*
X3675000Y-8175000D02*
X3000000Y-8250000D01*
X3000000Y-8250000D02*
X2925000Y-8475000D01*
%TO.N,NRST*%
X16434999Y-14550000D02*
X17534999Y-15650000D01*
X15284999Y-14550000D02*
X16434999Y-14550000D01*
%TO.N,CORE_MUX_ST*%
D64*
X31150000Y-7600000D02*
X31895000Y-7600000D01*
X30540000Y-7175000D02*
X31150000Y-7600000D01*
D59*
X23300000Y-4000000D02*
X23700000Y-4065000D01*
X23160000Y-3300000D02*
X23300000Y-4000000D01*
X24200000Y-4065000D02*
X24750000Y-3650000D01*
D64*
X30250000Y-6950000D02*
X30540000Y-7175000D01*
D59*
X23700000Y-4065000D02*
X24200000Y-4065000D01*
%TO.N,CORE_PRIORITY*%
D64*
X35700000Y-4950000D02*
X35700000Y-4600000D01*
D59*
X34700000Y-6400000D02*
X34700000Y-6800000D01*
D64*
X34650000Y-350000D02*
X30200000Y-350000D01*
X35100000Y-6000000D02*
X35700000Y-4950000D01*
D59*
X32900000Y-4800000D02*
X33299999Y-6100000D01*
D64*
X35700000Y-4600000D02*
X35100000Y-1000000D01*
X34800000Y-450000D02*
X34650000Y-350000D01*
X30200000Y-350000D02*
X29810000Y-700000D01*
D59*
X32600000Y-4400000D02*
X32900000Y-4800000D01*
X34700000Y-6800000D02*
X33790000Y-7800000D01*
X34700000Y-6400000D02*
X35100000Y-6000000D01*
X33299999Y-6100000D02*
X33600000Y-6400000D01*
X32100000Y-4400000D02*
X32600000Y-4400000D01*
D64*
X35100000Y-1000000D02*
X34800000Y-450000D01*
D59*
X30250000Y-4650000D02*
X32100000Y-4400000D01*
X33600000Y-6400000D02*
X34700000Y-6400000D01*
%TO.N,USB_N*%
D69*
X38550000Y-12650000D02*
X38650000Y-12650000D01*
X38650000Y-12650000D02*
X39350000Y-13350000D01*
X26634999Y-15550000D02*
X24700000Y-15500000D01*
%TO.N,+3V3_IMU*%
D59*
X19425000Y-17025000D02*
X19850000Y-16675000D01*
X21625000Y-15025000D02*
X21725000Y-14800000D01*
X20700000Y-16675000D02*
X20900000Y-16575000D01*
X21725000Y-14800000D02*
X23100000Y-13300000D01*
X20900000Y-16575000D02*
X21625000Y-15575000D01*
X19175000Y-17525000D02*
X19425000Y-17025000D01*
X19850000Y-16675000D02*
X20700000Y-16675000D01*
X21625000Y-15575000D02*
X21625000Y-15025000D01*
%TO.N,IMU_CS*%
D66*
X18709999Y-8125000D02*
X18709999Y-9225000D01*
%TO.N,CORE_BUCK_IN*%
D58*
X30800000Y-6150000D02*
X31375000Y-6550000D01*
D59*
X27500000Y-2400000D02*
X27910000Y-2250000D01*
D58*
X31375000Y-6550000D02*
X31375000Y-7100000D01*
D60*
X27000000Y-2400000D02*
X27500000Y-2400000D01*
D58*
X29425000Y-6150000D02*
X30800000Y-6150000D01*
X29250000Y-6150000D02*
X29425000Y-6150000D01*
D60*
X27500000Y-2400000D02*
X27910000Y-2750000D01*
D61*
X28825000Y-6150000D02*
X30175000Y-6150000D01*
D58*
X25904387Y-2541965D02*
X25375000Y-2575000D01*
X26310000Y-2400000D02*
X27000000Y-2400000D01*
%TO.N,+3V3_ANALOG*%
D60*
X12830000Y-8475000D02*
X12100000Y-7800000D01*
X11500000Y-7900000D02*
X10740000Y-8350000D01*
X16200000Y-11500000D02*
X15284999Y-11550000D01*
X12100000Y-7800000D02*
X11500000Y-7900000D01*
X16200000Y-11500000D02*
X17610000Y-11625000D01*
D70*
X12830000Y-8475000D02*
X12700000Y-7850000D01*
D60*
X15284999Y-11550000D02*
X16200000Y-11500000D01*
%TO.N,ESC_EXT*%
D66*
X2000000Y-16200000D02*
X1600000Y-16700000D01*
%TO.N,SERVO1_EXT*%
X1600000Y-4700000D02*
X600000Y-5450000D01*
%TO.N,USB_LIMITED*%
D58*
X35525000Y-9800000D02*
X35525000Y-10300000D01*
D65*
X14100000Y-6250000D02*
X14600000Y-5850000D01*
D58*
X35525000Y-10300000D02*
X36200000Y-10300000D01*
D59*
X35400000Y-8400000D02*
X35500000Y-8750000D01*
D58*
X35575000Y-11350000D02*
X36200000Y-11350000D01*
X27345000Y-5400000D02*
X28825000Y-5450000D01*
D59*
X36000000Y-7500000D02*
X35500000Y-8000000D01*
X36350000Y-7350000D02*
X36000000Y-7500000D01*
X36750000Y-6950000D02*
X36350000Y-7350000D01*
D58*
X36200000Y-11350000D02*
X36200000Y-11550000D01*
D59*
X36450000Y-6000000D02*
X36800000Y-6550000D01*
X36800000Y-6550000D02*
X36825000Y-6750000D01*
D58*
X36200000Y-10300000D02*
X36200000Y-11350000D01*
D59*
X36825000Y-6750000D02*
X36750000Y-6950000D01*
X35500000Y-8750000D02*
X35525000Y-9800000D01*
D58*
X27870000Y-6250000D02*
X27345000Y-5400000D01*
X14600000Y-5850000D02*
X13800000Y-4300000D01*
D59*
X35500000Y-8000000D02*
X35400000Y-8400000D01*
D63*
X15360000Y-5850000D02*
X14600000Y-5850000D01*
%TO.N,CORE_REF*%
D64*
X27800000Y-4600000D02*
X28750000Y-4650000D01*
X26930000Y-4050000D02*
X27800000Y-4600000D01*
X27200000Y-3040000D02*
X26930000Y-4050000D01*
%TO.N,PORT_A_RX_EXT*%
X23350000Y-1850000D02*
X22700000Y-2475000D01*
X24050000Y-900000D02*
X23350000Y-1850000D01*
X21625000Y-3050000D02*
X20775000Y-4775000D01*
X24300000Y-488000D02*
X24050000Y-900000D01*
X20775000Y-4775000D02*
X20750000Y-5050000D01*
X20575000Y-5225000D02*
X20375000Y-5275000D01*
X20375000Y-5275000D02*
X19625000Y-5375000D01*
X6110000Y-800000D02*
X5700000Y-1700000D01*
X20750000Y-5050000D02*
X20575000Y-5225000D01*
X22700000Y-2475000D02*
X22025000Y-2775000D01*
X22025000Y-2775000D02*
X21850000Y-2800000D01*
X21850000Y-2800000D02*
X21625000Y-3050000D01*
%TO.N,RPM_LV*%
X8690000Y-20700000D02*
X8050000Y-21975000D01*
X7875000Y-23150000D02*
X8025000Y-22650000D01*
X24050000Y-23387500D02*
X24600000Y-24650000D01*
X8050000Y-21975000D02*
X8025000Y-22650000D01*
%TO.N,RPM_HV*%
X11300000Y-25025000D02*
X11500000Y-25075000D01*
X23450000Y-22775000D02*
X23600000Y-22037500D01*
X23975000Y-21775000D02*
X25000000Y-21512500D01*
X22612500Y-24462500D02*
X23225000Y-23825000D01*
X16350000Y-24350000D02*
X16800000Y-24300000D01*
X23225000Y-23825000D02*
X23450000Y-22775000D01*
X10800000Y-24500000D02*
X11300000Y-25025000D01*
X14850000Y-24900000D02*
X15350000Y-24800000D01*
X16800000Y-24300000D02*
X16800000Y-23950000D01*
X23600000Y-22037500D02*
X23687500Y-21912500D01*
X22525000Y-24525000D02*
X22612500Y-24462500D01*
X23787500Y-21825000D02*
X23975000Y-21775000D01*
X21150000Y-24000000D02*
X22162500Y-24562500D01*
X11500000Y-25075000D02*
X14850000Y-24900000D01*
X22375000Y-24575000D02*
X22525000Y-24525000D01*
X22162500Y-24562500D02*
X22375000Y-24575000D01*
X15350000Y-24800000D02*
X16350000Y-24350000D01*
X23687500Y-21912500D02*
X23787500Y-21825000D01*
%TO.N,LED_GREEN_K*%
X12200000Y-16524999D02*
X10675000Y-16524999D01*
D66*
X15284999Y-16550000D02*
X14320000Y-16550000D01*
D64*
X14320000Y-16550000D02*
X12200000Y-16524999D01*
X10675000Y-16524999D02*
X10200000Y-16750000D01*
%TO.N,PORT_B_TX_EXT*%
X31650000Y-17050000D02*
X31250000Y-17450000D01*
X31250000Y-17450000D02*
X30690000Y-18200000D01*
%TO.N,+3V3_DSM*%
D58*
X19225000Y-24600000D02*
X20600000Y-24800000D01*
X19025000Y-23150000D02*
X19225000Y-24600000D01*
%TO.N,DSM_RX_EXT*%
D64*
X7700000Y-23600000D02*
X8100000Y-23800000D01*
X13050000Y-19500000D02*
X13580000Y-19450000D01*
X4400000Y-23840000D02*
X4400000Y-23600000D01*
X6200000Y-23450000D02*
X7700000Y-23600000D01*
X4400000Y-23600000D02*
X5550000Y-23600000D01*
X5550000Y-23600000D02*
X6200000Y-23450000D01*
%TO.N,SBUS_HV*%
X2887500Y-14200000D02*
X5300000Y-14200000D01*
X5775000Y-20150000D02*
X5330000Y-22250000D01*
X5762500Y-19975000D02*
X5775000Y-20150000D01*
X5330000Y-19200000D02*
X5762500Y-19975000D01*
%TO.N,USB_VBUS_RAW*%
D58*
X30450000Y-15250000D02*
X30000000Y-15750000D01*
X32800000Y-12775000D02*
X32850000Y-12725000D01*
X31900000Y-12775000D02*
X32800000Y-12775000D01*
D66*
X32350000Y-9750000D02*
X32850000Y-10400000D01*
D58*
X32850000Y-12725000D02*
X32850000Y-11350000D01*
X32275138Y-12755256D02*
X32799999Y-12750000D01*
X32850000Y-11350000D02*
X33625000Y-11350000D01*
X30000000Y-15750000D02*
X28650000Y-15000000D01*
D66*
X32850000Y-10400000D02*
X32850000Y-11350000D01*
X31790000Y-9200000D02*
X32350000Y-9750000D01*
D58*
X32800000Y-12775000D02*
X33625000Y-12650000D01*
%TO.N,USB_P*%
D69*
X26634999Y-16050000D02*
X24700000Y-16100000D01*
%TO.N,BOOT0*%
D66*
X36600000Y-14700000D02*
X37200000Y-14200000D01*
X40875000Y-11600000D02*
X40875000Y-12150000D01*
X35200000Y-14900000D02*
X35700000Y-14700000D01*
X35950000Y-19050000D02*
X35100000Y-15900000D01*
X37925000Y-12150000D02*
X37925000Y-11600000D01*
X37400000Y-13600000D02*
X37925000Y-12150000D01*
X37925000Y-11600000D02*
X40875000Y-11600000D01*
X35100000Y-15900000D02*
X35200000Y-14900000D01*
X19209999Y-19475000D02*
X19209999Y-20575000D01*
X37200000Y-14200000D02*
X37400000Y-13600000D01*
X35700000Y-14700000D02*
X36600000Y-14700000D01*
%TO.N,TAIL_EXT*%
X6825000Y-13575000D02*
X5293766Y-13581693D01*
X9140000Y-12450000D02*
X6825000Y-13575000D01*
X2171413Y-10824802D02*
X1600000Y-11500000D01*
X5552547Y-11454774D02*
X2171413Y-10824802D01*
X5293766Y-13581693D02*
X5552547Y-11454774D01*
%TO.N,IMU_MISO*%
X19709999Y-8125000D02*
X19875000Y-8950000D01*
X19875000Y-8950000D02*
X20250000Y-9450000D01*
X20250000Y-9450000D02*
X21250000Y-10425000D01*
%TO.N,IMU_INT*%
X24209999Y-19475000D02*
X24209999Y-20575000D01*
%TO.N,IMU_SCK*%
X19375000Y-8950000D02*
X20975000Y-10800000D01*
X22700000Y-10075000D02*
X22800000Y-9500000D01*
X21225000Y-10900000D02*
X21450000Y-10825000D01*
X22550000Y-10225000D02*
X22700000Y-10075000D01*
X20975000Y-10800000D02*
X21225000Y-10900000D01*
X19209999Y-8125000D02*
X19375000Y-8950000D01*
X21450000Y-10825000D02*
X22550000Y-10225000D01*
%TO.N,IMU_MOSI*%
X20209999Y-8125000D02*
X20375000Y-8950000D01*
X20425000Y-9025000D02*
X20700000Y-9275000D01*
X20375000Y-8950000D02*
X20425000Y-9025000D01*
%TO.N,PORT_A_TX_MCU*%
D64*
X17875000Y-10725000D02*
X19650000Y-10000000D01*
X15284999Y-10550000D02*
X17875000Y-10725000D01*
%TO.N,SERVO1_MCU*%
X21112500Y-17962500D02*
X21172500Y-17877500D01*
X21012500Y-18250000D02*
X21025000Y-18100000D01*
X21172500Y-17877500D02*
X21200000Y-17840000D01*
X21200000Y-17840000D02*
X21300000Y-17725000D01*
X21025000Y-18100000D02*
X21112500Y-17962500D01*
X21300000Y-17725000D02*
X21490000Y-17650000D01*
D66*
X600000Y-4700000D02*
X600000Y-3700000D01*
D64*
X21209999Y-19475000D02*
X21012500Y-18250000D01*
%TO.N,SERVO2_MCU*%
X28750000Y-12325000D02*
X28762500Y-12287500D01*
X27800000Y-15525000D02*
X27800000Y-14350000D01*
X28762500Y-12287500D02*
X28990000Y-11975000D01*
X21150000Y-17387500D02*
X21200000Y-17325000D01*
D66*
X800000Y-7600000D02*
X600000Y-8400000D01*
D64*
X27875000Y-14225000D02*
X28125000Y-14000000D01*
X27975000Y-15875000D02*
X27825000Y-15725000D01*
X20762500Y-18037500D02*
X21150000Y-17387500D01*
X28125000Y-14000000D02*
X28750000Y-12325000D01*
X20709999Y-19475000D02*
X20762500Y-18037500D01*
X21575000Y-17150000D02*
X21650000Y-17137500D01*
X21200000Y-17325000D02*
X21362500Y-17225000D01*
X27800000Y-14350000D02*
X27875000Y-14225000D01*
X28850000Y-16059999D02*
X27975000Y-15875000D01*
X21650000Y-17137500D02*
X21975000Y-17335000D01*
X21537500Y-17212500D02*
X21575000Y-17150000D01*
X21362500Y-17225000D02*
X21537500Y-17212500D01*
X27825000Y-15725000D02*
X27800000Y-15525000D01*
%TO.N,SERVO3_MCU*%
X29400000Y-13087500D02*
X29325000Y-13175000D01*
X28012500Y-8787500D02*
X28100000Y-8900000D01*
X28100000Y-8900000D02*
X28437500Y-9187500D01*
X28000000Y-8324999D02*
X28012500Y-8787500D01*
X1950000Y-10150000D02*
X2100000Y-10300000D01*
X29300000Y-13325000D02*
X29400000Y-14000000D01*
X1950000Y-9550000D02*
X1950000Y-10150000D01*
X29325000Y-13175000D02*
X29300000Y-13325000D01*
X27962500Y-8175000D02*
X28000000Y-8324999D01*
X2400000Y-8850000D02*
X1950000Y-9550000D01*
X29550000Y-12975000D02*
X29400000Y-13087500D01*
X2100000Y-10300000D02*
X2800000Y-10400000D01*
X29925000Y-11325000D02*
X29937500Y-11475000D01*
X28912500Y-9362500D02*
X29012500Y-9500000D01*
X27812500Y-8025000D02*
X27900000Y-8100000D01*
X28437500Y-9187500D02*
X28787500Y-9275000D01*
X29012500Y-9500000D02*
X29925000Y-11325000D01*
X27900000Y-8100000D02*
X27962500Y-8175000D01*
X29937500Y-11475000D02*
X29675000Y-12825000D01*
X28787500Y-9275000D02*
X28912500Y-9362500D01*
X26900000Y-7800000D02*
X27812500Y-8025000D01*
D66*
X21209999Y-8125000D02*
X21285000Y-9250000D01*
D64*
X29675000Y-12825000D02*
X29550000Y-12975000D01*
%TO.N,TAIL_MCU*%
X17776672Y-2696437D02*
X18040000Y-2150000D01*
X2600000Y-11500000D02*
X2800000Y-12200000D01*
X23375000Y-18125000D02*
X22925000Y-17800000D01*
X17144162Y-2475219D02*
X17776672Y-2696437D01*
X21875000Y-18650000D02*
X22725000Y-17825000D01*
X21709999Y-19475000D02*
X21875000Y-18650000D01*
X22725000Y-17825000D02*
X22925000Y-17800000D01*
X16024999Y-2225000D02*
X17144162Y-2475219D01*
%TO.N,HSE_OUT*%
D66*
X14300000Y-14750000D02*
X13583654Y-11860737D01*
X13525000Y-11575000D02*
X13519375Y-11566875D01*
X13322500Y-11282500D02*
X13300000Y-11250000D01*
X15284999Y-15050000D02*
X14450000Y-14900000D01*
D64*
X13519375Y-11566875D02*
X13322500Y-11282500D01*
X13583654Y-11860737D02*
X13550000Y-11725000D01*
D66*
X13526563Y-11584375D02*
X13525000Y-11575000D01*
D64*
X13550000Y-11725000D02*
X13526563Y-11584375D01*
D66*
X13300000Y-11250000D02*
X13050000Y-10660000D01*
X14450000Y-14900000D02*
X14300000Y-14750000D01*
%TO.N,HSE_XTAL_OUT*%
X12550000Y-11800000D02*
X12750000Y-12200000D01*
X13050000Y-9640000D02*
X12500000Y-10450000D01*
X12500000Y-10450000D02*
X12550000Y-11800000D01*
X12750000Y-12200000D02*
X11900000Y-10630000D01*
%TO.N,DSM_ILIM*%
D64*
X18450000Y-22500000D02*
X17810000Y-22800000D01*
X19025000Y-22500000D02*
X18450000Y-22500000D01*
%TO.N,PORT_B_TX_MCU*%
X31950000Y-19180000D02*
X32049999Y-18750000D01*
D66*
X24870000Y-12520000D02*
X24865000Y-12900000D01*
X26634999Y-12550000D02*
X25684999Y-12550000D01*
X25050000Y-12460000D02*
X24870000Y-12520000D01*
X24900000Y-13025000D02*
X24950000Y-13300000D01*
D64*
X29650000Y-19050000D02*
X29825000Y-19212500D01*
D66*
X25550000Y-12470000D02*
X25050000Y-12460000D01*
D64*
X30150000Y-19300000D02*
X31500000Y-19320000D01*
X32049999Y-18750000D02*
X31710000Y-18200000D01*
X31750000Y-19320000D02*
X31950000Y-19180000D01*
D66*
X25684999Y-12550000D02*
X25550000Y-12470000D01*
D64*
X31500000Y-19320000D02*
X31750000Y-19320000D01*
X29825000Y-19212500D02*
X30150000Y-19300000D01*
D66*
X24950000Y-13300000D02*
X25350000Y-14350000D01*
X24865000Y-12900000D02*
X24900000Y-13025000D01*
%TO.N,SBUS_LV*%
D64*
X1012500Y-13250000D02*
X550000Y-12100000D01*
X10010000Y-24400000D02*
X10150000Y-24100000D01*
X10150000Y-24100000D02*
X11265000Y-23925000D01*
X11265000Y-23925000D02*
X11525000Y-24650000D01*
%TO.N,PORT_C_TX_MCU*%
X34760000Y-18100000D02*
X34250000Y-17750000D01*
X35075000Y-18425000D02*
X34760000Y-18100000D01*
X33424999Y-17600000D02*
X32689999Y-18100000D01*
X33800000Y-17525000D02*
X33424999Y-17600000D01*
D66*
X23209999Y-8125000D02*
X23209999Y-7275000D01*
X21100000Y-7140000D02*
X22575000Y-7125000D01*
D64*
X34250000Y-17750000D02*
X33800000Y-17525000D01*
D66*
X22787500Y-7125000D02*
X23209999Y-7275000D01*
X20500000Y-6980000D02*
X20500000Y-7140000D01*
X20500000Y-7140000D02*
X21100000Y-7140000D01*
X22575000Y-7125000D02*
X22787500Y-7125000D01*
%TO.N,HSE_IN*%
X15284999Y-15550000D02*
X12200000Y-15300000D01*
X11050000Y-14400000D02*
X12380000Y-16000000D01*
X12200000Y-15300000D02*
X11050000Y-14400000D01*
%TO.N,SWDIO*%
D64*
X28900000Y-16512500D02*
X29075000Y-16562500D01*
X29075000Y-16562500D02*
X29885000Y-17000000D01*
X26634999Y-16550000D02*
X28900000Y-16512500D01*
%TO.N,CORE_SW*%
D70*
X29810000Y-2750000D02*
X30400000Y-2750000D01*
D58*
X30400000Y-2750000D02*
X31660000Y-2750000D01*
%TO.N,SWCLK*%
D64*
X31150000Y-18512500D02*
X31262500Y-17900000D01*
X31262500Y-17900000D02*
X31325000Y-17800000D01*
X31325000Y-17800000D02*
X31437500Y-17700000D01*
D66*
X24709999Y-19475000D02*
X25209999Y-19525000D01*
D64*
X30937500Y-18700000D02*
X31037500Y-18637500D01*
X31037500Y-18637500D02*
X31150000Y-18512500D01*
X30200000Y-18850000D02*
X30937500Y-18700000D01*
X31437500Y-17700000D02*
X34010000Y-16524999D01*
%TO.N,DSM_RX_MCU*%
X4400000Y-24860000D02*
X5950000Y-24000000D01*
X25284999Y-15050000D02*
X25250000Y-15025000D01*
D66*
X26634999Y-15050000D02*
X25284999Y-15050000D01*
D64*
X33910000Y-14400000D02*
X34510000Y-14400000D01*
%TO.N,FLASH_CS*%
D66*
X23650000Y-16900000D02*
X23850000Y-17200000D01*
X24300000Y-13325000D02*
X24050000Y-14250000D01*
D64*
X26175000Y-24925000D02*
X27050000Y-24975000D01*
D66*
X24050000Y-14250000D02*
X23950000Y-14450000D01*
D64*
X27050000Y-24975000D02*
X27575000Y-24975000D01*
X25725000Y-19725000D02*
X25550000Y-19900000D01*
X27575000Y-24975000D02*
X27725000Y-24875000D01*
D66*
X24175000Y-12750000D02*
X24175000Y-12900000D01*
D64*
X25487500Y-22462500D02*
X25462500Y-22537500D01*
X27800000Y-24725000D02*
X27800000Y-24000000D01*
X25975000Y-24875000D02*
X26175000Y-24925000D01*
X25450000Y-22975000D02*
X25450000Y-24325000D01*
D66*
X24525000Y-10400000D02*
X24450000Y-10550000D01*
X23850000Y-17200000D02*
X25650000Y-19350000D01*
X28450000Y-23905000D02*
X30950000Y-23905000D01*
D64*
X26250000Y-19750000D02*
X26100000Y-19725000D01*
X27010000Y-20250000D02*
X26250000Y-19750000D01*
D66*
X24175000Y-12900000D02*
X24300000Y-13325000D01*
D64*
X27725000Y-24875000D02*
X27800000Y-24725000D01*
D66*
X24450000Y-10550000D02*
X24175000Y-12750000D01*
X24975000Y-10125000D02*
X24525000Y-10400000D01*
D64*
X25525000Y-20025000D02*
X25487500Y-22462500D01*
D66*
X23950000Y-14450000D02*
X23650000Y-16900000D01*
D64*
X25450000Y-24325000D02*
X25975000Y-24875000D01*
X25550000Y-19900000D02*
X25525000Y-20025000D01*
X25462500Y-22537500D02*
X25450000Y-22975000D01*
D66*
X28450000Y-23905000D02*
X27800000Y-24000000D01*
X26634999Y-10050000D02*
X24975000Y-10125000D01*
X25650000Y-19350000D02*
X25650000Y-19750000D01*
D64*
X26100000Y-19725000D02*
X25725000Y-19725000D01*
%TO.N,PORT_C_RX_MCU*%
X29650000Y-19790000D02*
X29225000Y-19300000D01*
X29225000Y-19300000D02*
X29050000Y-18890000D01*
D66*
X22709999Y-8125000D02*
X22537500Y-8975000D01*
X22537500Y-8975000D02*
X22150000Y-9300000D01*
%TO.N,ESC_MCU*%
X2600000Y-16700000D02*
X2100000Y-17200000D01*
X11975000Y-24425000D02*
X12225000Y-24475000D01*
X10500000Y-23600000D02*
X11037500Y-22350000D01*
X11087500Y-22350000D02*
X11800000Y-23750000D01*
X15225000Y-24550000D02*
X16100000Y-24000000D01*
X13400000Y-24625000D02*
X14750000Y-24625000D01*
X12225000Y-24475000D02*
X13400000Y-24625000D01*
X11800000Y-23750000D02*
X11800000Y-24200000D01*
X11875000Y-24325000D02*
X11975000Y-24425000D01*
X14750000Y-24625000D02*
X15225000Y-24550000D01*
X20209999Y-19475000D02*
X20109999Y-20575000D01*
X11800000Y-24200000D02*
X11875000Y-24325000D01*
%TO.N,BARO_SDA*%
X2325000Y-20375000D02*
X1700000Y-20300000D01*
X1950000Y-7450000D02*
X2025000Y-7650000D01*
X2400000Y-3660000D02*
X1925000Y-5575000D01*
X1925000Y-5575000D02*
X1950000Y-7450000D01*
X2025000Y-7650000D02*
X2450000Y-8074999D01*
X18209999Y-19475000D02*
X18059999Y-18375000D01*
%TO.N,BARO_SCL*%
X18709999Y-19475000D02*
X18609999Y-20575000D01*
X2325000Y-19725000D02*
X2800000Y-19300000D01*
D64*
X4810000Y-20700000D02*
X5330000Y-20100000D01*
%TO.N,FLASH_MISO*%
D66*
X28700000Y-19600000D02*
X28850000Y-19700000D01*
X24800000Y-10787500D02*
X24737500Y-10600000D01*
X24237500Y-14500000D02*
X23950000Y-16800000D01*
X30400000Y-22300000D02*
X30950000Y-22635000D01*
X24600000Y-13000000D02*
X24600000Y-13800000D01*
X26850000Y-19600000D02*
X28700000Y-19600000D01*
X28450000Y-22635000D02*
X30000000Y-22100000D01*
X28450000Y-22635000D02*
X28400000Y-23200000D01*
X23950000Y-16800000D02*
X24100000Y-17050000D01*
X30000000Y-22100000D02*
X30400000Y-22300000D01*
X24737500Y-10600000D02*
X24456250Y-12750000D01*
X29000000Y-19850000D02*
X29000000Y-21900000D01*
X26634999Y-11050000D02*
X25087500Y-10987500D01*
X24456250Y-12750000D02*
X24600000Y-13000000D01*
X24937500Y-10925000D02*
X24800000Y-10787500D01*
X29000000Y-21900000D02*
X28400000Y-23200000D01*
X24100000Y-17050000D02*
X26850000Y-19600000D01*
X24600000Y-13800000D02*
X24237500Y-14500000D01*
X25087500Y-10987500D02*
X24937500Y-10925000D01*
X28850000Y-19700000D02*
X29000000Y-19850000D01*
%TO.N,FLASH_WP_N*%
X28450000Y-21365000D02*
X28560000Y-21425000D01*
X32750000Y-24650000D02*
X30950000Y-21365000D01*
D64*
X28380000Y-21600000D02*
X27285000Y-23490000D01*
X28450000Y-21365000D02*
X28380000Y-21600000D01*
%TO.N,FLASH_MOSI*%
D66*
X26634999Y-11550000D02*
X27734999Y-11750000D01*
X39100000Y-20095000D02*
X38450000Y-20095000D01*
%TO.N,FLASH_SCK*%
X39100000Y-21365000D02*
X38450000Y-21365000D01*
X28625000Y-10275000D02*
X29325000Y-11050000D01*
X27525000Y-10375000D02*
X28150000Y-10125000D01*
X28150000Y-10125000D02*
X28400000Y-10125000D01*
X29325000Y-11050000D02*
X29500000Y-11450000D01*
X28400000Y-10125000D02*
X28625000Y-10275000D01*
X26634999Y-10550000D02*
X27525000Y-10375000D01*
%TO.N,FLASH_HOLD_N*%
X38450000Y-22000000D02*
X38450000Y-22635000D01*
X26400000Y-21500000D02*
X27285000Y-21140000D01*
%TO.N,VCAP_CAP*%
D60*
X22600000Y-6050000D02*
X21775000Y-6150000D01*
X24350000Y-4755000D02*
X22600000Y-6050000D01*
%TO.N,CORE_ILIM*%
D59*
X29750000Y-7400000D02*
X30270000Y-8180000D01*
X29750000Y-6950000D02*
X29750000Y-7400000D01*
%TO.N,CORE_SS*%
D64*
X29250000Y-6950000D02*
X29380000Y-8050000D01*
%TO.N,USB_ILIM*%
D66*
X35575000Y-12000000D02*
X36200000Y-12400000D01*
X36200000Y-12400000D02*
X36410000Y-14100000D01*
%TO.N,PORT_A_RX_MCU*%
D64*
X5090000Y-800000D02*
X4800000Y-1500000D01*
X15284999Y-11050000D02*
X14450000Y-11225000D01*
X14450000Y-11225000D02*
X13975000Y-11675000D01*
%TO.N,RPM_MCU*%
X11062500Y-20450000D02*
X11675000Y-20075000D01*
X11062500Y-20450000D02*
X9710000Y-20700000D01*
D66*
X15284999Y-10050000D02*
X15284999Y-9550000D01*
D64*
X11675000Y-20075000D02*
X11975000Y-19850000D01*
%TO.N,SBUS_MCU*%
X12475000Y-20175000D02*
X12625000Y-20000000D01*
X13337500Y-22350000D02*
X12550000Y-21775000D01*
X12400000Y-23200000D02*
X12500000Y-23075000D01*
X12625000Y-20000000D02*
X12800000Y-19950000D01*
X12475000Y-21600000D02*
X12475000Y-20175000D01*
X14075000Y-19950000D02*
X14500000Y-20000000D01*
D66*
X17209999Y-8125000D02*
X16300000Y-8500000D01*
D64*
X12550000Y-21775000D02*
X12475000Y-21600000D01*
X12500000Y-23075000D02*
X13337500Y-22350000D01*
X12285000Y-23925000D02*
X12400000Y-23200000D01*
X12800000Y-19950000D02*
X14075000Y-19950000D01*
%TO.N,VCAP*%
D60*
X23709999Y-8125000D02*
X23750000Y-7350000D01*
X23850000Y-7200000D02*
X24350000Y-6405000D01*
X23750000Y-7350000D02*
X23850000Y-7200000D01*
%TD*%
M02*
