%TF.GenerationSoftware,KiCad,Pcbnew,10.0.6*%
%TF.CreationDate,2026-10-07T12:36:03+00:00*%
%TF.ProjectId,f722-heli,66373232-2d68-4656-9c69-2e6b69636164,rev?*%
%TF.SameCoordinates,Original*%
%TF.FileFunction,Soldermask,Top*%
%TF.FilePolarity,Negative*%
%FSLAX46Y46*%
G04 Gerber Fmt 4.6, Leading zero omitted, Abs format (unit mm)*
G04 Created by KiCad (PCBNEW 10.0.6) date 2026-10-07 12:36:03*
%MOMM*%
%LPD*%
G01*
G04 APERTURE LIST*
G04 Aperture macros list*
%AMRoundRect*
0 Rectangle with rounded corners*
0 $1 Rounding radius*
0 $2 $3 $4 $5 $6 $7 $8 $9 X,Y pos of 4 corners*
0 Add a 4 corners polygon primitive as box body*
4,1,4,$2,$3,$4,$5,$6,$7,$8,$9,$2,$3,0*
0 Add four circle primitives for the rounded corners*
1,1,$1+$1,$2,$3*
1,1,$1+$1,$4,$5*
1,1,$1+$1,$6,$7*
1,1,$1+$1,$8,$9*
0 Add four rect primitives between the rounded corners*
20,1,$1+$1,$2,$3,$4,$5,0*
20,1,$1+$1,$4,$5,$6,$7,0*
20,1,$1+$1,$6,$7,$8,$9,0*
20,1,$1+$1,$8,$9,$2,$3,0*%
%AMFreePoly0*
4,1,57,0.084755,0.299039,0.094134,0.296194,0.102779,0.291573,0.110355,0.285355,0.116573,0.277779,0.121194,0.269134,0.124039,0.259755,0.125000,0.250000,0.125000,-0.050000,0.375000,-0.050000,0.375000,0.250000,0.375961,0.259755,0.378806,0.269134,0.383427,0.277779,0.389645,0.285355,0.397221,0.291573,0.405866,0.296194,0.415245,0.299039,0.425000,0.300000,0.575000,0.300000,
0.584755,0.299039,0.594134,0.296194,0.602779,0.291573,0.610355,0.285355,0.616573,0.277779,0.621194,0.269134,0.624039,0.259755,0.625000,0.250000,0.625000,-0.250000,0.624039,-0.259755,0.621194,-0.269134,0.616573,-0.277779,0.610355,-0.285355,0.602779,-0.291573,0.594134,-0.296194,0.584755,-0.299039,0.575000,-0.300000,-0.075000,-0.300000,-0.084755,-0.299039,-0.094134,-0.296194,
-0.102779,-0.291573,-0.110355,-0.285355,-0.116573,-0.277779,-0.121194,-0.269134,-0.124039,-0.259755,-0.125000,-0.250000,-0.125000,0.250000,-0.124039,0.259755,-0.121194,0.269134,-0.116573,0.277779,-0.110355,0.285355,-0.102779,0.291573,-0.094134,0.296194,-0.084755,0.299039,-0.075000,0.300000,0.075000,0.300000,0.084755,0.299039,0.084755,0.299039,$1*%
%AMFreePoly1*
4,1,57,0.584755,0.299039,0.594134,0.296194,0.602779,0.291573,0.610355,0.285355,0.616573,0.277779,0.621194,0.269134,0.624039,0.259755,0.625000,0.250000,0.625000,-0.250000,0.624039,-0.259755,0.621194,-0.269134,0.616573,-0.277779,0.610355,-0.285355,0.602779,-0.291573,0.594134,-0.296194,0.584755,-0.299039,0.575000,-0.300000,0.425000,-0.300000,0.415245,-0.299039,0.405866,-0.296194,
0.397221,-0.291573,0.389645,-0.285355,0.383427,-0.277779,0.378806,-0.269134,0.375961,-0.259755,0.375000,-0.250000,0.375000,0.050000,0.125000,0.050000,0.125000,-0.250000,0.124039,-0.259755,0.121194,-0.269134,0.116573,-0.277779,0.110355,-0.285355,0.102779,-0.291573,0.094134,-0.296194,0.084755,-0.299039,0.075000,-0.300000,-0.075000,-0.300000,-0.084755,-0.299039,-0.094134,-0.296194,
-0.102779,-0.291573,-0.110355,-0.285355,-0.116573,-0.277779,-0.121194,-0.269134,-0.124039,-0.259755,-0.125000,-0.250000,-0.125000,0.250000,-0.124039,0.259755,-0.121194,0.269134,-0.116573,0.277779,-0.110355,0.285355,-0.102779,0.291573,-0.094134,0.296194,-0.084755,0.299039,-0.075000,0.300000,0.575000,0.300000,0.584755,0.299039,0.584755,0.299039,$1*%
%AMFreePoly2*
4,1,53,0.462855,0.235355,0.477500,0.200000,0.477500,-0.200000,0.462855,-0.235355,0.427500,-0.250000,0.017500,-0.250000,-0.017855,-0.235355,-0.032259,-0.204902,-0.032720,-0.200220,-0.034956,-0.200000,-0.232500,-0.200000,-0.237402,-0.199759,-0.247157,-0.198798,-0.256769,-0.196886,-0.266148,-0.194041,-0.275204,-0.190290,-0.283849,-0.185669,-0.292000,-0.180222,-0.299576,-0.174004,-0.306504,-0.167076,
-0.312722,-0.159500,-0.318169,-0.151349,-0.322790,-0.142704,-0.326541,-0.133648,-0.329386,-0.124269,-0.331298,-0.114657,-0.332259,-0.104902,-0.332500,-0.100000,-0.332500,0.100000,-0.332259,0.104902,-0.331298,0.114657,-0.329386,0.124269,-0.326541,0.133648,-0.322790,0.142704,-0.318169,0.151349,-0.312722,0.159500,-0.306504,0.167076,-0.299576,0.174004,-0.292000,0.180222,-0.283849,0.185669,
-0.275204,0.190290,-0.266148,0.194041,-0.256769,0.196886,-0.247157,0.198798,-0.237402,0.199759,-0.232500,0.200000,-0.034956,0.200000,-0.032720,0.200220,-0.032259,0.204902,-0.014219,0.238651,0.017500,0.250000,0.427500,0.250000,0.462855,0.235355,0.462855,0.235355,$1*%
%AMFreePoly3*
4,1,53,0.017855,0.235355,0.032259,0.204902,0.032720,0.200220,0.034956,0.200000,0.232500,0.200000,0.237402,0.199759,0.247157,0.198798,0.256769,0.196886,0.266148,0.194041,0.275204,0.190290,0.283849,0.185669,0.292000,0.180222,0.299576,0.174004,0.306504,0.167076,0.312722,0.159500,0.318169,0.151349,0.322790,0.142704,0.326541,0.133648,0.329386,0.124269,0.331298,0.114657,
0.332259,0.104902,0.332500,0.100000,0.332500,-0.100000,0.332259,-0.104902,0.331298,-0.114657,0.329386,-0.124269,0.326541,-0.133648,0.322790,-0.142704,0.318169,-0.151349,0.312722,-0.159500,0.306504,-0.167076,0.299576,-0.174004,0.292000,-0.180222,0.283849,-0.185669,0.275204,-0.190290,0.266148,-0.194041,0.256769,-0.196886,0.247157,-0.198798,0.237402,-0.199759,0.232500,-0.200000,
0.034956,-0.200000,0.032720,-0.200220,0.032259,-0.204902,0.014219,-0.238651,-0.017500,-0.250000,-0.427500,-0.250000,-0.462855,-0.235355,-0.477500,-0.200000,-0.477500,0.200000,-0.462855,0.235355,-0.427500,0.250000,-0.017500,0.250000,0.017855,0.235355,0.017855,0.235355,$1*%
%AMFreePoly4*
4,1,92,0.254902,0.549759,0.264657,0.548798,0.274269,0.546886,0.283648,0.544041,0.292704,0.540290,0.301349,0.535669,0.309500,0.530222,0.317076,0.524004,0.324004,0.517076,0.330222,0.509500,0.335669,0.501349,0.340290,0.492704,0.344041,0.483648,0.346886,0.474269,0.348798,0.464657,0.349759,0.454902,0.350000,0.450000,0.350000,-0.100000,0.349759,-0.104902,0.348798,-0.114657,
0.346886,-0.124269,0.344041,-0.133648,0.340290,-0.142704,0.335669,-0.151349,0.330222,-0.159500,0.324004,-0.167076,0.317076,-0.174004,0.309500,-0.180222,0.301349,-0.185669,0.292704,-0.190290,0.283648,-0.194041,0.274269,-0.196886,0.264657,-0.198798,0.254902,-0.199759,0.250000,-0.200000,-0.250000,-0.200000,-0.254902,-0.199759,-0.264657,-0.198798,-0.274269,-0.196886,-0.283648,-0.194041,
-0.292704,-0.190290,-0.301349,-0.185669,-0.309500,-0.180222,-0.317076,-0.174004,-0.324004,-0.167076,-0.330222,-0.159500,-0.335669,-0.151349,-0.340290,-0.142704,-0.344041,-0.133648,-0.346886,-0.124269,-0.348798,-0.114657,-0.349759,-0.104902,-0.350000,-0.100000,-0.350000,0.100000,-0.349759,0.104902,-0.348798,0.114657,-0.346886,0.124269,-0.344041,0.133648,-0.340290,0.142704,-0.335669,0.151349,
-0.330222,0.159500,-0.324004,0.167076,-0.317076,0.174004,-0.309500,0.180222,-0.301349,0.185669,-0.292704,0.190290,-0.283648,0.194041,-0.274269,0.196886,-0.264657,0.198798,-0.254902,0.199759,-0.250000,0.200000,0.000000,0.200000,0.000000,0.450000,0.000241,0.454902,0.001202,0.464657,0.003114,0.474269,0.005959,0.483648,0.009710,0.492704,0.014331,0.501349,0.019778,0.509500,
0.025996,0.517076,0.032924,0.524004,0.040500,0.530222,0.048651,0.535669,0.057296,0.540290,0.066352,0.544041,0.075731,0.546886,0.085343,0.548798,0.095098,0.549759,0.100000,0.550000,0.250000,0.550000,0.254902,0.549759,0.254902,0.549759,$1*%
%AMFreePoly5*
4,1,92,0.254902,0.199759,0.264657,0.198798,0.274269,0.196886,0.283648,0.194041,0.292704,0.190290,0.301349,0.185669,0.309500,0.180222,0.317076,0.174004,0.324004,0.167076,0.330222,0.159500,0.335669,0.151349,0.340290,0.142704,0.344041,0.133648,0.346886,0.124269,0.348798,0.114657,0.349759,0.104902,0.350000,0.100000,0.350000,-0.450000,0.349759,-0.454902,0.348798,-0.464657,
0.346886,-0.474269,0.344041,-0.483648,0.340290,-0.492704,0.335669,-0.501349,0.330222,-0.509500,0.324004,-0.517076,0.317076,-0.524004,0.309500,-0.530222,0.301349,-0.535669,0.292704,-0.540290,0.283648,-0.544041,0.274269,-0.546886,0.264657,-0.548798,0.254902,-0.549759,0.250000,-0.550000,0.100000,-0.550000,0.095098,-0.549759,0.085343,-0.548798,0.075731,-0.546886,0.066352,-0.544041,
0.057296,-0.540290,0.048651,-0.535669,0.040500,-0.530222,0.032924,-0.524004,0.025996,-0.517076,0.019778,-0.509500,0.014331,-0.501349,0.009710,-0.492704,0.005959,-0.483648,0.003114,-0.474269,0.001202,-0.464657,0.000241,-0.454902,0.000000,-0.450000,0.000000,-0.200000,-0.250000,-0.200000,-0.254902,-0.199759,-0.264657,-0.198798,-0.274269,-0.196886,-0.283648,-0.194041,-0.292704,-0.190290,
-0.301349,-0.185669,-0.309500,-0.180222,-0.317076,-0.174004,-0.324004,-0.167076,-0.330222,-0.159500,-0.335669,-0.151349,-0.340290,-0.142704,-0.344041,-0.133648,-0.346886,-0.124269,-0.348798,-0.114657,-0.349759,-0.104902,-0.350000,-0.100000,-0.350000,0.100000,-0.349759,0.104902,-0.348798,0.114657,-0.346886,0.124269,-0.344041,0.133648,-0.340290,0.142704,-0.335669,0.151349,-0.330222,0.159500,
-0.324004,0.167076,-0.317076,0.174004,-0.309500,0.180222,-0.301349,0.185669,-0.292704,0.190290,-0.283648,0.194041,-0.274269,0.196886,-0.264657,0.198798,-0.254902,0.199759,-0.250000,0.200000,0.250000,0.200000,0.254902,0.199759,0.254902,0.199759,$1*%
%AMFreePoly6*
4,1,92,0.254902,0.199759,0.264657,0.198798,0.274269,0.196886,0.283648,0.194041,0.292704,0.190290,0.301349,0.185669,0.309500,0.180222,0.317076,0.174004,0.324004,0.167076,0.330222,0.159500,0.335669,0.151349,0.340290,0.142704,0.344041,0.133648,0.346886,0.124269,0.348798,0.114657,0.349759,0.104902,0.350000,0.100000,0.350000,-0.100000,0.349759,-0.104902,0.348798,-0.114657,
0.346886,-0.124269,0.344041,-0.133648,0.340290,-0.142704,0.335669,-0.151349,0.330222,-0.159500,0.324004,-0.167076,0.317076,-0.174004,0.309500,-0.180222,0.301349,-0.185669,0.292704,-0.190290,0.283648,-0.194041,0.274269,-0.196886,0.264657,-0.198798,0.254902,-0.199759,0.250000,-0.200000,0.000000,-0.200000,0.000000,-0.450000,-0.000241,-0.454902,-0.001202,-0.464657,-0.003114,-0.474269,
-0.005959,-0.483648,-0.009710,-0.492704,-0.014331,-0.501349,-0.019778,-0.509500,-0.025996,-0.517076,-0.032924,-0.524004,-0.040500,-0.530222,-0.048651,-0.535669,-0.057296,-0.540290,-0.066352,-0.544041,-0.075731,-0.546886,-0.085343,-0.548798,-0.095098,-0.549759,-0.100000,-0.550000,-0.250000,-0.550000,-0.254902,-0.549759,-0.264657,-0.548798,-0.274269,-0.546886,-0.283648,-0.544041,-0.292704,-0.540290,
-0.301349,-0.535669,-0.309500,-0.530222,-0.317076,-0.524004,-0.324004,-0.517076,-0.330222,-0.509500,-0.335669,-0.501349,-0.340290,-0.492704,-0.344041,-0.483648,-0.346886,-0.474269,-0.348798,-0.464657,-0.349759,-0.454902,-0.350000,-0.450000,-0.350000,0.100000,-0.349759,0.104902,-0.348798,0.114657,-0.346886,0.124269,-0.344041,0.133648,-0.340290,0.142704,-0.335669,0.151349,-0.330222,0.159500,
-0.324004,0.167076,-0.317076,0.174004,-0.309500,0.180222,-0.301349,0.185669,-0.292704,0.190290,-0.283648,0.194041,-0.274269,0.196886,-0.264657,0.198798,-0.254902,0.199759,-0.250000,0.200000,0.250000,0.200000,0.254902,0.199759,0.254902,0.199759,$1*%
%AMFreePoly7*
4,1,92,-0.095098,0.549759,-0.085343,0.548798,-0.075731,0.546886,-0.066352,0.544041,-0.057296,0.540290,-0.048651,0.535669,-0.040500,0.530222,-0.032924,0.524004,-0.025996,0.517076,-0.019778,0.509500,-0.014331,0.501349,-0.009710,0.492704,-0.005959,0.483648,-0.003114,0.474269,-0.001202,0.464657,-0.000241,0.454902,0.000000,0.450000,0.000000,0.200000,0.250000,0.200000,0.254902,0.199759,
0.264657,0.198798,0.274269,0.196886,0.283648,0.194041,0.292704,0.190290,0.301349,0.185669,0.309500,0.180222,0.317076,0.174004,0.324004,0.167076,0.330222,0.159500,0.335669,0.151349,0.340290,0.142704,0.344041,0.133648,0.346886,0.124269,0.348798,0.114657,0.349759,0.104902,0.350000,0.100000,0.350000,-0.100000,0.349759,-0.104902,0.348798,-0.114657,0.346886,-0.124269,
0.344041,-0.133648,0.340290,-0.142704,0.335669,-0.151349,0.330222,-0.159500,0.324004,-0.167076,0.317076,-0.174004,0.309500,-0.180222,0.301349,-0.185669,0.292704,-0.190290,0.283648,-0.194041,0.274269,-0.196886,0.264657,-0.198798,0.254902,-0.199759,0.250000,-0.200000,-0.250000,-0.200000,-0.254902,-0.199759,-0.264657,-0.198798,-0.274269,-0.196886,-0.283648,-0.194041,-0.292704,-0.190290,
-0.301349,-0.185669,-0.309500,-0.180222,-0.317076,-0.174004,-0.324004,-0.167076,-0.330222,-0.159500,-0.335669,-0.151349,-0.340290,-0.142704,-0.344041,-0.133648,-0.346886,-0.124269,-0.348798,-0.114657,-0.349759,-0.104902,-0.350000,-0.100000,-0.350000,0.450000,-0.349759,0.454902,-0.348798,0.464657,-0.346886,0.474269,-0.344041,0.483648,-0.340290,0.492704,-0.335669,0.501349,-0.330222,0.509500,
-0.324004,0.517076,-0.317076,0.524004,-0.309500,0.530222,-0.301349,0.535669,-0.292704,0.540290,-0.283648,0.544041,-0.274269,0.546886,-0.264657,0.548798,-0.254902,0.549759,-0.250000,0.550000,-0.100000,0.550000,-0.095098,0.549759,-0.095098,0.549759,$1*%
G04 Aperture macros list end*
%ADD10RoundRect,0.062500X-0.062500X0.117500X-0.062500X-0.117500X0.062500X-0.117500X0.062500X0.117500X0*%
%ADD11FreePoly0,180.000000*%
%ADD12FreePoly1,180.000000*%
%ADD13RoundRect,0.050000X0.800000X0.075000X-0.800000X0.075000X-0.800000X-0.075000X0.800000X-0.075000X0*%
%ADD14RoundRect,0.050000X0.625000X0.075000X-0.625000X0.075000X-0.625000X-0.075000X0.625000X-0.075000X0*%
%ADD15RoundRect,0.100000X0.250000X0.075000X-0.250000X0.075000X-0.250000X-0.075000X0.250000X-0.075000X0*%
%ADD16RoundRect,0.100000X0.075000X0.250000X-0.075000X0.250000X-0.075000X-0.250000X0.075000X-0.250000X0*%
%ADD17RoundRect,0.135000X0.185000X-0.135000X0.185000X0.135000X-0.185000X0.135000X-0.185000X-0.135000X0*%
%ADD18RoundRect,0.100000X0.232500X0.050000X-0.232500X0.050000X-0.232500X-0.050000X0.232500X-0.050000X0*%
%ADD19FreePoly2,180.000000*%
%ADD20FreePoly3,180.000000*%
%ADD21RoundRect,0.135000X-0.135000X-0.185000X0.135000X-0.185000X0.135000X0.185000X-0.135000X0.185000X0*%
%ADD22FreePoly4,0.000000*%
%ADD23RoundRect,0.100000X-0.250000X-0.075000X0.250000X-0.075000X0.250000X0.075000X-0.250000X0.075000X0*%
%ADD24FreePoly5,0.000000*%
%ADD25RoundRect,0.100000X-0.100000X-1.150000X0.100000X-1.150000X0.100000X1.150000X-0.100000X1.150000X0*%
%ADD26FreePoly6,0.000000*%
%ADD27FreePoly7,0.000000*%
%ADD28RoundRect,0.250000X0.250000X0.475000X-0.250000X0.475000X-0.250000X-0.475000X0.250000X-0.475000X0*%
%ADD29RoundRect,0.250000X-0.250000X-0.475000X0.250000X-0.475000X0.250000X0.475000X-0.250000X0.475000X0*%
%ADD30R,1.800000X1.800000*%
%ADD31O,1.800000X1.800000*%
%ADD32RoundRect,0.135000X-0.185000X0.135000X-0.185000X-0.135000X0.185000X-0.135000X0.185000X0.135000X0*%
%ADD33RoundRect,0.250000X-0.475000X0.250000X-0.475000X-0.250000X0.475000X-0.250000X0.475000X0.250000X0*%
%ADD34RoundRect,0.150000X0.150000X0.700000X-0.150000X0.700000X-0.150000X-0.700000X0.150000X-0.700000X0*%
%ADD35RoundRect,0.250000X0.250000X1.150000X-0.250000X1.150000X-0.250000X-1.150000X0.250000X-1.150000X0*%
%ADD36RoundRect,0.218750X-0.256250X0.218750X-0.256250X-0.218750X0.256250X-0.218750X0.256250X0.218750X0*%
%ADD37C,1.000000*%
%ADD38RoundRect,0.062500X-0.117500X-0.062500X0.117500X-0.062500X0.117500X0.062500X-0.117500X0.062500X0*%
%ADD39RoundRect,0.140000X-0.170000X0.140000X-0.170000X-0.140000X0.170000X-0.140000X0.170000X0.140000X0*%
%ADD40RoundRect,0.225000X-0.225000X-0.250000X0.225000X-0.250000X0.225000X0.250000X-0.225000X0.250000X0*%
%ADD41RoundRect,0.125000X-0.125000X-0.175000X0.125000X-0.175000X0.125000X0.175000X-0.125000X0.175000X0*%
%ADD42RoundRect,0.225000X0.225000X0.250000X-0.225000X0.250000X-0.225000X-0.250000X0.225000X-0.250000X0*%
%ADD43RoundRect,0.050000X-1.700000X0.490000X-1.700000X-0.490000X1.700000X-0.490000X1.700000X0.490000X0*%
%ADD44RoundRect,0.150000X-0.150000X-0.700000X0.150000X-0.700000X0.150000X0.700000X-0.150000X0.700000X0*%
%ADD45RoundRect,0.250000X-0.250000X-1.150000X0.250000X-1.150000X0.250000X1.150000X-0.250000X1.150000X0*%
%ADD46RoundRect,0.135000X0.135000X0.185000X-0.135000X0.185000X-0.135000X-0.185000X0.135000X-0.185000X0*%
%ADD47RoundRect,0.050000X-0.200000X-0.200000X0.200000X-0.200000X0.200000X0.200000X-0.200000X0.200000X0*%
%ADD48RoundRect,0.218750X0.218750X0.256250X-0.218750X0.256250X-0.218750X-0.256250X0.218750X-0.256250X0*%
%ADD49RoundRect,0.100000X0.050000X-0.232500X0.050000X0.232500X-0.050000X0.232500X-0.050000X-0.232500X0*%
%ADD50FreePoly2,90.000000*%
%ADD51FreePoly3,90.000000*%
%ADD52RoundRect,0.225000X0.250000X-0.225000X0.250000X0.225000X-0.250000X0.225000X-0.250000X-0.225000X0*%
%ADD53RoundRect,0.175000X0.175000X1.675000X-0.175000X1.675000X-0.175000X-1.675000X0.175000X-1.675000X0*%
%ADD54RoundRect,0.250001X0.499999X0.899999X-0.499999X0.899999X-0.499999X-0.899999X0.499999X-0.899999X0*%
%ADD55RoundRect,0.150000X0.150000X-0.587500X0.150000X0.587500X-0.150000X0.587500X-0.150000X-0.587500X0*%
%ADD56C,0.710000*%
%ADD57O,0.710000X1.010000*%
%ADD58R,1.150000X0.300000*%
%ADD59O,1.100000X1.600000*%
%ADD60RoundRect,0.050000X0.200000X-0.200000X0.200000X0.200000X-0.200000X0.200000X-0.200000X-0.200000X0*%
%ADD61RoundRect,0.087500X-0.225000X-0.087500X0.225000X-0.087500X0.225000X0.087500X-0.225000X0.087500X0*%
%ADD62RoundRect,0.087500X-0.087500X-0.225000X0.087500X-0.225000X0.087500X0.225000X-0.087500X0.225000X0*%
%ADD63R,0.350000X0.400000*%
%ADD64RoundRect,0.150000X0.512500X0.150000X-0.512500X0.150000X-0.512500X-0.150000X0.512500X-0.150000X0*%
%ADD65RoundRect,0.140000X-0.140000X-0.170000X0.140000X-0.170000X0.140000X0.170000X-0.140000X0.170000X0*%
G04 APERTURE END LIST*
D10*
%TO.C,D6*%
X34550000Y-10020000D03*
X34550000Y-9180000D03*
%TD*%
D11*
%TO.C,U6*%
X17035000Y-12300000D03*
D12*
X17035000Y-9500000D03*
D13*
X16710000Y-10900000D03*
D14*
X16535000Y-11400000D03*
X16535000Y-10400000D03*
D15*
X18460000Y-11650000D03*
X18460000Y-11150000D03*
X18460000Y-10650000D03*
X18460000Y-10150000D03*
D16*
X18035000Y-9500000D03*
X17535000Y-9500000D03*
X17535000Y-12300000D03*
X18035000Y-12300000D03*
%TD*%
D17*
%TO.C,R40*%
X20000000Y-16710000D03*
X20000000Y-15690000D03*
%TD*%
D18*
%TO.C,U15*%
X33122500Y-18150000D03*
X33122500Y-17650000D03*
D19*
X33122500Y-17150000D03*
D18*
X33122500Y-16650000D03*
X33122500Y-16150000D03*
X32287500Y-16150000D03*
X32287500Y-16650000D03*
D20*
X32287500Y-17150000D03*
D18*
X32287500Y-17650000D03*
X32287500Y-18150000D03*
%TD*%
D21*
%TO.C,R10*%
X1290000Y-24500000D03*
X2310000Y-24500000D03*
%TD*%
D22*
%TO.C,U5*%
X11160000Y-15750000D03*
D23*
X11160000Y-16225000D03*
X11160000Y-16675000D03*
D24*
X11160000Y-17150000D03*
D25*
X11810000Y-16450000D03*
X12310000Y-16450000D03*
D26*
X12960000Y-17150000D03*
D23*
X12960000Y-16675000D03*
X12960000Y-16225000D03*
D27*
X12960000Y-15750000D03*
%TD*%
D28*
%TO.C,C54*%
X21409999Y-14125000D03*
X19509999Y-14125000D03*
%TD*%
D21*
%TO.C,R32*%
X27455000Y-12600000D03*
X28475000Y-12600000D03*
%TD*%
D29*
%TO.C,C71*%
X16760000Y-16500000D03*
X18660000Y-16500000D03*
%TD*%
%TO.C,C55*%
X11710000Y-7875000D03*
X13610000Y-7875000D03*
%TD*%
D21*
%TO.C,R55*%
X20240000Y-8500000D03*
X21260000Y-8500000D03*
%TD*%
D30*
%TO.C,J3*%
X4060000Y-6250000D03*
D31*
X6600000Y-6250000D03*
X9140000Y-6250000D03*
%TD*%
D32*
%TO.C,R42*%
X22200000Y-15690000D03*
X22200000Y-16710000D03*
%TD*%
D30*
%TO.C,J8*%
X4060000Y-22250000D03*
D31*
X6600000Y-22250000D03*
X9140000Y-22250000D03*
%TD*%
D33*
%TO.C,C75*%
X31400000Y-12550000D03*
X31400000Y-14450000D03*
%TD*%
D34*
%TO.C,J11*%
X32875000Y-20100000D03*
X31625000Y-20100000D03*
X30375000Y-20100000D03*
X29125000Y-20100000D03*
D35*
X34725000Y-23450000D03*
X27275000Y-23450000D03*
%TD*%
D36*
%TO.C,D2*%
X40700000Y-20712500D03*
X40700000Y-22287500D03*
%TD*%
D30*
%TO.C,J4*%
X4060000Y-9350000D03*
D31*
X6600000Y-9350000D03*
X9140000Y-9350000D03*
%TD*%
D32*
%TO.C,R15*%
X33550000Y-10390000D03*
X33550000Y-11410000D03*
%TD*%
D37*
%TO.C,TP5*%
X2200000Y-770000D03*
%TD*%
D21*
%TO.C,R65*%
X33490000Y-6400000D03*
X34510000Y-6400000D03*
%TD*%
D38*
%TO.C,D4*%
X35420000Y-12550000D03*
X34580000Y-12550000D03*
%TD*%
D21*
%TO.C,R3*%
X18690000Y-18000000D03*
X19710000Y-18000000D03*
%TD*%
D39*
%TO.C,C11*%
X26100000Y-13520000D03*
X26100000Y-14480000D03*
%TD*%
%TO.C,C30*%
X15350000Y-15520000D03*
X15350000Y-16480000D03*
%TD*%
D40*
%TO.C,C74*%
X31225000Y-8350000D03*
X32775000Y-8350000D03*
%TD*%
D32*
%TO.C,R43*%
X20810000Y-17590000D03*
X20810000Y-18610000D03*
%TD*%
D41*
%TO.C,C8*%
X14050000Y-14460000D03*
X14950000Y-14460000D03*
%TD*%
D42*
%TO.C,C73*%
X17035000Y-7970000D03*
X15485000Y-7970000D03*
%TD*%
D39*
%TO.C,C12*%
X26062500Y-11520000D03*
X26062500Y-12480000D03*
%TD*%
D30*
%TO.C,J7*%
X4060000Y-19150000D03*
D31*
X6600000Y-19150000D03*
X9140000Y-19150000D03*
%TD*%
D30*
%TO.C,J6*%
X4060000Y-16050000D03*
D31*
X6600000Y-16050000D03*
X9140000Y-16050000D03*
%TD*%
D30*
%TO.C,J2*%
X4060000Y-3150000D03*
D31*
X6600000Y-3150000D03*
X9140000Y-3150000D03*
%TD*%
D32*
%TO.C,R41*%
X21100000Y-15690000D03*
X21100000Y-16710000D03*
%TD*%
D43*
%TO.C,L1*%
X12760000Y-12635000D03*
X12760000Y-10265000D03*
%TD*%
D21*
%TO.C,R68*%
X35940000Y-5050000D03*
X36960000Y-5050000D03*
%TD*%
%TO.C,R62*%
X33490000Y-4400000D03*
X34510000Y-4400000D03*
%TD*%
D44*
%TO.C,J9*%
X13335000Y-5500000D03*
X14585000Y-5500000D03*
X15835000Y-5500000D03*
X17085000Y-5500000D03*
D45*
X11485000Y-2150000D03*
X18935000Y-2150000D03*
%TD*%
D46*
%TO.C,R36*%
X25510000Y-24000000D03*
X24490000Y-24000000D03*
%TD*%
D21*
%TO.C,R1*%
X8890000Y-900000D03*
X9910000Y-900000D03*
%TD*%
D47*
%TO.C,R25*%
X6500000Y-24500000D03*
X7500000Y-24500000D03*
%TD*%
D17*
%TO.C,R52*%
X14000000Y-16560000D03*
X14000000Y-15540000D03*
%TD*%
D48*
%TO.C,D1*%
X5187500Y-24530000D03*
X3612500Y-24530000D03*
%TD*%
D32*
%TO.C,R44*%
X22550000Y-18390000D03*
X22550000Y-19410000D03*
%TD*%
D49*
%TO.C,U14*%
X22500000Y-8317500D03*
X23000000Y-8317500D03*
D50*
X23500000Y-8317500D03*
D49*
X24000000Y-8317500D03*
X24500000Y-8317500D03*
X24500000Y-7482500D03*
X24000000Y-7482500D03*
D51*
X23500000Y-7482500D03*
D49*
X23000000Y-7482500D03*
X22500000Y-7482500D03*
%TD*%
D46*
%TO.C,R63*%
X34660000Y-5400000D03*
X33640000Y-5400000D03*
%TD*%
D52*
%TO.C,C64*%
X32299999Y-6425000D03*
X32299999Y-4875000D03*
%TD*%
D21*
%TO.C,R54*%
X18290000Y-7800000D03*
X19310000Y-7800000D03*
%TD*%
D40*
%TO.C,C72*%
X16185000Y-13700000D03*
X17735000Y-13700000D03*
%TD*%
D53*
%TO.C,J12*%
X16710000Y-20850000D03*
X15210000Y-20850000D03*
X13710000Y-20850000D03*
D54*
X18760000Y-22950000D03*
X11660000Y-22950000D03*
%TD*%
D39*
%TO.C,C58*%
X19660000Y-10645000D03*
X19660000Y-11605000D03*
%TD*%
D55*
%TO.C,U16*%
X21050000Y-22837500D03*
X22950000Y-22837500D03*
X22000000Y-20962500D03*
%TD*%
D56*
%TO.C,J1*%
X39000000Y-17000000D03*
D57*
X39000000Y-9000000D03*
D58*
X37515000Y-15750000D03*
X37515000Y-14250000D03*
X37515000Y-13750000D03*
X37515000Y-13250000D03*
X37515000Y-12750000D03*
X37515000Y-12250000D03*
X37515000Y-11750000D03*
X37515000Y-10250000D03*
X40485000Y-10250000D03*
X40485000Y-11750000D03*
X40485000Y-12250000D03*
X40485000Y-12750000D03*
X40485000Y-13250000D03*
X40485000Y-13750000D03*
X40485000Y-14250000D03*
X40485000Y-15750000D03*
D59*
X37570000Y-17000000D03*
X40430000Y-17000000D03*
X37570000Y-9000000D03*
X40430000Y-9000000D03*
%TD*%
D38*
%TO.C,D3*%
X35420000Y-13850000D03*
X34580000Y-13850000D03*
%TD*%
D17*
%TO.C,R11*%
X40600000Y-24510000D03*
X40600000Y-23490000D03*
%TD*%
D46*
%TO.C,R2*%
X17110000Y-18000000D03*
X16090000Y-18000000D03*
%TD*%
D60*
%TO.C,R26*%
X25500000Y-23000000D03*
X25500000Y-22000000D03*
%TD*%
D10*
%TO.C,D5*%
X35700000Y-16820000D03*
X35700000Y-15980000D03*
%TD*%
D30*
%TO.C,J5*%
X4060000Y-12450000D03*
D31*
X6600000Y-12450000D03*
X9140000Y-12450000D03*
%TD*%
D44*
%TO.C,J10*%
X22975000Y-5500000D03*
X24225000Y-5500000D03*
X25475000Y-5500000D03*
X26725000Y-5500000D03*
D45*
X21125000Y-2150000D03*
X28575000Y-2150000D03*
%TD*%
D61*
%TO.C,U2*%
X22047499Y-10850000D03*
X22047499Y-11350000D03*
X22047499Y-11850000D03*
X22047499Y-12350000D03*
D62*
X22709999Y-12512500D03*
X23209999Y-12512500D03*
X23709999Y-12512500D03*
D61*
X24372499Y-12350000D03*
X24372499Y-11850000D03*
X24372499Y-11350000D03*
X24372499Y-10850000D03*
D62*
X23709999Y-10687500D03*
X23209999Y-10687500D03*
X22709999Y-10687500D03*
%TD*%
D63*
%TO.C,R31*%
X21025000Y-9860000D03*
X20375000Y-9860000D03*
%TD*%
D64*
%TO.C,U12*%
X29987500Y-18000000D03*
X29987500Y-17050000D03*
X29987500Y-16100000D03*
X27712500Y-16100000D03*
X27712500Y-17050000D03*
X27712500Y-18000000D03*
%TD*%
D47*
%TO.C,FB2*%
X23175000Y-15500000D03*
X24075000Y-15500000D03*
%TD*%
D65*
%TO.C,C10*%
X17320000Y-15000000D03*
X18280000Y-15000000D03*
%TD*%
D17*
%TO.C,R14*%
X34650000Y-16810000D03*
X34650000Y-15790000D03*
%TD*%
D40*
%TO.C,C13*%
X22984999Y-14200000D03*
X24534999Y-14200000D03*
%TD*%
M02*
