%TF.GenerationSoftware,KiCad,Pcbnew,10.0.6*%
%TF.CreationDate,2026-10-07T12:36:03+00:00*%
%TF.ProjectId,f722-heli,66373232-2d68-4656-9c69-2e6b69636164,rev?*%
%TF.SameCoordinates,Original*%
%TF.FileFunction,Legend,Bot*%
%TF.FilePolarity,Positive*%
%FSLAX46Y46*%
G04 Gerber Fmt 4.6, Leading zero omitted, Abs format (unit mm)*
G04 Created by KiCad (PCBNEW 10.0.6) date 2026-10-07 12:36:03*
%MOMM*%
%LPD*%
G01*
G04 APERTURE LIST*
%ADD10C,0.150000*%
%ADD11C,0.120000*%
%ADD12C,0.130000*%
%ADD13C,0.100000*%
G04 APERTURE END LIST*
D10*
X2361904Y-17554819D02*
X2361904Y-18364342D01*
X2361904Y-18364342D02*
X2314285Y-18459580D01*
X2314285Y-18459580D02*
X2266666Y-18507200D01*
X2266666Y-18507200D02*
X2171428Y-18554819D01*
X2171428Y-18554819D02*
X1980952Y-18554819D01*
X1980952Y-18554819D02*
X1885714Y-18507200D01*
X1885714Y-18507200D02*
X1838095Y-18459580D01*
X1838095Y-18459580D02*
X1790476Y-18364342D01*
X1790476Y-18364342D02*
X1790476Y-17554819D01*
X885714Y-17888152D02*
X885714Y-18554819D01*
X1123809Y-17507200D02*
X1361904Y-18221485D01*
X1361904Y-18221485D02*
X742857Y-18221485D01*
%TO.C,R9*%
D11*
X12670000Y-10303641D02*
X12670000Y-9996359D01*
X13430000Y-10303641D02*
X13430000Y-9996359D01*
%TO.C,C19*%
X11540000Y-10257836D02*
X11540000Y-10042164D01*
X12260000Y-10257836D02*
X12260000Y-10042164D01*
%TO.C,U11*%
D12*
X18785000Y-23720000D02*
G75*
G02*
X18655000Y-23720000I-65000J0D01*
G01*
X18655000Y-23720000D02*
G75*
G02*
X18785000Y-23720000I65000J0D01*
G01*
%TO.C,R33*%
D11*
X31046359Y-17820000D02*
X31353641Y-17820000D01*
X31046359Y-18580000D02*
X31353641Y-18580000D01*
%TO.C,Q2*%
X1950000Y-12640000D02*
X1300000Y-12640000D01*
X1950000Y-12640000D02*
X2600000Y-12640000D01*
X1950000Y-15760000D02*
X1300000Y-15760000D01*
X1950000Y-15760000D02*
X2600000Y-15760000D01*
X787500Y-15710000D02*
X547500Y-16040000D01*
X1027500Y-16040000D01*
X787500Y-15710000D01*
G36*
X1027500Y-16040000D02*
G01*
X547500Y-16040000D01*
X787500Y-15710000D01*
X1027500Y-16040000D01*
G37*
%TO.C,C52*%
X11859420Y-16690000D02*
X12140580Y-16690000D01*
X11859420Y-17710000D02*
X12140580Y-17710000D01*
%TO.C,C69*%
X21790000Y-22440580D02*
X21790000Y-22159420D01*
X22810000Y-22440580D02*
X22810000Y-22159420D01*
%TO.C,C6*%
X15392164Y-20990000D02*
X15607836Y-20990000D01*
X15392164Y-21710000D02*
X15607836Y-21710000D01*
%TO.C,R57*%
X6846359Y-4320000D02*
X7153641Y-4320000D01*
X6846359Y-5080000D02*
X7153641Y-5080000D01*
%TO.C,R35*%
X33353641Y-17720000D02*
X33046359Y-17720000D01*
X33353641Y-18480000D02*
X33046359Y-18480000D01*
%TO.C,C14*%
X39540000Y-24307836D02*
X39540000Y-24092164D01*
X40260000Y-24307836D02*
X40260000Y-24092164D01*
%TO.C,C17*%
X1492164Y-23790000D02*
X1707836Y-23790000D01*
X1492164Y-24510000D02*
X1707836Y-24510000D01*
%TO.C,C18*%
X12007836Y-15640000D02*
X11792164Y-15640000D01*
X12007836Y-16360000D02*
X11792164Y-16360000D01*
%TO.C,R69*%
X32146358Y-8820000D02*
X32453640Y-8820000D01*
X32146358Y-9580000D02*
X32453640Y-9580000D01*
%TO.C,C51*%
X7729420Y-13815000D02*
X8010580Y-13815000D01*
X7729420Y-14835000D02*
X8010580Y-14835000D01*
%TO.C,C9*%
X12457836Y-8115000D02*
X12242164Y-8115000D01*
X12457836Y-8835000D02*
X12242164Y-8835000D01*
%TO.C,U9*%
D12*
X27645000Y-3720000D02*
G75*
G02*
X27515000Y-3720000I-65000J0D01*
G01*
X27515000Y-3720000D02*
G75*
G02*
X27645000Y-3720000I65000J0D01*
G01*
%TO.C,C5*%
D11*
X20759420Y-4090000D02*
X21040580Y-4090000D01*
X20759420Y-5110000D02*
X21040580Y-5110000D01*
%TO.C,D8*%
X27870000Y-15900000D02*
X27870000Y-14100000D01*
%TO.C,C66*%
X25621252Y-1665000D02*
X25098748Y-1665000D01*
X25621252Y-3135000D02*
X25098748Y-3135000D01*
%TO.C,R50*%
X7046359Y-20320000D02*
X7353641Y-20320000D01*
X7046359Y-21080000D02*
X7353641Y-21080000D01*
%TO.C,Q1*%
X23440000Y-22450000D02*
X23440000Y-21800000D01*
X23440000Y-22450000D02*
X23440000Y-23100000D01*
X26560000Y-22450000D02*
X26560000Y-21800000D01*
X26560000Y-22450000D02*
X26560000Y-23100000D01*
X26510000Y-23612500D02*
X26840000Y-23852500D01*
X26840000Y-23372500D01*
X26510000Y-23612500D01*
G36*
X26840000Y-23852500D02*
G01*
X26510000Y-23612500D01*
X26840000Y-23372500D01*
X26840000Y-23852500D01*
G37*
%TO.C,C20*%
X31390000Y-12140580D02*
X31390000Y-11859420D01*
X32410000Y-12140580D02*
X32410000Y-11859420D01*
%TO.C,D9*%
X10170000Y-2500000D02*
X10170000Y-700000D01*
%TO.C,C59*%
X17690000Y-4490580D02*
X17690000Y-4209420D01*
X18710000Y-4490580D02*
X18710000Y-4209420D01*
%TO.C,R71*%
X33246359Y-14020000D02*
X33553641Y-14020000D01*
X33246359Y-14780000D02*
X33553641Y-14780000D01*
%TO.C,C31*%
X13892164Y-23740000D02*
X14107836Y-23740000D01*
X13892164Y-24460000D02*
X14107836Y-24460000D01*
%TO.C,C53*%
X21538748Y-365000D02*
X22061252Y-365000D01*
X21538748Y-1835000D02*
X22061252Y-1835000D01*
%TO.C,R4*%
X26346359Y-19870000D02*
X26653641Y-19870000D01*
X26346359Y-20630000D02*
X26653641Y-20630000D01*
%TO.C,R34*%
X29270000Y-20453641D02*
X29270000Y-20146359D01*
X30030000Y-20453641D02*
X30030000Y-20146359D01*
%TO.C,C68*%
X34890580Y-9290000D02*
X34609420Y-9290000D01*
X34890580Y-10310000D02*
X34609420Y-10310000D01*
%TO.C,U4*%
D13*
X500000Y-19350000D02*
X1140000Y-19350000D01*
X500000Y-22050000D02*
X500000Y-21900000D01*
X500000Y-22050000D02*
X1140000Y-22050000D01*
X525000Y-19625000D02*
X525000Y-19475000D01*
X2060000Y-19350000D02*
X2700000Y-19350000D01*
X2060000Y-22050000D02*
X2500000Y-22050000D01*
X2700000Y-19500000D02*
X2700000Y-19350000D01*
X2700000Y-22050000D02*
X2700000Y-22410000D01*
X3060000Y-22050000D01*
X2700000Y-22050000D01*
G36*
X2700000Y-22410000D02*
G01*
X2700000Y-22050000D01*
X3060000Y-22050000D01*
X2700000Y-22410000D01*
G37*
%TO.C,R60*%
D11*
X29146359Y-320000D02*
X29453641Y-320000D01*
X29146359Y-1080000D02*
X29453641Y-1080000D01*
%TO.C,U7*%
X15450000Y-4440000D02*
X16500000Y-4440000D01*
X15450000Y-6760000D02*
X16750000Y-6760000D01*
X16860000Y-4440000D02*
X17140000Y-4440000D01*
X16860000Y-4160000D01*
X16860000Y-4440000D01*
G36*
X17140000Y-4440000D02*
G01*
X16860000Y-4440000D01*
X16860000Y-4160000D01*
X17140000Y-4440000D01*
G37*
%TO.C,U3*%
X30700000Y-18890000D02*
X38700000Y-18890000D01*
X30710000Y-25110000D02*
X38700000Y-25110000D01*
X30470000Y-24310000D02*
X29990000Y-24310000D01*
X30470000Y-24790000D01*
X30470000Y-24310000D01*
G36*
X30470000Y-24790000D02*
G01*
X29990000Y-24310000D01*
X30470000Y-24310000D01*
X30470000Y-24790000D01*
G37*
%TO.C,C50*%
X11792164Y-18740000D02*
X12007836Y-18740000D01*
X11792164Y-19460000D02*
X12007836Y-19460000D01*
%TO.C,C1*%
X18402163Y-5940000D02*
X18617835Y-5940000D01*
X18402163Y-6660000D02*
X18617835Y-6660000D01*
%TO.C,C7*%
X21140580Y-5640000D02*
X20859420Y-5640000D01*
X21140580Y-6660000D02*
X20859420Y-6660000D01*
%TO.C,U8*%
D12*
X28285000Y-7270000D02*
G75*
G02*
X28155000Y-7270000I-65000J0D01*
G01*
X28155000Y-7270000D02*
G75*
G02*
X28285000Y-7270000I65000J0D01*
G01*
%TO.C,C57*%
D11*
X11538748Y-5990000D02*
X12061252Y-5990000D01*
X11538748Y-7460000D02*
X12061252Y-7460000D01*
%TO.C,C3*%
X27890000Y-17607836D02*
X27890000Y-17392164D01*
X28610000Y-17607836D02*
X28610000Y-17392164D01*
%TO.C,Y1*%
X10190000Y-15360000D02*
X10190000Y-11240000D01*
X13610000Y-15360000D02*
X10190000Y-15360000D01*
%TO.C,D7*%
X13140000Y-19850000D02*
X13140000Y-19050000D01*
X14500000Y-19050000D02*
X13140000Y-19050000D01*
X14500000Y-19850000D02*
X13140000Y-19850000D01*
%TO.C,C70*%
X18590580Y-24090000D02*
X18309420Y-24090000D01*
X18590580Y-25110000D02*
X18309420Y-25110000D01*
%TO.C,U10*%
D12*
X35945000Y-10780000D02*
G75*
G02*
X35815000Y-10780000I-65000J0D01*
G01*
X35815000Y-10780000D02*
G75*
G02*
X35945000Y-10780000I65000J0D01*
G01*
%TO.C,C16*%
D11*
X1492164Y-22590000D02*
X1707836Y-22590000D01*
X1492164Y-23310000D02*
X1707836Y-23310000D01*
%TO.C,R6*%
X26905000Y-21803641D02*
X26905000Y-21496359D01*
X27665000Y-21803641D02*
X27665000Y-21496359D01*
%TO.C,R37*%
X9346359Y-24020000D02*
X9653641Y-24020000D01*
X9346359Y-24780000D02*
X9653641Y-24780000D01*
%TO.C,C56*%
X11538748Y-3915000D02*
X12061252Y-3915000D01*
X11538748Y-5385000D02*
X12061252Y-5385000D01*
%TO.C,U1*%
X15849999Y-8690000D02*
X15849999Y-9640000D01*
X15849999Y-18910000D02*
X15849999Y-17960000D01*
X16799999Y-8690000D02*
X15849999Y-8690000D01*
X16799999Y-18910000D02*
X15849999Y-18910000D01*
X25119999Y-8690000D02*
X26069999Y-8690000D01*
X25119999Y-18910000D02*
X26069999Y-18910000D01*
X26069999Y-8690000D02*
X26069999Y-9640000D01*
X26069999Y-18910000D02*
X26069999Y-17960000D01*
X15234999Y-17960000D02*
X14894999Y-18430000D01*
X15574999Y-18430000D01*
X15234999Y-17960000D01*
G36*
X15574999Y-18430000D02*
G01*
X14894999Y-18430000D01*
X15234999Y-17960000D01*
X15574999Y-18430000D01*
G37*
%TO.C,R56*%
X14830055Y-3143183D02*
X14533243Y-3222713D01*
X15026757Y-3877287D02*
X14729945Y-3956817D01*
%TO.C,C62*%
X29020000Y-8422164D02*
X29020000Y-8637836D01*
X29740000Y-8422164D02*
X29740000Y-8637836D01*
%TO.C,R8*%
X2020000Y-2996359D02*
X2020000Y-3303641D01*
X2780000Y-2996359D02*
X2780000Y-3303641D01*
%TO.C,R61*%
X34146359Y-7420000D02*
X34453641Y-7420000D01*
X34146359Y-8180000D02*
X34453641Y-8180000D01*
%TO.C,R51*%
X8753641Y-17220000D02*
X8446359Y-17220000D01*
X8753641Y-17980000D02*
X8446359Y-17980000D01*
%TO.C,SW1*%
X38300000Y-11680000D02*
X40500000Y-11680000D01*
X38300000Y-14520000D02*
X40500000Y-14520000D01*
%TO.C,R30*%
X5753641Y-420000D02*
X5446359Y-420000D01*
X5753641Y-1180000D02*
X5446359Y-1180000D01*
%TO.C,R67*%
X36053641Y-13720000D02*
X35746359Y-13720000D01*
X36053641Y-14480000D02*
X35746359Y-14480000D01*
%TO.C,U13*%
X12200000Y-19840000D02*
X11400000Y-19840000D01*
X12200000Y-19840000D02*
X13000000Y-19840000D01*
X12200000Y-22960000D02*
X11400000Y-22960000D01*
X12200000Y-22960000D02*
X13000000Y-22960000D01*
X10900000Y-22910000D02*
X10660000Y-23240000D01*
X11140000Y-23240000D01*
X10900000Y-22910000D01*
G36*
X11140000Y-23240000D02*
G01*
X10660000Y-23240000D01*
X10900000Y-22910000D01*
X11140000Y-23240000D01*
G37*
%TO.C,C15*%
X39390000Y-21540580D02*
X39390000Y-21259420D01*
X40410000Y-21540580D02*
X40410000Y-21259420D01*
%TO.C,R64*%
X22496359Y-2920000D02*
X22803641Y-2920000D01*
X22496359Y-3680000D02*
X22803641Y-3680000D01*
%TO.C,C61*%
X16139999Y-2440580D02*
X16139999Y-2159420D01*
X17159999Y-2440580D02*
X17159999Y-2159420D01*
%TO.C,C2*%
X25890000Y-7177836D02*
X25890000Y-6962164D01*
X26610000Y-7177836D02*
X26610000Y-6962164D01*
%TO.C,R16*%
X23827500Y-5817258D02*
X23827500Y-5342742D01*
X24872500Y-5817258D02*
X24872500Y-5342742D01*
%TO.C,R39*%
X9046359Y-20320000D02*
X9353641Y-20320000D01*
X9046359Y-21080000D02*
X9353641Y-21080000D01*
%TO.C,R58*%
X14955000Y-1953641D02*
X14955000Y-1646359D01*
X15715000Y-1953641D02*
X15715000Y-1646359D01*
%TO.C,R66*%
X30626359Y-7800000D02*
X30933641Y-7800000D01*
X30626359Y-8560000D02*
X30933641Y-8560000D01*
%TO.C,C4*%
X17402164Y-20840000D02*
X17617836Y-20840000D01*
X17402164Y-21560000D02*
X17617836Y-21560000D01*
%TO.C,R7*%
X4146359Y-20320000D02*
X4453641Y-20320000D01*
X4146359Y-21080000D02*
X4453641Y-21080000D01*
%TO.C,R38*%
X4020000Y-24196359D02*
X4020000Y-24503641D01*
X4780000Y-24196359D02*
X4780000Y-24503641D01*
%TO.C,C67*%
X33321252Y-4665000D02*
X32798748Y-4665000D01*
X33321252Y-6135000D02*
X32798748Y-6135000D01*
%TO.C,R5*%
X27665000Y-24153641D02*
X27665000Y-23846359D01*
%TO.C,C65*%
X26710580Y-4890000D02*
X26429420Y-4890000D01*
X26710580Y-5910000D02*
X26429420Y-5910000D01*
%TO.C,C63*%
X26557836Y-3690000D02*
X26342164Y-3690000D01*
X26557836Y-4410000D02*
X26342164Y-4410000D01*
%TO.C,R45*%
X11621359Y-23545000D02*
X11928641Y-23545000D01*
X11621359Y-24305000D02*
X11928641Y-24305000D01*
%TO.C,R70*%
X17453641Y-22420000D02*
X17146359Y-22420000D01*
X17453641Y-23180000D02*
X17146359Y-23180000D01*
%TD*%
M02*
