%TF.GenerationSoftware,KiCad,Pcbnew,10.0.6*%
%TF.CreationDate,2026-10-07T12:36:03+00:00*%
%TF.ProjectId,f722-heli,66373232-2d68-4656-9c69-2e6b69636164,rev?*%
%TF.SameCoordinates,Original*%
%TF.FileFunction,Soldermask,Bot*%
%TF.FilePolarity,Negative*%
%FSLAX46Y46*%
G04 Gerber Fmt 4.6, Leading zero omitted, Abs format (unit mm)*
G04 Created by KiCad (PCBNEW 10.0.6) date 2026-10-07 12:36:03*
%MOMM*%
%LPD*%
G01*
G04 APERTURE LIST*
G04 Aperture macros list*
%AMRoundRect*
0 Rectangle with rounded corners*
0 $1 Rounding radius*
0 $2 $3 $4 $5 $6 $7 $8 $9 X,Y pos of 4 corners*
0 Add a 4 corners polygon primitive as box body*
4,1,4,$2,$3,$4,$5,$6,$7,$8,$9,$2,$3,0*
0 Add four circle primitives for the rounded corners*
1,1,$1+$1,$2,$3*
1,1,$1+$1,$4,$5*
1,1,$1+$1,$6,$7*
1,1,$1+$1,$8,$9*
0 Add four rect primitives between the rounded corners*
20,1,$1+$1,$2,$3,$4,$5,0*
20,1,$1+$1,$4,$5,$6,$7,0*
20,1,$1+$1,$6,$7,$8,$9,0*
20,1,$1+$1,$8,$9,$2,$3,0*%
G04 Aperture macros list end*
%ADD10R,1.800000X1.800000*%
%ADD11O,1.800000X1.800000*%
%ADD12C,0.710000*%
%ADD13O,0.710000X1.010000*%
%ADD14O,1.100000X1.600000*%
%ADD15RoundRect,0.135000X0.185000X-0.135000X0.185000X0.135000X-0.185000X0.135000X-0.185000X-0.135000X0*%
%ADD16RoundRect,0.140000X0.170000X-0.140000X0.170000X0.140000X-0.170000X0.140000X-0.170000X-0.140000X0*%
%ADD17RoundRect,0.100000X-0.175000X-0.100000X0.175000X-0.100000X0.175000X0.100000X-0.175000X0.100000X0*%
%ADD18RoundRect,0.100000X-0.450000X-0.750000X0.450000X-0.750000X0.450000X0.750000X-0.450000X0.750000X0*%
%ADD19RoundRect,0.135000X-0.135000X-0.185000X0.135000X-0.185000X0.135000X0.185000X-0.135000X0.185000X0*%
%ADD20RoundRect,0.050000X-0.200000X-0.200000X0.200000X-0.200000X0.200000X0.200000X-0.200000X0.200000X0*%
%ADD21RoundRect,0.150000X-0.587500X-0.150000X0.587500X-0.150000X0.587500X0.150000X-0.587500X0.150000X0*%
%ADD22RoundRect,0.225000X-0.225000X-0.250000X0.225000X-0.250000X0.225000X0.250000X-0.225000X0.250000X0*%
%ADD23RoundRect,0.050000X-0.200000X0.200000X-0.200000X-0.200000X0.200000X-0.200000X0.200000X0.200000X0*%
%ADD24RoundRect,0.225000X0.250000X-0.225000X0.250000X0.225000X-0.250000X0.225000X-0.250000X-0.225000X0*%
%ADD25RoundRect,0.140000X-0.140000X-0.170000X0.140000X-0.170000X0.140000X0.170000X-0.140000X0.170000X0*%
%ADD26RoundRect,0.050000X0.200000X0.200000X-0.200000X0.200000X-0.200000X-0.200000X0.200000X-0.200000X0*%
%ADD27RoundRect,0.135000X0.135000X0.185000X-0.135000X0.185000X-0.135000X-0.185000X0.135000X-0.185000X0*%
%ADD28RoundRect,0.125000X-0.175000X0.125000X-0.175000X-0.125000X0.175000X-0.125000X0.175000X0.125000X0*%
%ADD29RoundRect,0.140000X0.140000X0.170000X-0.140000X0.170000X-0.140000X-0.170000X0.140000X-0.170000X0*%
%ADD30C,1.000000*%
%ADD31RoundRect,0.100000X-0.200000X-0.075000X0.200000X-0.075000X0.200000X0.075000X-0.200000X0.075000X0*%
%ADD32RoundRect,0.100000X-0.400000X-0.750000X0.400000X-0.750000X0.400000X0.750000X-0.400000X0.750000X0*%
%ADD33RoundRect,0.130000X-0.520000X-0.570000X0.520000X-0.570000X0.520000X0.570000X-0.520000X0.570000X0*%
%ADD34RoundRect,0.250000X0.250000X0.475000X-0.250000X0.475000X-0.250000X-0.475000X0.250000X-0.475000X0*%
%ADD35RoundRect,0.150000X0.150000X-0.587500X0.150000X0.587500X-0.150000X0.587500X-0.150000X-0.587500X0*%
%ADD36RoundRect,0.050000X0.200000X-0.200000X0.200000X0.200000X-0.200000X0.200000X-0.200000X-0.200000X0*%
%ADD37RoundRect,0.250000X-0.250000X-0.475000X0.250000X-0.475000X0.250000X0.475000X-0.250000X0.475000X0*%
%ADD38RoundRect,0.225000X0.225000X0.250000X-0.225000X0.250000X-0.225000X-0.250000X0.225000X-0.250000X0*%
%ADD39R,0.350000X0.350000*%
%ADD40RoundRect,0.050000X0.285000X0.100000X-0.285000X0.100000X-0.285000X-0.100000X0.285000X-0.100000X0*%
%ADD41RoundRect,0.125000X-0.200000X-0.125000X0.200000X-0.125000X0.200000X0.125000X-0.200000X0.125000X0*%
%ADD42R,3.400000X4.300000*%
%ADD43RoundRect,0.050000X-0.450000X-1.400000X0.450000X-1.400000X0.450000X1.400000X-0.450000X1.400000X0*%
%ADD44RoundRect,0.100000X-0.475000X-0.150000X0.475000X-0.150000X0.475000X0.150000X-0.475000X0.150000X0*%
%ADD45RoundRect,0.100000X-0.050000X-0.250000X0.050000X-0.250000X0.050000X0.250000X-0.050000X0.250000X0*%
%ADD46RoundRect,0.250000X0.350000X-0.450000X0.350000X0.450000X-0.350000X0.450000X-0.350000X-0.450000X0*%
%ADD47RoundRect,0.062500X0.117500X0.062500X-0.117500X0.062500X-0.117500X-0.062500X0.117500X-0.062500X0*%
%ADD48RoundRect,0.100000X0.175000X0.100000X-0.175000X0.100000X-0.175000X-0.100000X0.175000X-0.100000X0*%
%ADD49RoundRect,0.100000X0.450000X0.750000X-0.450000X0.750000X-0.450000X-0.750000X0.450000X-0.750000X0*%
%ADD50RoundRect,0.075000X-0.700000X-0.075000X0.700000X-0.075000X0.700000X0.075000X-0.700000X0.075000X0*%
%ADD51RoundRect,0.075000X-0.075000X-0.700000X0.075000X-0.700000X0.075000X0.700000X-0.075000X0.700000X0*%
%ADD52RoundRect,0.135000X0.082518X0.213637X-0.178282X0.143756X-0.082518X-0.213637X0.178282X-0.143756X0*%
%ADD53RoundRect,0.140000X-0.170000X0.140000X-0.170000X-0.140000X0.170000X-0.140000X0.170000X0.140000X0*%
%ADD54RoundRect,0.135000X-0.185000X0.135000X-0.185000X-0.135000X0.185000X-0.135000X0.185000X0.135000X0*%
%ADD55RoundRect,0.097500X-0.227500X-0.252500X0.227500X-0.252500X0.227500X0.252500X-0.227500X0.252500X0*%
%ADD56RoundRect,0.150000X-0.512500X-0.150000X0.512500X-0.150000X0.512500X0.150000X-0.512500X0.150000X0*%
%ADD57RoundRect,0.200000X0.275000X-0.137500X0.275000X0.137500X-0.275000X0.137500X-0.275000X-0.137500X0*%
G04 APERTURE END LIST*
D10*
%TO.C,J3*%
X4060000Y-6250000D03*
D11*
X6600000Y-6250000D03*
X9140000Y-6250000D03*
%TD*%
D10*
%TO.C,J8*%
X4060000Y-22250000D03*
D11*
X6600000Y-22250000D03*
X9140000Y-22250000D03*
%TD*%
D10*
%TO.C,J4*%
X4060000Y-9350000D03*
D11*
X6600000Y-9350000D03*
X9140000Y-9350000D03*
%TD*%
D10*
%TO.C,J7*%
X4060000Y-19150000D03*
D11*
X6600000Y-19150000D03*
X9140000Y-19150000D03*
%TD*%
D10*
%TO.C,J6*%
X4060000Y-16050000D03*
D11*
X6600000Y-16050000D03*
X9140000Y-16050000D03*
%TD*%
D10*
%TO.C,J2*%
X4060000Y-3150000D03*
D11*
X6600000Y-3150000D03*
X9140000Y-3150000D03*
%TD*%
D12*
%TO.C,J1*%
X39000000Y-17000000D03*
D13*
X39000000Y-9000000D03*
D14*
X37570000Y-17000000D03*
X40430000Y-17000000D03*
X37570000Y-9000000D03*
X40430000Y-9000000D03*
%TD*%
D10*
%TO.C,J5*%
X4060000Y-12450000D03*
D11*
X6600000Y-12450000D03*
X9140000Y-12450000D03*
%TD*%
D15*
%TO.C,R9*%
X13050000Y-10660000D03*
X13050000Y-9640000D03*
%TD*%
D16*
%TO.C,C19*%
X11900000Y-10630000D03*
X11900000Y-9670000D03*
%TD*%
D17*
%TO.C,U11*%
X19025000Y-23150000D03*
X19025000Y-22500000D03*
X19025000Y-21850000D03*
X20975000Y-21850000D03*
X20975000Y-22500000D03*
X20975000Y-23150000D03*
D18*
X20000000Y-22500000D03*
%TD*%
D19*
%TO.C,R33*%
X30690000Y-18200000D03*
X31710000Y-18200000D03*
%TD*%
D20*
%TO.C,R23*%
X1500000Y-11500000D03*
X2500000Y-11500000D03*
%TD*%
D21*
%TO.C,Q2*%
X1012500Y-15150000D03*
X1012500Y-13250000D03*
X2887500Y-14200000D03*
%TD*%
D22*
%TO.C,C52*%
X11225000Y-17200000D03*
X12775000Y-17200000D03*
%TD*%
D23*
%TO.C,R21*%
X800000Y-6600000D03*
X800000Y-7600000D03*
%TD*%
D24*
%TO.C,C69*%
X22300000Y-23075000D03*
X22300000Y-21525000D03*
%TD*%
D25*
%TO.C,C6*%
X15020000Y-21350000D03*
X15980000Y-21350000D03*
%TD*%
D19*
%TO.C,R57*%
X6490000Y-4700000D03*
X7510000Y-4700000D03*
%TD*%
D26*
%TO.C,R20*%
X1600000Y-4700000D03*
X600000Y-4700000D03*
%TD*%
D27*
%TO.C,R35*%
X33710000Y-18100000D03*
X32690000Y-18100000D03*
%TD*%
D28*
%TO.C,C60*%
X14100000Y-6250000D03*
X14100000Y-7150000D03*
%TD*%
D16*
%TO.C,C14*%
X39900000Y-24680000D03*
X39900000Y-23720000D03*
%TD*%
D25*
%TO.C,C17*%
X1120000Y-24150000D03*
X2080000Y-24150000D03*
%TD*%
D29*
%TO.C,C18*%
X12380000Y-16000000D03*
X11420000Y-16000000D03*
%TD*%
D19*
%TO.C,R69*%
X31789999Y-9200000D03*
X32809999Y-9200000D03*
%TD*%
D30*
%TO.C,TP1*%
X29885000Y-17000000D03*
%TD*%
D22*
%TO.C,C51*%
X7095000Y-14325000D03*
X8645000Y-14325000D03*
%TD*%
D29*
%TO.C,C9*%
X12830000Y-8475000D03*
X11870000Y-8475000D03*
%TD*%
D31*
%TO.C,U9*%
X27910000Y-3250000D03*
X27910000Y-2750000D03*
X27910000Y-2250000D03*
X27910000Y-1750000D03*
X29810000Y-1750000D03*
X29810000Y-2250000D03*
X29810000Y-2750000D03*
X29810000Y-3250000D03*
D32*
X28860000Y-2500000D03*
%TD*%
D22*
%TO.C,C5*%
X20125000Y-4600000D03*
X21675000Y-4600000D03*
%TD*%
D33*
%TO.C,D8*%
X28650000Y-15000000D03*
X31550000Y-15000000D03*
%TD*%
D34*
%TO.C,C66*%
X26310000Y-2400000D03*
X24410000Y-2400000D03*
%TD*%
D30*
%TO.C,TP2*%
X34010000Y-16524999D03*
%TD*%
D19*
%TO.C,R50*%
X6690000Y-20700000D03*
X7710000Y-20700000D03*
%TD*%
D35*
%TO.C,Q1*%
X25950000Y-23387500D03*
X24050000Y-23387500D03*
X25000000Y-21512500D03*
%TD*%
D24*
%TO.C,C20*%
X31900000Y-12775000D03*
X31900000Y-11225000D03*
%TD*%
D33*
%TO.C,D9*%
X10950000Y-1600000D03*
X13850000Y-1600000D03*
%TD*%
D36*
%TO.C,FB1*%
X10740000Y-9250000D03*
X10740000Y-8350000D03*
%TD*%
D24*
%TO.C,C59*%
X18200000Y-5125000D03*
X18200000Y-3575000D03*
%TD*%
D19*
%TO.C,R71*%
X32890000Y-14400000D03*
X33910000Y-14400000D03*
%TD*%
D25*
%TO.C,C31*%
X13520000Y-24100000D03*
X14480000Y-24100000D03*
%TD*%
D37*
%TO.C,C53*%
X20850000Y-1100000D03*
X22750000Y-1100000D03*
%TD*%
D19*
%TO.C,R4*%
X25990000Y-20250000D03*
X27010000Y-20250000D03*
%TD*%
D15*
%TO.C,R34*%
X29650000Y-20810000D03*
X29650000Y-19790000D03*
%TD*%
D38*
%TO.C,C68*%
X35525000Y-9800000D03*
X33975000Y-9800000D03*
%TD*%
D20*
%TO.C,R24*%
X1500000Y-16700000D03*
X2500000Y-16700000D03*
%TD*%
D39*
%TO.C,U4*%
X2325000Y-21675000D03*
X2325000Y-21025000D03*
X2325000Y-20375000D03*
X2325000Y-19725000D03*
X875000Y-19725000D03*
X875000Y-20375000D03*
X875000Y-21025000D03*
X875000Y-21675000D03*
%TD*%
D19*
%TO.C,R60*%
X28790000Y-700000D03*
X29810000Y-700000D03*
%TD*%
D40*
%TO.C,U7*%
X16840000Y-4850000D03*
X16840000Y-5350000D03*
X16840000Y-5850000D03*
X16840000Y-6350000D03*
X15360000Y-6350000D03*
X15360000Y-5850000D03*
X15360000Y-5350000D03*
X15360000Y-4850000D03*
%TD*%
D41*
%TO.C,U3*%
X30950000Y-23905000D03*
X30950000Y-22635000D03*
X30950000Y-21365000D03*
X30950000Y-20095000D03*
X38450000Y-20095000D03*
X38450000Y-21365000D03*
X38450000Y-22635000D03*
X38450000Y-23905000D03*
D42*
X34700000Y-22000000D03*
%TD*%
D43*
%TO.C,L2*%
X31660000Y-2500000D03*
X34460000Y-2500000D03*
%TD*%
D25*
%TO.C,C50*%
X11420000Y-19100000D03*
X12380000Y-19100000D03*
%TD*%
%TO.C,C1*%
X18029999Y-6300000D03*
X18989999Y-6300000D03*
%TD*%
D38*
%TO.C,C7*%
X21775000Y-6150000D03*
X20225000Y-6150000D03*
%TD*%
D44*
%TO.C,U8*%
X28825000Y-6150000D03*
X28825000Y-5450000D03*
D45*
X28750000Y-4650000D03*
X29250000Y-4650000D03*
X29750000Y-4650000D03*
X30250000Y-4650000D03*
D44*
X30175000Y-5450000D03*
X30175000Y-6150000D03*
D45*
X30250000Y-6950000D03*
X29750000Y-6950000D03*
X29250000Y-6950000D03*
X28750000Y-6950000D03*
%TD*%
D37*
%TO.C,C57*%
X10850000Y-6725000D03*
X12750000Y-6725000D03*
%TD*%
D16*
%TO.C,C3*%
X28250000Y-17980000D03*
X28250000Y-17020000D03*
%TD*%
D46*
%TO.C,Y1*%
X11050000Y-14400000D03*
X11050000Y-12200000D03*
X12750000Y-12200000D03*
X12750000Y-14400000D03*
%TD*%
D47*
%TO.C,D7*%
X13580000Y-19450000D03*
X14420000Y-19450000D03*
%TD*%
D38*
%TO.C,C70*%
X19225000Y-24600000D03*
X17675000Y-24600000D03*
%TD*%
D48*
%TO.C,U10*%
X35575000Y-11350000D03*
X35575000Y-12000000D03*
X35575000Y-12650000D03*
X33625000Y-12650000D03*
X33625000Y-12000000D03*
X33625000Y-11350000D03*
D49*
X34600000Y-12000000D03*
%TD*%
D25*
%TO.C,C16*%
X1120000Y-22950000D03*
X2080000Y-22950000D03*
%TD*%
D15*
%TO.C,R6*%
X27285000Y-22160000D03*
X27285000Y-21140000D03*
%TD*%
D19*
%TO.C,R37*%
X8990000Y-24400000D03*
X10010000Y-24400000D03*
%TD*%
D37*
%TO.C,C56*%
X10850000Y-4650000D03*
X12750000Y-4650000D03*
%TD*%
D50*
%TO.C,U1*%
X15284999Y-17550000D03*
X15284999Y-17050000D03*
X15284999Y-16550000D03*
X15284999Y-16050000D03*
X15284999Y-15550000D03*
X15284999Y-15050000D03*
X15284999Y-14550000D03*
X15284999Y-14050000D03*
X15284999Y-13550000D03*
X15284999Y-13050000D03*
X15284999Y-12550000D03*
X15284999Y-12050000D03*
X15284999Y-11550000D03*
X15284999Y-11050000D03*
X15284999Y-10550000D03*
X15284999Y-10050000D03*
D51*
X17209999Y-8125000D03*
X17709999Y-8125000D03*
X18209999Y-8125000D03*
X18709999Y-8125000D03*
X19209999Y-8125000D03*
X19709999Y-8125000D03*
X20209999Y-8125000D03*
X20709999Y-8125000D03*
X21209999Y-8125000D03*
X21709999Y-8125000D03*
X22209999Y-8125000D03*
X22709999Y-8125000D03*
X23209999Y-8125000D03*
X23709999Y-8125000D03*
X24209999Y-8125000D03*
X24709999Y-8125000D03*
D50*
X26634999Y-10050000D03*
X26634999Y-10550000D03*
X26634999Y-11050000D03*
X26634999Y-11550000D03*
X26634999Y-12050000D03*
X26634999Y-12550000D03*
X26634999Y-13050000D03*
X26634999Y-13550000D03*
X26634999Y-14050000D03*
X26634999Y-14550000D03*
X26634999Y-15050000D03*
X26634999Y-15550000D03*
X26634999Y-16050000D03*
X26634999Y-16550000D03*
X26634999Y-17050000D03*
X26634999Y-17550000D03*
D51*
X24709999Y-19475000D03*
X24209999Y-19475000D03*
X23709999Y-19475000D03*
X23209999Y-19475000D03*
X22709999Y-19475000D03*
X22209999Y-19475000D03*
X21709999Y-19475000D03*
X21209999Y-19475000D03*
X20709999Y-19475000D03*
X20209999Y-19475000D03*
X19709999Y-19475000D03*
X19209999Y-19475000D03*
X18709999Y-19475000D03*
X18209999Y-19475000D03*
X17709999Y-19475000D03*
X17209999Y-19475000D03*
%TD*%
D52*
%TO.C,R56*%
X15272622Y-3418002D03*
X14287378Y-3681998D03*
%TD*%
D53*
%TO.C,C62*%
X29380000Y-8050000D03*
X29380000Y-9010000D03*
%TD*%
D54*
%TO.C,R8*%
X2400000Y-2640000D03*
X2400000Y-3660000D03*
%TD*%
D26*
%TO.C,R53*%
X5700000Y-17600000D03*
X4700000Y-17600000D03*
%TD*%
D19*
%TO.C,R61*%
X33790000Y-7800000D03*
X34810000Y-7800000D03*
%TD*%
D27*
%TO.C,R51*%
X9110000Y-17600000D03*
X8090000Y-17600000D03*
%TD*%
D36*
%TO.C,R22*%
X2400000Y-9850000D03*
X2400000Y-8850000D03*
%TD*%
D55*
%TO.C,SW1*%
X37925000Y-14050000D03*
X40875000Y-14050000D03*
X37925000Y-12150000D03*
X40875000Y-12150000D03*
%TD*%
D27*
%TO.C,R30*%
X6110000Y-800000D03*
X5090000Y-800000D03*
%TD*%
%TO.C,R67*%
X36410000Y-14100000D03*
X35390000Y-14100000D03*
%TD*%
D56*
%TO.C,U13*%
X11062500Y-22350000D03*
X11062500Y-21400000D03*
X11062500Y-20450000D03*
X13337500Y-20450000D03*
X13337500Y-21400000D03*
X13337500Y-22350000D03*
%TD*%
D24*
%TO.C,C15*%
X39900000Y-22175000D03*
X39900000Y-20625000D03*
%TD*%
D30*
%TO.C,TP3*%
X800000Y-10100000D03*
%TD*%
D19*
%TO.C,R64*%
X22140000Y-3300000D03*
X23160000Y-3300000D03*
%TD*%
D24*
%TO.C,C61*%
X16649999Y-3075000D03*
X16649999Y-1525000D03*
%TD*%
D16*
%TO.C,C2*%
X26250000Y-7550000D03*
X26250000Y-6590000D03*
%TD*%
D57*
%TO.C,R16*%
X24350000Y-6342500D03*
X24350000Y-4817500D03*
%TD*%
D30*
%TO.C,TP4*%
X900000Y-1900000D03*
%TD*%
D19*
%TO.C,R39*%
X8690000Y-20700000D03*
X9710000Y-20700000D03*
%TD*%
D15*
%TO.C,R58*%
X15335000Y-2310000D03*
X15335000Y-1290000D03*
%TD*%
D19*
%TO.C,R66*%
X30270000Y-8180000D03*
X31290000Y-8180000D03*
%TD*%
D25*
%TO.C,C4*%
X17030000Y-21200000D03*
X17990000Y-21200000D03*
%TD*%
D19*
%TO.C,R7*%
X3790000Y-20700000D03*
X4810000Y-20700000D03*
%TD*%
D54*
%TO.C,R38*%
X4400000Y-23840000D03*
X4400000Y-24860000D03*
%TD*%
D34*
%TO.C,C67*%
X34010000Y-5400000D03*
X32110000Y-5400000D03*
%TD*%
D15*
%TO.C,R5*%
X27285000Y-24510000D03*
X27285000Y-23490000D03*
%TD*%
D38*
%TO.C,C65*%
X27345000Y-5400000D03*
X25795000Y-5400000D03*
%TD*%
D29*
%TO.C,C63*%
X26930000Y-4050000D03*
X25970000Y-4050000D03*
%TD*%
D19*
%TO.C,R45*%
X11265000Y-23925000D03*
X12285000Y-23925000D03*
%TD*%
D27*
%TO.C,R70*%
X17810000Y-22800000D03*
X16790000Y-22800000D03*
%TD*%
M02*
