%TF.GenerationSoftware,KiCad,Pcbnew,10.0.6*%
%TF.CreationDate,2026-10-07T12:36:03+00:00*%
%TF.ProjectId,f722-heli,66373232-2d68-4656-9c69-2e6b69636164,rev?*%
%TF.SameCoordinates,Original*%
%TF.FileFunction,Copper,L1,Top*%
%TF.FilePolarity,Positive*%
%FSLAX46Y46*%
G04 Gerber Fmt 4.6, Leading zero omitted, Abs format (unit mm)*
G04 Created by KiCad (PCBNEW 10.0.6) date 2026-10-07 12:36:03*
%MOMM*%
%LPD*%
G01*
G04 APERTURE LIST*
G04 Aperture macros list*
%AMRoundRect*
0 Rectangle with rounded corners*
0 $1 Rounding radius*
0 $2 $3 $4 $5 $6 $7 $8 $9 X,Y pos of 4 corners*
0 Add a 4 corners polygon primitive as box body*
4,1,4,$2,$3,$4,$5,$6,$7,$8,$9,$2,$3,0*
0 Add four circle primitives for the rounded corners*
1,1,$1+$1,$2,$3*
1,1,$1+$1,$4,$5*
1,1,$1+$1,$6,$7*
1,1,$1+$1,$8,$9*
0 Add four rect primitives between the rounded corners*
20,1,$1+$1,$2,$3,$4,$5,0*
20,1,$1+$1,$4,$5,$6,$7,0*
20,1,$1+$1,$6,$7,$8,$9,0*
20,1,$1+$1,$8,$9,$2,$3,0*%
%AMFreePoly0*
4,1,47,0.259755,0.349039,0.269134,0.346194,0.277779,0.341573,0.285355,0.335355,0.291573,0.327779,0.296194,0.319134,0.299039,0.309755,0.300000,0.300000,0.300000,0.050000,0.299039,0.040245,0.296194,0.030866,0.291573,0.022221,0.285355,0.014645,0.277779,0.008427,0.269134,0.003806,0.259755,0.000961,0.250000,0.000000,0.175000,0.000000,0.175000,-0.300000,0.174039,-0.309755,
0.171194,-0.319134,0.166573,-0.327779,0.160355,-0.335355,0.152779,-0.341573,0.144134,-0.346194,0.134755,-0.349039,0.125000,-0.350000,-0.125000,-0.350000,-0.134755,-0.349039,-0.144134,-0.346194,-0.152779,-0.341573,-0.160355,-0.335355,-0.166573,-0.327779,-0.171194,-0.319134,-0.174039,-0.309755,-0.175000,-0.300000,-0.175000,0.300000,-0.174039,0.309755,-0.171194,0.319134,-0.166573,0.327779,
-0.160355,0.335355,-0.152779,0.341573,-0.144134,0.346194,-0.134755,0.349039,-0.125000,0.350000,0.250000,0.350000,0.259755,0.349039,0.259755,0.349039,$1*%
%AMFreePoly1*
4,1,47,0.134755,0.349039,0.144134,0.346194,0.152779,0.341573,0.160355,0.335355,0.166573,0.327779,0.171194,0.319134,0.174039,0.309755,0.175000,0.300000,0.175000,-0.300000,0.174039,-0.309755,0.171194,-0.319134,0.166573,-0.327779,0.160355,-0.335355,0.152779,-0.341573,0.144134,-0.346194,0.134755,-0.349039,0.125000,-0.350000,-0.125000,-0.350000,-0.134755,-0.349039,-0.144134,-0.346194,
-0.152779,-0.341573,-0.160355,-0.335355,-0.166573,-0.327779,-0.171194,-0.319134,-0.174039,-0.309755,-0.175000,-0.300000,-0.175000,0.000000,-0.250000,0.000000,-0.259755,0.000961,-0.269134,0.003806,-0.277779,0.008427,-0.285355,0.014645,-0.291573,0.022221,-0.296194,0.030866,-0.299039,0.040245,-0.300000,0.050000,-0.300000,0.300000,-0.299039,0.309755,-0.296194,0.319134,-0.291573,0.327779,
-0.285355,0.335355,-0.277779,0.341573,-0.269134,0.346194,-0.259755,0.349039,-0.250000,0.350000,0.125000,0.350000,0.134755,0.349039,0.134755,0.349039,$1*%
%AMFreePoly2*
4,1,47,0.134755,0.349039,0.144134,0.346194,0.152779,0.341573,0.160355,0.335355,0.166573,0.327779,0.171194,0.319134,0.174039,0.309755,0.175000,0.300000,0.175000,-0.300000,0.174039,-0.309755,0.171194,-0.319134,0.166573,-0.327779,0.160355,-0.335355,0.152779,-0.341573,0.144134,-0.346194,0.134755,-0.349039,0.125000,-0.350000,-0.250000,-0.350000,-0.259755,-0.349039,-0.269134,-0.346194,
-0.277779,-0.341573,-0.285355,-0.335355,-0.291573,-0.327779,-0.296194,-0.319134,-0.299039,-0.309755,-0.300000,-0.300000,-0.300000,-0.050000,-0.299039,-0.040245,-0.296194,-0.030866,-0.291573,-0.022221,-0.285355,-0.014645,-0.277779,-0.008427,-0.269134,-0.003806,-0.259755,-0.000961,-0.250000,0.000000,-0.175000,0.000000,-0.175000,0.300000,-0.174039,0.309755,-0.171194,0.319134,-0.166573,0.327779,
-0.160355,0.335355,-0.152779,0.341573,-0.144134,0.346194,-0.134755,0.349039,-0.125000,0.350000,0.125000,0.350000,0.134755,0.349039,0.134755,0.349039,$1*%
%AMFreePoly3*
4,1,47,0.134755,0.349039,0.144134,0.346194,0.152779,0.341573,0.160355,0.335355,0.166573,0.327779,0.171194,0.319134,0.174039,0.309755,0.175000,0.300000,0.175000,0.000000,0.250000,0.000000,0.259755,-0.000961,0.269134,-0.003806,0.277779,-0.008427,0.285355,-0.014645,0.291573,-0.022221,0.296194,-0.030866,0.299039,-0.040245,0.300000,-0.050000,0.300000,-0.300000,0.299039,-0.309755,
0.296194,-0.319134,0.291573,-0.327779,0.285355,-0.335355,0.277779,-0.341573,0.269134,-0.346194,0.259755,-0.349039,0.250000,-0.350000,-0.125000,-0.350000,-0.134755,-0.349039,-0.144134,-0.346194,-0.152779,-0.341573,-0.160355,-0.335355,-0.166573,-0.327779,-0.171194,-0.319134,-0.174039,-0.309755,-0.175000,-0.300000,-0.175000,0.300000,-0.174039,0.309755,-0.171194,0.319134,-0.166573,0.327779,
-0.160355,0.335355,-0.152779,0.341573,-0.144134,0.346194,-0.134755,0.349039,-0.125000,0.350000,0.125000,0.350000,0.134755,0.349039,0.134755,0.349039,$1*%
%AMFreePoly4*
4,1,39,0.427500,-0.200000,0.017500,-0.200000,0.016539,-0.190245,0.013694,-0.180866,0.009073,-0.172221,0.002855,-0.164645,-0.004721,-0.158427,-0.013366,-0.153806,-0.022745,-0.150961,-0.032500,-0.150000,-0.232500,-0.150000,-0.242255,-0.149039,-0.251634,-0.146194,-0.260279,-0.141573,-0.267855,-0.135355,-0.274073,-0.127779,-0.278694,-0.119134,-0.281539,-0.109755,-0.282500,-0.100000,-0.282500,0.100000,
-0.281539,0.109755,-0.278694,0.119134,-0.274073,0.127779,-0.267855,0.135355,-0.260279,0.141573,-0.251634,0.146194,-0.242255,0.149039,-0.232500,0.150000,-0.032500,0.150000,-0.022745,0.150961,-0.013366,0.153806,-0.004721,0.158427,0.002855,0.164645,0.009073,0.172221,0.013694,0.180866,0.016539,0.190245,0.017500,0.200000,0.427500,0.200000,0.427500,-0.200000,0.427500,-0.200000,
$1*%
%AMFreePoly5*
4,1,39,-0.016539,0.190245,-0.013694,0.180866,-0.009073,0.172221,-0.002855,0.164645,0.004721,0.158427,0.013366,0.153806,0.022745,0.150961,0.032500,0.150000,0.232500,0.150000,0.242255,0.149039,0.251634,0.146194,0.260279,0.141573,0.267855,0.135355,0.274073,0.127779,0.278694,0.119134,0.281539,0.109755,0.282500,0.100000,0.282500,-0.100000,0.281539,-0.109755,0.278694,-0.119134,
0.274073,-0.127779,0.267855,-0.135355,0.260279,-0.141573,0.251634,-0.146194,0.242255,-0.149039,0.232500,-0.150000,0.032500,-0.150000,0.022745,-0.150961,0.013366,-0.153806,0.004721,-0.158427,-0.002855,-0.164645,-0.009073,-0.172221,-0.013694,-0.180866,-0.016539,-0.190245,-0.017500,-0.200000,-0.427500,-0.200000,-0.427500,0.200000,-0.017500,0.200000,-0.016539,0.190245,-0.016539,0.190245,
$1*%
%AMFreePoly6*
4,1,47,0.259755,0.499039,0.269134,0.496194,0.277779,0.491573,0.285355,0.485355,0.291573,0.477779,0.296194,0.469134,0.299039,0.459755,0.300000,0.450000,0.300000,-0.100000,0.299039,-0.109755,0.296194,-0.119134,0.291573,-0.127779,0.285355,-0.135355,0.277779,-0.141573,0.269134,-0.146194,0.259755,-0.149039,0.250000,-0.150000,-0.250000,-0.150000,-0.259755,-0.149039,-0.269134,-0.146194,
-0.277779,-0.141573,-0.285355,-0.135355,-0.291573,-0.127779,-0.296194,-0.119134,-0.299039,-0.109755,-0.300000,-0.100000,-0.300000,0.100000,-0.299039,0.109755,-0.296194,0.119134,-0.291573,0.127779,-0.285355,0.135355,-0.277779,0.141573,-0.269134,0.146194,-0.259755,0.149039,-0.250000,0.150000,0.050000,0.150000,0.050000,0.450000,0.050961,0.459755,0.053806,0.469134,0.058427,0.477779,
0.064645,0.485355,0.072221,0.491573,0.080866,0.496194,0.090245,0.499039,0.100000,0.500000,0.250000,0.500000,0.259755,0.499039,0.259755,0.499039,$1*%
%AMFreePoly7*
4,1,47,0.259755,0.149039,0.269134,0.146194,0.277779,0.141573,0.285355,0.135355,0.291573,0.127779,0.296194,0.119134,0.299039,0.109755,0.300000,0.100000,0.300000,-0.450000,0.299039,-0.459755,0.296194,-0.469134,0.291573,-0.477779,0.285355,-0.485355,0.277779,-0.491573,0.269134,-0.496194,0.259755,-0.499039,0.250000,-0.500000,0.100000,-0.500000,0.090245,-0.499039,0.080866,-0.496194,
0.072221,-0.491573,0.064645,-0.485355,0.058427,-0.477779,0.053806,-0.469134,0.050961,-0.459755,0.050000,-0.450000,0.050000,-0.150000,-0.250000,-0.150000,-0.259755,-0.149039,-0.269134,-0.146194,-0.277779,-0.141573,-0.285355,-0.135355,-0.291573,-0.127779,-0.296194,-0.119134,-0.299039,-0.109755,-0.300000,-0.100000,-0.300000,0.100000,-0.299039,0.109755,-0.296194,0.119134,-0.291573,0.127779,
-0.285355,0.135355,-0.277779,0.141573,-0.269134,0.146194,-0.259755,0.149039,-0.250000,0.150000,0.250000,0.150000,0.259755,0.149039,0.259755,0.149039,$1*%
%AMFreePoly8*
4,1,47,0.259755,0.149039,0.269134,0.146194,0.277779,0.141573,0.285355,0.135355,0.291573,0.127779,0.296194,0.119134,0.299039,0.109755,0.300000,0.100000,0.300000,-0.100000,0.299039,-0.109755,0.296194,-0.119134,0.291573,-0.127779,0.285355,-0.135355,0.277779,-0.141573,0.269134,-0.146194,0.259755,-0.149039,0.250000,-0.150000,-0.050000,-0.150000,-0.050000,-0.450000,-0.050961,-0.459755,
-0.053806,-0.469134,-0.058427,-0.477779,-0.064645,-0.485355,-0.072221,-0.491573,-0.080866,-0.496194,-0.090245,-0.499039,-0.100000,-0.500000,-0.250000,-0.500000,-0.259755,-0.499039,-0.269134,-0.496194,-0.277779,-0.491573,-0.285355,-0.485355,-0.291573,-0.477779,-0.296194,-0.469134,-0.299039,-0.459755,-0.300000,-0.450000,-0.300000,0.100000,-0.299039,0.109755,-0.296194,0.119134,-0.291573,0.127779,
-0.285355,0.135355,-0.277779,0.141573,-0.269134,0.146194,-0.259755,0.149039,-0.250000,0.150000,0.250000,0.150000,0.259755,0.149039,0.259755,0.149039,$1*%
%AMFreePoly9*
4,1,47,-0.090245,0.499039,-0.080866,0.496194,-0.072221,0.491573,-0.064645,0.485355,-0.058427,0.477779,-0.053806,0.469134,-0.050961,0.459755,-0.050000,0.450000,-0.050000,0.150000,0.250000,0.150000,0.259755,0.149039,0.269134,0.146194,0.277779,0.141573,0.285355,0.135355,0.291573,0.127779,0.296194,0.119134,0.299039,0.109755,0.300000,0.100000,0.300000,-0.100000,0.299039,-0.109755,
0.296194,-0.119134,0.291573,-0.127779,0.285355,-0.135355,0.277779,-0.141573,0.269134,-0.146194,0.259755,-0.149039,0.250000,-0.150000,-0.250000,-0.150000,-0.259755,-0.149039,-0.269134,-0.146194,-0.277779,-0.141573,-0.285355,-0.135355,-0.291573,-0.127779,-0.296194,-0.119134,-0.299039,-0.109755,-0.300000,-0.100000,-0.300000,0.450000,-0.299039,0.459755,-0.296194,0.469134,-0.291573,0.477779,
-0.285355,0.485355,-0.277779,0.491573,-0.269134,0.496194,-0.259755,0.499039,-0.250000,0.500000,-0.100000,0.500000,-0.090245,0.499039,-0.090245,0.499039,$1*%
G04 Aperture macros list end*
%TA.AperFunction,SMDPad,CuDef*%
%ADD10RoundRect,0.062500X-0.062500X0.117500X-0.062500X-0.117500X0.062500X-0.117500X0.062500X0.117500X0*%
%TD*%
%TA.AperFunction,SMDPad,CuDef*%
%ADD11RoundRect,0.050000X0.250000X0.075000X-0.250000X0.075000X-0.250000X-0.075000X0.250000X-0.075000X0*%
%TD*%
%TA.AperFunction,SMDPad,CuDef*%
%ADD12RoundRect,0.050000X0.075000X0.250000X-0.075000X0.250000X-0.075000X-0.250000X0.075000X-0.250000X0*%
%TD*%
%TA.AperFunction,SMDPad,CuDef*%
%ADD13FreePoly0,180.000000*%
%TD*%
%TA.AperFunction,SMDPad,CuDef*%
%ADD14FreePoly1,180.000000*%
%TD*%
%TA.AperFunction,SMDPad,CuDef*%
%ADD15RoundRect,0.100000X0.625000X0.075000X-0.625000X0.075000X-0.625000X-0.075000X0.625000X-0.075000X0*%
%TD*%
%TA.AperFunction,SMDPad,CuDef*%
%ADD16RoundRect,0.100000X0.800000X0.075000X-0.800000X0.075000X-0.800000X-0.075000X0.800000X-0.075000X0*%
%TD*%
%TA.AperFunction,SMDPad,CuDef*%
%ADD17FreePoly2,180.000000*%
%TD*%
%TA.AperFunction,SMDPad,CuDef*%
%ADD18FreePoly3,180.000000*%
%TD*%
%TA.AperFunction,SMDPad,CuDef*%
%ADD19RoundRect,0.135000X0.185000X-0.135000X0.185000X0.135000X-0.185000X0.135000X-0.185000X-0.135000X0*%
%TD*%
%TA.AperFunction,SMDPad,CuDef*%
%ADD20RoundRect,0.050000X0.232500X0.050000X-0.232500X0.050000X-0.232500X-0.050000X0.232500X-0.050000X0*%
%TD*%
%TA.AperFunction,SMDPad,CuDef*%
%ADD21FreePoly4,180.000000*%
%TD*%
%TA.AperFunction,SMDPad,CuDef*%
%ADD22FreePoly5,180.000000*%
%TD*%
%TA.AperFunction,SMDPad,CuDef*%
%ADD23RoundRect,0.135000X-0.135000X-0.185000X0.135000X-0.185000X0.135000X0.185000X-0.135000X0.185000X0*%
%TD*%
%TA.AperFunction,SMDPad,CuDef*%
%ADD24FreePoly6,0.000000*%
%TD*%
%TA.AperFunction,SMDPad,CuDef*%
%ADD25RoundRect,0.050000X-0.250000X-0.075000X0.250000X-0.075000X0.250000X0.075000X-0.250000X0.075000X0*%
%TD*%
%TA.AperFunction,SMDPad,CuDef*%
%ADD26FreePoly7,0.000000*%
%TD*%
%TA.AperFunction,SMDPad,CuDef*%
%ADD27RoundRect,0.050000X-0.100000X-1.150000X0.100000X-1.150000X0.100000X1.150000X-0.100000X1.150000X0*%
%TD*%
%TA.AperFunction,SMDPad,CuDef*%
%ADD28FreePoly8,0.000000*%
%TD*%
%TA.AperFunction,SMDPad,CuDef*%
%ADD29FreePoly9,0.000000*%
%TD*%
%TA.AperFunction,SMDPad,CuDef*%
%ADD30RoundRect,0.250000X0.250000X0.475000X-0.250000X0.475000X-0.250000X-0.475000X0.250000X-0.475000X0*%
%TD*%
%TA.AperFunction,SMDPad,CuDef*%
%ADD31RoundRect,0.250000X-0.250000X-0.475000X0.250000X-0.475000X0.250000X0.475000X-0.250000X0.475000X0*%
%TD*%
%TA.AperFunction,ComponentPad*%
%ADD32R,1.800000X1.800000*%
%TD*%
%TA.AperFunction,ComponentPad*%
%ADD33O,1.800000X1.800000*%
%TD*%
%TA.AperFunction,SMDPad,CuDef*%
%ADD34RoundRect,0.135000X-0.185000X0.135000X-0.185000X-0.135000X0.185000X-0.135000X0.185000X0.135000X0*%
%TD*%
%TA.AperFunction,SMDPad,CuDef*%
%ADD35RoundRect,0.250000X-0.475000X0.250000X-0.475000X-0.250000X0.475000X-0.250000X0.475000X0.250000X0*%
%TD*%
%TA.AperFunction,SMDPad,CuDef*%
%ADD36RoundRect,0.150000X0.150000X0.700000X-0.150000X0.700000X-0.150000X-0.700000X0.150000X-0.700000X0*%
%TD*%
%TA.AperFunction,SMDPad,CuDef*%
%ADD37RoundRect,0.250000X0.250000X1.150000X-0.250000X1.150000X-0.250000X-1.150000X0.250000X-1.150000X0*%
%TD*%
%TA.AperFunction,SMDPad,CuDef*%
%ADD38RoundRect,0.218750X-0.256250X0.218750X-0.256250X-0.218750X0.256250X-0.218750X0.256250X0.218750X0*%
%TD*%
%TA.AperFunction,SMDPad,CuDef*%
%ADD39C,1.000000*%
%TD*%
%TA.AperFunction,SMDPad,CuDef*%
%ADD40RoundRect,0.062500X-0.117500X-0.062500X0.117500X-0.062500X0.117500X0.062500X-0.117500X0.062500X0*%
%TD*%
%TA.AperFunction,SMDPad,CuDef*%
%ADD41RoundRect,0.140000X-0.170000X0.140000X-0.170000X-0.140000X0.170000X-0.140000X0.170000X0.140000X0*%
%TD*%
%TA.AperFunction,SMDPad,CuDef*%
%ADD42RoundRect,0.225000X-0.225000X-0.250000X0.225000X-0.250000X0.225000X0.250000X-0.225000X0.250000X0*%
%TD*%
%TA.AperFunction,SMDPad,CuDef*%
%ADD43RoundRect,0.125000X-0.125000X-0.175000X0.125000X-0.175000X0.125000X0.175000X-0.125000X0.175000X0*%
%TD*%
%TA.AperFunction,SMDPad,CuDef*%
%ADD44RoundRect,0.225000X0.225000X0.250000X-0.225000X0.250000X-0.225000X-0.250000X0.225000X-0.250000X0*%
%TD*%
%TA.AperFunction,SMDPad,CuDef*%
%ADD45R,3.400000X0.980000*%
%TD*%
%TA.AperFunction,SMDPad,CuDef*%
%ADD46RoundRect,0.150000X-0.150000X-0.700000X0.150000X-0.700000X0.150000X0.700000X-0.150000X0.700000X0*%
%TD*%
%TA.AperFunction,SMDPad,CuDef*%
%ADD47RoundRect,0.250000X-0.250000X-1.150000X0.250000X-1.150000X0.250000X1.150000X-0.250000X1.150000X0*%
%TD*%
%TA.AperFunction,SMDPad,CuDef*%
%ADD48RoundRect,0.135000X0.135000X0.185000X-0.135000X0.185000X-0.135000X-0.185000X0.135000X-0.185000X0*%
%TD*%
%TA.AperFunction,SMDPad,CuDef*%
%ADD49RoundRect,0.050000X-0.200000X-0.200000X0.200000X-0.200000X0.200000X0.200000X-0.200000X0.200000X0*%
%TD*%
%TA.AperFunction,SMDPad,CuDef*%
%ADD50RoundRect,0.218750X0.218750X0.256250X-0.218750X0.256250X-0.218750X-0.256250X0.218750X-0.256250X0*%
%TD*%
%TA.AperFunction,SMDPad,CuDef*%
%ADD51RoundRect,0.050000X0.050000X-0.232500X0.050000X0.232500X-0.050000X0.232500X-0.050000X-0.232500X0*%
%TD*%
%TA.AperFunction,SMDPad,CuDef*%
%ADD52FreePoly4,90.000000*%
%TD*%
%TA.AperFunction,SMDPad,CuDef*%
%ADD53FreePoly5,90.000000*%
%TD*%
%TA.AperFunction,SMDPad,CuDef*%
%ADD54RoundRect,0.225000X0.250000X-0.225000X0.250000X0.225000X-0.250000X0.225000X-0.250000X-0.225000X0*%
%TD*%
%TA.AperFunction,SMDPad,CuDef*%
%ADD55RoundRect,0.175000X0.175000X1.675000X-0.175000X1.675000X-0.175000X-1.675000X0.175000X-1.675000X0*%
%TD*%
%TA.AperFunction,SMDPad,CuDef*%
%ADD56RoundRect,0.250001X0.499999X0.899999X-0.499999X0.899999X-0.499999X-0.899999X0.499999X-0.899999X0*%
%TD*%
%TA.AperFunction,SMDPad,CuDef*%
%ADD57RoundRect,0.150000X0.150000X-0.587500X0.150000X0.587500X-0.150000X0.587500X-0.150000X-0.587500X0*%
%TD*%
%TA.AperFunction,SMDPad,CuDef*%
%ADD58R,1.150000X0.300000*%
%TD*%
%TA.AperFunction,ComponentPad*%
%ADD59O,1.100000X1.600000*%
%TD*%
%TA.AperFunction,SMDPad,CuDef*%
%ADD60RoundRect,0.050000X0.200000X-0.200000X0.200000X0.200000X-0.200000X0.200000X-0.200000X-0.200000X0*%
%TD*%
%TA.AperFunction,SMDPad,CuDef*%
%ADD61RoundRect,0.087500X-0.225000X-0.087500X0.225000X-0.087500X0.225000X0.087500X-0.225000X0.087500X0*%
%TD*%
%TA.AperFunction,SMDPad,CuDef*%
%ADD62RoundRect,0.087500X-0.087500X-0.225000X0.087500X-0.225000X0.087500X0.225000X-0.087500X0.225000X0*%
%TD*%
%TA.AperFunction,SMDPad,CuDef*%
%ADD63R,0.350000X0.400000*%
%TD*%
%TA.AperFunction,SMDPad,CuDef*%
%ADD64RoundRect,0.150000X0.512500X0.150000X-0.512500X0.150000X-0.512500X-0.150000X0.512500X-0.150000X0*%
%TD*%
%TA.AperFunction,SMDPad,CuDef*%
%ADD65RoundRect,0.140000X-0.140000X-0.170000X0.140000X-0.170000X0.140000X0.170000X-0.140000X0.170000X0*%
%TD*%
%TA.AperFunction,ViaPad*%
%ADD66C,0.600000*%
%TD*%
%TA.AperFunction,ViaPad*%
%ADD67C,0.450000*%
%TD*%
%TA.AperFunction,Conductor*%
%ADD68C,0.150000*%
%TD*%
%TA.AperFunction,Conductor*%
%ADD69C,0.350000*%
%TD*%
%TA.AperFunction,Conductor*%
%ADD70C,0.300000*%
%TD*%
%TA.AperFunction,Conductor*%
%ADD71C,0.600000*%
%TD*%
%TA.AperFunction,Conductor*%
%ADD72C,0.200000*%
%TD*%
%TA.AperFunction,Conductor*%
%ADD73C,0.127000*%
%TD*%
%TA.AperFunction,Conductor*%
%ADD74C,0.180000*%
%TD*%
%TA.AperFunction,Conductor*%
%ADD75C,0.400000*%
%TD*%
%TA.AperFunction,Conductor*%
%ADD76C,1.200000*%
%TD*%
%TA.AperFunction,Conductor*%
%ADD77C,0.800000*%
%TD*%
%TA.AperFunction,Conductor*%
%ADD78C,1.800000*%
%TD*%
%TA.AperFunction,Conductor*%
%ADD79C,1.000000*%
%TD*%
%TA.AperFunction,Conductor*%
%ADD80C,0.135600*%
%TD*%
%TA.AperFunction,Conductor*%
%ADD81C,0.500000*%
%TD*%
G04 APERTURE END LIST*
D10*
%TO.P,D6,1*%
%TO.N,USB_CC2*%
X34550000Y-10020000D03*
%TO.P,D6,2*%
%TO.N,GND*%
X34550000Y-9180000D03*
%TD*%
D11*
%TO.P,U6,1*%
%TO.N,GND*%
X18460000Y-11650000D03*
%TO.P,U6,2*%
%TO.N,ABC_PG*%
X18460000Y-11150000D03*
%TO.P,U6,3*%
%TO.N,ABC_VAUX*%
X18460000Y-10650000D03*
%TO.P,U6,4*%
%TO.N,GND*%
X18460000Y-10150000D03*
D12*
%TO.P,U6,5*%
%TO.N,ABC_FB*%
X18035000Y-9500000D03*
%TO.P,U6,6*%
%TO.N,GND*%
X17535000Y-9500000D03*
D13*
%TO.P,U6,7*%
%TO.N,+5V_BEC*%
X17035000Y-9500000D03*
D14*
%TO.P,U6,8*%
X16535000Y-9500000D03*
D15*
%TO.P,U6,9*%
%TO.N,ABC_L2*%
X16535000Y-10400000D03*
D16*
%TO.P,U6,10*%
%TO.N,GND*%
X16710000Y-10900000D03*
D15*
%TO.P,U6,11*%
%TO.N,ABC_L1*%
X16535000Y-11400000D03*
D17*
%TO.P,U6,12*%
%TO.N,VX_PROTECTED*%
X16535000Y-12300000D03*
D18*
%TO.P,U6,13*%
X17035000Y-12300000D03*
D12*
%TO.P,U6,14*%
%TO.N,ABC_EN*%
X17535000Y-12300000D03*
%TO.P,U6,15*%
%TO.N,GND*%
X18035000Y-12300000D03*
%TD*%
D19*
%TO.P,R40,1*%
%TO.N,VX_RAW*%
X20000000Y-16710000D03*
%TO.P,R40,2*%
%TO.N,ADC_BEC*%
X20000000Y-15690000D03*
%TD*%
D20*
%TO.P,U15,1*%
%TO.N,PORT_C_RX_EXT*%
X33122500Y-18150000D03*
%TO.P,U15,2*%
%TO.N,PORT_C_TX_EXT*%
X33122500Y-17650000D03*
D21*
%TO.P,U15,3*%
%TO.N,GND*%
X33122500Y-17150000D03*
D20*
%TO.P,U15,4*%
%TO.N,unconnected-(U15-IO3-Pad4)*%
X33122500Y-16650000D03*
%TO.P,U15,5*%
%TO.N,unconnected-(U15-IO4-Pad5)*%
X33122500Y-16150000D03*
%TO.P,U15,6*%
%TO.N,unconnected-(U15-NC6-Pad6)*%
X32287500Y-16150000D03*
%TO.P,U15,7*%
%TO.N,unconnected-(U15-NC7-Pad7)*%
X32287500Y-16650000D03*
D22*
%TO.P,U15,8*%
%TO.N,GND*%
X32287500Y-17150000D03*
D20*
%TO.P,U15,9*%
%TO.N,unconnected-(U15-NC9-Pad9)*%
X32287500Y-17650000D03*
%TO.P,U15,10*%
%TO.N,unconnected-(U15-NC10-Pad10)*%
X32287500Y-18150000D03*
%TD*%
D23*
%TO.P,R10,1*%
%TO.N,+3V3_CORE*%
X1290000Y-24500000D03*
%TO.P,R10,2*%
%TO.N,D1_A*%
X2310000Y-24500000D03*
%TD*%
D24*
%TO.P,U5,1*%
%TO.N,EFUSE_EN*%
X11160000Y-15750000D03*
D25*
%TO.P,U5,2*%
%TO.N,EFUSE_OVC*%
X11160000Y-16225000D03*
%TO.P,U5,3*%
%TO.N,unconnected-(U5-PG-Pad3)*%
X11160000Y-16675000D03*
D26*
%TO.P,U5,4*%
%TO.N,GND*%
X11160000Y-17150000D03*
D27*
%TO.P,U5,5*%
%TO.N,VX_RAW*%
X11810000Y-16450000D03*
%TO.P,U5,6*%
%TO.N,VX_PROTECTED*%
X12310000Y-16450000D03*
D28*
%TO.P,U5,7*%
%TO.N,EFUSE_DVDT*%
X12960000Y-17150000D03*
D25*
%TO.P,U5,8*%
%TO.N,GND*%
X12960000Y-16675000D03*
%TO.P,U5,9*%
%TO.N,EFUSE_ILM*%
X12960000Y-16225000D03*
D29*
%TO.P,U5,10*%
%TO.N,unconnected-(U5-ITIMER-Pad10)*%
X12960000Y-15750000D03*
%TD*%
D30*
%TO.P,C54,1*%
%TO.N,VX_PROTECTED*%
X21409999Y-14125000D03*
%TO.P,C54,2*%
%TO.N,GND*%
X19509999Y-14125000D03*
%TD*%
D23*
%TO.P,R32,1*%
%TO.N,PORT_B_RX_EXT*%
X27455000Y-12600000D03*
%TO.P,R32,2*%
%TO.N,PORT_B_RX_MCU*%
X28475000Y-12600000D03*
%TD*%
D31*
%TO.P,C71,1*%
%TO.N,VX_PROTECTED*%
X16760000Y-16500000D03*
%TO.P,C71,2*%
%TO.N,GND*%
X18660000Y-16500000D03*
%TD*%
%TO.P,C55,1*%
%TO.N,+5V_BEC*%
X11710000Y-7875000D03*
%TO.P,C55,2*%
%TO.N,GND*%
X13610000Y-7875000D03*
%TD*%
D23*
%TO.P,R55,1*%
%TO.N,ABC_FB*%
X20240000Y-8500000D03*
%TO.P,R55,2*%
%TO.N,GND*%
X21260000Y-8500000D03*
%TD*%
D32*
%TO.P,J3,1*%
%TO.N,GND*%
X4060000Y-6250000D03*
D33*
%TO.P,J3,2*%
%TO.N,VX_RAW*%
X6600000Y-6250000D03*
%TO.P,J3,3*%
%TO.N,SERVO2_EXT*%
X9140000Y-6250000D03*
%TD*%
D34*
%TO.P,R42,1*%
%TO.N,+5V_PERIPH*%
X22200000Y-15690000D03*
%TO.P,R42,2*%
%TO.N,ADC_BUS*%
X22200000Y-16710000D03*
%TD*%
D32*
%TO.P,J8,1*%
%TO.N,GND*%
X4060000Y-22250000D03*
D33*
%TO.P,J8,2*%
%TO.N,VX_RAW*%
X6600000Y-22250000D03*
%TO.P,J8,3*%
%TO.N,SBUS_EXT*%
X9140000Y-22250000D03*
%TD*%
D35*
%TO.P,C75,1*%
%TO.N,+5V_PERIPH*%
X31400000Y-12550000D03*
%TO.P,C75,2*%
%TO.N,GND*%
X31400000Y-14450000D03*
%TD*%
D36*
%TO.P,J11,1*%
%TO.N,PORT_C_RX_EXT*%
X32875000Y-20100000D03*
%TO.P,J11,2*%
%TO.N,PORT_C_TX_EXT*%
X31625000Y-20100000D03*
%TO.P,J11,3*%
%TO.N,+5V_PERIPH*%
X30375000Y-20100000D03*
%TO.P,J11,4*%
%TO.N,GND*%
X29125000Y-20100000D03*
D37*
%TO.P,J11,MP*%
%TO.N,N/C*%
X34725000Y-23450000D03*
X27275000Y-23450000D03*
%TD*%
D38*
%TO.P,D2,1*%
%TO.N,LED_RED_K*%
X40700000Y-20712500D03*
%TO.P,D2,2*%
%TO.N,D2_A*%
X40700000Y-22287500D03*
%TD*%
D32*
%TO.P,J4,1*%
%TO.N,GND*%
X4060000Y-9350000D03*
D33*
%TO.P,J4,2*%
%TO.N,VX_RAW*%
X6600000Y-9350000D03*
%TO.P,J4,3*%
%TO.N,SERVO3_EXT*%
X9140000Y-9350000D03*
%TD*%
D34*
%TO.P,R15,1*%
%TO.N,USB_CC2*%
X33550000Y-10390000D03*
%TO.P,R15,2*%
%TO.N,GND*%
X33550000Y-11410000D03*
%TD*%
D39*
%TO.P,TP5,1*%
%TO.N,NRST*%
X2200000Y-770000D03*
%TD*%
D23*
%TO.P,R65,1*%
%TO.N,CORE_MUX_ST*%
X33490000Y-6400000D03*
%TO.P,R65,2*%
%TO.N,CORE_PRIORITY*%
X34510000Y-6400000D03*
%TD*%
D40*
%TO.P,D4,1*%
%TO.N,USB_N*%
X35420000Y-12550000D03*
%TO.P,D4,2*%
%TO.N,GND*%
X34580000Y-12550000D03*
%TD*%
D23*
%TO.P,R3,1*%
%TO.N,+3V3_IMU*%
X18690000Y-18000000D03*
%TO.P,R3,2*%
%TO.N,IMU_CS*%
X19710000Y-18000000D03*
%TD*%
D41*
%TO.P,C11,1*%
%TO.N,+3V3_IMU*%
X26100000Y-13520000D03*
%TO.P,C11,2*%
%TO.N,GND*%
X26100000Y-14480000D03*
%TD*%
%TO.P,C30,1*%
%TO.N,ADC_BEC*%
X15350000Y-15520000D03*
%TO.P,C30,2*%
%TO.N,GND*%
X15350000Y-16480000D03*
%TD*%
D42*
%TO.P,C74,1*%
%TO.N,CORE_BUCK_IN*%
X31225000Y-8350000D03*
%TO.P,C74,2*%
%TO.N,GND*%
X32775000Y-8350000D03*
%TD*%
D34*
%TO.P,R43,1*%
%TO.N,ADC_BUS*%
X20810000Y-17590000D03*
%TO.P,R43,2*%
%TO.N,ADC_DIV_MID*%
X20810000Y-18610000D03*
%TD*%
D43*
%TO.P,C8,1*%
%TO.N,+3V3_ANALOG*%
X14050000Y-14460000D03*
%TO.P,C8,2*%
%TO.N,GND*%
X14950000Y-14460000D03*
%TD*%
D44*
%TO.P,C73,1*%
%TO.N,+5V_BEC*%
X17035000Y-7970000D03*
%TO.P,C73,2*%
%TO.N,GND*%
X15485000Y-7970000D03*
%TD*%
D41*
%TO.P,C12,1*%
%TO.N,+3V3_IMU*%
X26062500Y-11520000D03*
%TO.P,C12,2*%
%TO.N,GND*%
X26062500Y-12480000D03*
%TD*%
D32*
%TO.P,J7,1*%
%TO.N,GND*%
X4060000Y-19150000D03*
D33*
%TO.P,J7,2*%
%TO.N,VX_RAW*%
X6600000Y-19150000D03*
%TO.P,J7,3*%
%TO.N,RPM_EXT*%
X9140000Y-19150000D03*
%TD*%
D32*
%TO.P,J6,1*%
%TO.N,GND*%
X4060000Y-16050000D03*
D33*
%TO.P,J6,2*%
%TO.N,VX_RAW*%
X6600000Y-16050000D03*
%TO.P,J6,3*%
%TO.N,ESC_EXT*%
X9140000Y-16050000D03*
%TD*%
D32*
%TO.P,J2,1*%
%TO.N,GND*%
X4060000Y-3150000D03*
D33*
%TO.P,J2,2*%
%TO.N,VX_RAW*%
X6600000Y-3150000D03*
%TO.P,J2,3*%
%TO.N,SERVO1_EXT*%
X9140000Y-3150000D03*
%TD*%
D34*
%TO.P,R41,1*%
%TO.N,ADC_BEC*%
X21100000Y-15690000D03*
%TO.P,R41,2*%
%TO.N,GND*%
X21100000Y-16710000D03*
%TD*%
D45*
%TO.P,L1,1*%
%TO.N,ABC_L1*%
X12760000Y-12635000D03*
%TO.P,L1,2*%
%TO.N,ABC_L2*%
X12760000Y-10265000D03*
%TD*%
D23*
%TO.P,R68,1*%
%TO.N,USB_LIMITED*%
X35940000Y-5050000D03*
%TO.P,R68,2*%
%TO.N,GND*%
X36960000Y-5050000D03*
%TD*%
%TO.P,R62,1*%
%TO.N,+3V3_CORE*%
X33490000Y-4400000D03*
%TO.P,R62,2*%
%TO.N,CORE_REF*%
X34510000Y-4400000D03*
%TD*%
D46*
%TO.P,J9,1*%
%TO.N,PORT_A_RX_EXT*%
X13335000Y-5500000D03*
%TO.P,J9,2*%
%TO.N,PORT_A_TX_EXT*%
X14585000Y-5500000D03*
%TO.P,J9,3*%
%TO.N,+5V_PERIPH*%
X15835000Y-5500000D03*
%TO.P,J9,4*%
%TO.N,GND*%
X17085000Y-5500000D03*
D47*
%TO.P,J9,MP*%
%TO.N,N/C*%
X11485000Y-2150000D03*
X18935000Y-2150000D03*
%TD*%
D48*
%TO.P,R36,1*%
%TO.N,+3V3_CORE*%
X25510000Y-24000000D03*
%TO.P,R36,2*%
%TO.N,RPM_LV*%
X24490000Y-24000000D03*
%TD*%
D23*
%TO.P,R1,1*%
%TO.N,+3V3_CORE*%
X8890000Y-900000D03*
%TO.P,R1,2*%
%TO.N,NRST*%
X9910000Y-900000D03*
%TD*%
D49*
%TO.P,R25,1*%
%TO.N,RPM_EXT*%
X6500000Y-24500000D03*
%TO.P,R25,2*%
%TO.N,RPM_HV*%
X7500000Y-24500000D03*
%TD*%
D19*
%TO.P,R52,1*%
%TO.N,EFUSE_ILM*%
X14000000Y-16560000D03*
%TO.P,R52,2*%
%TO.N,GND*%
X14000000Y-15540000D03*
%TD*%
D50*
%TO.P,D1,1*%
%TO.N,LED_GREEN_K*%
X5187500Y-24530000D03*
%TO.P,D1,2*%
%TO.N,D1_A*%
X3612500Y-24530000D03*
%TD*%
D34*
%TO.P,R44,1*%
%TO.N,ADC_DIV_MID*%
X22550000Y-18390000D03*
%TO.P,R44,2*%
%TO.N,GND*%
X22550000Y-19410000D03*
%TD*%
D51*
%TO.P,U14,1*%
%TO.N,PORT_A_RX_EXT*%
X22500000Y-8317500D03*
%TO.P,U14,2*%
%TO.N,PORT_A_TX_EXT*%
X23000000Y-8317500D03*
D52*
%TO.P,U14,3*%
%TO.N,GND*%
X23500000Y-8317500D03*
D51*
%TO.P,U14,4*%
%TO.N,PORT_B_RX_EXT*%
X24000000Y-8317500D03*
%TO.P,U14,5*%
%TO.N,PORT_B_TX_EXT*%
X24500000Y-8317500D03*
%TO.P,U14,6*%
X24500000Y-7482500D03*
%TO.P,U14,7*%
%TO.N,PORT_B_RX_EXT*%
X24000000Y-7482500D03*
D53*
%TO.P,U14,8*%
%TO.N,GND*%
X23500000Y-7482500D03*
D51*
%TO.P,U14,9*%
%TO.N,PORT_A_TX_EXT*%
X23000000Y-7482500D03*
%TO.P,U14,10*%
%TO.N,PORT_A_RX_EXT*%
X22500000Y-7482500D03*
%TD*%
D48*
%TO.P,R63,1*%
%TO.N,CORE_REF*%
X34660000Y-5400000D03*
%TO.P,R63,2*%
%TO.N,GND*%
X33640000Y-5400000D03*
%TD*%
D54*
%TO.P,C64,1*%
%TO.N,VX_PROTECTED*%
X32299999Y-6425000D03*
%TO.P,C64,2*%
%TO.N,GND*%
X32299999Y-4875000D03*
%TD*%
D23*
%TO.P,R54,1*%
%TO.N,+5V_BEC*%
X18290000Y-7800000D03*
%TO.P,R54,2*%
%TO.N,ABC_FB*%
X19310000Y-7800000D03*
%TD*%
D42*
%TO.P,C72,1*%
%TO.N,VX_PROTECTED*%
X16185000Y-13700000D03*
%TO.P,C72,2*%
%TO.N,GND*%
X17735000Y-13700000D03*
%TD*%
D55*
%TO.P,J12,1*%
%TO.N,+3V3_DSM*%
X16710000Y-20850000D03*
%TO.P,J12,2*%
%TO.N,GND*%
X15210000Y-20850000D03*
%TO.P,J12,3*%
%TO.N,DSM_RX_EXT*%
X13710000Y-20850000D03*
D56*
%TO.P,J12,MP*%
%TO.N,N/C*%
X18760000Y-22950000D03*
X11660000Y-22950000D03*
%TD*%
D41*
%TO.P,C58,1*%
%TO.N,ABC_VAUX*%
X19660000Y-10645000D03*
%TO.P,C58,2*%
%TO.N,GND*%
X19660000Y-11605000D03*
%TD*%
D57*
%TO.P,U16,1*%
%TO.N,RPM_HV*%
X21050000Y-22837500D03*
%TO.P,U16,2*%
%TO.N,SBUS_HV*%
X22950000Y-22837500D03*
%TO.P,U16,3*%
%TO.N,GND*%
X22000000Y-20962500D03*
%TD*%
D58*
%TO.P,J1,A1*%
%TO.N,GND*%
X37515000Y-15750000D03*
%TO.P,J1,A4*%
%TO.N,USB_VBUS_RAW*%
X37515000Y-14250000D03*
%TO.P,J1,A5*%
%TO.N,USB_CC1*%
X37515000Y-13750000D03*
%TO.P,J1,A6*%
%TO.N,USB_P*%
X37515000Y-13250000D03*
%TO.P,J1,A7*%
%TO.N,USB_N*%
X37515000Y-12750000D03*
%TO.P,J1,A8*%
%TO.N,unconnected-(J1-SBU1-PadA8)*%
X37515000Y-12250000D03*
%TO.P,J1,A9*%
%TO.N,USB_VBUS_RAW*%
X37515000Y-11750000D03*
%TO.P,J1,A12*%
%TO.N,GND*%
X37515000Y-10250000D03*
%TO.P,J1,B1*%
X40485000Y-10250000D03*
%TO.P,J1,B4*%
%TO.N,USB_VBUS_RAW*%
X40485000Y-11750000D03*
%TO.P,J1,B5*%
%TO.N,USB_CC2*%
X40485000Y-12250000D03*
%TO.P,J1,B6*%
%TO.N,USB_P*%
X40485000Y-12750000D03*
%TO.P,J1,B7*%
%TO.N,USB_N*%
X40485000Y-13250000D03*
%TO.P,J1,B8*%
%TO.N,unconnected-(J1-SBU2-PadB8)*%
X40485000Y-13750000D03*
%TO.P,J1,B9*%
%TO.N,USB_VBUS_RAW*%
X40485000Y-14250000D03*
%TO.P,J1,B12*%
%TO.N,GND*%
X40485000Y-15750000D03*
D59*
%TO.P,J1,S1*%
X37570000Y-17000000D03*
X40430000Y-17000000D03*
X37570000Y-9000000D03*
X40430000Y-9000000D03*
%TD*%
D40*
%TO.P,D3,1*%
%TO.N,USB_P*%
X35420000Y-13850000D03*
%TO.P,D3,2*%
%TO.N,GND*%
X34580000Y-13850000D03*
%TD*%
D19*
%TO.P,R11,1*%
%TO.N,+3V3_CORE*%
X40600000Y-24510000D03*
%TO.P,R11,2*%
%TO.N,D2_A*%
X40600000Y-23490000D03*
%TD*%
D48*
%TO.P,R2,1*%
%TO.N,BOOT0*%
X17110000Y-18000000D03*
%TO.P,R2,2*%
%TO.N,GND*%
X16090000Y-18000000D03*
%TD*%
D60*
%TO.P,R26,1*%
%TO.N,SBUS_EXT*%
X25500000Y-23000000D03*
%TO.P,R26,2*%
%TO.N,SBUS_HV*%
X25500000Y-22000000D03*
%TD*%
D10*
%TO.P,D5,1*%
%TO.N,USB_CC1*%
X35700000Y-16820000D03*
%TO.P,D5,2*%
%TO.N,GND*%
X35700000Y-15980000D03*
%TD*%
D32*
%TO.P,J5,1*%
%TO.N,GND*%
X4060000Y-12450000D03*
D33*
%TO.P,J5,2*%
%TO.N,VX_RAW*%
X6600000Y-12450000D03*
%TO.P,J5,3*%
%TO.N,TAIL_EXT*%
X9140000Y-12450000D03*
%TD*%
D46*
%TO.P,J10,1*%
%TO.N,PORT_B_RX_EXT*%
X22975000Y-5500000D03*
%TO.P,J10,2*%
%TO.N,PORT_B_TX_EXT*%
X24225000Y-5500000D03*
%TO.P,J10,3*%
%TO.N,+5V_PERIPH*%
X25475000Y-5500000D03*
%TO.P,J10,4*%
%TO.N,GND*%
X26725000Y-5500000D03*
D47*
%TO.P,J10,MP*%
%TO.N,N/C*%
X21125000Y-2150000D03*
X28575000Y-2150000D03*
%TD*%
D61*
%TO.P,U2,1*%
%TO.N,IMU_MISO*%
X22047499Y-10850000D03*
%TO.P,U2,2*%
%TO.N,unconnected-(U2-RESV2-Pad2)*%
X22047499Y-11350000D03*
%TO.P,U2,3*%
%TO.N,unconnected-(U2-RESV3-Pad3)*%
X22047499Y-11850000D03*
%TO.P,U2,4*%
%TO.N,IMU_INT*%
X22047499Y-12350000D03*
D62*
%TO.P,U2,5*%
%TO.N,+3V3_IMU*%
X22709999Y-12512500D03*
%TO.P,U2,6*%
%TO.N,GND*%
X23209999Y-12512500D03*
%TO.P,U2,7*%
X23709999Y-12512500D03*
D61*
%TO.P,U2,8*%
%TO.N,+3V3_IMU*%
X24372499Y-12350000D03*
%TO.P,U2,9*%
%TO.N,GND*%
X24372499Y-11850000D03*
%TO.P,U2,10*%
%TO.N,unconnected-(U2-RESV10-Pad10)*%
X24372499Y-11350000D03*
%TO.P,U2,11*%
%TO.N,unconnected-(U2-RESV11-Pad11)*%
X24372499Y-10850000D03*
D62*
%TO.P,U2,12*%
%TO.N,IMU_CS*%
X23709999Y-10687500D03*
%TO.P,U2,13*%
%TO.N,IMU_SCK*%
X23209999Y-10687500D03*
%TO.P,U2,14*%
%TO.N,IMU_MOSI*%
X22709999Y-10687500D03*
%TD*%
D63*
%TO.P,R31,1*%
%TO.N,PORT_A_TX_EXT*%
X21025000Y-9860000D03*
%TO.P,R31,2*%
%TO.N,PORT_A_TX_MCU*%
X20375000Y-9860000D03*
%TD*%
D64*
%TO.P,U12,1*%
%TO.N,SERVO1_MCU*%
X29987500Y-18000000D03*
%TO.P,U12,2*%
%TO.N,GND*%
X29987500Y-17050000D03*
%TO.P,U12,3*%
%TO.N,SERVO2_MCU*%
X29987500Y-16100000D03*
%TO.P,U12,4*%
%TO.N,SERVO3_MCU*%
X27712500Y-16100000D03*
%TO.P,U12,5*%
%TO.N,+3V3_CORE*%
X27712500Y-17050000D03*
%TO.P,U12,6*%
%TO.N,TAIL_MCU*%
X27712500Y-18000000D03*
%TD*%
D49*
%TO.P,FB2,1*%
%TO.N,+3V3_CORE*%
X23175000Y-15500000D03*
%TO.P,FB2,2*%
%TO.N,+3V3_IMU*%
X24075000Y-15500000D03*
%TD*%
D65*
%TO.P,C10,1*%
%TO.N,NRST*%
X17320000Y-15000000D03*
%TO.P,C10,2*%
%TO.N,GND*%
X18280000Y-15000000D03*
%TD*%
D19*
%TO.P,R14,1*%
%TO.N,USB_CC1*%
X34650000Y-16810000D03*
%TO.P,R14,2*%
%TO.N,GND*%
X34650000Y-15790000D03*
%TD*%
D42*
%TO.P,C13,1*%
%TO.N,+3V3_IMU*%
X22984999Y-14200000D03*
%TO.P,C13,2*%
%TO.N,GND*%
X24534999Y-14200000D03*
%TD*%
D66*
%TO.N,GND*%
X14500000Y-18925000D03*
X23650000Y-600000D03*
D67*
X600000Y-9000000D03*
X38900000Y-12100000D03*
X19175000Y-6975000D03*
D66*
X13700000Y-17655000D03*
D67*
X34800000Y-8500000D03*
X21350000Y-21262500D03*
D66*
X20000000Y-23800000D03*
D67*
X8465000Y-13525000D03*
X30850000Y-3500000D03*
X19900000Y-7000000D03*
X16379999Y-15300000D03*
X22300000Y-5350000D03*
X28900000Y-11345000D03*
D66*
X4500000Y-14725000D03*
X23250000Y-21400000D03*
D67*
X600000Y-3000000D03*
X15075000Y-24125000D03*
D66*
X28040000Y-21000000D03*
D67*
X15975000Y-22000000D03*
X25375000Y-11430000D03*
X39100000Y-13950000D03*
D66*
X37500000Y-18575000D03*
X13550000Y-9025000D03*
D67*
X40500000Y-19600000D03*
D66*
X27370000Y-7295000D03*
X23380000Y-6730000D03*
D67*
X18515000Y-12475000D03*
X30850000Y-4000000D03*
D66*
X33605000Y-8905000D03*
X31000000Y-16810000D03*
X34600000Y-13350000D03*
D67*
X38300000Y-6150000D03*
X30120000Y-14200000D03*
D66*
X28400000Y-4000000D03*
D67*
X25200000Y-4099999D03*
X17760000Y-10300000D03*
X28880000Y-16940000D03*
X16700000Y-18600000D03*
X18400000Y-14325000D03*
X28450000Y-20700000D03*
D66*
X14925000Y-575000D03*
D67*
X36750000Y-23725000D03*
X22600000Y-20610000D03*
X500000Y-19100000D03*
D66*
X19250000Y-15450000D03*
D67*
X2725000Y-22950000D03*
D66*
X33600000Y-24600000D03*
D67*
X28730000Y-7620000D03*
X37460000Y-5550000D03*
X17850000Y-4325000D03*
X24525000Y-9850000D03*
X12050000Y-21400000D03*
X1875000Y-18325000D03*
D66*
X14950000Y-6950000D03*
D67*
X10200000Y-19850000D03*
X25375000Y-12900000D03*
X16750000Y-24840000D03*
D66*
X10550000Y-3375000D03*
X24000000Y-3525000D03*
X17550000Y-1400000D03*
D67*
X39200000Y-23100000D03*
D66*
X34000000Y-15500000D03*
D67*
X20600000Y-16210000D03*
X19005000Y-9795000D03*
X1800000Y-1700000D03*
X10200000Y-15350000D03*
X8240000Y-16975000D03*
D66*
X30775000Y-11400000D03*
D67*
%TO.N,ABC_PG*%
X17350000Y-6725000D03*
X20195000Y-11125000D03*
X10600000Y-2700000D03*
X10018870Y-5344675D03*
X14200000Y-9300000D03*
D66*
%TO.N,+5V_BEC*%
X16000000Y-6850000D03*
X16600000Y-6970000D03*
X11750000Y-5400000D03*
X14650000Y-8700000D03*
X11750000Y-6000000D03*
%TO.N,VX_PROTECTED*%
X14007107Y-2792893D03*
X13300000Y-3500000D03*
X17722354Y-17110222D03*
X10600000Y-10200000D03*
X33299999Y-7150000D03*
X22100000Y-2200000D03*
X31125000Y-5450000D03*
X10700000Y-18300000D03*
X10700000Y-18900000D03*
D67*
X26000000Y-500000D03*
D66*
X10600000Y-10800000D03*
X22300000Y-13375000D03*
X11800000Y-4350000D03*
D67*
X8600000Y-4300000D03*
D66*
X17877646Y-17689778D03*
X16900000Y-14280000D03*
D67*
X7875000Y-16175000D03*
%TO.N,ABC_EN*%
X17050000Y-13050000D03*
X9950000Y-13430000D03*
X5320000Y-6150000D03*
X8450000Y-4865000D03*
X7900000Y-10290000D03*
%TO.N,VX_RAW*%
X19425000Y-12600000D03*
X18575000Y-6975000D03*
X20300000Y-12275000D03*
D66*
X11800000Y-18100000D03*
D67*
X19800000Y-17310000D03*
D66*
X12425000Y-18275000D03*
D67*
%TO.N,ADC_BEC*%
X14700000Y-18100000D03*
X18600000Y-13500000D03*
%TO.N,PORT_C_RX_EXT*%
X33625000Y-19100000D03*
%TO.N,PORT_C_TX_EXT*%
X34500000Y-18500000D03*
%TO.N,+3V3_CORE*%
X14500000Y-22400000D03*
X15275000Y-18300000D03*
X36750000Y-24675000D03*
X19000000Y-12100000D03*
D66*
X1650000Y-21950000D03*
D67*
X26475000Y-8199999D03*
X35600000Y-15200000D03*
D66*
X35200000Y-4800000D03*
D67*
X1750000Y-2640000D03*
X8750000Y-23700000D03*
X33290000Y-13707180D03*
X1950000Y-12625000D03*
X26400000Y-22300000D03*
X19325000Y-4600000D03*
X17950000Y-6975000D03*
X8550000Y-7850000D03*
D66*
X28375000Y-18750000D03*
X15900000Y-22850000D03*
D67*
X1675000Y-8925000D03*
X22850000Y-4225000D03*
D66*
X22300000Y-24075000D03*
D67*
X2950000Y-17950000D03*
D66*
X26800000Y-8800000D03*
D67*
X16000000Y-20600000D03*
X1725000Y-21025000D03*
X500000Y-22725000D03*
X1565000Y-23650000D03*
D66*
X22750000Y-17300000D03*
D67*
X24400000Y-16700000D03*
X39950000Y-23000000D03*
X24750000Y-17062500D03*
X37400000Y-22975000D03*
X11375000Y-9125000D03*
X2100000Y-15575000D03*
%TO.N,EFUSE_EN*%
X8000000Y-19900000D03*
X10450000Y-15950000D03*
%TO.N,EFUSE_OVC*%
X9825000Y-17575000D03*
%TO.N,EFUSE_DVDT*%
X11400000Y-19750000D03*
X13975000Y-18275000D03*
%TO.N,PORT_B_RX_MCU*%
X27750000Y-13750000D03*
%TO.N,SERVO2_EXT*%
X3050000Y-7800000D03*
X950000Y-5925000D03*
%TO.N,+5V_PERIPH*%
X22100000Y-15090000D03*
D66*
X25550000Y-7050000D03*
X29200000Y-12600000D03*
X30050000Y-22700000D03*
X15700000Y-4230000D03*
X25437500Y-8137499D03*
X28250000Y-10650000D03*
X16399999Y-4230000D03*
D67*
%TO.N,ADC_BUS*%
X21450000Y-18240000D03*
X20350000Y-12900000D03*
X12800000Y-23375000D03*
%TO.N,SBUS_EXT*%
X26200000Y-24500000D03*
%TO.N,LED_RED_K*%
X28604527Y-9676289D03*
X23760000Y-13540000D03*
X17765000Y-16190000D03*
X39800000Y-19800000D03*
X32993876Y-9876359D03*
%TO.N,NRST*%
X9525000Y-7500000D03*
X17534999Y-15650000D03*
%TO.N,CORE_MUX_ST*%
X35500000Y-6500000D03*
X37100000Y-1300000D03*
X31895000Y-7600000D03*
X24750000Y-3650000D03*
%TO.N,CORE_PRIORITY*%
X35100000Y-6000000D03*
%TO.N,USB_N*%
X39350000Y-13350000D03*
X38550000Y-12650000D03*
X24700000Y-15500000D03*
%TO.N,+3V3_IMU*%
X25425000Y-12025000D03*
X23100000Y-13300000D03*
X19175000Y-17525000D03*
%TO.N,IMU_CS*%
X20300000Y-18100000D03*
X23700000Y-9800000D03*
X18709999Y-9225000D03*
D66*
%TO.N,CORE_BUCK_IN*%
X25375000Y-2575000D03*
X31375000Y-6550000D03*
X31375000Y-7100000D03*
D67*
%TO.N,+3V3_ANALOG*%
X13520000Y-13500000D03*
X12700000Y-7850000D03*
X17610000Y-11625000D03*
%TO.N,ESC_EXT*%
X2000000Y-16200000D03*
%TO.N,SERVO1_EXT*%
X3000000Y-4700000D03*
X600000Y-5450000D03*
D66*
%TO.N,USB_LIMITED*%
X12950000Y-600000D03*
X27870000Y-6250000D03*
X19900000Y-2100000D03*
X13800000Y-4300000D03*
X30200000Y-8940000D03*
X28140000Y-7300000D03*
D67*
X36450000Y-6000000D03*
D66*
X36200000Y-11550000D03*
D67*
%TO.N,CORE_REF*%
X27200000Y-3040000D03*
X30750000Y-1930000D03*
X36350000Y-6700000D03*
%TO.N,PORT_A_RX_EXT*%
X12375000Y-1000000D03*
X19625000Y-5375000D03*
X24300000Y-488000D03*
X5700000Y-1700000D03*
X21025000Y-6700000D03*
%TO.N,PORT_A_TX_EXT*%
X22575000Y-6675000D03*
X15000000Y-4350000D03*
%TO.N,RPM_LV*%
X12043750Y-20818750D03*
X20700000Y-20625000D03*
X7875000Y-23150000D03*
X24600000Y-24650000D03*
%TO.N,RPM_HV*%
X21150000Y-24000000D03*
X10800000Y-24500000D03*
X16800000Y-23950000D03*
%TO.N,LED_GREEN_K*%
X5330000Y-23150000D03*
X10200000Y-16750000D03*
%TO.N,PORT_B_TX_EXT*%
X27800000Y-11165000D03*
X31650000Y-17050000D03*
D66*
%TO.N,+3V3_DSM*%
X17550000Y-22050000D03*
D67*
X20600000Y-24800000D03*
D66*
X18750000Y-21250000D03*
D67*
%TO.N,DSM_RX_EXT*%
X8100000Y-23800000D03*
X13050000Y-19500000D03*
%TO.N,SBUS_HV*%
X23600000Y-20650000D03*
X5330000Y-19200000D03*
X5330000Y-22250000D03*
X5300000Y-14200000D03*
D66*
%TO.N,USB_VBUS_RAW*%
X32900000Y-12100000D03*
X39500000Y-14900000D03*
X30450000Y-15250000D03*
X32799999Y-12750000D03*
X30800000Y-10300000D03*
X40485000Y-11000000D03*
D67*
%TO.N,USB_P*%
X24700000Y-16100000D03*
%TO.N,BOOT0*%
X19209999Y-20575000D03*
X25894400Y-18105600D03*
X35950000Y-19050000D03*
%TO.N,IMU_MISO*%
X21250000Y-10425000D03*
%TO.N,IMU_INT*%
X24209999Y-20575000D03*
X22875000Y-16274999D03*
%TO.N,IMU_SCK*%
X22800000Y-9500000D03*
%TO.N,IMU_MOSI*%
X22250000Y-9900000D03*
X20700000Y-9275000D03*
%TO.N,PORT_A_TX_MCU*%
X19650000Y-10000000D03*
%TO.N,SERVO1_MCU*%
X30800000Y-22000000D03*
X38300000Y-24700000D03*
X600000Y-3700000D03*
X12500000Y-2525000D03*
X21490000Y-17650000D03*
%TO.N,SERVO2_MCU*%
X17420000Y-2100000D03*
X28990000Y-11975000D03*
X21975000Y-17335000D03*
X29675000Y-14800000D03*
X32424999Y-22700000D03*
X600000Y-8400000D03*
X2800000Y-1450000D03*
X28850000Y-16059999D03*
X27800000Y-21650000D03*
%TO.N,SERVO3_MCU*%
X2800000Y-10400000D03*
X21285000Y-9250000D03*
X29400000Y-14000000D03*
X26712500Y-18350000D03*
X26900000Y-7800000D03*
%TO.N,TAIL_MCU*%
X31550000Y-18890000D03*
X18040000Y-2150000D03*
X23375000Y-18125000D03*
X16024999Y-2225000D03*
X3400000Y-1250000D03*
X27550000Y-19087500D03*
X2800000Y-12200000D03*
%TO.N,PORT_B_TX_MCU*%
X25350000Y-14350000D03*
X29650000Y-19050000D03*
%TO.N,SBUS_LV*%
X550000Y-12100000D03*
X11525000Y-24650000D03*
%TO.N,PORT_C_TX_MCU*%
X20500000Y-6980000D03*
X29450000Y-21500000D03*
X32600000Y-23300000D03*
X35075000Y-18425000D03*
%TO.N,SWCLK*%
X25209999Y-19525000D03*
X30200000Y-18850000D03*
%TO.N,DSM_RX_MCU*%
X5950000Y-24000000D03*
X23950000Y-24600000D03*
X34510000Y-14400000D03*
X25250000Y-15025000D03*
X24300000Y-21150000D03*
%TO.N,PORT_C_RX_MCU*%
X27675000Y-20435000D03*
X29050000Y-18890000D03*
X22150000Y-9300000D03*
%TO.N,ESC_MCU*%
X20109999Y-20575000D03*
X24000000Y-22200000D03*
X2100000Y-17200000D03*
X2900000Y-23900000D03*
X10500000Y-23600000D03*
X16100000Y-24000000D03*
%TO.N,BARO_SDA*%
X1700000Y-20300000D03*
X2450000Y-8074999D03*
X18059999Y-18375000D03*
%TO.N,BARO_SCL*%
X2800000Y-19300000D03*
X5330000Y-20100000D03*
X18609999Y-20575000D03*
%TO.N,FLASH_WP_N*%
X32750000Y-24650000D03*
X28560000Y-21425000D03*
%TO.N,FLASH_MOSI*%
X27734999Y-11750000D03*
X39100000Y-20095000D03*
X35550000Y-19470000D03*
%TO.N,FLASH_SCK*%
X39100000Y-21365000D03*
X29500000Y-11450000D03*
%TO.N,FLASH_HOLD_N*%
X26400000Y-21500000D03*
X35800000Y-24550000D03*
X38450000Y-22000000D03*
%TO.N,PORT_A_RX_MCU*%
X13975000Y-11675000D03*
X4800000Y-1500000D03*
%TO.N,RPM_MCU*%
X15284999Y-9550000D03*
X11975000Y-19850000D03*
%TO.N,SBUS_MCU*%
X16300000Y-8500000D03*
X14500000Y-20000000D03*
%TD*%
%TO.N,USB_CC2*%
D68*
X38506000Y-10900000D02*
X39856000Y-12250000D01*
X35018209Y-10498209D02*
X33611834Y-10498209D01*
X35420000Y-10900000D02*
X38506000Y-10900000D01*
X35018209Y-10488209D02*
X35018209Y-10498209D01*
X39856000Y-12250000D02*
X40485000Y-12250000D01*
X35420000Y-10900000D02*
X35018209Y-10498209D01*
X34550000Y-10020000D02*
X35018209Y-10488209D01*
%TO.N,GND*%
D69*
X17500000Y-10900000D02*
X17820000Y-10900000D01*
D70*
X30785000Y-11410000D02*
X30775000Y-11400000D01*
X33700000Y-17150000D02*
X33700000Y-16200000D01*
D71*
X37515000Y-10250000D02*
X37570000Y-9000000D01*
D72*
X26062500Y-12480000D02*
X25375000Y-12900000D01*
D71*
X18986410Y-15894703D02*
X19190366Y-15550607D01*
D73*
X23709999Y-12512500D02*
X23710000Y-13118000D01*
D71*
X13601378Y-8500009D02*
X13600328Y-8900008D01*
D73*
X23520000Y-13118000D02*
X24100000Y-13118000D01*
X19600000Y-7300000D02*
X19175000Y-6975000D01*
D71*
X32200000Y-9300000D02*
X32482842Y-9017157D01*
X29987500Y-17050000D02*
X31000000Y-16810000D01*
D74*
X24760000Y-11720000D02*
X24780000Y-11700000D01*
D75*
X23500000Y-7382500D02*
X23462500Y-7037500D01*
D72*
X14000000Y-15540000D02*
X14300000Y-15000000D01*
X24534999Y-14200000D02*
X25375000Y-12900000D01*
X23360000Y-12850000D02*
X23520000Y-13118000D01*
D71*
X17150000Y-4150000D02*
X16750000Y-2175000D01*
D72*
X19660000Y-11605000D02*
X18460000Y-11650000D01*
X34000000Y-4800000D02*
X33700000Y-5000000D01*
D71*
X30850000Y-4000000D02*
X30850000Y-3500000D01*
D72*
X11025000Y-19325000D02*
X10200000Y-19850000D01*
X25030000Y-13250000D02*
X25375000Y-12900000D01*
D71*
X31234128Y-16476028D02*
X31000000Y-16810000D01*
D72*
X11160000Y-17150000D02*
X11250000Y-18250000D01*
D71*
X13600328Y-8900008D02*
X13550000Y-9025000D01*
D72*
X34000000Y-4099999D02*
X34000000Y-4800000D01*
D70*
X34580000Y-13850000D02*
X34600000Y-13350000D01*
X14950000Y-14460000D02*
X16379999Y-15300000D01*
D72*
X25575000Y-13825000D02*
X25375000Y-12900000D01*
D71*
X17112500Y-1462500D02*
X17550000Y-1400000D01*
X16750000Y-2175000D02*
X16750000Y-1975000D01*
D72*
X11250000Y-18250000D02*
X11500000Y-18600000D01*
D68*
X17820000Y-10150000D02*
X17760000Y-10300000D01*
D72*
X24250000Y-13250000D02*
X25030000Y-13250000D01*
D70*
X33880000Y-9180000D02*
X33605000Y-8905000D01*
D75*
X18460000Y-10150000D02*
X19005000Y-9795000D01*
D71*
X14566985Y-18973414D02*
X14500000Y-18925000D01*
X26725000Y-5500000D02*
X26725000Y-6300000D01*
X19509999Y-14125000D02*
X18400000Y-14325000D01*
D70*
X34480000Y-15980000D02*
X34000000Y-15500000D01*
D74*
X24372499Y-11850000D02*
X24760000Y-11720000D01*
D71*
X32500000Y-9000000D02*
X32600000Y-9000000D01*
D75*
X17735000Y-13700000D02*
X18400000Y-14325000D01*
D72*
X32600000Y-4900000D02*
X32100000Y-4625000D01*
X18101876Y-12393626D02*
X18515000Y-12475000D01*
X12960000Y-16675000D02*
X13375000Y-16800000D01*
X12850000Y-18650000D02*
X11925000Y-19150000D01*
X15350000Y-16480000D02*
X16379999Y-15300000D01*
D71*
X37515000Y-15750000D02*
X37570000Y-17000000D01*
D72*
X22550000Y-19410000D02*
X22600000Y-20610000D01*
X11500000Y-18600000D02*
X12500000Y-18850000D01*
D70*
X17600000Y-9900000D02*
X17820000Y-10150000D01*
D74*
X24780000Y-11700000D02*
X25375000Y-11430000D01*
D72*
X36960000Y-5050000D02*
X37460000Y-5550000D01*
D70*
X34000000Y-15900000D02*
X34000000Y-15500000D01*
D72*
X18472348Y-15163186D02*
X19250000Y-15450000D01*
D71*
X29125000Y-20100000D02*
X28040000Y-21000000D01*
D75*
X23462500Y-7037500D02*
X23380000Y-6730000D01*
D72*
X14300000Y-15000000D02*
X15900000Y-15000000D01*
D71*
X32700000Y-8900000D02*
X33605000Y-8905000D01*
D73*
X21260000Y-8500000D02*
X19600000Y-7300000D01*
D72*
X12500000Y-18850000D02*
X12850000Y-18650000D01*
D75*
X23500000Y-7382500D02*
X23500000Y-8217499D01*
D71*
X31320382Y-4348343D02*
X30850000Y-4000000D01*
X15485000Y-7970000D02*
X14950000Y-6950000D01*
D68*
X22000000Y-20962500D02*
X21350000Y-21262500D01*
D72*
X16700000Y-18600000D02*
X16090000Y-18000000D01*
D71*
X19190366Y-15550607D02*
X19250000Y-15450000D01*
X31439743Y-16132920D02*
X31234128Y-16476028D01*
D75*
X17820000Y-10150000D02*
X18460000Y-10150000D01*
D72*
X21100000Y-16710000D02*
X20600000Y-16210000D01*
D71*
X14891173Y-19207725D02*
X14566985Y-18973414D01*
X32600000Y-9000000D02*
X32700000Y-8900000D01*
D72*
X15900000Y-15000000D02*
X16379999Y-15300000D01*
D70*
X17535000Y-9500000D02*
X17600000Y-9900000D01*
D72*
X18652826Y-10075142D02*
X19005000Y-9795000D01*
X26100000Y-14480000D02*
X25575000Y-13825000D01*
D71*
X32775000Y-8350000D02*
X33605000Y-8905000D01*
X32482842Y-9017157D02*
X32500000Y-9000000D01*
X16750000Y-1975000D02*
X16850000Y-1712500D01*
X26725000Y-6300000D02*
X27370000Y-7295000D01*
D70*
X34550000Y-9180000D02*
X33880000Y-9180000D01*
D72*
X23209999Y-12512500D02*
X23360000Y-12850000D01*
D69*
X31713902Y-4420052D02*
X31320382Y-4348343D01*
D71*
X16850000Y-1712500D02*
X17112500Y-1462500D01*
X40485000Y-15750000D02*
X40430000Y-17000000D01*
D70*
X33549999Y-11410000D02*
X30785000Y-11410000D01*
D71*
X31400000Y-14450000D02*
X31000000Y-16810000D01*
D70*
X34580000Y-12550000D02*
X34600000Y-13350000D01*
D72*
X13375000Y-16800000D02*
X13600000Y-17000000D01*
X11925000Y-19150000D02*
X11025000Y-19325000D01*
X33700000Y-5000000D02*
X32600000Y-4900000D01*
D71*
X31713902Y-4420052D02*
X32299999Y-4875000D01*
D72*
X18460000Y-11650000D02*
X18035000Y-12300000D01*
D70*
X33122500Y-17150000D02*
X33700000Y-17150000D01*
D71*
X17085000Y-5500000D02*
X17150000Y-4150000D01*
D70*
X35700000Y-15980000D02*
X34480000Y-15980000D01*
D72*
X13600000Y-17000000D02*
X13700000Y-17655000D01*
D70*
X34650000Y-15790000D02*
X34000000Y-15500000D01*
D73*
X24100000Y-13118000D02*
X24250000Y-13250000D01*
D71*
X40485000Y-10250000D02*
X40430000Y-9000000D01*
D70*
X33700000Y-16200000D02*
X34000000Y-15900000D01*
D75*
X17820000Y-10900000D02*
X17820000Y-10150000D01*
%TO.N,ABC_PG*%
D73*
X18460000Y-11150000D02*
X18900000Y-11125000D01*
X20150000Y-11125000D02*
X20195000Y-11125000D01*
X18900000Y-11125000D02*
X20150000Y-11125000D01*
%TO.N,ABC_VAUX*%
D72*
X19660000Y-10645000D02*
X18460000Y-10650000D01*
%TO.N,ABC_FB*%
X18035000Y-9500000D02*
X18350000Y-8925000D01*
X20240000Y-8500000D02*
X19310000Y-7800000D01*
X18350000Y-8925000D02*
X19310000Y-7800000D01*
%TO.N,+5V_BEC*%
D76*
X11750000Y-6000000D02*
X11750000Y-5400000D01*
D77*
X17035000Y-7970000D02*
X16600000Y-6970000D01*
D71*
X14850000Y-8885000D02*
X15500000Y-8885000D01*
X14650000Y-8700000D02*
X14850000Y-8885000D01*
D72*
X17035000Y-7970000D02*
X18290000Y-7800000D01*
D71*
X14600000Y-8150000D02*
X14600000Y-8650000D01*
X16600000Y-6970000D02*
X16000000Y-6850000D01*
X15500000Y-8885000D02*
X15800000Y-8975000D01*
X16535000Y-9500000D02*
X16975000Y-8850000D01*
X16000000Y-9225000D02*
X16535000Y-9500000D01*
X17025000Y-8550000D02*
X17035000Y-7970000D01*
X14600000Y-8650000D02*
X14650000Y-8700000D01*
X15800000Y-8975000D02*
X16000000Y-9225000D01*
X16975000Y-8850000D02*
X17025000Y-8550000D01*
D76*
X11750000Y-6000000D02*
X11710000Y-7875000D01*
%TO.N,ABC_L2*%
D69*
X15950000Y-10400000D02*
X15400000Y-10400000D01*
D71*
X15400000Y-10400000D02*
X14800000Y-10400000D01*
X14300000Y-10265000D02*
X12760000Y-10265000D01*
X14800000Y-10400000D02*
X14300000Y-10265000D01*
%TO.N,ABC_L1*%
X15400000Y-11400000D02*
X14800000Y-11400000D01*
D69*
X15950000Y-11400000D02*
X15400000Y-11400000D01*
D71*
X14300000Y-12635000D02*
X12760000Y-12635000D01*
X14800000Y-11400000D02*
X14300000Y-12635000D01*
%TO.N,VX_PROTECTED*%
X10600000Y-10800000D02*
X10600000Y-10200000D01*
X12310000Y-14850000D02*
X12310000Y-14400000D01*
X13300000Y-3500000D02*
X14007107Y-2792893D01*
X17800000Y-17400000D02*
X16760000Y-16500000D01*
X11650000Y-4350000D02*
X11800000Y-4350000D01*
X31125000Y-5450000D02*
X32100000Y-6175000D01*
X16184999Y-13700000D02*
X16900000Y-14280000D01*
X32448827Y-7150000D02*
X33299999Y-7150000D01*
D72*
X8600000Y-4300000D02*
X10100000Y-4300000D01*
D71*
X10800000Y-13500000D02*
X10600000Y-13300000D01*
X16300000Y-12800000D02*
X16184999Y-13700000D01*
X16535000Y-12300000D02*
X16300000Y-12800000D01*
X10600000Y-6900000D02*
X10700000Y-5000000D01*
X21828533Y-13635621D02*
X22178606Y-13442104D01*
X10600000Y-13300000D02*
X10600000Y-6900000D01*
X10700000Y-5000000D02*
X11100000Y-4500000D01*
X12310000Y-14400000D02*
X10800000Y-13500000D01*
X17800000Y-17400000D02*
X17722354Y-17110222D01*
X11100000Y-4500000D02*
X11650000Y-4350000D01*
X32448827Y-6478293D02*
X32448827Y-7150000D01*
X22178606Y-13442104D02*
X22300000Y-13375000D01*
X17800000Y-17400000D02*
X17877646Y-17689778D01*
D72*
X10100000Y-4300000D02*
X10700000Y-5000000D01*
D69*
X12310000Y-15400000D02*
X12310000Y-14850000D01*
D71*
X10600000Y-10972727D02*
X10600000Y-10800000D01*
%TO.N,ABC_EN*%
D73*
X17535000Y-12300000D02*
X17350000Y-12800000D01*
X17350000Y-12800000D02*
X17050000Y-13050000D01*
%TO.N,VX_RAW*%
D71*
X11800303Y-17900003D02*
X11800000Y-18100000D01*
D72*
X20300000Y-12275000D02*
X19425000Y-12600000D01*
X20000000Y-16710000D02*
X19800000Y-17310000D01*
D69*
X11800833Y-17550003D02*
X11800303Y-17900003D01*
D71*
X11800000Y-18100000D02*
X12425000Y-18275000D01*
D78*
X6600000Y-3150000D02*
X6600000Y-22250000D01*
%TO.N,ADC_BEC*%
D72*
X18850000Y-13200000D02*
X18600000Y-13500000D01*
X20000000Y-15690000D02*
X20250000Y-14650000D01*
X20000000Y-15690000D02*
X21100000Y-15690000D01*
X20250000Y-13500000D02*
X20100000Y-13300000D01*
X19900000Y-13150000D02*
X19300000Y-13150000D01*
X19300000Y-13150000D02*
X18850000Y-13200000D01*
X20100000Y-13300000D02*
X19900000Y-13150000D01*
X14800000Y-16200000D02*
X15350000Y-15520000D01*
X14700000Y-18100000D02*
X14800000Y-16200000D01*
X20250000Y-14650000D02*
X20250000Y-13500000D01*
%TO.N,PORT_C_RX_EXT*%
D73*
X33450000Y-18300000D02*
X33299999Y-18150000D01*
D68*
X32875000Y-20100000D02*
X32875000Y-18400000D01*
X32875000Y-18400000D02*
X32970000Y-18150000D01*
D73*
X33625000Y-19100000D02*
X33450000Y-18300000D01*
%TO.N,PORT_C_TX_EXT*%
X34100000Y-17545000D02*
X34500000Y-18500000D01*
D68*
X32700000Y-21175000D02*
X32525000Y-21100000D01*
X31875000Y-20450000D02*
X31625000Y-20100000D01*
X32525000Y-21100000D02*
X31875000Y-20450000D01*
X33975000Y-18825000D02*
X34075000Y-19050000D01*
X34000000Y-19400000D02*
X33325000Y-21000000D01*
X33975000Y-18825000D02*
X34000000Y-18035000D01*
D73*
X32900000Y-17650000D02*
X32900000Y-17545000D01*
D68*
X34075000Y-19050000D02*
X34000000Y-19400000D01*
X33325000Y-21000000D02*
X33174999Y-21150000D01*
D73*
X32900000Y-17545000D02*
X34100000Y-17545000D01*
D68*
X33800000Y-17835000D02*
X33270000Y-17835000D01*
X33174999Y-21150000D02*
X32700000Y-21175000D01*
X34000000Y-18035000D02*
X33800000Y-17835000D01*
X33270000Y-17835000D02*
X33270000Y-17650000D01*
%TO.N,+3V3_CORE*%
D72*
X15275000Y-18300000D02*
X15800000Y-19050000D01*
D71*
X27800000Y-4900000D02*
X27550000Y-4200000D01*
D68*
X39950000Y-23000000D02*
X40100000Y-23800000D01*
D73*
X7762500Y-2812500D02*
X7750000Y-5350000D01*
D71*
X27700000Y-8199999D02*
X26875000Y-8700000D01*
D69*
X28487500Y-17475000D02*
X28725000Y-17700000D01*
D71*
X1650000Y-21950000D02*
X1000000Y-20350000D01*
X1792857Y-3438851D02*
X1750000Y-2640000D01*
X23900000Y-2750000D02*
X24550000Y-1650000D01*
X30400000Y-1200000D02*
X29800000Y-1600000D01*
X29500000Y-8350000D02*
X28100000Y-8350000D01*
D72*
X15800000Y-19050000D02*
X16000000Y-20600000D01*
D71*
X24550000Y-1650000D02*
X25950000Y-1650000D01*
X1675000Y-8925000D02*
X1850000Y-7600000D01*
X28300000Y-5200000D02*
X29500000Y-5900000D01*
D70*
X22850000Y-4225000D02*
X22800000Y-2675000D01*
D71*
X29800000Y-4099999D02*
X29800000Y-4900000D01*
D68*
X32400000Y-3950000D02*
X32100000Y-3950000D01*
D71*
X26800000Y-8700000D02*
X26800000Y-8800000D01*
X29500000Y-7600000D02*
X29500000Y-8350000D01*
X35300000Y-2100000D02*
X36850000Y-2200000D01*
D68*
X32100000Y-3950000D02*
X31983333Y-3808333D01*
D71*
X32000000Y-800000D02*
X30400000Y-1200000D01*
X26800000Y-8700000D02*
X26800000Y-8800000D01*
X22800000Y-4000000D02*
X19600000Y-4000000D01*
D73*
X1950000Y-12625000D02*
X2100000Y-15575000D01*
D71*
X23900000Y-2750000D02*
X22800000Y-2675000D01*
D70*
X23900000Y-16100000D02*
X24400000Y-16700000D01*
D71*
X36850000Y-2200000D02*
X37300000Y-2049999D01*
X22800000Y-2675000D02*
X22800000Y-4000000D01*
X1350000Y-14400000D02*
X1373703Y-14000703D01*
X29500000Y-5900000D02*
X29500000Y-7600000D01*
D73*
X2500000Y-16000000D02*
X2950000Y-17950000D01*
D72*
X26000000Y-23250000D02*
X26400000Y-22300000D01*
D71*
X18249630Y-6131587D02*
X18100000Y-6350000D01*
D75*
X26800000Y-8800000D02*
X26475000Y-8199999D01*
D72*
X31400000Y-800000D02*
X31400000Y-3100000D01*
D71*
X34700000Y-1400000D02*
X34100000Y-800000D01*
X26875000Y-8700000D02*
X26800000Y-8700000D01*
X35300000Y-3100000D02*
X35300000Y-2100000D01*
X19600000Y-4000000D02*
X19325000Y-4600000D01*
X19325000Y-4600000D02*
X18750370Y-5418413D01*
D69*
X27712500Y-17050000D02*
X28487500Y-17475000D01*
D68*
X40100000Y-23800000D02*
X40600000Y-24510000D01*
D75*
X18100000Y-6350000D02*
X17950000Y-6975000D01*
D73*
X2400000Y-15800000D02*
X2500000Y-16000000D01*
D72*
X25510000Y-24000000D02*
X26000000Y-23250000D01*
D79*
X1373703Y-14000703D02*
X1651297Y-9324297D01*
D69*
X28612500Y-18387500D02*
X28375000Y-18750000D01*
D73*
X8400000Y-1300000D02*
X7762500Y-2812500D01*
D69*
X28675000Y-18275000D02*
X28612500Y-18387500D01*
D72*
X33490000Y-4400000D02*
X32763333Y-4099999D01*
X1290000Y-24450000D02*
X1565000Y-23650000D01*
D79*
X18750370Y-5418413D02*
X18249630Y-6131587D01*
D71*
X2000000Y-7300000D02*
X1957143Y-6501149D01*
X29800000Y-4900000D02*
X27800000Y-4900000D01*
D73*
X2100000Y-15575000D02*
X2400000Y-15800000D01*
D71*
X27550000Y-4200000D02*
X26490000Y-3380000D01*
D72*
X32000000Y-800000D02*
X31400000Y-800000D01*
D73*
X7750000Y-6550000D02*
X8000000Y-7100000D01*
D71*
X25950000Y-1650000D02*
X26490000Y-3380000D01*
D79*
X1957143Y-6501149D02*
X1792857Y-3438851D01*
D71*
X34100000Y-800000D02*
X32000000Y-800000D01*
D70*
X23750000Y-16050000D02*
X23900000Y-16100000D01*
D72*
X8890000Y-900000D02*
X8400000Y-1300000D01*
D71*
X1850000Y-7600000D02*
X2000000Y-7300000D01*
D69*
X28725000Y-17700000D02*
X28675000Y-18275000D01*
D72*
X31983333Y-3808333D02*
X31400000Y-3100000D01*
D71*
X29800000Y-1600000D02*
X29800000Y-2350000D01*
X1200000Y-18850000D02*
X1350000Y-14400000D01*
X35300000Y-2100000D02*
X34700000Y-1400000D01*
X1000000Y-20350000D02*
X1200000Y-18850000D01*
D68*
X32763333Y-4099999D02*
X32400000Y-3950000D01*
D71*
X27800000Y-4900000D02*
X28300000Y-5200000D01*
X35200000Y-4800000D02*
X35300000Y-3100000D01*
D73*
X7750000Y-5350000D02*
X7750000Y-6550000D01*
D71*
X29800000Y-2350000D02*
X29800000Y-4099999D01*
X28100000Y-8350000D02*
X27700000Y-8199999D01*
X1651297Y-9324297D02*
X1675000Y-8925000D01*
D73*
X8000000Y-7100000D02*
X8550000Y-7850000D01*
D70*
X23175000Y-15500000D02*
X23750000Y-16050000D01*
%TO.N,D1_A*%
D68*
X2310000Y-24450000D02*
X3612500Y-24530000D01*
%TO.N,EFUSE_EN*%
D72*
X11160000Y-15750000D02*
X10450000Y-15950000D01*
%TO.N,EFUSE_OVC*%
D73*
X10625000Y-16600000D02*
X10625000Y-16900000D01*
X10400000Y-17150000D02*
X9825000Y-17575000D01*
X10625000Y-16900000D02*
X10400000Y-17150000D01*
X10750000Y-16399999D02*
X10625000Y-16600000D01*
X11160000Y-16225000D02*
X10750000Y-16399999D01*
%TO.N,EFUSE_DVDT*%
X13275000Y-17950000D02*
X13575000Y-18200000D01*
X12960000Y-17150000D02*
X13275000Y-17950000D01*
X13575000Y-18200000D02*
X13975000Y-18275000D01*
%TO.N,EFUSE_ILM*%
D72*
X13350000Y-16225000D02*
X14000000Y-16559999D01*
X12960000Y-16225000D02*
X13350000Y-16225000D01*
%TO.N,PORT_B_RX_EXT*%
D73*
X23862500Y-6612500D02*
X24000000Y-7382500D01*
X26000000Y-9925000D02*
X27275000Y-11825000D01*
X24000000Y-7382500D02*
X24000000Y-8217499D01*
X23870000Y-8610000D02*
X23925000Y-8750000D01*
X27275000Y-11825000D02*
X27455000Y-12600000D01*
X23925000Y-8430000D02*
X23870000Y-8610000D01*
X24100000Y-9000000D02*
X24637500Y-9362500D01*
X23800000Y-6462500D02*
X23862500Y-6612500D01*
X22975000Y-5500000D02*
X23800000Y-6462500D01*
X23925000Y-8750000D02*
X24100000Y-9000000D01*
X24637500Y-9362500D02*
X25750000Y-9675000D01*
X25750000Y-9675000D02*
X26000000Y-9925000D01*
%TO.N,PORT_B_RX_MCU*%
X27750000Y-13750000D02*
X28475000Y-12600000D01*
%TO.N,+5V_PERIPH*%
D71*
X31400000Y-12550000D02*
X29200000Y-12600000D01*
X15700000Y-4230000D02*
X16399999Y-4230000D01*
X30375000Y-20100000D02*
X30050000Y-22700000D01*
D72*
X22200000Y-15690000D02*
X22100000Y-15090000D01*
D71*
X25475000Y-5500000D02*
X25550000Y-7050000D01*
X15700000Y-4230000D02*
X15835000Y-5500000D01*
%TO.N,ADC_BUS*%
D72*
X23050000Y-16837500D02*
X23150000Y-16925000D01*
X21095000Y-17985000D02*
X21450000Y-18240000D01*
X20810000Y-17590000D02*
X21095000Y-17985000D01*
X23012500Y-17800000D02*
X22787500Y-17850000D01*
X22237500Y-17900000D02*
X21450000Y-18240000D01*
X23150000Y-16925000D02*
X23237500Y-17037500D01*
X23287500Y-17462500D02*
X23187500Y-17637500D01*
X22200000Y-16710000D02*
X22900000Y-16762500D01*
X23300000Y-17225000D02*
X23287500Y-17462500D01*
X23187500Y-17637500D02*
X23012500Y-17800000D01*
X23237500Y-17037500D02*
X23300000Y-17225000D01*
X22787500Y-17850000D02*
X22237500Y-17900000D01*
X22900000Y-16762500D02*
X23050000Y-16837500D01*
%TO.N,SBUS_EXT*%
D73*
X25500000Y-23000000D02*
X25050000Y-23700000D01*
X25050000Y-23700000D02*
X25025000Y-24200000D01*
X25100000Y-24375000D02*
X25225000Y-24500000D01*
X25550000Y-24525000D02*
X26200000Y-24500000D01*
X25025000Y-24200000D02*
X25100000Y-24375000D01*
X25225000Y-24500000D02*
X25550000Y-24525000D01*
%TO.N,LED_RED_K*%
X32600000Y-9800000D02*
X32993876Y-9876359D01*
X30600000Y-9800000D02*
X32600000Y-9800000D01*
X28604527Y-9676289D02*
X30200000Y-10100000D01*
X30200000Y-10100000D02*
X30600000Y-9800000D01*
X39800000Y-19800000D02*
X40700000Y-20712500D01*
%TO.N,D2_A*%
X40700000Y-22287500D02*
X40600000Y-23490000D01*
%TO.N,NRST*%
X9150000Y-375000D02*
X9910000Y-900000D01*
X2200000Y-770000D02*
X6350000Y-387500D01*
X8250000Y-2475000D02*
X9910000Y-900000D01*
X7500000Y-375000D02*
X9150000Y-375000D01*
X8625000Y-7275000D02*
X8250000Y-6975000D01*
X8025000Y-6450000D02*
X8025000Y-2850000D01*
D72*
X17320000Y-15000000D02*
X17534999Y-15650000D01*
D73*
X8025000Y-2850000D02*
X8250000Y-2475000D01*
X6350000Y-387500D02*
X7500000Y-375000D01*
X9525000Y-7500000D02*
X8625000Y-7275000D01*
X8250000Y-6975000D02*
X8025000Y-6450000D01*
%TO.N,CORE_MUX_ST*%
D72*
X35100000Y-6900000D02*
X35500000Y-6500000D01*
D73*
X31895000Y-7600000D02*
X32400000Y-7650000D01*
D72*
X33490000Y-6400000D02*
X34300000Y-7000000D01*
D73*
X32400000Y-7650000D02*
X33424999Y-7650000D01*
X33424999Y-7650000D02*
X33600000Y-7550000D01*
D72*
X34300000Y-7000000D02*
X35100000Y-6900000D01*
D73*
X33600000Y-7550000D02*
X34300000Y-7000000D01*
%TO.N,CORE_PRIORITY*%
D72*
X34510000Y-6400000D02*
X35100000Y-6000000D01*
%TO.N,USB_N*%
D80*
X26540830Y-15657150D02*
X28940830Y-13257150D01*
X24700000Y-15500000D02*
X25300000Y-15657150D01*
X40100000Y-13250000D02*
X40485000Y-13250000D01*
X34000000Y-12757150D02*
X34000000Y-12300000D01*
X28940830Y-13257150D02*
X33500000Y-13257150D01*
X36600000Y-12750000D02*
X36400000Y-12550000D01*
X35000000Y-12100000D02*
X35420000Y-12520000D01*
X38200000Y-12650000D02*
X38550000Y-12650000D01*
X40000000Y-13350000D02*
X40100000Y-13250000D01*
X37515000Y-12750000D02*
X36600000Y-12750000D01*
X34000000Y-12300000D02*
X34200000Y-12100000D01*
X35420000Y-12520000D02*
X35420000Y-12550000D01*
X36400000Y-12550000D02*
X35420000Y-12550000D01*
X33500000Y-13257150D02*
X34000000Y-12757150D01*
X25300000Y-15657150D02*
X25600000Y-15657150D01*
X34200000Y-12100000D02*
X35000000Y-12100000D01*
X39350000Y-13350000D02*
X40000000Y-13350000D01*
X38100000Y-12750000D02*
X38200000Y-12650000D01*
X37515000Y-12750000D02*
X38100000Y-12750000D01*
X25600000Y-15657150D02*
X26540830Y-15657150D01*
%TO.N,+3V3_IMU*%
D70*
X23100000Y-13300000D02*
X22900000Y-13200000D01*
D81*
X26062500Y-11520000D02*
X26650000Y-11950000D01*
D70*
X22709999Y-12512500D02*
X22700000Y-12900000D01*
D81*
X26800000Y-12300000D02*
X26800000Y-12800000D01*
X26800000Y-12800000D02*
X26100000Y-13520000D01*
D70*
X24075000Y-15500000D02*
X23600000Y-14850000D01*
X22700000Y-12900000D02*
X22900000Y-13200000D01*
X24372499Y-12350000D02*
X24850000Y-12350000D01*
X25425000Y-12025000D02*
X25750000Y-11925000D01*
X23600000Y-14850000D02*
X22984999Y-14200000D01*
X24850000Y-12350000D02*
X25425000Y-12025000D01*
D81*
X26650000Y-11950000D02*
X26800000Y-12300000D01*
D70*
X25750000Y-11925000D02*
X26062500Y-11520000D01*
D72*
X18690000Y-18000000D02*
X19175000Y-17525000D01*
D70*
X22900000Y-13200000D02*
X22984999Y-14200000D01*
%TO.N,IMU_CS*%
D73*
X23700000Y-9800000D02*
X23709999Y-10200000D01*
D68*
X19710000Y-18000000D02*
X20300000Y-18100000D01*
D73*
X23709999Y-10200000D02*
X23709999Y-10687500D01*
%TO.N,CORE_BUCK_IN*%
D71*
X31375000Y-7100000D02*
X31160000Y-7700000D01*
X31160000Y-7700000D02*
X31225000Y-8350000D01*
%TO.N,ADC_DIV_MID*%
D72*
X21650000Y-18700000D02*
X22550000Y-18390000D01*
X20810000Y-18610000D02*
X21425000Y-18712500D01*
X21425000Y-18712500D02*
X21650000Y-18700000D01*
%TO.N,+3V3_ANALOG*%
D70*
X14050000Y-14460000D02*
X13520000Y-13500000D01*
%TO.N,RPM_EXT*%
D73*
X9140000Y-19150000D02*
X7550000Y-22850000D01*
X7550000Y-22850000D02*
X6500000Y-24500000D01*
%TO.N,USB_LIMITED*%
D71*
X13800000Y-4300000D02*
X14750000Y-3050000D01*
D72*
X35940000Y-5050000D02*
X36450000Y-6000000D01*
D71*
X27870000Y-6250000D02*
X28140000Y-7300000D01*
X14750000Y-2400000D02*
X12950000Y-600000D01*
X14750000Y-3050000D02*
X14750000Y-2400000D01*
%TO.N,CORE_REF*%
D73*
X35300000Y-5600000D02*
X34660000Y-5400000D01*
D72*
X34510000Y-4400000D02*
X34660000Y-5400000D01*
D73*
X36350000Y-6700000D02*
X35300000Y-5600000D01*
%TO.N,PORT_A_RX_EXT*%
X22300000Y-8175000D02*
X21025000Y-6700000D01*
X21825000Y-6650000D02*
X22500000Y-7382500D01*
X22500000Y-8317500D02*
X22300000Y-8175000D01*
X13335000Y-5500000D02*
X12800000Y-3550000D01*
X13000000Y-2550000D02*
X12975000Y-2175000D01*
X12825000Y-2875000D02*
X12950000Y-2750000D01*
X12375000Y-1450000D02*
X12375000Y-1000000D01*
X19625000Y-5375000D02*
X21825000Y-6650000D01*
X12425000Y-1625000D02*
X12375000Y-1450000D01*
X22500000Y-8217499D02*
X22500000Y-7382500D01*
X12975000Y-2175000D02*
X12425000Y-1625000D01*
X12800000Y-3550000D02*
X12825000Y-2875000D01*
X12950000Y-2750000D02*
X13000000Y-2550000D01*
%TO.N,PORT_A_TX_EXT*%
X21687500Y-9600000D02*
X21400000Y-9750000D01*
X22725000Y-8725000D02*
X22625000Y-8787500D01*
X22625000Y-8787500D02*
X22000000Y-8887500D01*
X14575000Y-4099999D02*
X15000000Y-4350000D01*
X22575000Y-6675000D02*
X23000000Y-7382500D01*
X21400000Y-9750000D02*
X21025000Y-9860000D01*
X23000000Y-8317500D02*
X22725000Y-8725000D01*
X14585000Y-5500000D02*
X14575000Y-4099999D01*
X22000000Y-8887500D02*
X21862500Y-8975000D01*
X23000000Y-8217499D02*
X23000000Y-7382500D01*
X21717500Y-9275000D02*
X21687500Y-9600000D01*
X21862500Y-8975000D02*
X21737500Y-9100000D01*
X21737500Y-9100000D02*
X21717500Y-9275000D01*
%TO.N,RPM_LV*%
X11750000Y-25012500D02*
X11950000Y-24825000D01*
X7875000Y-23150000D02*
X7087500Y-24162500D01*
X11950000Y-24825000D02*
X13137500Y-23637500D01*
X7050000Y-24300000D02*
X7050000Y-24737500D01*
X11600000Y-25075000D02*
X11750000Y-25012500D01*
X20700000Y-20625000D02*
X20500000Y-20312500D01*
X24087500Y-25012500D02*
X24275000Y-24937500D01*
X7550000Y-24950000D02*
X11600000Y-25075000D01*
X12043750Y-20818750D02*
X12375000Y-21131250D01*
X24275000Y-24937500D02*
X24600000Y-24650000D01*
X19687500Y-20487500D02*
X19687500Y-20650000D01*
X7100000Y-24850000D02*
X7212500Y-24937500D01*
X23925000Y-25025000D02*
X24087500Y-25012500D01*
X20887500Y-24337500D02*
X21037500Y-24412500D01*
X12437500Y-21237500D02*
X13212500Y-23225000D01*
X24490000Y-24000000D02*
X24600000Y-24650000D01*
X13137500Y-23637500D02*
X13225000Y-23462500D01*
X12375000Y-21131250D02*
X12437500Y-21237500D01*
X20500000Y-20312500D02*
X20212500Y-20150000D01*
X13225000Y-23462500D02*
X13212500Y-23225000D01*
X19687500Y-20650000D02*
X19962500Y-21637500D01*
X19962500Y-21637500D02*
X20775000Y-24212500D01*
X20775000Y-24212500D02*
X20887500Y-24337500D01*
X21037500Y-24412500D02*
X23925000Y-25025000D01*
X7050000Y-24737500D02*
X7100000Y-24850000D01*
X20212500Y-20150000D02*
X19975000Y-20162500D01*
X19975000Y-20162500D02*
X19837500Y-20250000D01*
X19762500Y-20325000D02*
X19687500Y-20487500D01*
X19837500Y-20250000D02*
X19762500Y-20325000D01*
X7087500Y-24162500D02*
X7050000Y-24300000D01*
X7212500Y-24937500D02*
X7550000Y-24950000D01*
%TO.N,RPM_HV*%
X7500000Y-24500000D02*
X10800000Y-24500000D01*
X21050000Y-22837500D02*
X21150000Y-24000000D01*
%TO.N,LED_GREEN_K*%
D68*
X5330000Y-23150000D02*
X5187500Y-24530000D01*
%TO.N,PORT_B_TX_EXT*%
D73*
X24225000Y-5500000D02*
X24500000Y-7382500D01*
X25362500Y-8662500D02*
X25587500Y-8650000D01*
X25762500Y-8550000D02*
X25970000Y-8275000D01*
X25970000Y-8275000D02*
X26100000Y-9450000D01*
X24575000Y-8430000D02*
X24850000Y-8162500D01*
X26100000Y-9450000D02*
X27800000Y-11165000D01*
X25175000Y-8587500D02*
X25362500Y-8662500D01*
X25062500Y-8500000D02*
X25175000Y-8587500D01*
X24500000Y-7382500D02*
X24500000Y-8217499D01*
X24850000Y-8162500D02*
X25062500Y-8500000D01*
X25587500Y-8650000D02*
X25762500Y-8550000D01*
%TO.N,+3V3_DSM*%
D71*
X17550000Y-24000000D02*
X17750000Y-24350000D01*
X16994150Y-21174742D02*
X18750000Y-21250000D01*
X18100000Y-24550000D02*
X20600000Y-24800000D01*
X17750000Y-24350000D02*
X18100000Y-24550000D01*
X17550000Y-22050000D02*
X17550000Y-24000000D01*
%TO.N,DSM_RX_EXT*%
D73*
X9000000Y-24100000D02*
X10700000Y-22200000D01*
X13710000Y-20850000D02*
X13050000Y-19500000D01*
X10700000Y-21800000D02*
X11731250Y-20537500D01*
X11731250Y-20537500D02*
X12018750Y-20268750D01*
X8700000Y-24200000D02*
X9000000Y-24100000D01*
X10700000Y-22200000D02*
X10700000Y-21800000D01*
X12106250Y-20256250D02*
X12237500Y-20181250D01*
X12018750Y-20268750D02*
X12106250Y-20256250D01*
X12237500Y-20181250D02*
X13050000Y-19500000D01*
X8100000Y-23800000D02*
X8700000Y-24200000D01*
%TO.N,SBUS_HV*%
X24000000Y-23500000D02*
X22950000Y-22837500D01*
X23950000Y-21450000D02*
X24400000Y-22000000D01*
X24450000Y-22225000D02*
X24375000Y-22450000D01*
X25500000Y-22000000D02*
X25000000Y-22550000D01*
X23600000Y-20650000D02*
X23950000Y-21450000D01*
X24375000Y-22450000D02*
X24200000Y-22600000D01*
X24200000Y-22600000D02*
X22950000Y-22837500D01*
X24400000Y-22000000D02*
X24450000Y-22225000D01*
X25000000Y-22550000D02*
X24000000Y-23500000D01*
%TO.N,USB_VBUS_RAW*%
D70*
X35900000Y-12190000D02*
X35400000Y-11690000D01*
D72*
X34200000Y-11690000D02*
X34080000Y-11785000D01*
D70*
X40485000Y-11750000D02*
X40485000Y-11000000D01*
D72*
X34080000Y-11785000D02*
X33800000Y-12050000D01*
D71*
X37515000Y-14900000D02*
X40485000Y-14900000D01*
D70*
X40485000Y-14250000D02*
X40485000Y-14900000D01*
X35400000Y-11690000D02*
X34200000Y-11690000D01*
D71*
X31330000Y-10300000D02*
X30800000Y-10300000D01*
D70*
X37515000Y-14250000D02*
X37515000Y-14900000D01*
X36750000Y-11750000D02*
X36550000Y-12190000D01*
X33500000Y-12100000D02*
X32900000Y-12100000D01*
X36550000Y-12190000D02*
X35900000Y-12190000D01*
D72*
X33800000Y-12050000D02*
X33500000Y-12100000D01*
D70*
X37515000Y-11750000D02*
X36750000Y-11750000D01*
%TO.N,USB_CC1*%
D68*
X36738000Y-15782000D02*
X36738000Y-13802000D01*
X35700000Y-16820000D02*
X36738000Y-15782000D01*
X36790000Y-13750000D02*
X37515000Y-13750000D01*
X34650000Y-16810000D02*
X35700000Y-16820000D01*
X36738000Y-13802000D02*
X36790000Y-13750000D01*
%TO.N,USB_P*%
D80*
X32299999Y-13542850D02*
X32400000Y-13642850D01*
X26659170Y-15942850D02*
X29059170Y-13542850D01*
X32549999Y-14200000D02*
X33700000Y-14200000D01*
X34900000Y-15000000D02*
X35420000Y-14480000D01*
X36000000Y-13850000D02*
X35420000Y-13850000D01*
X25600000Y-15942850D02*
X26659170Y-15942850D01*
X35420000Y-14480000D02*
X35420000Y-13850000D01*
X34500000Y-15000000D02*
X34900000Y-15000000D01*
X39100000Y-12750000D02*
X40485000Y-12750000D01*
X38600000Y-13250000D02*
X39100000Y-12750000D01*
X32400000Y-13642850D02*
X32400000Y-14050000D01*
X36600000Y-13250000D02*
X36000000Y-13850000D01*
X37515000Y-13250000D02*
X36600000Y-13250000D01*
X33700000Y-14200000D02*
X34500000Y-15000000D01*
X32400000Y-14050000D02*
X32549999Y-14200000D01*
X29059170Y-13542850D02*
X32299999Y-13542850D01*
X24700000Y-16100000D02*
X25300000Y-15942850D01*
X25300000Y-15942850D02*
X25600000Y-15942850D01*
X37515000Y-13250000D02*
X38600000Y-13250000D01*
%TO.N,BOOT0*%
D68*
X25894444Y-18305556D02*
X25894400Y-18105600D01*
D72*
X25150000Y-18050000D02*
X25894444Y-18305556D01*
X20300000Y-19200000D02*
X21600000Y-19150000D01*
X18859999Y-20145833D02*
X20300000Y-19200000D01*
X24000000Y-18100000D02*
X24150000Y-17975000D01*
X23925000Y-18225000D02*
X24000000Y-18100000D01*
X24150000Y-17975000D02*
X24700000Y-17950000D01*
X21600000Y-19150000D02*
X22150000Y-18900000D01*
X24700000Y-17950000D02*
X25150000Y-18050000D01*
X22150000Y-18900000D02*
X23250000Y-18900000D01*
D73*
X19209999Y-20575000D02*
X17110000Y-18000000D01*
D72*
X23250000Y-18900000D02*
X23925000Y-18225000D01*
%TO.N,IMU_MISO*%
D73*
X21400000Y-10850000D02*
X21250000Y-10425000D01*
X22047499Y-10850000D02*
X21400000Y-10850000D01*
%TO.N,IMU_INT*%
D68*
X21050000Y-15075000D02*
X21500000Y-15275000D01*
X21675000Y-15500000D02*
X21675000Y-15950000D01*
X21850000Y-16149999D02*
X22875000Y-16274999D01*
X20800000Y-14900000D02*
X21050000Y-15075000D01*
X21675000Y-15950000D02*
X21850000Y-16149999D01*
X20700000Y-13675000D02*
X20700000Y-14700000D01*
X21500000Y-15275000D02*
X21675000Y-15500000D01*
X20700000Y-14700000D02*
X20800000Y-14900000D01*
X20725000Y-13475000D02*
X20700000Y-13675000D01*
X21400000Y-12350000D02*
X20725000Y-13475000D01*
X22047499Y-12350000D02*
X21400000Y-12350000D01*
%TO.N,IMU_SCK*%
D73*
X23025000Y-10025000D02*
X22800000Y-9500000D01*
X23209999Y-10687500D02*
X23025000Y-10025000D01*
%TO.N,IMU_MOSI*%
X22600000Y-10275000D02*
X22525000Y-10200000D01*
X22525000Y-10200000D02*
X22250000Y-9900000D01*
X22709999Y-10687500D02*
X22600000Y-10275000D01*
%TO.N,PORT_A_TX_MCU*%
X19650000Y-10000000D02*
X20375000Y-9860000D01*
%TO.N,SERVO1_MCU*%
X29987500Y-18000000D02*
X31130000Y-18025000D01*
X38850000Y-21800000D02*
X38900000Y-22025000D01*
X30875000Y-20650000D02*
X30875000Y-19300000D01*
X30450000Y-18200000D02*
X29987500Y-18000000D01*
X38900000Y-22025000D02*
X38300000Y-24700000D01*
X31130000Y-21050000D02*
X31400000Y-22000000D01*
X38550000Y-21550000D02*
X38750000Y-21675000D01*
X31400000Y-22000000D02*
X38550000Y-21550000D01*
X38750000Y-21675000D02*
X38850000Y-21800000D01*
X30875000Y-18500000D02*
X30450000Y-18200000D01*
X30800000Y-22000000D02*
X30875000Y-20650000D01*
X31130000Y-18025000D02*
X31130000Y-21050000D01*
X30875000Y-19300000D02*
X30875000Y-18500000D01*
%TO.N,SERVO2_MCU*%
X28850000Y-16059999D02*
X29450000Y-16100000D01*
X29675000Y-14800000D02*
X29987500Y-16100000D01*
%TO.N,SERVO3_MCU*%
X27312500Y-16300000D02*
X27712500Y-16100000D01*
X26862500Y-16787500D02*
X26950000Y-16662500D01*
X26712500Y-18350000D02*
X26862500Y-16787500D01*
X26950000Y-16662500D02*
X27312500Y-16300000D01*
X29400000Y-14000000D02*
X27712500Y-16100000D01*
%TO.N,TAIL_MCU*%
X26837500Y-19037500D02*
X26662500Y-19025000D01*
X2529324Y-3991056D02*
X3033307Y-1959430D01*
X26325000Y-17975000D02*
X26225000Y-17812500D01*
X27450000Y-18150000D02*
X27250000Y-18500000D01*
X26325000Y-17975000D02*
X26325000Y-18100000D01*
X2800000Y-12200000D02*
X2267889Y-11318145D01*
X24062500Y-17687500D02*
X23937500Y-17762500D01*
X27250000Y-18500000D02*
X27245000Y-18620000D01*
X23937500Y-17762500D02*
X23375000Y-18125000D01*
X26987500Y-19000000D02*
X26837500Y-19037500D01*
X3400000Y-1800000D02*
X3400000Y-1250000D01*
X26087500Y-17700000D02*
X25887500Y-17662500D01*
X26450000Y-18925000D02*
X26662500Y-19025000D01*
X3181133Y-7367176D02*
X2729360Y-7206506D01*
X2729360Y-7206506D02*
X2607160Y-5600352D01*
X26303450Y-18227800D02*
X26275000Y-18500000D01*
X27125000Y-18900000D02*
X26987500Y-19000000D01*
X2267889Y-11318145D02*
X2433139Y-9704240D01*
X3023592Y-8267228D02*
X4221750Y-8022376D01*
X27235000Y-18780000D02*
X27125000Y-18900000D01*
X27245000Y-18620000D02*
X27235000Y-18780000D01*
X3033307Y-1959430D02*
X3400000Y-1800000D01*
X2433139Y-9704240D02*
X3023592Y-8267228D01*
X25887500Y-17662500D02*
X24412500Y-17650000D01*
X4221750Y-8022376D02*
X3181133Y-7367176D01*
X24412500Y-17650000D02*
X24062500Y-17687500D01*
X26225000Y-17812500D02*
X26087500Y-17700000D01*
X26275000Y-18500000D02*
X26450000Y-18925000D01*
X26325000Y-18100000D02*
X26303450Y-18227800D01*
X2607160Y-5600352D02*
X2529324Y-3991056D01*
X27550000Y-19087500D02*
X27800000Y-18000000D01*
%TO.N,PORT_C_RX_MCU*%
X27675000Y-20435000D02*
X28730000Y-19155000D01*
X28730000Y-19155000D02*
X29050000Y-18890000D01*
%TO.N,ESC_MCU*%
D68*
X2400000Y-18700000D02*
X2300000Y-20500000D01*
X23125000Y-21887500D02*
X23587500Y-22025000D01*
X21962500Y-21912500D02*
X23125000Y-21887500D01*
X23587500Y-22025000D02*
X24000000Y-22200000D01*
X2100000Y-17200000D02*
X2400000Y-18700000D01*
X20500000Y-21800000D02*
X21962500Y-21912500D01*
X2200000Y-23000000D02*
X2900000Y-23900000D01*
X20200000Y-21500000D02*
X20500000Y-21800000D01*
X2300000Y-20500000D02*
X2200000Y-23000000D01*
X20109999Y-20575000D02*
X20200000Y-21500000D01*
%TO.N,FLASH_WP_N*%
X29700000Y-23100000D02*
X32750000Y-24650000D01*
X28560000Y-21425000D02*
X29700000Y-23100000D01*
%TO.N,FLASH_MOSI*%
X35550000Y-19470000D02*
X39100000Y-20095000D01*
%TO.N,FLASH_HOLD_N*%
X36400000Y-23400000D02*
X37200000Y-22500000D01*
X37200000Y-22500000D02*
X38450000Y-22000000D01*
X35800000Y-24550000D02*
X36400000Y-23400000D01*
%TD*%
%TA.AperFunction,Conductor*%
%TO.N,GND*%
G36*
X26339896Y-12643306D02*
G01*
X26358202Y-12687500D01*
X26340514Y-12731067D01*
X25988084Y-13093567D01*
X25944152Y-13112494D01*
X25943272Y-13112500D01*
X25903652Y-13112500D01*
X25825628Y-13128019D01*
X25825624Y-13128021D01*
X25737143Y-13187143D01*
X25678021Y-13275624D01*
X25678019Y-13275628D01*
X25662500Y-13353651D01*
X25662500Y-13686348D01*
X25678019Y-13764371D01*
X25678020Y-13764373D01*
X25737143Y-13852857D01*
X25825627Y-13911980D01*
X25903652Y-13927500D01*
X26296348Y-13927500D01*
X26374373Y-13911980D01*
X26374373Y-13911979D01*
X26375307Y-13911794D01*
X26422223Y-13921126D01*
X26448799Y-13960900D01*
X26450000Y-13973093D01*
X26450000Y-14787500D01*
X26431694Y-14831694D01*
X26387500Y-14850000D01*
X25712830Y-14850000D01*
X25688210Y-14844946D01*
X25521418Y-14773463D01*
X25488008Y-14739229D01*
X25488592Y-14691397D01*
X25514787Y-14661892D01*
X25566440Y-14632070D01*
X25632070Y-14566440D01*
X25678478Y-14486060D01*
X25702500Y-14396408D01*
X25702500Y-14303592D01*
X25678478Y-14213940D01*
X25678477Y-14213937D01*
X25632070Y-14133560D01*
X25632065Y-14133554D01*
X25566445Y-14067934D01*
X25566439Y-14067929D01*
X25486062Y-14021522D01*
X25486059Y-14021521D01*
X25396414Y-13997501D01*
X25396409Y-13997500D01*
X25396408Y-13997500D01*
X25303592Y-13997500D01*
X25303591Y-13997500D01*
X25303585Y-13997501D01*
X25213940Y-14021521D01*
X25213937Y-14021522D01*
X25133560Y-14067929D01*
X25133554Y-14067934D01*
X25067934Y-14133554D01*
X25067929Y-14133560D01*
X25021522Y-14213937D01*
X25021521Y-14213940D01*
X24997501Y-14303585D01*
X24997500Y-14303593D01*
X24997500Y-14396406D01*
X24997501Y-14396414D01*
X25017573Y-14471324D01*
X25011330Y-14518750D01*
X24973379Y-14547870D01*
X24957203Y-14550000D01*
X23725084Y-14550000D01*
X23680890Y-14531694D01*
X23679719Y-14530491D01*
X23579597Y-14424671D01*
X23562498Y-14381718D01*
X23562498Y-13933466D01*
X23580804Y-13889272D01*
X23624998Y-13870966D01*
X23641174Y-13873096D01*
X23685684Y-13885022D01*
X23713592Y-13892500D01*
X23713593Y-13892500D01*
X23806407Y-13892500D01*
X23806408Y-13892500D01*
X23896060Y-13868478D01*
X23976440Y-13822070D01*
X24042070Y-13756440D01*
X24088478Y-13676060D01*
X24112500Y-13586408D01*
X24112500Y-13493592D01*
X24088478Y-13403940D01*
X24088477Y-13403937D01*
X24042070Y-13323560D01*
X24042065Y-13323554D01*
X23976445Y-13257934D01*
X23976439Y-13257929D01*
X23904901Y-13216626D01*
X23875781Y-13178676D01*
X23882026Y-13131249D01*
X23919976Y-13102129D01*
X23936152Y-13100000D01*
X24960000Y-13100000D01*
X24960000Y-12687500D01*
X24978306Y-12643306D01*
X25022500Y-12625000D01*
X26295702Y-12625000D01*
X26339896Y-12643306D01*
G37*
%TD.AperFunction*%
%TD*%
%TA.AperFunction,Conductor*%
%TO.N,VX_RAW*%
G36*
X7721265Y-2318306D02*
G01*
X7739571Y-2362500D01*
X7734664Y-2386775D01*
X7603596Y-2697740D01*
X7603329Y-2698234D01*
X7586377Y-2738596D01*
X7586346Y-2738668D01*
X7571737Y-2773326D01*
X7571691Y-2773555D01*
X7571688Y-2773565D01*
X7571501Y-2811597D01*
X7571501Y-2811675D01*
X7571232Y-2855081D01*
X7571284Y-2855644D01*
X7559217Y-5305090D01*
X7559000Y-5307259D01*
X7559000Y-5349389D01*
X7558999Y-5349698D01*
X7558790Y-5391841D01*
X7559000Y-5394017D01*
X7559000Y-6506226D01*
X7558178Y-6516330D01*
X7557820Y-6518509D01*
X7558964Y-6552178D01*
X7559000Y-6554299D01*
X7559000Y-6587995D01*
X7559430Y-6590158D01*
X7559472Y-6590520D01*
X7559780Y-6591945D01*
X7559896Y-6592304D01*
X7560399Y-6594452D01*
X7574345Y-6625133D01*
X7575190Y-6627078D01*
X7588077Y-6658192D01*
X7589299Y-6660020D01*
X7594232Y-6668883D01*
X7816306Y-7157447D01*
X7820115Y-7168448D01*
X7823508Y-7182310D01*
X7823511Y-7182315D01*
X7830471Y-7191807D01*
X7836965Y-7202899D01*
X7841838Y-7213619D01*
X7841842Y-7213624D01*
X7852272Y-7223370D01*
X7860001Y-7232076D01*
X7927352Y-7323917D01*
X8087900Y-7542846D01*
X8100000Y-7579805D01*
X8100000Y-9897203D01*
X8081694Y-9941397D01*
X8037500Y-9959703D01*
X8021324Y-9957573D01*
X7946414Y-9937501D01*
X7946409Y-9937500D01*
X7946408Y-9937500D01*
X7853592Y-9937500D01*
X7853591Y-9937500D01*
X7853585Y-9937501D01*
X7763940Y-9961521D01*
X7763937Y-9961522D01*
X7683560Y-10007929D01*
X7683554Y-10007934D01*
X7617934Y-10073554D01*
X7617929Y-10073560D01*
X7571522Y-10153937D01*
X7571521Y-10153940D01*
X7547501Y-10243585D01*
X7547500Y-10243593D01*
X7547500Y-10336406D01*
X7547501Y-10336414D01*
X7571521Y-10426059D01*
X7571522Y-10426062D01*
X7617929Y-10506439D01*
X7617934Y-10506445D01*
X7683554Y-10572065D01*
X7683560Y-10572070D01*
X7763937Y-10618477D01*
X7763940Y-10618478D01*
X7853592Y-10642500D01*
X7853593Y-10642500D01*
X7946407Y-10642500D01*
X7946408Y-10642500D01*
X7946416Y-10642498D01*
X7953057Y-10640718D01*
X8021324Y-10622426D01*
X8068749Y-10628669D01*
X8097870Y-10666619D01*
X8100000Y-10682796D01*
X8100000Y-15789823D01*
X8081694Y-15834017D01*
X8037500Y-15852323D01*
X8013594Y-15847570D01*
X8011065Y-15846523D01*
X7921414Y-15822501D01*
X7921409Y-15822500D01*
X7921408Y-15822500D01*
X7828592Y-15822500D01*
X7828591Y-15822500D01*
X7828585Y-15822501D01*
X7738940Y-15846521D01*
X7738937Y-15846522D01*
X7658560Y-15892929D01*
X7658554Y-15892934D01*
X7592934Y-15958554D01*
X7592929Y-15958560D01*
X7546522Y-16038937D01*
X7546521Y-16038940D01*
X7522501Y-16128585D01*
X7522500Y-16128593D01*
X7522500Y-16221406D01*
X7522501Y-16221414D01*
X7546521Y-16311059D01*
X7546522Y-16311062D01*
X7592929Y-16391439D01*
X7592934Y-16391445D01*
X7658554Y-16457065D01*
X7658560Y-16457070D01*
X7738937Y-16503477D01*
X7738940Y-16503478D01*
X7828592Y-16527500D01*
X7828593Y-16527500D01*
X7921407Y-16527500D01*
X7921408Y-16527500D01*
X8011060Y-16503478D01*
X8011065Y-16503475D01*
X8013586Y-16502432D01*
X8014964Y-16502432D01*
X8015017Y-16502418D01*
X8015020Y-16502432D01*
X8061421Y-16502435D01*
X8095244Y-16536262D01*
X8100000Y-16560176D01*
X8100000Y-16612712D01*
X8081694Y-16656906D01*
X8068751Y-16666838D01*
X8023560Y-16692929D01*
X8023554Y-16692934D01*
X7957934Y-16758554D01*
X7957929Y-16758560D01*
X7911522Y-16838937D01*
X7911521Y-16838940D01*
X7887501Y-16928585D01*
X7887500Y-16928593D01*
X7887500Y-17021406D01*
X7887501Y-17021414D01*
X7911521Y-17111059D01*
X7911522Y-17111062D01*
X7957929Y-17191439D01*
X7957934Y-17191445D01*
X8023554Y-17257065D01*
X8023560Y-17257070D01*
X8068750Y-17283161D01*
X8097870Y-17321109D01*
X8100000Y-17337286D01*
X8100000Y-19485000D01*
X8081694Y-19529194D01*
X8037500Y-19547500D01*
X7953592Y-19547500D01*
X7953591Y-19547500D01*
X7953585Y-19547501D01*
X7863940Y-19571521D01*
X7863937Y-19571522D01*
X7783560Y-19617929D01*
X7783554Y-19617934D01*
X7717934Y-19683554D01*
X7717929Y-19683560D01*
X7671522Y-19763937D01*
X7671521Y-19763940D01*
X7647501Y-19853585D01*
X7647500Y-19853593D01*
X7647500Y-19946406D01*
X7647501Y-19946414D01*
X7671521Y-20036059D01*
X7671522Y-20036062D01*
X7717929Y-20116439D01*
X7717934Y-20116445D01*
X7783554Y-20182065D01*
X7783560Y-20182070D01*
X7863937Y-20228477D01*
X7863940Y-20228478D01*
X7953592Y-20252500D01*
X7953593Y-20252500D01*
X8037500Y-20252500D01*
X8081694Y-20270806D01*
X8100000Y-20315000D01*
X8100000Y-21073496D01*
X8094922Y-21098172D01*
X7382584Y-22755813D01*
X7377891Y-22764692D01*
X7182934Y-23071055D01*
X7143763Y-23098512D01*
X7130205Y-23100000D01*
X5729496Y-23100000D01*
X5685302Y-23081694D01*
X5669126Y-23053677D01*
X5664404Y-23036057D01*
X5658478Y-23013940D01*
X5658477Y-23013938D01*
X5658477Y-23013937D01*
X5612070Y-22933560D01*
X5612065Y-22933554D01*
X5546445Y-22867934D01*
X5546439Y-22867929D01*
X5466062Y-22821522D01*
X5466059Y-22821521D01*
X5376414Y-22797501D01*
X5376409Y-22797500D01*
X5376408Y-22797500D01*
X5283592Y-22797500D01*
X5283591Y-22797500D01*
X5283585Y-22797501D01*
X5193940Y-22821521D01*
X5193934Y-22821524D01*
X5193744Y-22821634D01*
X5193634Y-22821648D01*
X5190151Y-22823091D01*
X5189764Y-22822157D01*
X5146317Y-22827873D01*
X5108370Y-22798748D01*
X5100000Y-22767504D01*
X5100000Y-22632495D01*
X5118306Y-22588301D01*
X5162500Y-22569995D01*
X5189966Y-22577355D01*
X5190151Y-22576909D01*
X5193546Y-22578314D01*
X5193754Y-22578370D01*
X5193940Y-22578478D01*
X5283592Y-22602500D01*
X5283593Y-22602500D01*
X5376407Y-22602500D01*
X5376408Y-22602500D01*
X5466060Y-22578478D01*
X5466246Y-22578371D01*
X5515885Y-22549711D01*
X5546440Y-22532070D01*
X5612070Y-22466440D01*
X5658478Y-22386060D01*
X5682500Y-22296408D01*
X5682500Y-22203592D01*
X5658478Y-22113940D01*
X5658477Y-22113937D01*
X5612070Y-22033560D01*
X5612065Y-22033554D01*
X5546445Y-21967934D01*
X5546439Y-21967929D01*
X5466062Y-21921522D01*
X5466059Y-21921521D01*
X5376414Y-21897501D01*
X5376409Y-21897500D01*
X5376408Y-21897500D01*
X5283592Y-21897500D01*
X5283591Y-21897500D01*
X5283585Y-21897501D01*
X5193940Y-21921521D01*
X5193934Y-21921524D01*
X5193744Y-21921634D01*
X5193634Y-21921648D01*
X5190151Y-21923091D01*
X5189764Y-21922157D01*
X5146317Y-21927873D01*
X5108370Y-21898748D01*
X5100000Y-21867504D01*
X5100000Y-20482495D01*
X5118306Y-20438301D01*
X5162500Y-20419995D01*
X5189966Y-20427355D01*
X5190151Y-20426909D01*
X5193546Y-20428314D01*
X5193754Y-20428370D01*
X5193940Y-20428478D01*
X5283592Y-20452500D01*
X5283593Y-20452500D01*
X5376407Y-20452500D01*
X5376408Y-20452500D01*
X5466060Y-20428478D01*
X5466246Y-20428371D01*
X5483048Y-20418669D01*
X5546440Y-20382070D01*
X5612070Y-20316440D01*
X5658478Y-20236060D01*
X5682500Y-20146408D01*
X5682500Y-20053592D01*
X5658478Y-19963940D01*
X5658477Y-19963937D01*
X5612070Y-19883560D01*
X5612065Y-19883554D01*
X5546445Y-19817934D01*
X5546439Y-19817929D01*
X5466062Y-19771522D01*
X5466059Y-19771521D01*
X5376414Y-19747501D01*
X5376409Y-19747500D01*
X5376408Y-19747500D01*
X5283592Y-19747500D01*
X5283591Y-19747500D01*
X5283585Y-19747501D01*
X5193940Y-19771521D01*
X5193934Y-19771524D01*
X5193744Y-19771634D01*
X5193634Y-19771648D01*
X5190151Y-19773091D01*
X5189764Y-19772157D01*
X5146317Y-19777873D01*
X5108370Y-19748748D01*
X5100000Y-19717504D01*
X5100000Y-19582495D01*
X5118306Y-19538301D01*
X5162500Y-19519995D01*
X5189966Y-19527355D01*
X5190151Y-19526909D01*
X5193546Y-19528314D01*
X5193754Y-19528370D01*
X5193940Y-19528478D01*
X5283592Y-19552500D01*
X5283593Y-19552500D01*
X5376407Y-19552500D01*
X5376408Y-19552500D01*
X5466060Y-19528478D01*
X5466246Y-19528371D01*
X5483048Y-19518669D01*
X5546440Y-19482070D01*
X5612070Y-19416440D01*
X5658478Y-19336060D01*
X5682500Y-19246408D01*
X5682500Y-19153592D01*
X5658478Y-19063940D01*
X5658477Y-19063937D01*
X5612070Y-18983560D01*
X5612065Y-18983554D01*
X5546445Y-18917934D01*
X5546439Y-18917929D01*
X5466062Y-18871522D01*
X5466059Y-18871521D01*
X5376414Y-18847501D01*
X5376409Y-18847500D01*
X5376408Y-18847500D01*
X5283592Y-18847500D01*
X5283591Y-18847500D01*
X5283585Y-18847501D01*
X5193940Y-18871521D01*
X5193934Y-18871524D01*
X5193744Y-18871634D01*
X5193634Y-18871648D01*
X5190151Y-18873091D01*
X5189764Y-18872157D01*
X5146317Y-18877873D01*
X5108370Y-18848748D01*
X5100000Y-18817504D01*
X5100000Y-14592796D01*
X5118306Y-14548602D01*
X5162500Y-14530296D01*
X5178671Y-14532425D01*
X5229961Y-14546168D01*
X5253587Y-14552499D01*
X5253590Y-14552499D01*
X5253592Y-14552500D01*
X5253593Y-14552500D01*
X5346407Y-14552500D01*
X5346408Y-14552500D01*
X5436060Y-14528478D01*
X5516440Y-14482070D01*
X5582070Y-14416440D01*
X5628478Y-14336060D01*
X5652500Y-14246408D01*
X5652500Y-14153592D01*
X5628478Y-14063940D01*
X5628477Y-14063937D01*
X5582070Y-13983560D01*
X5582065Y-13983554D01*
X5516445Y-13917934D01*
X5516439Y-13917929D01*
X5436062Y-13871522D01*
X5436059Y-13871521D01*
X5346414Y-13847501D01*
X5346409Y-13847500D01*
X5346408Y-13847500D01*
X5253592Y-13847500D01*
X5253591Y-13847500D01*
X5253585Y-13847501D01*
X5178676Y-13867573D01*
X5131250Y-13861330D01*
X5102130Y-13823379D01*
X5100000Y-13807203D01*
X5100000Y-6537246D01*
X5118306Y-6493052D01*
X5162500Y-6474746D01*
X5179777Y-6478186D01*
X5179983Y-6477418D01*
X5238331Y-6493052D01*
X5273592Y-6502500D01*
X5273593Y-6502500D01*
X5366407Y-6502500D01*
X5366408Y-6502500D01*
X5456060Y-6478478D01*
X5536440Y-6432070D01*
X5602070Y-6366440D01*
X5648478Y-6286060D01*
X5672500Y-6196408D01*
X5672500Y-6103592D01*
X5648478Y-6013940D01*
X5648477Y-6013937D01*
X5602070Y-5933560D01*
X5602065Y-5933554D01*
X5536445Y-5867934D01*
X5536439Y-5867929D01*
X5456062Y-5821522D01*
X5456059Y-5821521D01*
X5366414Y-5797501D01*
X5366409Y-5797500D01*
X5366408Y-5797500D01*
X5273592Y-5797500D01*
X5273591Y-5797500D01*
X5273585Y-5797501D01*
X5179983Y-5822582D01*
X5179424Y-5820499D01*
X5138568Y-5820490D01*
X5104752Y-5786656D01*
X5100000Y-5762753D01*
X5100000Y-2362500D01*
X5118306Y-2318306D01*
X5162500Y-2300000D01*
X7677071Y-2300000D01*
X7721265Y-2318306D01*
G37*
%TD.AperFunction*%
%TD*%
M02*
