M48
; DRILL file KiCad 10.0.6 date 2026-10-07T12:36:03
; FORMAT={-:-/ absolute / metric / decimal}
; #@! TF.CreationDate,2026-10-07T12:36:03+00:00
; #@! TF.GenerationSoftware,Kicad,Pcbnew,10.0.6
; #@! TF.FileFunction,Plated,1,6,PTH
FMAT,2
METRIC
; #@! TA.AperFunction,Plated,PTH,ViaDrill
T1C0.200
; #@! TA.AperFunction,Plated,PTH,ViaDrill
T2C0.300
; #@! TA.AperFunction,Plated,PTH,ComponentDrill
T3C0.600
; #@! TA.AperFunction,Plated,PTH,ComponentDrill
T4C1.100
%
G90
G05
T1
X0.5Y-19.1
X0.5Y-22.725
X0.55Y-12.1
X0.6Y-3.0
X0.6Y-3.7
X0.6Y-5.45
X0.6Y-8.4
X0.6Y-9.0
X0.95Y-5.925
X1.565Y-23.65
X1.675Y-8.925
X1.7Y-20.3
X1.725Y-21.025
X1.75Y-2.64
X1.8Y-1.7
X1.875Y-18.325
X1.95Y-12.625
X2.0Y-16.2
X2.1Y-15.575
X2.1Y-17.2
X2.45Y-8.075
X2.725Y-22.95
X2.8Y-1.45
X2.8Y-10.4
X2.8Y-12.2
X2.8Y-19.3
X2.9Y-23.9
X2.95Y-17.95
X3.0Y-4.7
X3.05Y-7.8
X3.4Y-1.25
X4.8Y-1.5
X5.3Y-14.2
X5.32Y-6.15
X5.33Y-19.2
X5.33Y-20.1
X5.33Y-22.25
X5.33Y-23.15
X5.7Y-1.7
X5.95Y-24.0
X7.875Y-16.175
X7.875Y-23.15
X7.9Y-10.29
X8.0Y-19.9
X8.1Y-23.8
X8.24Y-16.975
X8.45Y-4.865
X8.465Y-13.525
X8.55Y-7.85
X8.6Y-4.3
X8.75Y-23.7
X9.525Y-7.5
X9.825Y-17.575
X9.95Y-13.43
X10.019Y-5.345
X10.2Y-15.35
X10.2Y-16.75
X10.2Y-19.85
X10.45Y-15.95
X10.5Y-23.6
X10.6Y-2.7
X10.8Y-24.5
X11.375Y-9.125
X11.4Y-19.75
X11.525Y-24.65
X11.975Y-19.85
X12.044Y-20.819
X12.05Y-21.4
X12.375Y-1.0
X12.5Y-2.525
X12.7Y-7.85
X12.8Y-23.375
X13.05Y-19.5
X13.52Y-13.5
X13.975Y-11.675
X13.975Y-18.275
X14.2Y-9.3
X14.5Y-20.0
X14.5Y-22.4
X14.7Y-18.1
X15.0Y-4.35
X15.075Y-24.125
X15.275Y-18.3
X15.285Y-9.55
X15.975Y-22.0
X16.0Y-20.6
X16.025Y-2.225
X16.1Y-24.0
X16.3Y-8.5
X16.38Y-15.3
X16.7Y-18.6
X16.75Y-24.84
X16.8Y-23.95
X17.05Y-13.05
X17.35Y-6.725
X17.42Y-2.1
X17.535Y-15.65
X17.61Y-11.625
X17.76Y-10.3
X17.765Y-16.19
X17.85Y-4.325
X17.95Y-6.975
X18.04Y-2.15
X18.06Y-18.375
X18.4Y-14.325
X18.515Y-12.475
X18.575Y-6.975
X18.6Y-13.5
X18.61Y-20.575
X18.71Y-9.225
X19.0Y-12.1
X19.005Y-9.795
X19.175Y-6.975
X19.175Y-17.525
X19.21Y-20.575
X19.325Y-4.6
X19.425Y-12.6
X19.625Y-5.375
X19.65Y-10.0
X19.8Y-17.31
X19.9Y-7.0
X20.11Y-20.575
X20.195Y-11.125
X20.3Y-12.275
X20.3Y-18.1
X20.35Y-12.9
X20.5Y-6.98
X20.6Y-16.21
X20.6Y-24.8
X20.7Y-9.275
X20.7Y-20.625
X21.025Y-6.7
X21.15Y-24.0
X21.25Y-10.425
X21.285Y-9.25
X21.35Y-21.262
X21.45Y-18.24
X21.49Y-17.65
X21.975Y-17.335
X22.1Y-15.09
X22.15Y-9.3
X22.25Y-9.9
X22.3Y-5.35
X22.575Y-6.675
X22.6Y-20.61
X22.8Y-9.5
X22.85Y-4.225
X22.875Y-16.275
X23.1Y-13.3
X23.375Y-18.125
X23.6Y-20.65
X23.7Y-9.8
X23.76Y-13.54
X23.95Y-24.6
X24.0Y-22.2
X24.21Y-20.575
X24.3Y-0.488
X24.3Y-21.15
X24.4Y-16.7
X24.525Y-9.85
X24.6Y-24.65
X24.7Y-15.5
X24.7Y-16.1
X24.75Y-3.65
X24.75Y-17.062
X25.2Y-4.1
X25.21Y-19.525
X25.25Y-15.025
X25.35Y-14.35
X25.375Y-11.43
X25.375Y-12.9
X25.425Y-12.025
X25.894Y-18.106
X26.0Y-0.5
X26.2Y-24.5
X26.4Y-21.5
X26.4Y-22.3
X26.475Y-8.2
X26.712Y-18.35
X26.9Y-7.8
X27.2Y-3.04
X27.55Y-19.087
X27.675Y-20.435
X27.735Y-11.75
X27.75Y-13.75
X27.8Y-11.165
X27.8Y-21.65
X28.45Y-20.7
X28.56Y-21.425
X28.605Y-9.676
X28.73Y-7.62
X28.85Y-16.06
X28.88Y-16.94
X28.9Y-11.345
X28.99Y-11.975
X29.05Y-18.89
X29.4Y-14.0
X29.45Y-21.5
X29.5Y-11.45
X29.65Y-19.05
X29.675Y-14.8
X30.12Y-14.2
X30.2Y-18.85
X30.75Y-1.93
X30.8Y-22.0
X30.85Y-3.5
X30.85Y-4.0
X31.55Y-18.89
X31.65Y-17.05
X31.895Y-7.6
X32.425Y-22.7
X32.6Y-23.3
X32.75Y-24.65
X32.994Y-9.876
X33.29Y-13.707
X33.625Y-19.1
X34.5Y-18.5
X34.51Y-14.4
X34.8Y-8.5
X35.075Y-18.425
X35.1Y-6.0
X35.5Y-6.5
X35.55Y-19.47
X35.6Y-15.2
X35.8Y-24.55
X35.95Y-19.05
X36.35Y-6.7
X36.45Y-6.0
X36.75Y-23.725
X36.75Y-24.675
X37.1Y-1.3
X37.4Y-22.975
X37.46Y-5.55
X38.3Y-6.15
X38.3Y-24.7
X38.45Y-22.0
X38.55Y-12.65
X38.9Y-12.1
X39.1Y-13.95
X39.1Y-20.095
X39.1Y-21.365
X39.2Y-23.1
X39.35Y-13.35
X39.8Y-19.8
X39.95Y-23.0
X40.5Y-19.6
T2
X1.65Y-21.95
X4.5Y-14.725
X10.55Y-3.375
X10.6Y-10.2
X10.6Y-10.8
X10.7Y-18.3
X10.7Y-18.9
X11.75Y-5.4
X11.75Y-6.0
X11.8Y-4.35
X11.8Y-18.1
X12.425Y-18.275
X12.95Y-0.6
X13.3Y-3.5
X13.55Y-9.025
X13.7Y-17.655
X13.8Y-4.3
X14.007Y-2.793
X14.5Y-18.925
X14.65Y-8.7
X14.925Y-0.575
X14.95Y-6.95
X15.7Y-4.23
X15.9Y-22.85
X16.0Y-6.85
X16.4Y-4.23
X16.6Y-6.97
X16.9Y-14.28
X17.55Y-1.4
X17.55Y-22.05
X17.722Y-17.11
X17.878Y-17.69
X18.75Y-21.25
X19.25Y-15.45
X19.9Y-2.1
X20.0Y-23.8
X22.1Y-2.2
X22.3Y-13.375
X22.3Y-24.075
X22.75Y-17.3
X23.25Y-21.4
X23.38Y-6.73
X23.65Y-0.6
X24.0Y-3.525
X25.375Y-2.575
X25.438Y-8.137
X25.55Y-7.05
X26.8Y-8.8
X27.37Y-7.295
X27.87Y-6.25
X28.04Y-21.0
X28.14Y-7.3
X28.25Y-10.65
X28.375Y-18.75
X28.4Y-4.0
X29.2Y-12.6
X30.05Y-22.7
X30.2Y-8.94
X30.45Y-15.25
X30.775Y-11.4
X30.8Y-10.3
X31.0Y-16.81
X31.125Y-5.45
X31.375Y-6.55
X31.375Y-7.1
X32.8Y-12.75
X32.9Y-12.1
X33.3Y-7.15
X33.6Y-24.6
X33.605Y-8.905
X34.0Y-15.5
X34.6Y-13.35
X35.2Y-4.8
X36.2Y-11.55
X37.5Y-18.575
X39.5Y-14.9
X40.485Y-11.0
T4
X4.06Y-3.15
X4.06Y-6.25
X4.06Y-9.35
X4.06Y-12.45
X4.06Y-16.05
X4.06Y-19.15
X4.06Y-22.25
X6.6Y-3.15
X6.6Y-6.25
X6.6Y-9.35
X6.6Y-12.45
X6.6Y-16.05
X6.6Y-19.15
X6.6Y-22.25
X9.14Y-3.15
X9.14Y-6.25
X9.14Y-9.35
X9.14Y-12.45
X9.14Y-16.05
X9.14Y-19.15
X9.14Y-22.25
T3
G00X37.57Y-9.25
M15
G01X37.57Y-8.75
M16
G05
G00X37.57Y-17.25
M15
G01X37.57Y-16.75
M16
G05
G00X40.43Y-9.25
M15
G01X40.43Y-8.75
M16
G05
G00X40.43Y-17.25
M15
G01X40.43Y-16.75
M16
G05
M30
